<svg xmlns="http://www.w3.org/2000/svg" width="661" height="639" fill="none" viewBox="0 0 661 639">
  <ellipse cx="373" cy="346" fill="#C0CEC2" fill-opacity=".38" rx="288" ry="292"/>
  <ellipse cx="85" cy="139.5" fill="#C0CEC2" fill-opacity=".38" rx="85" ry="85.5"/>
  <circle cx="197.5" cy="41.5" r="27.5" fill="#C0CEC2" fill-opacity=".38"/>
  <path fill="#494A4A" d="M173.841 410.502c2.424 2.182 4.794 5.304 4.978 8.642l-.064.874-1.241.032c-3.099.119-5.587.334-8.271 2.014v2.046l1.364.272c6.128 1.282 11.489 3.241 15.307 8.423 1.812 2.885 2.741 6.079 2.224 9.472-1.454 5.414-5.066 9.055-9.813 11.877-3.316 1.744-6.522 3.175-10.322 2.69-1.423-1.098-1.647-2.395-2.068-4.092l-2.068-.409-.198.812c-1.51 5.845-3.552 10.594-8.486 14.328-3.58 2.056-7.641 2.038-11.579 1.15-2.944-.795-6.383-1.906-8.271-4.424-.387-.767-.387-.767-.413-1.636.559-1.369 1.176-2.381 2.145-3.504.854-1.136.909-1.663.75-3.043-2.168.225-3.744.95-5.635 1.943-10.8 5.504-10.8 5.504-16.36 3.76-2.507-1.078-4.237-2.995-5.48-5.371-1.351-3.409-.944-6.929.432-10.263 2.649-5.133 6.433-8.423 11.328-11.346l1.241-.819c-.45-1.329-.45-1.329-1.241-2.455-2.519-.325-4.131.479-6.348 1.639-1.258.468-1.894.376-3.163-.002-.906-5.131.356-10.569 3.158-14.977 3.699-4.918 8.172-7.199 14.243-8.141 3.058-.386 5.354-.528 8.238.613l-.413 4.501c1.317 0 2.192-.124 3.145-1.064l.68-.828c3.987-4.836 9.931-7.088 16.044-7.853 6.033-.563 11.553 1.391 16.157 5.139Zm95.478-63.726c-.052 1.356-.052 1.356-.414 2.864-2.262 1.53-5.038 1.867-7.679 2.405l-1.553.322c-5.567 1.137-11.166 2.072-16.775 2.984l-3.443.567c-2.766.455-5.533.908-8.3 1.359-3.24.529-6.479 1.06-9.718 1.592-7.625 1.251-15.252 2.497-22.879 3.742l-7.687 1.255-1.113.182-2.231.364c-8.708 1.423-17.416 2.844-26.125 4.263l-3.155.514c-3.996.652-7.992 1.302-11.988 1.952l-3.642.593-4.978.809-1.462.239c-3.43.555-6.793 1.06-10.277 1.102l-1.611.032c-1.362-.134-1.362-.134-2.164-.678-.438-.684-.438-.684-.49-1.911.465-1.228.465-1.228 1.675-1.866 1.931-.747 3.923-1.079 5.96-1.425l1.286-.228c1.417-.249 2.835-.493 4.252-.738l3.043-.533c2.463-.431 4.926-.859 7.389-1.285 2.009-.348 4.018-.697 6.026-1.047l.869-.152.872-.152c7.169-1.25 14.34-2.49 21.511-3.728l4.312-.745c61.815-10.681 61.815-10.681 79.427-12.908l1.5-.19c7.545-.885 7.545-.885 9.562.446Zm-5.221-20.817c.672.767.672.767.853 1.969-.208 1.443-.366 1.885-1.422 2.89a28.383 28.383 0 0 1-3.512.776l-1.146.199c-1.341.229-2.683.446-4.026.662l-1.538.252c-3.975.65-7.954 1.279-11.933 1.903-1.775.278-3.549.559-5.323.839l-9.088 1.431c-6.726 1.058-13.45 2.118-20.175 3.178l-5.953.938c-9.787 1.543-19.573 3.092-29.357 4.657l-4.022.643c-5.834.933-5.834.933-11.667 1.869-8.592 1.384-17.186 2.745-25.804 3.962-.765.108-1.529.217-2.293.327-10.768 1.546-10.768 1.546-13.035.05-.078-1.074-.078-1.074 0-2.045 2.179-.856 4.295-1.508 6.6-1.952l.944-.188c1.028-.204 2.057-.403 3.086-.602l1.095-.213c8.423-1.645 16.877-3.105 25.341-4.53l3.876-.655c22.719-3.844 45.472-7.488 68.231-11.092l1.436-.227c6.209-.983 12.418-1.962 18.628-2.934l3.594-.564c1.846-.29 3.692-.579 5.538-.865l2.002-.314c.905-.142 1.809-.282 2.714-.422l1.523-.237c3.343-.403 3.343-.403 4.833.295Zm-39.932 219.318.918.31c4.805 1.712 9.387 4.076 13.943 6.346.863.422 1.733.83 2.611 1.219l1.137.512.99.426c.742.547.742.547 1.134 1.503.028 1.434-.348 1.999-1.219 3.136-1.099.504-1.099.504-2.413.851l-1.46.399-1.503.387-1.381.379c-3.014.827-6.042 1.605-9.068 2.389-1.102.286-2.203.575-3.303.868-1.602.426-3.207.841-4.812 1.256l-1.481.398c-4.094 1.041-7.004.881-10.872-.725l-.884-.354c-.937-.376-1.872-.759-2.807-1.142l-1.941-.784c-1.283-.518-2.565-1.038-3.846-1.561a428.29 428.29 0 0 0-4.715-1.88l-2.447-.967-1.112-.433-1.007-.403-.856-.337c-.844-.437-1.38-.89-1.987-1.614-.155-1.023-.155-1.023 0-2.046 1.233-1.486 2.806-1.759 4.62-2.217l1.03-.271c1.114-.292 2.229-.577 3.344-.862l2.305-.599c1.554-.403 3.108-.804 4.663-1.203 1.722-.443 3.441-.896 5.158-1.357 1.159-.311 2.319-.618 3.479-.924.786-.208 1.57-.421 2.354-.634 4.026-1.048 7.432-1.451 11.428-.066Zm89.815 38.002 1.143.54c1.173.577 2.329 1.177 3.483 1.788l1.241.65c1.217.64 2.431 1.286 3.644 1.933l1.073.567c.938.496 1.872.998 2.804 1.504l.834.443c1.858 1.025 1.858 1.025 2.319 2.396-.336 1.202-.336 1.202-1.24 2.455-3.279 1.78-7.251 2.681-10.803 3.813-1.036.33-2.071.663-3.106.996l-2.003.641-.923.297c-4.205 1.336-7.627 2.272-11.898.541l-.87-.341a252.88 252.88 0 0 1-1.813-.72c-.906-.364-1.815-.72-2.725-1.075-10.422-4.101-10.422-4.101-12.175-6.607-.052-1.049-.052-1.049.413-2.046 1.536-1.414 3.027-2.086 4.996-2.77l.856-.301c.917-.319 1.836-.632 2.755-.944l.949-.325a760.985 760.985 0 0 1 5.695-1.914c.813-.272 1.624-.549 2.435-.826 1.328-.452 2.661-.884 3.999-1.308l1.152-.398c3.023-.915 4.963-.319 7.765 1.011Z"/>
  <path fill="#494A4A" d="m127.89 464.209.252 1.062c4.771 20.228 4.771 20.228 9.802 40.393l.263 1.029c1.252 4.885 2.632 9.721 4.57 14.392a33.898 33.898 0 0 0 6.617-1.228h2.067l2.068 4.501c-3.958.935-3.958.935-5.79.818l-.413.819c-.901.155-.901.155-2.016.23-1.238.087-2.174.197-3.36.588-1.422-.153-1.422-.153-2.895-.818-1.367-2.182-2.075-4.805-2.765-7.263l-.302-1.058c-1.106-3.966-2.094-7.963-3.084-11.959a522.682 522.682 0 0 1-.979-3.966l-.223-.895c-.328-1.359-.504-2.502-.504-3.911l-.827-.409c-.218-.837-.218-.837-.388-1.944-.636-3.82-1.591-7.569-2.558-11.319-.506-1.965-1.008-3.931-1.51-5.897l-.653-2.544c-.316-1.225-.629-2.45-.941-3.676l-.297-1.146-.272-1.076-.241-.94c-.186-1.005-.199-1.945-.17-2.964 1.603-.489 2.86-.819 4.549-.819Zm119.098 129.3c2.679.203 4.869.707 7.353 1.697l1.041.402c1.132.438 2.262.883 3.392 1.328l2.41.936c1.266.491 2.531.982 3.795 1.475 3.045 1.188 6.096 2.357 9.152 3.517 7.651 2.906 15.294 5.823 22.843 8.981l.827.344c2.577 1.075 5.129 2.199 7.628 3.446l1.105.549c.83.648.83.648 1.182 1.698.062.996.062.996-.326 1.763-1.536.829-3.4.259-5.028-.185a85.546 85.546 0 0 1-2.786-.96l-1.073-.379c-4.891-1.747-9.734-3.62-14.581-5.483l-3.092-1.185-5.53-2.122a6042.155 6042.155 0 0 0-8.388-3.212l-5.579-2.132c-.871-.334-1.743-.667-2.615-.999l-3.627-1.388-1.058-.404a164.585 164.585 0 0 1-4.941-1.979l-.895-.374c-.864-.46-1.42-.897-2.036-1.652-.176-1.668-.129-2.263.827-3.682Zm163.631-313.275c10.825.519 25.982 10.366 33.212 17.85l.934.948c.991 1.511 1.002 2.172.72 3.962-.677 1.641-1.519 3.178-2.378 4.731l-.743 1.378c-1.707 3.158-3.454 6.294-5.2 9.431-1.997 3.609-3.895 7.267-5.791 10.929l-.493.951-1.909 3.688a743.585 743.585 0 0 1-6.827 12.842l-1.174 2.162-.8 1.475a724.478 724.478 0 0 0-5.778 10.874 453.955 453.955 0 0 1-5.932 11.015 384.493 384.493 0 0 0-4.535 8.472 469.223 469.223 0 0 1-5.695 10.574 511.624 511.624 0 0 0-3.548 6.503l-.417.777-.846 1.578c-2.082 3.884-4.189 7.747-6.398 11.563-2.292 3.966-4.478 7.984-6.642 12.02l-.48.892c-3.774 6.125-3.774 6.125-5.542 12.764.706.624.706.624 1.654 1.125 4.265 2.672 7.08 6.285 8.506 11.132.953 4.476.283 9.354-1.476 13.521l-.402 1.224c-1.251 1.837-2.704 1.965-4.819 2.43l-1.251.301c-1.385.33-2.772.646-4.16.961l-2.965.701c-2.123.502-4.248.998-6.374 1.488-3.073.708-6.142 1.427-9.211 2.15a5931.73 5931.73 0 0 1-13.865 3.244 5447.235 5447.235 0 0 0-20.781 4.883l-3.1.734-4.536 1.073c-3.351.793-6.702 1.584-10.054 2.374l-1.362.32c-2.141.505-4.283 1.009-6.425 1.512-3.373.794-6.746 1.588-10.115 2.402l-1.494.36c-.856.207-1.712.416-2.567.626l-1.08.261-.899.22c-.818.151-.818.151-2.473.151l-.413.818c-.818.188-.818.188-1.96.334-2.408.361-4.76.861-7.13 1.416l-1.132.264c-1.556.365-3.112.732-4.668 1.1-3.903.922-7.803 1.832-11.752 2.539l-.838.154c-4.354.744-4.354.744-6.016-.078-.55-5.842 3.146-12.659 6.771-17.109.632-.712 1.27-1.42 1.913-2.123l.966-1.146c4.655-5.388 10.518-8.857 17.643-9.901.097-1.96.097-1.96-.827-3.683-4.022-1.327-8.286.445-11.927 2.204a38.113 38.113 0 0 0-2.961 1.888l-1.011.697c-7.804 5.761-13.846 15.612-15.53 25.081-.251 2.177-.355 4.357-.413 6.547-2.379 1.104-4.752 1.745-7.304 2.344l-1.365.327c-1.529.365-3.06.727-4.59 1.088l-2.448.581a4680.889 4680.889 0 0 1-14.076 3.318c-6.542 1.534-13.086 3.064-19.63 4.591l-4.267.996a7511.888 7511.888 0 0 1-9.348 2.178c-4.616 1.078-9.231 2.112-13.89 2.989-.795-2.281-.971-4.126-.956-6.521l.006-1.151c.085-5.029 1.008-9.548 3.431-14.014l.525-1.013c4.32-7.761 12.146-13.093 20.615-15.615 2.589-.64 5.176-.733 7.833-.813l1.324-.048c1.067-.038 2.133-.073 3.2-.105l.081-.685c1.326-10.879 4.372-19.979 13.312-27.051 6.283-4.729 13.148-7.408 21.034-7.957 2.862-.222 5.162-.641 7.269-2.668.931-1.378 1.483-2.631 2.035-4.194 1.919-5.077 4.971-9.217 8.788-13.093l1.056-1.122c7.099-7.35 16.218-11.487 26.237-13.199l.956-.167c7.273-1.079 15.831.056 22.218 3.76 1.173.604 1.173.604 2.281.313 1.293-.81 2.184-1.818 3.131-2.986l.594-.714c1.773-2.143 3.5-4.322 5.219-6.507a409.048 409.048 0 0 1 3.646-4.542 737.303 737.303 0 0 0 5.347-6.672c.931-1.175 1.861-2.351 2.79-3.528a524.146 524.146 0 0 1 6.818-8.434 329.025 329.025 0 0 0 4.275-5.303 409.445 409.445 0 0 1 5.651-6.973 315.988 315.988 0 0 0 4.248-5.277c2.158-2.737 4.388-5.414 6.624-8.089a695.737 695.737 0 0 0 4.179-5.056l.667-.813 1.33-1.623a6614.928 6614.928 0 0 1 4.697-5.722l2.688-3.273.673-.819 1.34-1.632 3.421-4.168a2520.3 2520.3 0 0 1 11.355-13.734c1.333-1.602 2.665-3.205 3.991-4.811 2.29-2.773 4.593-5.535 6.894-8.298l3.652-4.387 1.447-1.739.724-.869 2.895-3.48 1.437-1.726c1.261-1.516 2.524-3.031 3.788-4.546l.797-.956 1.512-1.81.689-.827.638-.763c.437-.538.841-1.102 1.234-1.673.553-.637.553-.637 2.078-.893Zm12.949 16.623a97.273 97.273 0 0 0-6.203 6.546l-1.033 1.188a211.2 211.2 0 0 0-6.359 7.719 137.044 137.044 0 0 1-3.981 4.801 170.316 170.316 0 0 0-5.06 6.163 278.106 278.106 0 0 1-4.425 5.447 202.058 202.058 0 0 0-5.867 7.476 227.464 227.464 0 0 1-4.032 5.209l-.559.7-1.156 1.447c-5.664 7.111-11.237 14.295-16.648 21.597a677.43 677.43 0 0 1-5.286 7.02c-5.223 6.875-10.24 13.839-14.862 21.124l-.528.833c-1.614 2.203-1.614 2.203-2.005 4.717l.259.716c1.571-.08 2.057-.399 3.195-1.516.405-.479.804-.963 1.199-1.451l1.32-1.579.667-.81c.783-.943 1.585-1.869 2.389-2.795 2.348-2.71 4.582-5.502 6.795-8.319a597.73 597.73 0 0 1 2.205-2.781 1381.618 1381.618 0 0 0 13.412-17.129 5790.733 5790.733 0 0 0 4.605-5.959c1.03-1.334 2.062-2.667 3.095-3.999 2.585-3.339 5.159-6.68 7.608-10.118a203.739 203.739 0 0 1 3.884-5.228c2.467-3.235 4.866-6.517 7.256-9.808a610.94 610.94 0 0 1 2.024-2.762 459.391 459.391 0 0 0 9.406-13.31l.74-1.08c3.058-4.476 6.03-8.977 8.772-13.65l-.827-.409Zm-37.219 71.605c-2.039 2.068-3.467 4.583-4.988 7.033l-1.664 2.656-.83 1.328a659.801 659.801 0 0 1-3.347 5.274l-1.213 1.897-.598.934c-.591.925-1.181 1.851-1.77 2.777-4.2 6.597-8.439 13.169-12.728 19.709-3.747 5.716-7.429 11.474-11.097 17.24a571.848 571.848 0 0 1-3.299 5.121c-2.464 3.784-4.885 7.589-7.185 11.473l-.639 1.053c-1.224 2.101-1.793 3.731-1.92 6.159l1.654.818c4.062-3.891 7.08-8.582 10.086-13.283.731-1.14 1.469-2.276 2.207-3.412a1269.145 1269.145 0 0 0 10.556-16.527c.675-1.073 1.352-2.143 2.03-3.214 3.045-4.822 5.985-9.703 8.911-14.597a964.228 964.228 0 0 1 6.53-10.752c2.452-3.988 4.9-7.978 7.323-11.983.353-.582.707-1.164 1.063-1.745.494-.81.985-1.621 1.474-2.433l.447-.726c.788-1.318 1.279-2.458 1.479-3.981-1.164-.932-1.164-.932-2.482-.819Z"/>
  <path fill="#494A4A" d="M627.339 3.235c10.333 9.363 11.443 29.86 12.036 42.68.39 10.659.374 21.421-.769 32.033l-.161 1.52a267.523 267.523 0 0 1-11.418 53.309l-.452 1.413c-6.782 21.106-16.245 41.569-28.032 60.403l-.641 1.032c-.649.984-.649.984-1.381 1.905-1.657 2.131-1.863 3.344-1.546 5.976.383 2.35.946 4.65 1.523 6.96l.403 1.649c.285 1.166.572 2.332.86 3.498.682 2.759 1.354 5.521 2.026 8.282l.457 1.874a1309.65 1309.65 0 0 1 4.426 18.841l.319 1.394a2691.847 2691.847 0 0 1 1.14 5.005c.595 2.636 1.117 5.214 1.204 7.922l.061 1.3c-.496 3.289-2.806 5.924-4.843 8.469l-1.441 1.837-.712.909a119.615 119.615 0 0 0-2.706 3.673c-2.33 3.263-4.732 6.473-7.133 9.685-1.217 1.63-2.431 3.261-3.645 4.892l-1.447 1.944-.724.971-25.329 34.013-.724.973-1.442 1.936c-1.486 1.994-2.97 3.989-4.453 5.984-.728.979-1.458 1.956-2.188 2.933-.821 1.1-1.636 2.204-2.442 3.315l-.507.69a317.56 317.56 0 0 0-1.285 1.764c-1.387 1.572-2.346 2.104-4.468 2.279-1.695-.068-3.247-.466-4.848-1.001l-.85-.273c-8.159-2.683-8.159-2.683-9.669-4.176-1.11-5.016 2.584-10.49 4.698-14.839l.652-1.344c2.339-4.802 4.733-9.576 7.142-14.343l1.482-2.94c3.05-6.07 6.183-12.08 9.507-18.009a567.993 567.993 0 0 0 1.943-3.504l.573-1.035c.593-1.074 1.183-2.15 1.773-3.226.76-1.385 1.532-2.762 2.316-4.133l1.033-1.84.48-.817c1.035-1.868 1.46-3.451 1.07-5.576-.409-1.148-.956-2.185-1.55-3.248-.305-.571-.608-1.143-.912-1.715l-.443-.823c-2.057-3.883-2.057-3.883-2.057-5.262-1.52 1.448-2.851 2.971-4.135 4.629-2.372 3.022-4.804 5.993-7.251 8.956-.53.643-1.058 1.289-1.586 1.935-3.698 4.518-7.506 8.905-11.633 13.046l-.841.853c-2.938 2.904-2.938 2.904-5.293 2.908-8.457-1.489-16.767-6.757-24.149-10.885l-.994-.552-.878-.492c-.712-.408-.712-.408-1.549-.348-.619 1.226-.643 2.536-.786 3.884l-.211 1.871c-.109.984-.217 1.968-.324 2.953-.103.949-.21 1.899-.318 2.848l-.093.889c-.317 2.754-.317 2.754-1.162 3.922-1.77.56-2.685.49-4.42-.179-1.972-1.083-3.812-2.383-5.655-3.664-1.054-.765-1.054-.765-2.331-.658a1646.572 1646.572 0 0 0-.92 4.073 320.444 320.444 0 0 0-1.261 5.819l-.269 1.277c-.174.829-.345 1.659-.512 2.49l-.245 1.157-.211 1.027c-.35 1.073-.768 1.747-1.545 2.57-5.453.863-12.035-4.58-16.412-7.238-1.021-.617-2.044-1.233-3.066-1.849l-.8-.482a1060.156 1060.156 0 0 0-22.542-13.176 908.155 908.155 0 0 1-3.457-1.983 602.445 602.445 0 0 0-13.668-7.643c-18.234-9.861-18.234-9.861-20.694-14.275l-1.488.347c-14.086 3.148-28.567 4.7-42.875 6.518l-1.374.176c-.852.109-1.704.217-2.556.323l-1.141.146-.994.125c-.929.129-.929.129-2.091.548a59.83 59.83 0 0 1-2.116.154c-4.102.288-8.176.814-12.255 1.313-1.406.171-2.813.34-4.219.509l-2.685.326-1.272.152-1.177.145-1.033.126c-.956.127-.956.127-2.123.549-.805.077-1.611.138-2.418.189-2.855.201-5.684.52-8.523.872l-1.539.188c-1.604.196-3.207.394-4.811.592l-3.249.398c-3.353.411-6.705.823-10.057 1.239-2.34.289-4.681.572-7.022.856l-1.547.188-5.7.692-5.598.68-1.48.18c-2.769.336-2.769.336-5.537.677-2.339.29-4.678.573-7.018.857l-1.547.188-5.7.692-5.598.68-1.479.179c-2.77.336-2.77.336-5.538.677-2.339.291-4.678.573-7.017.857l-1.548.188-5.7.692-5.598.68-1.479.18c-1.828.222-3.656.444-5.483.671-2.357.293-4.717.568-7.076.847l-5.517.656-4.837.574a3761.348 3761.348 0 0 0-6.488.77 2112.323 2112.323 0 0 0-3.922.466c-1.192.141-1.192.141-2.403.58-.852.074-1.705.131-2.559.179-2.285.148-4.551.36-6.823.639l-.856.103c-1.194.151-2.263.338-3.409.716-.842.074-1.686.131-2.53.179-3.16.206-6.293.553-9.436.938-.918.112-1.837.221-2.756.331-3.209.366-3.209.366-6.368 1.007-.604.075-1.209.137-1.814.19l-1.063.095-1.129.098c-2.881.262-5.759.538-8.633.87l-.871.098c-1.041.122-2.06.25-3.078.503-1.035.254-2.043.304-3.107.371-2.358.167-4.706.386-7.056.639l-.99.103c-1.691.159-1.691.159-3.274.715h-2.895l-.775.195c-1.077.263-2.097.31-3.205.368-4.757.305-9.485.922-14.216 1.483l.246.868 1.124 3.966.387 1.364a1066.9 1066.9 0 0 1 2.379 8.533c4.62-.24 9.17-.739 13.754-1.344l2.2-.286c1.975-.257 3.95-.517 5.925-.777l3.76-.494c16.65-2.184 33.28-4.496 49.907-6.844 8.312-1.174 16.625-2.338 24.938-3.503l2.821-.396c22.477-3.15 44.96-6.265 67.445-9.364l.881-.121 3.514-.484 11.912-1.644c24.35-3.368 48.707-6.668 73.088-9.805l2.514-.324a15379.258 15379.258 0 0 1 12.346-1.584c4.334-.556 8.669-1.102 13.014-1.569l.927-.102c2.935-.305 5.851-.31 8.799-.231l.827 1.637c-1.85 1.318-3.583 1.586-5.783 1.908l-1.181.184c-1.365.21-2.732.414-4.098.618l-3.141.479c-2.769.422-5.539.838-8.309 1.252-2.501.374-5.001.751-7.501 1.129-40.411 6.106-80.869 11.912-168.365 24.507l-10.166 1.46c-18.988 2.729-37.978 5.434-56.986 8.023l-1.126.154-6.378.866-2.971.404c-3.105.422-6.211.829-9.322 1.206l-2.599.323c-.799.097-1.598.189-2.397.28l-1.431.178-1.245.146c-1.135.283-1.566.568-2.265 1.483-.472 2.514.205 5.202.75 7.659l.27 1.25c1.523 6.893 3.258 13.741 4.951 20.595.656 2.656 1.308 5.313 1.959 7.971a8461.15 8461.15 0 0 0 5.724 23.234 3932.21 3932.21 0 0 1 2.497 10.124c.487 1.986.977 3.971 1.474 5.954.464 1.849.92 3.7 1.371 5.553.165.676.334 1.352.506 2.027.233.917.456 1.836.676 2.756l.385 1.555c.135 1.586-.168 2.14-1.127 3.386l-.573.826-1.495 2.038c-.859-1.491-1.256-3.075-1.68-4.726l-.245-.936c-.265-1.019-.529-2.039-.792-3.058l-.552-2.128c-.386-1.486-.77-2.972-1.154-4.458-.491-1.905-.986-3.809-1.482-5.713-.381-1.464-.76-2.928-1.139-4.393l-.547-2.106c-.255-.981-.508-1.963-.76-2.944l-.231-.879c-.342-1.345-.515-2.448-.515-3.848l-.827-.409c-.248-.877-.248-.877-.44-1.969-.327-1.81-.748-3.57-1.221-5.347l-.247-.926-.263-.99-.274-1.027-.864-3.244-1.137-4.27-.264-.99-.246-.927-.216-.811c-.211-.803-.415-1.608-.618-2.413l-.764-2.877-.68-2.576-.473-1.778c-.23-.858-.456-1.717-.682-2.576l-.412-1.553c-.297-1.324-.297-1.324-.297-2.961l-.827-.409c-.218-.762-.218-.762-.388-1.765-.448-2.443-1.056-4.833-1.68-7.237l-.188-.745a1115.6 1115.6 0 0 0-.804-3.148c-.575-2.245-1.148-4.49-1.72-6.735-.345-1.356-.692-2.712-1.04-4.068-.403-1.566-.8-3.133-1.199-4.7l-.38-1.471-.347-1.374-.308-1.204c-.212-1.082-.258-2.053-.217-3.151l-.827-.409.413-1.228-.827-.409c-.142-.745-.142-.745-.206-1.688-.108-1.253-.271-2.189-.672-3.401-.347-1.397-.342-2.195-.178-3.595l.126-1.111.103-.844c16.801-2.626 33.63-4.999 50.496-7.18l4.56-.592c21.883-2.839 43.779-5.577 65.681-8.269 2.599-.319 5.199-.639 7.798-.96 29.655-3.652 59.319-7.231 101.449-12.192l4.825-.567c20.749-2.44 41.499-4.866 62.263-7.173l1.065-.118c2.276-.253 4.552-.504 6.829-.755l.857-.095 2.384-.262 1.44-.159c1.554-.164 3.11-.299 4.667-.42 1.248-.202 1.899-.778 2.791-1.638 2.549-2.258 5.342-4.059 8.204-5.908 2.679-1.657 2.679-1.657 5.106-3.631v-1.637a30.644 30.644 0 0 0-2.843-2.071c-.534-.353-1.067-.707-1.599-1.063l-.722-.469c-.625-.489-.625-.489-1.452-1.716.054-1.302.23-1.867 1.172-2.789l1.05-.715 1.22-.837a138.54 138.54 0 0 1 3.57-2.238l1.079-.662c.719-.438 1.44-.872 2.164-1.301l1.005-.609.91-.54.649-.538v-1.228a34.116 34.116 0 0 0-2.403-2.097l-.742-.605a389.42 389.42 0 0 0-2.231-1.799l-2.274-1.841-1.102-.89a630.429 630.429 0 0 1-4.016-3.279l-.671-.545c-2.019-1.674-4.08-3.422-4.456-6.125-.296-6.711 4.241-13.412 7.143-19.236l1.126-2.277c1.78-3.58 3.631-7.084 5.699-10.509.534-.971.794-1.703 1.033-2.762-2.511-.08-5.009-.079-7.517.076l-1.255.076c-1.408.314-2.075.845-3.092 1.843a69.82 69.82 0 0 0-1.37 2.506c-.603.91-1.23 1.801-1.86 2.693a240.36 240.36 0 0 0-2.097 3.032c-1.559 2.265-3.178 4.485-4.807 6.701a483.2 483.2 0 0 0-4.469 6.191c-5.468 7.682-11.068 15.258-17.018 22.583a181.62 181.62 0 0 0-1.937 2.439c-2.089 2.678-4.231 5.246-6.568 7.719-.874.941-1.682 1.915-2.494 2.909-.902 1.016-1.311 1.367-2.61 1.892-2.771-.233-4.707-2.649-6.539-4.527-1.834-1.851-3.673-3.645-5.694-5.3-.946-.851-.983-1.401-1.13-2.678.114-5.231 3.911-10.541 6.358-15.012a3535.118 3535.118 0 0 0 3.34-6.146 826.789 826.789 0 0 0 7.153-13.523l.825-1.589.401-.772a458.93 458.93 0 0 1 3.143-5.922c3.314-6.175 6.405-12.469 9.552-18.729a659.15 659.15 0 0 1 5.62-10.936l1.505-2.861.384-.73c.78-1.484 1.553-2.972 2.32-4.463.382-.742.766-1.484 1.149-2.225.478-.924.953-1.849 1.425-2.775 4.754-9.169 4.754-9.169 8.1-10.304l1.29-.313 1.554-.383 1.76-.42 1.89-.459c8.729-2.113 17.484-4.129 26.234-6.157 2.749-.638 5.497-1.28 8.244-1.927 1.439-.338 2.879-.675 4.32-1.007 1.598-.368 3.193-.745 4.788-1.124l1.419-.322c3.373-.812 6.352-1.87 8.413-4.783l.694-.96.704-1.009 1.517-2.102.739-1.033c.917-1.27 1.868-2.511 2.836-3.744l.989-1.263c1.462-1.853 2.928-3.704 4.4-5.55a440.83 440.83 0 0 0 2.274-2.881c2.499-3.184 5.095-6.267 7.766-9.31.612-.702 1.217-1.408 1.82-2.117a186.399 186.399 0 0 1 6.588-7.344l.807-.852c2.842-2.98 5.756-5.888 8.689-8.781.898-.887 1.795-1.776 2.691-2.665l1.748-1.729.794-.788a90.748 90.748 0 0 1 4.862-4.44 84.701 84.701 0 0 0 2.671-2.429c2.582-2.413 5.272-4.599 8.124-6.693.698-.518 1.386-1.046 2.073-1.577 8.407-6.45 17.483-12.198 26.747-17.355l1.096-.612a356.484 356.484 0 0 1 8.002-4.298l1.186-.626c13.716-7.188 56.711-29.02 71.081-17.621Zm-12.976 4.181-1.611.34c-20.922 4.459-49.021 12.638-65.537 26.82.545 1.619 1.53 2.014 2.949 2.828l.789.464c.837.491 1.676.978 2.517 1.464l1.629.954c1.095.641 2.191 1.281 3.287 1.92a712.12 712.12 0 0 1 12.891 7.713c3.825 2.335 7.659 4.653 11.502 6.956a2279.436 2279.436 0 0 1 15.192 9.203 4916.2 4916.2 0 0 0 4.179 2.544c7.742 4.707 7.742 4.707 10.497 6.423a669.816 669.816 0 0 0 9.418 5.742l1.332.808c2.268 1.354 4.418 2.497 6.938 3.309.514-1.016.513-1.777.575-2.913l.075-1.334.076-1.458.082-1.51c.087-1.627.17-3.254.252-4.881l.043-.836c.963-18.955.611-37.46-3.17-56.142l-.297-1.493c-.556-2.622-1.156-4.893-2.598-7.176-3.181-1.984-7.618-.47-11.01.255Zm-77.487 32.888c.151 1.028.305 1.532 1.068 2.265 2.679 1.814 5.475 3.353 8.328 4.882 3.201 1.719 6.346 3.522 9.487 5.346a853.778 853.778 0 0 0 7.799 4.472 545.138 545.138 0 0 1 13.249 7.766 610.834 610.834 0 0 0 11.374 6.699c3.662 2.11 7.289 4.262 10.859 6.525a242.03 242.03 0 0 0 6.819 4.139 314.18 314.18 0 0 1 8.891 5.447 438.189 438.189 0 0 0 7.883 4.91l1.38.836c1.528.813 3.033 1.382 4.668 1.951.611-1.812 1.018-3.07.414-4.91-.654-.699-.654-.699-1.577-1.253-.376-.245-.752-.49-1.14-.741-2.443-1.512-4.919-2.971-7.395-4.428a760.489 760.489 0 0 1-7.024-4.19l-1.213-.731a1249.633 1249.633 0 0 1-8.833-5.389 912.14 912.14 0 0 0-8.506-5.141 681.069 681.069 0 0 1-13.428-8.234c-1.614-1.017-3.233-2.026-4.851-3.036l-1.961-1.226c-1.319-.825-2.64-1.648-3.961-2.47a746.151 746.151 0 0 1-9.327-5.894 528.142 528.142 0 0 0-8.089-5.089l-1.068-.664c-6.801-4.381-6.801-4.381-13.846-1.842Zm-7.425 5.519-1.259 1.028c-.244.19-.489.38-.74.577a149.98 149.98 0 0 0-2.439 1.954l-.882.715-1.751 1.42c-.693.562-1.39 1.12-2.087 1.676a137.888 137.888 0 0 0-6.764 5.799 121.51 121.51 0 0 1-2.654 2.333c-4.375 3.774-8.532 7.762-12.628 11.829-.818.81-1.638 1.62-2.458 2.428-2.52 2.493-4.993 4.992-7.296 7.685a462.7 462.7 0 0 1-2.016 2.174 121.426 121.426 0 0 0-4.85 5.63 137.966 137.966 0 0 1-2.746 3.2c-2.801 3.185-5.397 6.501-7.964 9.872-.558.73-1.121 1.454-1.689 2.175-13.185 16.762-24.661 35.058-35.112 53.591a467.34 467.34 0 0 1-2.468 4.293c-.608 1.049-1.214 2.1-1.819 3.151a675.186 675.186 0 0 1-2.072 3.574 995.975 995.975 0 0 0-2.406 4.149l-.768 1.305c-1.861 2.982-1.861 2.982-2.256 6.316.957 1.154 2.091 1.992 3.308 2.864l.846.632c.855.629 1.721 1.24 2.592 1.849l1.969 1.393 1.017.72a491.718 491.718 0 0 1 5 3.615l.994.725a622.42 622.42 0 0 1 5.429 4.012 293.21 293.21 0 0 0 8.416 6.053 441.52 441.52 0 0 1 6.355 4.503 337.677 337.677 0 0 0 8.55 5.925 550.056 550.056 0 0 1 6.536 4.472c4.749 3.292 9.567 6.461 14.439 9.57 1.074.687 2.145 1.379 3.215 2.072 8.427 5.459 17.001 10.681 25.62 15.835l1.059.634a945.502 945.502 0 0 0 22.926 13.278c4.369-2.397 7.128-7.053 10.004-10.966a333.974 333.974 0 0 1 4.884-6.424 657.603 657.603 0 0 0 9.097-12.07l.7-.948c.69-.936 1.378-1.874 2.066-2.812l.594-.807c13.465-18.436 25.561-37.732 35.926-58.037l.636-1.239c5.632-11.035 10.246-22.656 14.251-34.359l.489-1.419c2.195-6.427 4.155-12.901 5.947-19.449l.273-.995c.257-.938.51-1.877.763-2.816l.227-.836c.455-1.716.843-3.404.986-5.174-.828-.962-.828-.962-2.068-1.636l-1.254-.793a224.17 224.17 0 0 0-1.434-.844l-.813-.479c-2.574-1.507-5.174-2.968-7.773-4.431-7.401-4.174-14.734-8.467-22.029-12.819a769.958 769.958 0 0 0-9.287-5.426c-3.9-2.249-7.77-4.528-11.57-6.94-2.635-1.666-5.313-3.255-8-4.838a438.88 438.88 0 0 1-12.044-7.394c-3.697-2.344-7.427-4.636-11.156-6.93-.932-.578-1.861-1.16-2.788-1.748l-.74-.464c-.604-.38-1.206-.761-1.807-1.144-2.551-1.383-2.551-1.383-5.227-.79Zm-85.211 77.274-1.562.366-1.701.402-1.766.414-3.749.88a5415.267 5415.267 0 0 1-10.626 2.491c-3.744.875-7.49 1.737-11.248 2.551l-1.059.229a539.09 539.09 0 0 1-4.544.962c-6.557 1.225-6.557 1.225-11.711 5.068-.656 1.307-1.203 2.633-1.74 3.992-.759 1.84-1.682 3.575-2.632 5.325l-1.111 2.068-.571 1.063c-.891 1.67-1.761 3.35-2.63 5.031l-.516.999a2828.26 2828.26 0 0 0-1.552 3.004 1149.43 1149.43 0 0 1-7.314 13.957 961.943 961.943 0 0 0-3.851 7.32c-1.44 2.757-2.886 5.51-4.35 8.254a1070.366 1070.366 0 0 0-7.022 13.432 1167.97 1167.97 0 0 1-6.573 12.609l-.503.949a204.645 204.645 0 0 1-3.849 6.874c-.512 1.202-.472 1.494-.034 2.686.771 1.021 1.699 1.89 2.61 2.788l.73.757.713.709.648.65c.658.502.658.502 1.478.32 1.033-.38 1.307-.737 1.909-1.639l.579-.851.612-.931.652-.966a534.283 534.283 0 0 0 2.062-3.087c.894-1.335 1.791-2.669 2.688-4.002l.674-1.005c3.255-4.836 6.637-9.579 10.233-14.173a437.154 437.154 0 0 0 6.306-8.311 316.165 316.165 0 0 1 6.458-8.402 276.592 276.592 0 0 0 5.173-6.789l.731-.981a218.048 218.048 0 0 0 3.226-4.422l1.057-1.451.888-1.254c2.907-2.754 8.145-1.944 11.938-1.976.882-.009 1.765-.025 2.647-.042l1.584-.016c1.807-.212 2.857-.771 4.116-2.057 1.752-2.362 3.124-4.873 4.492-7.467a974.42 974.42 0 0 1 1.534-2.853l.397-.734c4.836-8.928 10.215-17.555 15.796-26.043 2.67-3.413 2.67-3.413 4.009-7.247-1.341 0-2.421.242-3.726.549Zm-26.048 66.147c-1.276 1.472-2.15 2.914-2.981 4.668l-.361.754c-.379.792-.755 1.584-1.13 2.377a589.4 589.4 0 0 1-1.481 3.109l-.366.767c-1.037 2.136-2.24 4.131-3.531 6.128-.561.963-.561.963-.446 1.894.454.932.946 1.382 1.76 2.03l.874.704.942.738.965.77a374.995 374.995 0 0 0 8.236 6.34c.862.655 1.723 1.312 2.585 1.969 7.882 6 15.794 11.944 23.881 17.671l.807.574c6.025 4.28 12.191 8.362 18.342 12.462.621.413 1.241.827 1.861 1.242 13.99 9.339 28.475 17.975 43.243 26.051l.766.419c1.618.885 3.241 1.758 4.869 2.625l1.212.658 1.104.58.951.507c1.041.36 1.509.301 2.522-.109.902-.893.902-.893 1.758-2.02l.992-1.242.972-1.239c.533-.666 1.067-1.331 1.602-1.994l.81-1.006c1.237-1.506 2.51-2.98 3.782-4.457a128.923 128.923 0 0 0 4.558-5.636c-.624-1.773-1.756-2.29-3.375-3.167l-.777-.425c-.819-.445-1.641-.883-2.465-1.318l-.786-.419c-1.583-.84-3.171-1.67-4.762-2.497a500.037 500.037 0 0 1-17.196-9.36l-1.193-.678a578.395 578.395 0 0 1-14.211-8.349l-1.228-.744c-4.152-2.536-8.232-5.182-12.316-7.823l-1.12-.725a2775.36 2775.36 0 0 1-6.869-4.454 925.392 925.392 0 0 0-2.325-1.508c-4.657-3.016-9.238-6.102-13.731-9.351a168.189 168.189 0 0 0-5.652-3.884 138.863 138.863 0 0 1-7.891-5.695 120.563 120.563 0 0 0-4.179-3.025 152.603 152.603 0 0 1-5.557-4.067 348.61 348.61 0 0 0-6.099-4.577l-.813-.603c-1.28-1.042-1.28-1.042-2.831-1.392l-.414-1.228c-.768-.592-.768-.592-1.68-1.099l-.919-.542-.709-.404Zm170.376 20.458c-.55.603-.55.603-1.017 1.428l-.583.941-.622 1.033c-.447.719-.894 1.437-1.343 2.154l-.699 1.12c-5.585 8.792-12.002 17.065-18.514 25.195-3.222 4.015-3.222 4.015-6.169 8.228l-.515.726c-.676 1.976-.115 3.751.778 5.542l.848 1.328c1.539 2.5 2.668 5.026 3.717 7.76.53 1.436.53 1.436 1.238 2.829.892 2.359.864 4.246-.154 6.523a113.4 113.4 0 0 1-1.001 1.966l-.55 1.094a477.486 477.486 0 0 1-1.822 3.563l-1.271 2.508c-.891 1.756-1.785 3.509-2.683 5.261a1811.26 1811.26 0 0 0-3.395 6.662 4854.571 4854.571 0 0 1-3.273 6.437l-.613 1.203a489.615 489.615 0 0 1-8.571 16.05 476.462 476.462 0 0 0-2.074 3.781l-.643 1.18-.615 1.131c-1.591 2.922-3.2 5.816-4.969 8.636-.527 1.01-.778 1.846-.898 2.975 1.245 1.937 3.646 2.669 5.789 3.273 1.533.242 1.533.242 2.895-.409 2.101-2.256 3.783-4.924 5.505-7.467a142.109 142.109 0 0 1 5.916-8.046c1.578-2.023 3.057-4.114 4.55-6.199 1.278-1.777 2.574-3.543 3.866-5.31 1.15-1.574 2.299-3.147 3.444-4.724a504.548 504.548 0 0 1 7.106-9.565 345.236 345.236 0 0 0 4.557-6.153 499.044 499.044 0 0 1 7.036-9.425c1.035-1.357 2.065-2.718 3.095-4.078l1.242-1.638c.823-1.086 1.645-2.171 2.465-3.258l1.23-1.625.61-.807a351.09 351.09 0 0 1 3.346-4.35 614.228 614.228 0 0 1 2.122-2.706l.642-.821.56-.711.603-.86.976-1.141c1.367-2.443.104-5.408-.538-7.951a533.065 533.065 0 0 0-1.658-6.859c-.422-1.715-.831-3.433-1.241-5.15-.655-2.737-1.316-5.472-1.983-8.206a1249.947 1249.947 0 0 1-2.745-11.507l-.611-2.603a2335.9 2335.9 0 0 0-1.377-5.815l-.234-.984-.514-2.159h-1.241Zm-168.36 23.528-.828.566a309.02 309.02 0 0 0-2.429 1.684l-1.326.911c-.94.647-1.876 1.298-2.809 1.954.599 1.5 1.29 2.042 2.694 2.83l1.146.654 1.226.684 2.505 1.434 1.231.703c2.112 1.224 4.157 2.544 6.203 3.873 1.309.85 2.625 1.69 3.94 2.532l.868.556c2.694 1.725 5.397 3.436 8.1 5.146 4.076 2.579 8.143 5.168 12.2 7.775l.926.594a4208.71 4208.71 0 0 1 12.488 8.05l1.348.871a3597.41 3597.41 0 0 1 9.885 6.418l1.545 1.006c2.947 1.922 5.912 3.801 8.958 5.565 1.372-.711 1.372-.711 1.619-2.172.104-.562.201-1.125.294-1.689l.156-.886c.404-2.363.663-4.727.826-7.119a394.659 394.659 0 0 0-10.505-6.235c-4.425-2.543-8.783-5.156-13.052-7.951-1.593-1.03-3.21-2.024-4.822-3.025a353.641 353.641 0 0 1-9.149-5.904 664.183 664.183 0 0 0-3.347-2.198c-7.927-5.185-7.927-5.185-11.213-7.692-2.046-1.555-4.132-3.055-6.212-4.565a260.679 260.679 0 0 1-6.895-5.158c-2.33-1.546-3.444-.712-5.571.788Zm-5.686 16.597-.868.798c-.745.723-1.479 1.455-2.208 2.194-1.549 1.561-3.25 2.913-4.971 4.284a151.521 151.521 0 0 0-3.998 3.337c.157 1.55.157 1.55 1.176 2.676l1.01.532 1.141.617 1.248.65c.879.474 1.757.949 2.635 1.425l1.371.735c2.073 1.126 4.113 2.307 6.152 3.492.404.235.809.469 1.227.71l3.89 2.257 2.19 1.27 5.345 3.101c3.138 1.82 6.278 3.637 9.42 5.449 15.492 8.937 15.492 8.937 21.4 12.454l.984.585a933.58 933.58 0 0 1 3.857 2.301c.987.593 1.976 1.181 2.965 1.768l.899.545c.702.415 1.425.796 2.151 1.169.948-.351.948-.351 1.218-1.493l.399-1.437.438-1.573.225-.827c.224-.821.453-1.64.683-2.46 1.108-3.826 1.108-3.826 1.586-7.759-.953-1.084-1.701-1.67-2.895-2.455l-1.328-.903c-2.896-1.951-5.849-3.817-8.793-5.695a1750.944 1750.944 0 0 1-23.953-15.603c-2.456-1.626-4.916-3.246-7.376-4.867a1394.67 1394.67 0 0 1-8.709-5.782c-4.182-3.028-4.182-3.028-8.511-1.495Z"/>
  <path fill="#494A4A" d="m348.097 238.089.685.7.763.783a1326.9 1326.9 0 0 0 2.067 2.046 1944.561 1944.561 0 0 1-28.685 3.696l-1.257.153-2.338.284a64.81 64.81 0 0 0-4.938.777c-.896.107-1.793.204-2.691.294l-1.546.159-3.218.322-1.542.159-1.411.141c-1.2.119-1.2.119-2.411.562-.852.074-1.705.131-2.559.179-2.285.148-4.551.36-6.823.639l-.856.103c-1.194.151-2.263.338-3.409.716-.852.074-1.705.131-2.559.179-2.285.148-4.55.359-6.823.639l-.856.103c-1.194.151-2.263.337-3.409.715-.851.075-1.705.132-2.558.179-2.286.149-4.551.36-6.824.64l-.855.103c-1.194.151-2.264.337-3.409.715-.852.074-1.705.131-2.559.179-2.285.148-4.551.36-6.823.639l-.856.103c-1.194.151-2.263.338-3.409.716-.852.074-1.705.131-2.559.179-2.803.181-5.571.497-8.356.856-1.117.144-2.232.279-3.352.397-1.726.184-3.447.399-5.169.614-2.002.249-4.003.489-6.009.703-1.445.163-2.887.344-4.33.524-3.448.431-3.448.431-5.169.614-1.776.191-3.55.4-5.324.614l-.881.103c-1.229.149-2.334.326-3.513.715a82.89 82.89 0 0 1-2.635.192c-2.862.187-5.697.479-8.544.821l-1.526.179c-1.361.161-2.722.322-4.082.485l-3.42.405c-2.687.318-5.373.638-8.059.958-2.769.33-5.539.658-8.309.985-2.386.282-4.771.565-7.157.849-1.422.169-2.844.338-4.266.505-1.579.187-3.157.375-4.736.564l-1.428.168-1.296.156-1.13.135c-.91.103-.91.103-1.72.554-.981.085-1.964.15-2.947.205-3.708.171-3.708.171-7.351.818-.966.228-1.897.325-2.885.409l-1.155.102-2.397.205-1.152.102-1.051.09c-.983.094-.983.094-2.153.524-.92.083-1.842.149-2.765.205-3.591.187-3.591.187-7.121.818-.964.228-1.895.325-2.883.409a461.903 461.903 0 0 1-3.552.307l-1.152.102-1.051.09c-.983.094-.983.094-2.152.524a75.62 75.62 0 0 1-2.516.179c-3.23.211-6.436.558-9.65.938-.953.112-1.906.222-2.86.331l-1.83.214-.858.099c-1.188.142-2.238.319-3.377.694a64.34 64.34 0 0 1-1.912.128c-5.947.507-12.634 1.93-17.11 6.01h-.827l-.336.869c-.492 1.177-.492 1.177-1.112 2.276-3.82 8.349-.531 19.287 1.233 27.827l.215 1.043c1.638 7.888 3.602 15.686 5.628 23.485a5182.643 5182.643 0 0 0 9.452 36.238c8.278 31.36 15.816 62.889 23.246 94.454 7.874 33.558 7.874 33.558 16.076 67.039.255 1.016.509 2.031.762 3.047 1.876 9.094 1.876 9.094 5.625 17.46 1.06.299 1.06.299 2.068.409l.233-1.023c1.293-3.117 3.764-5.31 6.797-6.751 4.47-1.668 9.05-2.794 13.694-3.867l2.165-.507c1.535-.36 3.071-.719 4.607-1.076a3755 3755 0 0 0 8.635-2.02l2.518-.592 3.794-.889A3532.124 3532.124 0 0 0 189 532.583c18.502-4.458 36.989-8.975 55.478-13.48a54697.05 54697.05 0 0 1 24.537-5.973l2.462-.599 3.262-.793.812-.197 1.617-.394c19.343-4.704 38.683-9.418 58.018-14.149 8.296-2.03 16.593-4.054 24.891-6.077l4.635-1.13.93-.227a21172.1 21172.1 0 0 0 13.744-3.359c16.115-3.944 32.235-7.865 48.365-11.75l4.16-1.002 1.019-.246a4338.987 4338.987 0 0 0 14.887-3.611c2.802-.683 2.802-.683 5.603-1.368 5.338-1.304 10.677-2.591 16.072-3.647 3.559-.728 7.835-1.641 9.98-4.77.987-2.702-.022-5.255-.907-7.832l-.397-1.189c-.431-1.291-.869-2.579-1.306-3.868l-.918-2.742a5211.5 5211.5 0 0 0-1.872-5.578 865.49 865.49 0 0 1-2.26-6.828l-.326-1.001-.653-2c-2.602-7.958-5.263-15.898-7.928-23.836l-1.33-3.968c-.527-1.577-1.057-3.154-1.587-4.729-.196-.583-.392-1.166-.586-1.749-1.325-3.967-2.811-7.84-4.406-11.707-1.947-4.881-3.633-9.844-5.272-14.833l-.39-1.184a1159.114 1159.114 0 0 1-6.648-20.97c-.338-1.1-.679-2.199-1.021-3.298a690.935 690.935 0 0 1-1.427-4.646l-.44-1.402c-.811-2.704-1.219-4.708-.127-7.415l.466-.837.504-.923.528-.933.532-.966c.43-.78.866-1.557 1.303-2.333.827.409.827.409 1.206 1.311l.394 1.216.455 1.388.491 1.532a1361.284 1361.284 0 0 1 1.917 5.922 4401.88 4401.88 0 0 1 9.22 28.713 2951.088 2951.088 0 0 0 7.946 24.579l.836 2.556 1.097 3.351.271.829c1.849 5.65 3.679 11.306 5.503 16.963a3261.457 3261.457 0 0 0 5.743 17.645l.587 1.792.294.896 1.429 4.352c1.8 5.468 3.586 10.939 5.229 16.456l.36 1.199c.991 3.382 1.346 6.149.857 9.647 13.326 4.129 27.348 6.28 41.02 8.97 19.723 3.881 39.376 8.027 58.928 12.686l2.732.65c16.245 3.865 32.403 7.964 48.309 13.044.708.226 1.416.449 2.125.673a98.189 98.189 0 0 1 11.628 4.537l1.097.506c2.81 1.346 5.02 2.765 6.734 5.427l.616.936c.969 1.669 1.072 3.047.909 4.946-4.32 9.13-22.33 13.344-31.067 16.546l-2.571.947c-14.476 5.324-29.033 10.418-43.633 15.396-5.863 2-11.715 4.029-17.558 6.085a3923.104 3923.104 0 0 1-22.392 7.79 4606.674 4606.674 0 0 0-45.424 15.915 5661.414 5661.414 0 0 1-20.75 7.368c-1.135.403-2.271.803-3.407 1.203l-1.021.363c-2.309.811-2.309.811-3.23.811l-.414.818c-.82.272-.82.272-1.917.529-2.687.686-5.269 1.602-7.87 2.549-1.619.589-3.24 1.171-4.861 1.754l-1.104.397c-5.431 1.949-10.878 3.857-16.323 5.768l-.843.295a4314.086 4314.086 0 0 1-27.76 9.645c-1.89.649-3.779 1.301-5.668 1.953-40.137 13.857-40.137 13.857-59.369 19.664a1533.642 1533.642 0 0 1-10.706 3.197c-4.07 1.21-8.156 2.329-12.292 3.299l-1.098.267c-13.583 3.076-29.461-5.056-41.676-10.349l-.804-.348c-.723-.313-1.445-.63-2.166-.947-1.133-.512-1.133-.512-2.386-.438v-.818l-.683-.226-1.964-.65c-.71-.233-1.422-.459-2.136-.678l-1.006-.313-.931-.283c-.723-.306-.723-.306-1.137-1.124-.746-.323-.746-.323-1.651-.576-1.982-.618-3.911-1.33-5.848-2.077l-1.073-.412c-1.158-.443-2.315-.888-3.472-1.333l-4.966-1.906-1.263-.484c-2.555-.98-5.112-1.953-7.673-2.917l-3.829-1.445-.952-.36a711.84 711.84 0 0 1-13.063-5.105l-1.49-.598c-2.447-.982-4.891-1.967-7.334-2.958l-2.677-1.079-1.251-.51-1.148-.462-1.002-.407c-.902-.35-.902-.35-2.098-.285v-.818l-.757-.211c-2.596-.743-5.079-1.644-7.575-2.668l-1.196-.485c-1.288-.522-2.574-1.047-3.86-1.572l-2.696-1.095c-1.851-.751-3.702-1.504-5.552-2.257a3685.37 3685.37 0 0 0-7.969-3.23l-1.249-.505-2.425-.98-4.518-1.827-2.05-.829a288.873 288.873 0 0 1-5.659-2.346l-1.13-.486c-.951-.401-.951-.401-2.161-.331v-.818l-.678-.216a104.01 104.01 0 0 1-6.901-2.524l-1.082-.433a2049.642 2049.642 0 0 1-4.613-1.853c-5.267-2.114-10.522-4.248-15.727-6.506-1.22-.528-2.444-1.045-3.668-1.562v-.818l-.743-.339c-6.403-3.37-8.753-12.828-10.707-19.124-2.361-7.728-4.193-15.614-6.119-23.457a61.792 61.792 0 0 0-1.195-4.263 44.322 44.322 0 0 1-1.163-4.847c-.967-4.956-2.263-9.844-3.49-14.743l-.75-3.009c-1.034-4.163-1.034-4.163-2.082-8.324a326.24 326.24 0 0 1-.638-2.591l-.252-1.034-.272-1.124-.29-1.192-.948-3.905-.327-1.35-1.717-7.072-1.77-7.292-1.363-5.618-.652-2.688-.915-3.769c-.09-.366-.178-.733-.27-1.111a753.05 753.05 0 0 1-.728-3.037l-.246-1.018-.23-.98-.206-.865c-.145-.819-.145-.819-.145-2.456l-.827-.409c-.215-.826-.215-.826-.382-1.923-.465-2.776-1.114-5.492-1.778-8.227l-.58-2.404a6407.923 6407.923 0 0 1-2.218-9.183l-.75-3.108-.344-1.421-.301-1.244a104.378 104.378 0 0 1-.677-3.178 134.7 134.7 0 0 0-.39-1.634l-.225-.927-.24-.983-.505-2.083c-.264-1.09-.529-2.179-.795-3.268-.258-1.054-.513-2.11-.768-3.165l-.243-.985c-.343-1.432-.556-2.661-.556-4.141l-.827-.409c-.225-.956-.225-.956-.4-2.2-.374-2.439-.891-4.809-1.484-7.205l-.654-2.69-.353-1.443a2233.298 2233.298 0 0 1-2.147-8.887c-19.597-81.668-19.597-81.668-16.053-89.28 4.188-6.31 12.256-8.016 19.239-9.459.878-.178 1.757-.353 2.637-.526l.944-.186c7.124-1.398 14.287-2.364 21.492-3.25 1.102-.136 2.204-.274 3.305-.413 24.727-3.112 49.496-5.885 74.258-8.699 32.207-3.661 64.393-7.461 96.55-11.531l1.506-.19a3943.061 3943.061 0 0 0 34.605-4.511c2.046-.277 4.092-.553 6.139-.828l2.587-.349 1.711-.23c3.072-.413 6.144-.83 9.214-1.255 2.597-.36 5.195-.713 7.794-1.062.955-.13 1.911-.262 2.866-.397 1.304-.184 2.609-.359 3.914-.531l1.154-.17c2.934-.373 4.333.299 6.383 2.414Zm126.361 231.619-1.096.331-.997.308c-.551.139-1.102.275-1.654.409l-3.102.819c-1.583.419-3.166.834-4.755 1.227l-2.184.563-1.262.326-1.31.339a2429.83 2429.83 0 0 0-3.721.962c-.895.229-1.792.452-2.689.674l-1.822.473-1.036.271-1.071.279-2.106.55-.939.245c-1.595.412-3.196.798-4.797 1.186l-2.677.653-1.359.329-1.314.322-1.196.291c-1.109.284-1.109.284-2.09.715-1.089.412-2.078.627-3.227.81-2.296.39-4.538.907-6.796 1.472l-2.698.664-1.467.363a3004.667 3004.667 0 0 1-9.32 2.282c-9.73 2.368-19.481 4.651-29.229 6.946l-11.713 2.758-1.463.345a6895.494 6895.494 0 0 0-20.561 4.879l-1.254.299-11.676 2.796-5.185 1.243-.98.234c-5.386 1.289-10.78 2.54-16.184 3.754-.862.198-1.719.409-2.577.621-.914.215-1.829.429-2.743.641l-.824.192-1.765.41-2.795.651-6.941 1.614-5.869 1.365-2.751.64-1.69.393-1.487.346c-.972.228-1.941.463-2.91.704-1.365.314-2.731.624-4.097.934-.672.154-1.345.31-2.014.477-1.218.3-2.44.583-3.662.867l-.824.192-1.765.41-2.795.65a17380.767 17380.767 0 0 1-12.809 2.98l-2.752.64-1.69.393-1.487.346c-.972.228-1.941.463-2.91.704a1633.235 1633.235 0 0 1-4.105.957l-3.914.909-2.862.666-.89.206c-2.531.566-2.531.566-5.003 1.328a25.055 25.055 0 0 1-3.398.78c-2.947.519-5.843 1.225-8.749 1.931l-1.629.392c-2.55.615-2.55.615-5.098 1.241-1.607.396-3.225.75-4.839 1.116-.981.226-1.958.458-2.934.703l-4.962 1.228-.814.204c-1.641.4-3.29.765-4.937 1.138-.981.226-1.957.46-2.933.704l-1.112.276c-2.82.704-5.641 1.409-8.461 2.116l-4.337 1.084c-1.402.349-2.803.7-4.204 1.052l-2.373.591-1.464.369-1.284.321c-1.117.315-2.158.713-3.232 1.147-.999.256-2.001.5-3.006.733-3.267.785-6.456 1.741-9.645 2.793-.869.285-1.74.562-2.612.84-7.008 2.161-7.008 2.161-12.03 7.091 1.448 2.714 3.612 3.935 6.334 5.249l.88.429a130.455 130.455 0 0 0 7.464 3.291l.902.368.936.381.903.368a4275.062 4275.062 0 0 0 49.028 19.623l7.313 2.876 2.88 1.133 1.42.559 4.192 1.649a6323.524 6323.524 0 0 1 15.318 6.045c11.909 4.718 23.834 9.396 35.755 14.086a64256.45 64256.45 0 0 1 19.743 7.773l4.056 1.597c4.649 1.833 9.298 3.663 13.992 5.379l.942.344c22.423 8.097 48.057-5.349 68.862-13.13 5.591-2.091 11.2-4.131 16.816-6.157l1.37-.495 6.924-2.497c4.061-1.464 8.121-2.932 12.181-4.401l4.027-1.455c4.029-1.457 8.058-2.914 12.085-4.374a4680.366 4680.366 0 0 1 35.271-12.629c3.228-1.142 6.456-2.288 9.683-3.434a6859.387 6859.387 0 0 1 49.511-17.374 5436.866 5436.866 0 0 0 20.121-7.02 4945.525 4945.525 0 0 1 22.408-7.8 6317.06 6317.06 0 0 0 28.688-9.999c3.168-1.113 6.337-2.224 9.506-3.334 3.265-1.143 6.53-2.288 9.794-3.432 2.73-.957 5.459-1.913 8.19-2.867l6.889-2.412c1.4-.491 2.801-.981 4.201-1.47 5.119-1.788 10.237-3.58 15.318-5.472l1.01-.371c4.715-1.582 4.715-1.582 8.209-4.809.232-1.224.232-1.224-.413-2.455-1.264-1.04-2.667-1.737-4.136-2.455l-1.184-.585c-7.688-3.505-16.255-5.579-24.455-7.599l-1.946-.49-1.162-.294-1.247-.315-1.288-.326-5.455-1.379-3.983-1.006-1.247-.315-1.162-.294-1.02-.258a440.917 440.917 0 0 0-5.307-1.294 16514 16514 0 0 0-1.601-.382l-1.668-.398-3.27-.78-1.464-.349c-.973-.234-1.945-.472-2.917-.712-1.711-.413-3.423-.823-5.135-1.233l-1.668-.4a1715.207 1715.207 0 0 1-3.88-.929 67.382 67.382 0 0 0-2.27-.49c-1.693-.339-3.37-.745-5.05-1.142a572.2 572.2 0 0 0-1.148-.271l-3.619-.855-2.44-.575-2.33-.55-1.106-.261-1.033-.244-.905-.214a71.607 71.607 0 0 1-1.686-.423c-.923-.231-.923-.231-2.338-.341-1.625-.186-3.072-.635-4.605-1.189-1.663-.544-3.389-.775-5.113-1.062-1.915-.34-3.741-.817-5.592-1.408-1.691-.499-3.422-.757-5.16-1.047-1.915-.34-3.741-.817-5.592-1.408-1.315-.389-2.64-.627-3.993-.85a66.397 66.397 0 0 1-6.749-1.501c-1.647-.448-3.236-.874-4.937-1.049-1.395-.153-1.395-.153-2.349-.532-1.253-.494-2.485-.788-3.802-1.079a777.13 777.13 0 0 1-1.383-.308c-.765-.164-1.531-.324-2.299-.474a104.255 104.255 0 0 1-3.022-.659c-4.189-.951-8.366-1.787-12.629-2.344l-1.146-.153c-3.423-.42-6.967-.782-10.304.256Z"/>
  <path fill="#494A4A" d="m397.101 257.576-.568.869c-.737 1.137-.737 1.137-.89 2.416-.609 1.216-.609 1.216-1.292 1.559-1.034.284-2.059.476-3.117.654l-1.297.242a246.62 246.62 0 0 1-4.828.807l-.985.157c-11.121 1.762-22.283 3.243-33.453 4.662l-1.374.176c-.852.109-1.704.217-2.556.323l-1.141.146-.994.126c-.929.128-.929.128-2.091.547-.704.066-1.41.114-2.116.154-4.102.288-8.176.814-12.255 1.313-1.406.171-2.813.34-4.219.509l-2.685.326-1.272.152-1.177.145-1.033.126c-.956.127-.956.127-2.123.549a72.43 72.43 0 0 1-2.418.189c-2.855.201-5.684.52-8.523.872l-1.539.188c-1.604.196-3.207.394-4.811.592l-3.249.398c-3.353.411-6.705.823-10.057 1.239-2.34.289-4.681.572-7.022.856l-1.547.188-5.7.693-5.598.679-1.48.18c-2.769.336-2.769.336-5.538.677-2.338.29-4.677.573-7.017.857l-1.547.188-5.7.692-5.598.68-1.479.179c-2.77.337-2.77.337-5.538.678-2.339.29-4.678.572-7.017.856l-1.548.188-5.7.692-5.598.68-1.479.18c-1.828.222-3.656.444-5.483.671-2.357.293-4.717.568-7.076.848-1.839.217-3.678.436-5.517.655-1.612.192-3.224.384-4.837.574-1.567.185-3.134.371-4.701.559l-1.787.211a2112.323 2112.323 0 0 0-3.922.466c-1.192.141-1.192.141-2.403.58-.852.074-1.705.132-2.559.179-2.285.149-4.551.36-6.823.639l-.856.103c-1.194.151-2.263.338-3.409.716-.842.074-1.686.131-2.53.179-3.16.206-6.293.553-9.436.938-.918.112-1.837.222-2.756.331-3.209.366-3.209.366-6.368 1.007-.604.075-1.209.138-1.814.19l-1.063.095-1.129.098c-2.881.262-5.759.539-8.633.87l-.871.098c-1.041.122-2.06.25-3.078.503-1.035.254-2.043.304-3.107.371-2.358.167-4.706.386-7.056.639l-.99.103c-1.691.159-1.691.159-3.274.715h-2.895l-.775.195c-1.077.263-2.097.31-3.205.368-4.757.305-9.485.922-14.216 1.483l.246.868 1.124 3.966.387 1.364a1066.9 1066.9 0 0 1 2.379 8.533c4.62-.24 9.17-.739 13.754-1.344l2.2-.286c1.975-.257 3.95-.517 5.925-.777l3.76-.494c16.65-2.184 33.28-4.496 49.907-6.844 8.312-1.174 16.625-2.338 24.938-3.503l2.821-.396c22.477-3.15 44.96-6.265 67.445-9.363l.881-.122 3.514-.484 11.912-1.644c24.35-3.368 48.707-6.668 73.088-9.805l2.514-.324 9.489-1.218 2.857-.365c4.334-.556 8.669-1.103 13.014-1.57l.927-.102c2.935-.305 5.851-.31 8.799-.231l.827 1.637c-1.85 1.318-3.583 1.586-5.783 1.908l-1.181.184a710.35 710.35 0 0 1-4.098.618l-3.141.48c-2.769.421-5.539.837-8.309 1.251-2.501.375-5.001.751-7.501 1.129-40.411 6.106-80.869 11.912-168.365 24.507l-10.166 1.46c-18.988 2.729-37.978 5.434-56.986 8.023l-1.126.154-6.378.866-2.971.404c-3.105.422-6.211.829-9.322 1.207l-2.599.322c-.799.097-1.598.189-2.397.28l-1.431.178-1.245.146c-1.135.283-1.566.568-2.265 1.483-.472 2.514.205 5.202.75 7.659l.27 1.25c1.523 6.893 3.258 13.741 4.951 20.595.656 2.656 1.308 5.313 1.959 7.971 1.9 7.747 3.802 15.493 5.724 23.234a3932.94 3932.94 0 0 1 2.497 10.125c.487 1.985.977 3.97 1.474 5.953.464 1.849.92 3.7 1.37 5.553.166.676.335 1.352.507 2.027.233.917.456 1.836.676 2.757l.385 1.554c.135 1.586-.168 2.14-1.127 3.386l-.573.827-1.495 2.037c-.859-1.491-1.256-3.075-1.68-4.726l-.245-.936c-.265-1.019-.529-2.038-.792-3.058l-.552-2.128c-.386-1.486-.77-2.971-1.154-4.458a2172.91 2172.91 0 0 0-1.482-5.712c-.381-1.465-.76-2.929-1.139-4.394l-.547-2.106c-.255-.981-.508-1.963-.76-2.944l-.231-.879c-.342-1.345-.515-2.448-.515-3.848l-.827-.409c-.248-.877-.248-.877-.44-1.969-.327-1.81-.748-3.57-1.221-5.346l-.247-.927-.263-.99-.274-1.027-.864-3.244-1.137-4.27-.264-.99-.246-.927-.216-.811c-.211-.803-.415-1.608-.618-2.413l-.764-2.877-.68-2.576-.473-1.778c-.23-.858-.456-1.717-.682-2.576l-.412-1.553c-.297-1.324-.297-1.324-.297-2.961l-.827-.409c-.218-.762-.218-.762-.388-1.764-.448-2.444-1.056-4.834-1.68-7.238l-.188-.745a1115.6 1115.6 0 0 0-.804-3.148c-.575-2.245-1.148-4.489-1.72-6.735-.345-1.356-.692-2.712-1.04-4.068-.403-1.566-.8-3.133-1.199-4.7l-.38-1.471-.347-1.374-.308-1.204c-.212-1.081-.258-2.053-.217-3.151l-.827-.409.413-1.228-.827-.409c-.142-.745-.142-.745-.206-1.688-.108-1.253-.271-2.189-.672-3.401-.347-1.396-.342-2.195-.178-3.595l.126-1.111.103-.844c16.801-2.626 33.63-4.999 50.496-7.18l4.56-.591c21.883-2.84 43.779-5.577 65.681-8.27 2.599-.319 5.199-.639 7.798-.96 29.655-3.652 59.319-7.231 101.449-12.192l4.825-.567c20.391-2.398 40.783-4.783 61.186-7.077 1.063-.119 2.125-.24 3.188-.361 1.629-.185 3.258-.368 4.888-.548l1.752-.198c3.11-.355 6.159-.616 9.291-.518Zm34.324 134.619c2.216 1.596 4.111 3.295 5.376 5.728.207 1.458.207 1.458 0 2.864a85.833 85.833 0 0 1-2.068 1.637c-.086 1.261-.086 1.261 0 2.455l1.183.122c6.325.728 11.295 2.16 15.522 7.127 2.19 3.084 3.5 6.564 3.145 10.346-.834 4.342-3.228 7.813-6.617 10.638-1.356.856-2.764 1.56-4.213 2.251l-1.113.562c-2.731 1.332-2.731 1.332-4.599.87l-.413-4.092c-1.588.393-1.985.565-3.127 1.586l-.874.78c-1.071 1.011-2.1 2.057-3.133 3.107-3.546 3.557-7.338 7.091-12.627 7.245-3.612-.182-6.424-1.373-8.888-4.017-3.31-4.308-4.408-9.255-5.484-14.457-.165-.818-.165-.818-.604-1.609-.996.046-.996.046-2.068.409-.762 1.007-.762 1.007-1.24 2.046-.931-.051-.931-.051-2.068-.409-2.772-3.37-3.218-7.655-2.895-11.866.787-5.277 3.622-10.53 7.857-13.912 1.356-.315 1.356-.315 2.482-.41l1.654 3.274h2.067l.199-.676c1.616-5.167 4.29-9.273 9.146-11.932 4.339-2.122 9.116-1.787 13.4.333Zm-123.42 162.626c1.788 1.029 3.621 1.957 5.463 2.885 10.034 5.081 10.034 5.081 10.959 7.034l.306.945c-1.043 1.236-2.088 1.606-3.618 2.102l-1.48.485-1.609.514-1.678.543c-5.791 1.872-11.613 3.648-17.439 5.408l-4.365 1.322-5.291 1.601c-3.17.958-6.338 1.921-9.504 2.892-1.761.54-3.522 1.077-5.284 1.614-.802.245-1.605.491-2.407.739-1.097.338-2.196.673-3.295 1.006l-.944.294c-3.767 1.132-6.527 1.329-10.255-.026l-1.122-.389c-4.407-1.551-8.765-3.235-13.108-4.951a639.167 639.167 0 0 0-4.235-1.648l-2.7-1.064-1.275-.49-1.169-.468-1.028-.403c-.982-.581-1.247-1.084-1.653-2.125 1.163-1.28 2.086-1.917 3.734-2.456l1.277-.423 1.398-.442 1.486-.48c6.218-1.973 12.515-3.676 18.81-5.388 3.082-.84 6.163-1.685 9.243-2.532l1.026-.281a558.057 558.057 0 0 0 13.325-3.833l1.471-.441a560.376 560.376 0 0 0 6.612-2.028c6.452-1.98 12.248-3.129 18.349.484Zm260.176-454.628c1.484 1.252 2.874 2.586 4.259 3.942l.849.764c6.137 5.628 9.661 15.056 10.002 23.232.233 10.741-2.832 19.913-10.354 27.877-7.225 7.413-17.207 11.841-27.605 12.153-9.557.08-17.853-2.588-25.411-8.378l-1.014-.775c-6.814-5.599-11.585-14.67-12.632-23.366-.631-11.393 1.465-21.223 9.33-29.998a237.31 237.31 0 0 1 1.835-1.918l.734-.79c12.717-13.292 35.786-14.05 50.007-2.743Zm-47.806 8.859c-5.984 7.035-7.658 15.714-7.166 24.671.739 8.476 4.992 15.685 11.174 21.428 7.199 5.805 16.294 7.279 25.313 6.678 8.407-1.07 15.574-6.203 20.677-12.685 5.284-7.73 7.112-16.41 5.505-25.653-1.713-8-6.782-15.173-13.673-19.637-13.569-8.456-30.827-6.337-41.83 5.198ZM397.386 562.181l1.212.679c1.88 1.061 3.741 2.15 5.567 3.3l.89.559c.818.675 1.154 1.274 1.558 2.239-4.298 4.253-11.647 5.691-17.265 7.519l-2.616.857a1975.437 1975.437 0 0 1-21.543 6.892 2486.788 2486.788 0 0 1-3.789 1.192 706.465 706.465 0 0 0-7.909 2.546l-1.973.645c-1.189.388-2.376.781-3.562 1.178l-1.569.512-1.34.445c-3.291.789-5.305-.038-8.196-1.512l-1.141-.567c-.793-.394-1.584-.792-2.375-1.193a511.108 511.108 0 0 0-3.629-1.813l-2.314-1.158-1.092-.544c-3.637-1.849-3.637-1.849-4.876-3.133-.148-.996-.148-.996 0-2.045 2.13-2.198 5.38-3.203 8.223-4.164l1.341-.466c5.945-2.039 11.95-3.906 17.949-5.782 2.637-.825 5.274-1.653 7.91-2.482l1.962-.616a799.841 799.841 0 0 0 13.45-4.342c1.86-.615 3.718-1.235 5.572-1.867 7.941-2.663 12.432-.942 19.555 3.121Zm-21.125-28.047 1.256.621c.872.433 1.744.87 2.614 1.308 1.33.671 2.665 1.332 4.001 1.991l2.545 1.271 1.208.598 1.125.571.987.495c1.043.641 1.789 1.239 2.555 2.191.212 1.048.212 1.048 0 2.046-2.486 2.323-6.246 3.31-9.428 4.32l-1.602.518c-7.595 2.432-15.291 4.55-22.968 6.708a4069.24 4069.24 0 0 0-6.228 1.758c-2.328.658-4.656 1.316-6.985 1.971l-1.057.298-1.951.549a83.727 83.727 0 0 0-3.54 1.064c-4.516.455-8.514-2.379-12.251-4.553l-1.424-.821c-10.034-5.81-10.034-5.81-11.551-7.311-.026-.793-.026-.793.414-1.637 1.9-.899 3.806-1.537 5.833-2.115l.846-.243c.92-.264 1.842-.525 2.763-.786l1.961-.56c1.741-.498 3.483-.993 5.225-1.488 1.794-.51 3.588-1.022 5.382-1.534a13657.896 13657.896 0 0 1 15.44-4.393l7.315-2.077 1.048-.297 2.861-.809 1.546-.436 1.472-.401.82-.234c3.881-1.051 6.25-.367 9.768 1.417Zm-69.905-4.15 1.431.739a147.934 147.934 0 0 1 6.722 3.717l1.113.653c1.026.881 1.135 1.452 1.253 2.768-2.217 1.503-4.322 2.509-6.897 3.256l-1.027.309c-3.967 1.179-7.971 2.219-11.979 3.252l-2.443.635c-2.123.552-4.246 1.101-6.369 1.65-3.398.879-6.795 1.762-10.191 2.644a17493.31 17493.31 0 0 0-4.625 1.198l-2.158.556c-1.74.449-3.467.922-5.186 1.445l-1.011.301c-.622.186-1.242.379-1.859.58-2.77.823-4.972.21-7.569-1.019l-.92-.432a506.97 506.97 0 0 0-.959-.463l-1.023-.488c-3.426-1.645-6.796-3.395-10.151-5.176-.85-.45-1.702-.896-2.555-1.34l-1.468-.771a452.11 452.11 0 0 1-1.268-.665c-.981-.562-.981-.562-1.808-1.381.155-1.074.155-1.074.414-2.045 3.826-1.201 7.676-2.267 11.561-3.264l1.762-.456c1.554-.401 3.108-.801 4.663-1.2l2.89-.743c14.745-3.794 14.745-3.794 21.739-5.541l1.99-.5c9.794-2.469 16.791-3.075 25.928 1.781Zm264.043-27.696 1.622.388c1.658.399 3.313.81 4.968 1.223l1.603.397c1.492.373 2.982.753 4.471 1.138l1.376.348 1.265.336 1.106.289c1.008.386 1.514.741 2.172 1.584.051.997.051.997-.414 2.046-2.551 1.721-5.408 2.558-8.322 3.506l-1.643.543c-1.48.489-2.96.974-4.442 1.458-1.552.508-3.103 1.02-4.655 1.531-2.603.858-5.207 1.713-7.812 2.566-3.673 1.204-7.344 2.412-11.015 3.62a22680.187 22680.187 0 0 1-9.487 3.12l-5.272 1.73-2.357.774-1.418.464-1.231.404c-5.131 1.602-8.487.255-13.156-1.986-1.278-.608-2.565-1.196-3.852-1.784-.933-.43-1.866-.861-2.798-1.293l-1.353-.618c-2.205-1.037-3.98-1.933-5.548-3.806 4.097-4.5 12.565-5.79 18.17-7.544l3.078-.97c2.092-.66 4.185-1.319 6.279-1.976 2.906-.913 5.811-1.833 8.714-2.755l3.921-1.244 2.454-.779a886.561 886.561 0 0 1 6.494-2.038c.596-.185 1.19-.372 1.784-.562 5.579-1.784 9.648-1.496 15.298-.11Zm64.072 12.25.413 1.227c-6.389 2.541-12.88 4.796-19.375 7.056-1.511.526-3.022 1.054-4.533 1.582l-.914.319-1.82.635-2.705.944a3063.77 3063.77 0 0 0-13.738 4.834 8807.685 8807.685 0 0 1-47.33 16.598 3090.877 3090.877 0 0 0-17.853 6.264c-9.264 3.285-18.553 6.501-27.84 9.72-3.35 1.161-6.699 2.325-10.047 3.492l-1.368.477a8451.734 8451.734 0 0 1-22.238 7.723l-.877.303c-2.838.979-5.677 1.959-8.516 2.937-1.303.448-2.605.898-3.908 1.347l-1.508.52a589.908 589.908 0 0 0-8.885 3.141c-.904.326-1.807.654-2.709.984l-1.209.437-1.056.385c-.895.271-.895.271-2.135.271l-.414.818c-.846.285-.846.285-1.964.551-2.713.692-5.331 1.584-7.972 2.507l-2.361.819-2.498.869c-1.75.61-3.501 1.217-5.252 1.824l-1.788.62-.895.31-2.699.936a4130.935 4130.935 0 0 1-46.895 15.945c-2.608.87-5.213 1.745-7.816 2.628-1.4.475-2.801.946-4.203 1.416-.622.21-1.244.421-1.865.634-.833.285-1.667.565-2.502.843l-1.373.466c-1.443.354-2.722.378-4.203.321l-.414-1.637a55.045 55.045 0 0 1 6.885-2.97l1.038-.372c1.132-.405 2.265-.808 3.398-1.21l2.427-.867c1.71-.611 3.421-1.221 5.132-1.83 2.152-.766 4.303-1.534 6.453-2.303 17.135-6.128 34.313-12.131 51.507-18.093a4833.832 4833.832 0 0 0 18.532-6.47c10.525-3.697 21.072-7.334 31.618-10.973 4.107-1.417 8.212-2.837 12.317-4.26 14.301-4.956 28.611-9.886 42.927-14.797l8.889-3.051c10.882-3.737 21.765-7.469 32.65-11.194 2.675-.916 5.349-1.833 8.022-2.752a4287.062 4287.062 0 0 1 35.172-11.907l3.288-1.1c3.651-1.221 7.303-2.439 10.96-3.646 1.687-.557 3.373-1.119 5.058-1.685l2.084-.683.861-.295c2.048-.657 3.922-.704 6.047-.608ZM483.53 480.167l2.592.615c.815.211 1.63.424 2.443.64l1.326.347c.91.238 1.819.478 2.728.719 1.394.369 2.79.732 4.186 1.096l2.667.702 1.261.328 1.165.311 1.022.27c.873.292.873.292 2.114 1.11-.071.742-.071.742-.413 1.637-3.09 2.104-6.841 3.157-10.41 4.175l-1.601.465c-7.056 2.034-14.184 3.813-21.304 5.614-2.96.75-5.92 1.504-8.88 2.258-1.012.258-2.025.514-3.038.771l-1.909.484-.93.235c-1.616.411-3.221.847-4.82 1.319l-1.011.293c-.632.185-1.263.374-1.893.57-2.884.839-5.156.378-7.929-.727l-1.41-.561-1.47-.601-1.509-.614c-9.038-3.74-9.038-3.74-12.112-7.135-.052-.869-.052-.869.413-1.636 1.396-.939 2.681-1.472 4.309-1.888l1.375-.358 1.518-.384 1.628-.419c1.21-.313 2.421-.624 3.632-.934 2.152-.553 4.301-1.119 6.449-1.686 3.649-.961 7.302-1.909 10.958-2.845 2.115-.543 4.23-1.09 6.341-1.65 2.084-.552 4.171-1.09 6.261-1.619a187.8 187.8 0 0 0 2.345-.616c5.102-1.372 8.777-1.715 13.906-.286Zm36.417 9.513.977.022c7.818.372 15.625 3.603 22.982 6.014l.414 2.045c-3.248 1.787-6.748 2.848-10.261 3.998l-2.079.687c-1.846.609-3.693 1.215-5.54 1.82l-3.426 1.125c-8.699 2.856-17.401 5.712-26.14 8.449-.827.259-1.654.52-2.481.782-1.119.354-2.239.702-3.361 1.047l-.961.307c-2.887.872-4.459.265-7.156-.89l-.772-.33c-.823-.352-1.643-.707-2.464-1.062l-.843-.364c-10.234-4.412-10.234-4.412-13.501-6.567.029-.744.029-.744.413-1.636a20.07 20.07 0 0 1 2.843-1.188l.896-.315c3.535-1.22 7.132-2.23 10.735-3.228l2.241-.63a942.248 942.248 0 0 1 12.585-3.419l1.338-.355c2.145-.569 4.291-1.134 6.438-1.692 3.54-.928 7.003-1.89 10.411-3.223 2.262-.881 4.264-1.495 6.712-1.397ZM359.16 511.776l.839.434c2.409 1.267 4.771 2.619 7.121 3.99l1.033.597c2.281 1.359 4.258 2.899 6.204 4.697-.078.946-.078.946-.414 2.045-1.641 1.329-3.668 1.756-5.679 2.292l-1.076.296c-1.159.317-2.319.629-3.48.942l-2.406.655c-1.623.442-3.246.882-4.87 1.32-1.811.49-3.62.984-5.429 1.481-1.233.339-2.466.677-3.7 1.014l-1.695.465c-8.712 2.398-15.137 3.13-23.343-1.332l-1.228-.688-1.295-.71a606.74 606.74 0 0 1-3.694-2.052l-1.912-1.061c-3.766-2.102-3.766-2.102-4.291-2.622a42.249 42.249 0 0 1 0-2.045c2.108-.952 4.172-1.622 6.416-2.181l1.031-.262c1.116-.284 2.233-.565 3.351-.845l2.347-.595c1.637-.414 3.275-.827 4.913-1.239 2.09-.525 4.178-1.053 6.267-1.583 1.615-.41 3.231-.817 4.847-1.225l2.308-.584c13.641-3.454 13.641-3.454 17.835-1.204Zm138.136 12.801.87.327c3.033 1.167 5.956 2.54 8.863 3.983.892.441 1.789.873 2.686 1.304l1.714.845.808.385c1.81.914 1.81.914 2.271 2.033l.037.724c-1.714 1.216-3.243 1.988-5.267 2.641l-.825.269c-.906.296-1.813.585-2.721.875l-1.935.628c-1.418.461-2.836.918-4.256 1.374-2.576.828-5.15 1.661-7.724 2.494a7010.71 7010.71 0 0 1-11.772 3.801l-1.085.35-1.034.333c-1.319.429-2.633.872-3.946 1.318-5.68 1.72-10.883-1.844-15.701-4.368a437.412 437.412 0 0 1-2.869-1.531l-1.024-.55-.999-.542-.897-.486c-1.041-.607-1.96-1.32-2.87-2.105.048-.933.048-.933.414-2.045 3.484-2.413 7.833-3.646 11.863-4.834.569-.171 1.137-.343 1.705-.516 4.949-1.491 9.925-2.896 14.908-4.271a163.682 163.682 0 0 0 9.886-3.065c3.268-.996 5.752-.563 8.9.629Zm-79.518-25.588 1.138.618a690.4 690.4 0 0 1 3.773 2.068l1.221.671c5.379 3.01 5.379 3.01 6.688 4.418v1.636c-6.263 2.571-12.811 4.188-19.348 5.922-2.59.691-5.161 1.429-7.729 2.199-16.17 4.815-16.17 4.815-21.72 2.211a37.885 37.885 0 0 1-3.186-1.934c-1.201-.788-2.453-1.36-3.762-1.947-7.042-3.196-7.042-3.196-8.512-5.845l-.255-1.015c.994-1.474 1.379-1.499 3.063-1.943l1.423-.382 1.556-.402a795.824 795.824 0 0 1 5.911-1.55l2.542-.659a1992.6 1992.6 0 0 1 10.817-2.777c1.145-.291 2.289-.584 3.434-.876l3.361-.857 2.329-.595c7.038-1.787 10.734-2.568 17.256 1.039Zm27.578 42.682.91.543c.983.59 1.962 1.187 2.941 1.784.35.212.699.424 1.06.641 1.062.644 2.121 1.292 3.179 1.942l.999.609c1.766 1.099 3.386 2.134 4.687 3.764-.054.819-.054.819-.414 1.637-3.051 2.253-7.328 3.251-10.907 4.476l-.981.337a842.55 842.55 0 0 1-16.185 5.384c-.803.259-1.604.52-2.405.783-1.127.369-2.257.73-3.388 1.088l-1.007.335c-2.519.781-4.472.829-7.013-.043l-.761-.395-.895-.46-.939-.508-.999-.53c-10.474-5.682-10.474-5.682-13.242-8.421a41.047 41.047 0 0 1 0-2.046c2.717-1.443 5.485-2.43 8.41-3.382l1.494-.492c1.044-.344 2.089-.687 3.134-1.028 1.561-.509 3.12-1.023 4.68-1.538a759.366 759.366 0 0 1 15.174-4.831l1.358-.416 1.259-.381 1.096-.333c3.566-.984 5.674-.393 8.755 1.481Zm19.565-29.588 1.214.662a627.404 627.404 0 0 1 7.435 4.128c.862.529.862.529 1.69 1.347-.052.793-.052.793-.414 1.637-1.141.978-2.197 1.487-3.628 1.936l-1.186.376-1.278.396-1.333.42c-1.409.444-2.82.883-4.231 1.322l-2.788.877c-3.97 1.248-7.945 2.483-11.94 3.653l-.839.246c-4.843 1.4-7.763 1.21-12.173-1.13a168.937 168.937 0 0 1-2.836-1.626l-1.022-.592c-1.022-.593-2.042-1.19-3.062-1.786l-1.845-1.069-1.67-.977-.772-.448c-1.19-.702-2.24-1.38-3.157-2.416.396-1.011.622-1.53 1.608-2.045l.98-.295 1.148-.356 1.279-.373 1.341-.407c1.015-.306 2.03-.61 3.047-.91a632.08 632.08 0 0 0 4.862-1.467c1.469-.447 2.938-.891 4.408-1.334.727-.219 1.453-.439 2.179-.66 8.855-2.685 14.676-3.681 22.983.891Z"/>
  <path fill="#494A4A" d="m544.889 105.209 1.151.013c6.95.156 12.418 2.612 17.303 7.506l.706.671c4.207 4.35 5.846 10.54 6.039 16.412-.331 7.21-2.986 13.551-8.277 18.563-5.932 4.811-13.233 6.196-20.725 5.465-6.235-.918-11.699-4.097-15.711-8.914-4.389-5.999-5.909-12.667-4.861-19.938 1.221-5.086 3.914-9.464 7.678-13.078l.798-.801c4.286-4.038 10.057-5.992 15.899-5.899Zm-15.225 10.862c-4.124 4.786-4.843 10.487-4.459 16.575.48 4.94 3.032 9.603 6.673 12.995 3.371 2.498 7.436 4 11.615 4.322l.835.067c5.474.221 10.469-1.581 14.776-4.85 4.023-3.675 6.038-9.074 6.319-14.394-.062-6.204-1.834-11.508-6.216-16.013-5.172-4.61-10.876-5.278-17.591-4.99-4.727.372-8.762 2.935-11.952 6.288Zm-108.568 410.66c.846.508 1.696 1.007 2.548 1.503l.853.499c.539.315 1.079.629 1.62.942 2.423 1.423 2.423 1.423 3.24 2.457.078.998.078.998-.413 2.046-2.845 1.655-5.927 2.516-9.072 3.453l-1.615.485-3.174.948c-1.224.368-2.442.75-3.658 1.142l-.951.299c-.795.25-1.588.505-2.382.76-3.494.657-6.249-.401-9.388-1.87l-1.173-.538a133.535 133.535 0 0 1-13.249-7.134l-.947-.557c-.707-.67-.707-.67-.811-1.77l.104-.946c3.901-1.515 7.911-2.657 11.931-3.813 1.148-.33 2.294-.663 3.441-.997l2.219-.641 1.022-.297c8.391-2.403 12.616-.356 19.855 4.029Zm39.276-79.298c.155 1.1.155 1.1 0 2.455-2.434 2.526-5.483 3.387-8.839 4.117l-.936.21c-.606.136-1.212.27-1.818.404-.681.15-1.36.307-2.039.465-1.435.334-2.666.533-4.15.533l-.413.818c-.775.2-.775.2-1.837.355-2.11.345-4.183.778-6.264 1.259l-.95.218c-1.305.301-2.609.603-3.913.906-.963.224-1.927.445-2.891.666l-.89.21c-1.365.312-2.521.478-3.932.478l-.414.818c-.951.218-.951.218-2.197.388-2.614.393-5.15.957-7.714 1.584l-1.358.327c-1.895.456-3.789.917-5.684 1.377-1.391.337-2.783.672-4.176 1.007l-1.297.318-1.206.29-1.056.257c-.951.18-.951.18-2.605.18l-.413.819c-.945.169-.945.169-2.094.256l-1.152.092-.89.061c.179-.555.361-1.109.543-1.662l.305-.935.393-1.086.457-1.439c.783-1.425.783-1.425 2.114-2.036a38.21 38.21 0 0 1 1.678-.361l.933-.212c1.029-.23 2.061-.443 3.093-.655a705.066 705.066 0 0 1 8.143-1.761c2.059-.436 4.114-.886 6.17-1.335 2.942-.641 5.884-1.277 8.828-1.908a1384.14 1384.14 0 0 0 14.103-3.104c2.064-.465 4.129-.928 6.194-1.39 1.619-.363 3.238-.727 4.856-1.093 1.508-.341 3.017-.678 4.527-1.01.807-.18 1.613-.363 2.419-.547l1.454-.318 1.253-.281c1.314-.16 2.377-.009 3.665.265Zm-64.821-217.297 2.024.005c1.634.005 3.268.012 4.902.02l-.484.497c-1.718 1.856-2.739 3.708-3.651 6.05l-1.157.106c-1.418.131-2.835.263-4.252.396l-1.84.17c-.882.081-1.763.164-2.645.247l-1.608.149c-1.324.116-1.324.116-2.558.569-.818.065-1.636.113-2.456.153-5.125.305-10.224.922-15.326 1.483a205.13 205.13 0 0 1 5.759-6.401c.862-.887.862-.887 1.271-1.782.841-.199.841-.199 1.946-.334l1.229-.155 1.296-.151 1.243-.155c1.265-.155 2.53-.297 3.797-.433l1.157-.127c3.782-.365 7.557-.328 11.353-.307Zm33.806 118.686c.978.968 1.113 1.575 1.48 2.886l.375 1.328.405 1.463.658 2.337c.236.839.471 1.679.705 2.519.741 2.654 1.49 5.306 2.238 7.957l.522 1.85a2371.72 2371.72 0 0 0 6.018 20.9l.793 2.722c.977 3.35 1.955 6.7 2.934 10.049-1.41.465-1.656.355-2.972-.179l-.897-.357-.68-.282-.108-1.006-.176-1.373-.16-1.338c-.239-1.268-.695-2.272-1.281-3.422-1.669-3.581-2.64-7.396-3.724-11.18-.237-.823-.476-1.645-.714-2.468-.496-1.715-.99-3.43-1.481-5.147-.63-2.197-1.266-4.393-1.904-6.589-.492-1.694-.98-3.389-1.468-5.085-.233-.81-.467-1.62-.703-2.43a816.78 816.78 0 0 1-.973-3.392l-.295-1.007c-.593-2.104-1.112-4.029-.207-6.119l.581-.949.582-.969.452-.719ZM182.476 568.958c2.669.207 4.884.704 7.37 1.663l1.02.381c1.082.406 2.162.817 3.241 1.23l2.234.844c1.466.553 2.93 1.11 4.394 1.668 1.707.65 3.419 1.286 5.134 1.915l2.531.943 1.127.408c2.012.764 3.406 1.514 4.792 3.224.181 1.099.181 1.099 0 2.046-1.106 1.094-1.755 1.123-3.309 1.227a26.9 26.9 0 0 1-3.059-.98l-.882-.326c-.946-.351-1.888-.711-2.83-1.072l-1.957-.736a686.769 686.769 0 0 1-5.745-2.205l-.819-.317a391.656 391.656 0 0 1-4.816-1.908l-1.168-.466c-2.968-1.227-6.363-2.665-8.085-5.493.336-1.125.336-1.125.827-2.046Zm81.053-309.745c1.292.734 1.881 1.31 2.611 2.583.525 2.032.56 3.427-.414 5.319-1.324 1.522-2.263 1.822-4.238 2.071-1.625-.197-2.477-.789-3.748-1.79-1.17-1.736-1.15-3.281-.827-5.319 1.525-2.805 3.622-3.233 6.616-2.864Zm-162.105 42.144 1.24.41c.077 1.673-.082 2.617-.827 4.091-.062.849-.062.849.414 1.637 1.231.926 1.231.926 2.481 1.637l-.414 2.046-.878-.179a117.513 117.513 0 0 0-3.67-.64l-1.655 2.455-1.654-.409c-.081-1.726.082-2.934.827-4.501l-2.895-2.455.414-2.046 4.135 1.228c1.263-1.486 1.263-1.486 1.654-2.864l.828-.41Zm174.925-41.735c1.034.665 1.034.665 1.654 1.636-.026 1.28-.216 2.11-.853 3.223-1.316.756-2.635.778-4.109.46-.879-.844-.879-.844-1.241-2.046.284-1.534.284-1.534.827-2.864 1.279-.633 2.314-.529 3.722-.409Zm-163.346 44.191c.572 1.133.491 2.018.413 3.273l-.827 1.228c-1.295.163-2.122.213-3.257-.461-.683-1.127-.628-1.933-.465-3.222.97-1.75 2.395-1.233 4.136-.818Z"/>
</svg>
