<svg xmlns="http://www.w3.org/2000/svg" width="756" height="754" fill="none" viewBox="0 0 756 754">
  <ellipse cx="377.557" cy="401.833" fill="#96AA97" fill-opacity=".29" rx="272.516" ry="280.454"/>
  <path fill="#494A4A" d="M493.883 188.292c14.126 8.88 27.844 20.143 38.017 33.42.477.593.954 1.186 1.433 1.778 7.648 9.528 14.011 20.018 19.3 31.02.419.867.848 1.729 1.278 2.591 6.753 13.701 11.395 28.665 14.439 43.601l.307 1.498c2.488 12.313 3.845 24.599 3.827 37.156v1.098c-.051 25.015-.051 25.015-6.187 32.03-3.743 2.675-8.857 2.426-13.239 2.322a298.428 298.428 0 0 0-4.916-.059l-.965-.006c-4.726-.011-9.408.368-13.927 1.81l-.45.449c0 2.921.863 5.426 1.997 8.079 3.374 7.992 3.33 15.948.028 24.067-.716 1.635-1.547 3.133-2.475 4.656 1.684.619 3.367 1.237 5.052 1.854l2.735 1.006c3.122 1.147 6.25 2.27 9.399 3.341l1.748.601c1.108.379 2.218.753 3.33 1.12l1.51.52 1.332.446c.994.537.994.537 1.364 1.496l.08.837-.672.519c-1.783 1.38-3.564 2.761-5.343 4.146-1.15.895-2.304 1.783-3.467 2.661-8.658 6.622-15.67 17.835-17.406 28.656-.357 4.038.04 8.225 2.672 11.451 5.216 4.277 11.575 6.702 18.387 6.354 5.728-.839 9.52-4.06 13.479-8.009l.984-.982c5.425-5.759 9.535-12.961 11.829-20.492l.292-.959c.485-1.603.954-3.209 1.401-4.823.977-3.42 1.998-6.307 4.844-8.649 3.576-1.86 7.93-.789 11.672.057l1.374.307c9.06 2.09 20.632 5.39 27.595 11.817 1.077 1.822 1.105 3.257.759 5.323-.495 1.467-1.176 2.792-1.913 4.152l-.606 1.16a235.24 235.24 0 0 1-1.981 3.664l-.685 1.246c-4.758 8.583-10.02 16.961-16.761 24.154a99.434 99.434 0 0 0-2.428 2.726c-5.134 5.868-10.754 11.227-17.026 15.858-.715.576-1.428 1.156-2.138 1.739-5.241 4.188-10.802 7.977-16.414 11.65-1.283.841-2.559 1.693-3.836 2.543a2410.308 2410.308 0 0 1-6.57 4.359c-7.698 5.092-15.353 10.189-22.56 15.965-.619.496-1.243.988-1.867 1.479-3.117 2.459-6.152 5.01-9.165 7.594l-1.088.929c-5.222 4.572-10.361 9.486-14.639 14.955a81.506 81.506 0 0 1-2.663 3.177c-4.066 4.673-7.556 9.77-11.118 14.827-4.268 6.054-8.541 11.933-13.692 17.277l-.803.887c-4.626 4.965-11.066 8.583-17.89 9.109-11.879.426-22.809-5.484-33.057-10.894l-1.489-.782c-7.442-4.074-14.493-9.059-21.011-14.478l-.801-.661a157.53 157.53 0 0 1-9.83-8.904c-.299-.289-.597-.579-.904-.878-2.8-2.796-5.108-5.684-5.34-9.753.044-2.603.65-4.663 1.573-7.06l.425-1.123c1.582-4.123 3.391-8.14 5.23-12.154l1.077-2.367a1567.477 1567.477 0 0 1 9.47-20.382l.441-.932.92-1.948 2.351-4.974.462-.976c1.922-4.068 3.83-8.142 5.698-12.236l.555-1.215c.632-1.393 1.238-2.746 1.723-4.198l-.766.196c-9.735 2.144-18.75.501-27.134-4.685-1.434-.966-2.747-2.007-4.05-3.141l-1.218-1.021c-4.02-3.477-6.842-7.277-9.273-11.967l-.444-.842c-2.328-4.7-2.783-9.432-2.734-14.614l-.016-1.647c.025-7.669 1.779-14.446 7.207-20.067 5.927-5.535 13.977-8.508 22.059-8.777.657.031 1.314.08 1.969.141l1.375.11c12.148 1.333 22.229 8.388 30.125 17.393 1.197 1.561 2.186 3.226 3.15 4.937 1.845-3.844 3.38-7.783 4.893-11.764 11.665-30.668 11.665-30.668 17.269-42.037l.417-.85c.402-.794.837-1.571 1.271-2.348l.463-.896c.72-1.224 1.248-2.083 2.649-2.505 2.972-.149 5.669.991 8.391 2.055l1.376.519c1.109.419 2.216.845 3.321 1.276l.267-1.427c.722-2.879 2.196-5.434 3.558-8.054.531-1.029 1.061-2.058 1.589-3.089l.711-1.369c1.098-2.32 1.937-4.183 1.075-6.706-4.594-2.343-11.386-1.423-16.43-1.45-1.391-.007-2.781-.018-4.172-.029-3.95-.031-7.9-.058-11.849-.081-2.429-.015-4.857-.033-7.286-.054-.914-.007-1.828-.013-2.742-.017-4.669-.02-9.299-.14-13.949-.573l-1.153-.107c-6.115-.626-12.1-2.089-16.442-6.681-9.04-11.779-3.341-41.258-2.346-55.27.393-5.683.342-11.348.276-17.042-.16-14.882-.16-14.882 3.613-18.782 1.781-1.614 3.006-2.56 5.458-2.86 3.24.308 5.802 2.134 8.56 3.764 7.041 4.124 13.536 5.02 21.534 3.95l1.177-.153c4.271-.653 8.698-2.295 11.398-5.799 3.861-5.776 4.856-11.938 3.896-18.78-1.017-4.514-3.004-8.543-6.093-11.986v-.898l-.796-.38c-.94-.485-1.786-1.023-2.663-1.611-5.217-3.254-10.907-3.4-16.791-2.048-6.753 1.863-12.578 5.416-18.097 9.63-2.517 1.92-4.437 2.406-7.553 2.039-2.427-.826-3.676-2.325-4.95-4.488-5.416-15.259-4.212-33.546-4.192-49.502.003-2.299-.005-4.598-.016-6.897-.006-1.794-.007-3.588-.005-5.383 0-.848-.003-1.697-.007-2.545-.006-1.179-.003-2.358.002-3.537l-.01-1.034c.034-3.547.952-6.827 3.429-9.453 13.936-11.148 71.885 13.122 85.632 21.593ZM468.45 399.889l-.304.837a2913.616 2913.616 0 0 1-8.755 23.657c-.404 1.082-.808 2.165-1.21 3.248-2.146 5.768-4.354 11.499-6.754 17.167l-.6 1.419c-5.31 12.393-5.31 12.393-9.377 15.159-1.406.533-1.406.533-2.7.449-1.727-1.534-3.119-3.293-4.5-5.133-5.519-7.302-12.319-11.919-21.15-14.615l-1.399-.436c-6.627-1.803-14.355-1.721-20.539 1.446-4.388 2.676-7.34 5.999-8.725 11.036-1.562 6.714-.118 13.676 3.357 19.557 4.316 6.627 10.452 11.299 18.241 13.054 3.638.577 7.022.336 10.591-.466 2.951-.52 5.91-.725 8.655.55 1.879 1.824 2.589 3.264 2.653 5.918l-.009 1.011-.009 1.073c-.487 16.171-11.29 33.098-18.272 47.3a637.725 637.725 0 0 0-6.272 13.085l-.658 1.414c-2.361 4.7-2.361 4.7-2.464 9.779 1.6 2.634 3.767 4.792 6.133 6.748.836.69 1.648 1.393 2.457 2.114 3.676 3.254 7.5 6.038 11.66 8.641l.927.587c9.376 5.914 19.2 11.408 29.589 15.346l.872.331c5.873 2.139 12.853 1.973 18.562-.555 1.743-.935 3.352-1.979 4.95-3.142l.833-.58c6.44-4.947 11.153-13.522 15.817-20.065 7.432-10.411 15.421-19.953 24.484-28.991.748-.747 1.492-1.497 2.236-2.247 2.947-2.955 5.983-5.686 9.28-8.258l.882-.701c.734-.584 1.472-1.162 2.212-1.739l.802-.625 1.626-1.265c.729-.568 1.454-1.14 2.179-1.713a151.61 151.61 0 0 1 8.311-6.036l1.121-.762c4.812-3.27 9.644-6.511 14.474-9.753 11.111-7.346 11.111-7.346 21.887-15.162l1.193-.913a184.16 184.16 0 0 0 9.213-7.558l1.343-1.173c3.601-3.198 6.654-6.673 9.569-10.496l.762-.997c2.307-3.041 4.478-6.165 6.616-9.325a461.97 461.97 0 0 1 2.534-3.683c.621-.898 1.24-1.798 1.857-2.699a219.055 219.055 0 0 1 2.296-3.282l1.01-1.445.893-1.255c.632-1.035.632-1.035.616-2.046-.78-1.337-2.009-1.814-3.365-2.449l-.937-.453c-5.076-2.395-10.321-4.428-15.544-6.476l-1.126-.445c-3.626-1.53-3.626-1.53-7.424-1.35l-.315 1.108c-4.205 14.691-10.709 33.251-24.885 41.529-7.222 3.827-15.303 4.251-23.106 1.909-6.345-2.172-11.388-5.868-14.694-11.783-3.378-7.5-3.794-15.15-.9-22.889 2.948-7.061 7.307-12.92 12.6-18.401l.793-.877c2.506-2.695 5.638-4.677 8.657-6.753-1.092-.726-1.842-1.123-3.044-1.542l-1.02-.358-1.095-.377-1.132-.392c-.789-.272-1.578-.544-2.368-.814a596.072 596.072 0 0 1-3.62-1.258l-2.302-.79-1.093-.385-1.023-.346-.896-.309c-1.031-.194-1.674-.057-2.657.288-.718.62-.718.62-1.378 1.402-4.486 4.655-10.695 7.395-17.072 8.023l-1.104.114c-6.557.335-13.316-2.608-18.165-6.851a92.8 92.8 0 0 1-3.231-3.137l-.942-.91c-3.507-3.628-5.523-8.806-6.052-13.768l-.118-1.096-.088-.832c-1.303-.441-2.606-.88-3.909-1.318l-1.114-.378-1.085-.364-.993-.335c-1.074-.32-2.147-.543-3.249-.747Z"/>
  <path fill="#494A4A" d="m334.181 180.309 1.165-.013c2.316.013 4.116.19 6.063 1.556 2.103 2.897 1.629 6.831 1.634 10.217l.014 1.906c.012 1.721.019 3.443.025 5.165.007 1.815.019 3.63.031 5.445.021 3.449.037 6.898.052 10.347.017 3.878.04 7.755.062 11.632.074 12.595.138 25.19.123 37.785 2.535-2.034 4.993-4.065 7.341-6.312 5.963-5.433 13.769-8.667 21.894-8.545 9.06.456 16.813 4.552 22.96 11.068 7.122 7.906 9.567 18.338 9.093 28.709-.55 6.951-3.573 13.004-8.188 18.166l-.856.966c-4.901 5.208-11.755 8.463-18.884 9.006-10.355.321-20.326-6.125-28.86-11.319l-.45-.449c-.092 27.772-.154 55.542.366 83.311l.028 1.537c.339 17.918.837 35.832 1.421 53.744.246 7.574.491 15.146.53 22.724l.016 1.628c-.005 6.094-.005 6.094-1.995 8.193-2.655 1.589-5.865 2.378-8.916 1.655-1.479-.912-2.793-1.937-4.145-3.028-5.709-4.601-13.465-5.084-20.493-4.434-.638.087-1.276.181-1.912.281l-1.041.151c-6.04 1.023-11.32 3.295-15.075 8.236-3.755 5.691-4.42 12.477-3.15 19.046 1.161 4.912 3.464 9.68 7.707 12.623a66.31 66.31 0 0 0 2.109 1.234l.923.533c6.634 3.39 14.293 2.183 21.103.022 3.157-1.077 6.071-2.59 9.02-4.131 1.529-.783 3.085-1.508 4.645-2.23l.857-.4c2.602-1.206 4.686-1.78 7.552-1.423 1.535.846 2.094 1.411 2.75 3.029.414 1.509.516 2.76.522 4.322l.014 1.719v1.871l.012 1.986c.008 1.426.013 2.852.017 4.278.005 2.277.016 4.555.029 6.832.018 3.629.033 7.257.046 10.886a14107.185 14107.185 0 0 0 .105 23.897c.046 9.482.109 18.963.314 28.443l.026 1.267c.024 1.13.051 2.259.08 3.389l.02.974c.032 1.631.032 1.631.565 3.152 5.622.075 11.218-.139 16.833-.384 29.943-1.29 29.943-1.29 33.425 1.273 1.388 1.805 1.763 3.474 2.223 5.675l.278 1.25c.615 2.833 1.156 5.68 1.635 8.539l.18 1.053c.295 1.906.513 3.618-.124 5.483-1.851.981-3.824 1.177-5.876 1.413l-1.091.133c-1.193.143-2.386.281-3.58.418l-1.255.146a726.309 726.309 0 0 1-19.811 2.014l-1.178.106c-14.412 1.293-28.821 1.766-43.286 1.72l-3.609-.006c-9.33-.014-18.655-.063-27.977-.502l-1.174-.053c-7.605-.362-7.605-.362-9.881-1.904-.783-1.166-.815-2.203-.943-3.593l-.166-1.675-.154-1.751c-.108-1.14-.217-2.279-.327-3.419l-.138-1.534a34.321 34.321 0 0 0-.604-3.631l-1.617-.199c-10.059-1.347-18.337-4.861-24.933-12.816-2.891-3.893-4.601-8.36-5.85-13.016l-.246-.904c-2.438-9.311-2.803-19.106-3.301-28.681-1.292-24.792-10.738-45.687-23.93-66.431a1179.294 1179.294 0 0 1-4.248-6.761c-1.7-2.716-3.403-5.43-5.11-8.142-10.962-17.418-21.493-34.943-28.435-54.394a169.276 169.276 0 0 0-1.154-3.099c-3.571-9.636-5.554-20.304-6.713-30.482-.15-1.684-.15-1.684-.663-3.07a39.032 39.032 0 0 1-.073-2.164l-.012-1.34-.006-1.456-.01-1.514c-.103-21.041-.103-21.041 1.451-31.226l.256-1.747c4.903-32.901 16.894-68.312 37.544-94.747l1.162-1.522c2.661-3.463 5.496-6.699 8.502-9.868.929-.986 1.843-1.985 2.758-2.984 3.342-3.641 6.744-7.207 10.51-10.417 1.02-.879 2.008-1.788 2.999-2.698 2.526-2.27 5.176-4.357 7.872-6.42.563-.432 1.126-.865 1.687-1.3 4.935-3.817 10.075-7.254 15.36-10.569l.89-.563c4.858-3.052 9.945-5.664 15.054-8.27a210.05 210.05 0 0 0 2.824-1.476c14.07-7.337 30.797-12.996 46.763-13.142ZM311.4 192.988l-1.281.424c-11.563 3.879-22.677 9.593-32.919 16.182l-1.013.651a331.991 331.991 0 0 0-7.087 4.735l-1.097.747c-8.94 6.102-17.919 12.536-25.453 20.347l-1.065 1.057c-4.178 4.185-7.962 8.6-11.535 13.305l-.602.781c-14.619 18.977-24.325 41.855-30.898 64.745l-.469 1.598c-2.775 9.522-4.669 19.145-6.281 28.921l-.251 1.523c-3.656 22.873-3.656 22.873 1.474 44.817.601.913.601.913 1.927 1.683 3.646.429 7.514-.18 11.159-.46l1.941-.144c1.703-.127 3.405-.255 5.107-.384 2.682-.203 5.363-.403 8.045-.604l2.975-.224a643.58 643.58 0 0 1 9.811-.671l1.886-.115a512.94 512.94 0 0 1 3.525-.202l1.58-.096 1.379-.077c1.184-.164 1.968-.462 2.992-1.063l-.412-.737c-5.623-10.154-9.747-20.264-6.788-32.026 2.652-7.646 7.35-14.824 14.627-18.773 8.641-4.046 18.152-4.43 27.184-1.278 9.151 3.39 17.29 9.54 21.555 18.48 3.755 8.827 3.36 17.171-.125 25.973-.691 1.629-.691 1.629-1.452 3.075-.717 1.288-.717 1.288-.589 3.042 7.696.412 15.39.576 23.096.688l4.69.072c3.038.048 6.076.093 9.114.138.538-1.752 1.014-3.34 1.004-5.177l-.002-1.176-.018-1.305-.009-1.462c-.052-5.63-.2-11.259-.333-16.887-.131-5.627-.23-11.253-.306-16.881l-.014-1.037c-.043-3.101-.084-6.201-.121-9.302a5652.59 5652.59 0 0 0-.087-6.769 524.16 524.16 0 0 0-.425-14.938c-.439-10.668-.439-10.668 1.661-15.277l.397-.941c1.041-1.767 3.116-2.471 5.003-3.098 4.77-.496 8.687 2.079 12.607 4.454 2.647 1.586 5.362 2.973 8.149 4.298l1.195.572c5.296 2.481 10.926 3.468 16.598 1.467 5.78-2.574 9.86-6.085 12.188-11.969 2.367-6.29 2.175-13.24-.337-19.467a63.412 63.412 0 0 0-3.15-5.835l-.545-.936c-2.938-4.593-8.588-7.848-13.799-9.134-4.256-.67-8.709-.168-12.656 1.543l-1.025.413c-4.708 2.101-8.638 5.657-12.334 9.18-3.757 3.435-6.994 4.606-12.085 4.399l-1.106-.079c-.702-2.183-1.02-4.043-1.051-6.355l-.016-.924a431.236 431.236 0 0 1-.035-3.009l-.03-2.133c-.02-1.494-.038-2.988-.053-4.482a1173.84 1173.84 0 0 0-.073-5.629c-.103-7.123-.148-14.224.168-21.343.282-6.354.37-12.712.466-19.07.027-1.82.061-3.64.095-5.46.026-1.426.048-2.852.068-4.278.011-.671.023-1.343.037-2.014.072-3.622.02-7.054-.926-10.577-8.28-.398-16.082 1.874-23.85 4.488ZM249.3 350.52c-4.054 5.592-5.199 11.814-4.293 18.61 1.254 6.537 4.245 11.878 7.67 17.497l.75 1.23.677 1.097c1.436 2.557 1.582 4.484 1.496 7.345-2.976 1.711-5.699 2.287-9.084 2.749l-1.563.225c-11.936 1.674-23.804 2.033-35.844 1.963-2.107-.012-4.215-.021-6.322-.028l-1.435-.012c-2.514-.008-4.916.113-7.402.489.591 4.141 1.789 8.028 3.122 11.977l.33.985c5.33 15.782 13.719 30.318 23.098 44.036l.671.983c1.964 2.872 3.935 5.739 5.909 8.604 19.761 28.682 33.734 54.801 36.031 90.074.874 15.602.874 15.602 6.439 30.045l.436.812c4.531 7.412 14.99 10.72 22.941 12.656 10.412 2.233 21.493 1.347 32.029.726l3.486-.189c6.788-.373 6.788-.373 13.558-.989.369-1.594.46-2.941.237-4.546-.304-2.516-.261-4.995-.219-7.525.017-1.721-.019-3.383-.243-5.091-.407-3.277-.244-6.587-.207-9.882.021-3.209-.114-6.362-.368-9.56-.164-2.536-.126-5.064-.1-7.604.057-11.601-.193-23.219-.675-34.811l-.048-1.194c-.082-1.726-.22-3.379-.627-5.061-1.519.558-2.764 1.193-4.078 2.132-8.263 5.543-18.263 7.934-28.113 6.283-7.406-1.599-13.534-5.198-18.111-11.274-4.933-7.645-6.415-17.667-4.563-26.524 1.84-7.466 5.917-14.086 12.565-18.191 9.586-4.808 21.254-6.311 31.648-3.271 2.397.839 4.754 1.751 7.091 2.745 1.215.582 1.215.582 2.211.526.072-8.595-.041-17.185-.197-25.778l-.027-1.551c-.091-5.234-.214-10.461-.467-15.69-.23-4.803-.248-9.593-.209-14.4.012-1.547.021-3.094.028-4.641l.011-1.036c.01-2.197-.075-4.307-.489-6.469-1.494-.994-1.917-1.004-3.651-.978l-1.429.013-1.554.027-3.295.03-1.742.019c-28.589.3-28.589.3-33.779-3.151-1.239-1.235-1.445-1.998-1.519-3.702.031-3.565 1.525-6.797 2.922-10.027 3.083-7.162 3.708-14.709.833-22.007-2.624-5.658-6.415-8.808-11.686-11.837l-.937-.588c-9.333-5.4-24.561-4.522-31.913 3.729Zm152.55 336.159a32.758 32.758 0 0 1-1.772 8.892l-.419 1.224c-3.339 9.449-8.144 18.695-15.359 25.788l-1.028 1.04c-9.756 9.351-23.111 11.783-36.137 11.651-13.224-.336-25.654-6.567-34.742-16.034-5.624-6.483-9.779-13.744-12.693-21.79l-.564-1.555c-1.236-3.543-1.236-3.543-1.236-5.626l.823.082c2.862.286 5.724.57 8.587.852l3.192.318c3.448.344 6.897.677 10.348.992l.995.092c6.756.599 13.574.467 20.352.469l.99.001c9.712.003 19.328-.076 28.963-1.459l1.675-.234c7.185-1.029 14.258-2.466 21.304-4.188l1.674-.4 1.475-.362c1.347-.206 2.267-.11 3.572.247Zm3.6-49.37c.9.898.9.898 1.004 1.833-.05 3.15-.164 6.296-.301 9.444l-.053 1.274-.058 1.198-.05 1.078c-.092.882-.092.882-.542 1.779-4.696 1.167-9.788 1.337-14.597 1.796l-1.224.118c-7.318.703-14.636 1.291-21.979 1.677l-.983.058c-8.431.488-16.867.475-25.309.474-1.64 0-3.279.003-4.919.009-41.41.153-41.41.153-45.43-3.206-1.929-3.493-2.158-8.245-1.659-12.146.81-1.404 1.133-1.723 2.7-2.244 4.078-.283 8.179.247 12.234.645 2.521.245 5.043.48 7.566.702l1.575.14c6.621.5 13.276.419 19.912.421h1.013c11.599.004 23.1-.346 34.65-1.459l1.312-.125c9.733-.932 19.462-1.937 29.127-3.429l1.43-.215 1.213-.192c1.229-.086 2.185.031 3.368.37Zm-.45 24.236.45.449c-.035 1.914-.204 3.819-.366 5.725-.057.681-.11 1.362-.159 2.044-.077 1.03-.168 2.058-.262 3.087l-.068.976c-.162 1.58-.383 2.409-1.472 3.589-10.977 6.351-29.701 4.398-42.031 4.402l-3.158.005c-2.201.002-4.401.003-6.602.003-2.204 0-4.408.003-6.613.009-11.708.032-23.399-.038-35.1-.49l-1.44-.053a672.945 672.945 0 0 1-4.024-.166l-1.173-.045c-2.659-.127-5.187-.549-7.782-1.134-1.002-2.999-1.72-6.024-2.362-9.116l-.256-1.186-.23-1.137-.209-1.017c-.108-1.167.109-2.113.357-3.252 3.515-.034 6.998.052 10.505.279l2.888.177 1.5.094c30.158 1.873 60.485 2.37 90.378-2.696 2.448-.408 4.745-.673 7.229-.547ZM214.65 65.975c2.227.216 3.449.82 5.203 2.188l1.419 1.104a240.107 240.107 0 0 1 10.819 9.262c.879.794 1.77 1.57 2.668 2.34 5.126 4.467 9.992 9.219 14.795 14.025.882.881 1.766 1.76 2.65 2.64 2.729 2.72 5.399 5.449 7.896 8.385.71.769 1.423 1.536 2.138 2.3 2.367 2.594 4.549 5.305 6.68 8.094.423.553.848 1.104 1.274 1.654 2.356 3.043 4.534 6.105 6.361 9.495l.44.814c1.455 2.815 2.334 5.447 1.849 8.6-.292.909-.292.909-1.361 2.059-2.602 1.029-4.994 1.21-7.664.259-5.671-3.054-10.324-8.536-14.217-13.527a519.19 519.19 0 0 0-2.25-2.665c-1.829-2.184-3.554-4.425-5.252-6.711a220.164 220.164 0 0 0-3.382-4.369l-1.264-1.599-.663-.838c-6.598-8.358-13.081-16.799-19.139-25.558a434.35 434.35 0 0 1-.602-.867 153.284 153.284 0 0 1-6.176-9.624l-.522-.856c-1.237-2.164-1.583-4.128-1.7-6.605ZM554.4 55.204c.258 2.897-.578 4.831-1.856 7.405l-.606 1.24c-2.467 4.935-5.369 9.598-8.338 14.244l-.789 1.236c-7.514 11.728-15.337 23.34-23.68 34.5l-.649.871c-4.794 6.352-4.794 6.352-8.182 7.376-2.175.283-3.945.268-5.85-.897-1.406-1.934-1.563-3.535-1.243-5.824 3.73-14.765 16.403-28.171 26.577-39.08.92-.99 1.808-2.005 2.693-3.028 4.435-5.072 9.312-9.969 14.723-14.004l1.368-1.02c4.11-3.02 4.11-3.02 5.832-3.02ZM386.016 18.738c1.944.76 2.335 1.61 3.162 3.48 5.639 16.948 8.743 52.754 1.028 69.358-1.138 1.976-2.102 2.933-4.303 3.572-2.223 0-3.398-.524-5.04-2.016-4.563-5.135-3.003-14.853-2.976-21.21l.004-1.693c.038-14.396.378-28.972 3.231-43.132l.198-1.006c.576-2.625 1.594-7.078 4.696-7.353ZM630 151.698c-1.178 12.81-21.791 29.922-31.05 37.7l-1.281 1.127c-2.586 2.259-5.235 4.358-8.085 6.278l-.815.556c-3.035 1.994-5.953 3.216-9.619 2.81-1.502-.574-2.806-1.235-3.67-2.642-.692-1.727-.771-3.166-.38-4.988 2.74-5.423 8.37-10.118 12.967-13.983a128.02 128.02 0 0 0 2.43-2.104c3.868-3.41 7.867-6.593 12-9.679.937-.701 1.869-1.41 2.8-2.12 19.079-14.498 19.079-14.498 24.703-12.955Zm-504-6.733c2.621.229 4.578.997 6.917 2.169l1.078.527c1.153.566 2.302 1.137 3.452 1.708l2.402 1.18a951.142 951.142 0 0 1 11.208 5.598c10.442 5.285 21.152 9.734 32.199 13.596 10.861 3.831 10.861 3.831 13.394 8.883.208 2.071.336 3.43-.984 5.105-2.328 2.167-4.886 2.609-8.016 2.525-5.461-.839-10.371-2.975-15.3-5.386l-1.12-.545c-13.638-6.716-38.004-19.307-45.23-33.564v-1.796Z"/>
</svg>
