<svg width="576" height="599" viewBox="0 0 576 599" fill="none" xmlns="http://www.w3.org/2000/svg">
<ellipse cx="288.5" cy="321" rx="244.5" ry="253" fill="#96AA97" fill-opacity="0.29"/>
<path d="M530.229 366.286C530.524 366.298 530.819 366.31 531.123 366.323C534.208 366.496 534.208 366.496 535.2 367.244C536.305 369.429 536.457 371.911 536.636 374.33C536.664 374.664 536.692 374.998 536.721 375.342C536.822 376.569 536.914 377.778 536.914 379.01C537.357 379.065 537.357 379.065 537.809 379.12C539.07 379.388 539.984 379.823 541.114 380.459C541.508 380.677 541.903 380.895 542.309 381.12C543.409 381.85 544.1 382.605 544.971 383.601C545.759 384.4 545.759 384.4 546.857 384.715C548.756 384.44 550.506 383.653 552.268 382.9C553.964 382.207 555.645 381.654 557.486 381.863C560.123 384.179 561.251 389.351 561.814 392.804C561.305 395.613 558.4 397.126 556.267 398.644C555.544 399.15 554.837 399.641 554.057 400.046C554.048 400.495 554.039 400.944 554.03 401.406C553.915 405.432 553.436 409.015 552.343 412.882C552.226 413.357 552.11 413.832 552 414.308C552.187 414.391 552.374 414.474 552.566 414.559C553.6 415.153 554.4 415.895 555.279 416.715C555.604 417.015 555.93 417.314 556.266 417.623C557.218 418.669 557.78 419.339 558.171 420.726C557.941 421.857 557.485 422.837 556.993 423.868C556.863 424.152 556.734 424.436 556.601 424.728C554.125 430.054 554.125 430.054 552.585 430.665C551.361 430.724 550.655 430.356 549.557 429.796C548.973 429.502 548.973 429.502 548.377 429.203C546.967 428.445 545.591 427.638 544.231 426.789C543.47 426.375 543.47 426.375 542.755 426.478C541.833 426.887 541.02 427.414 540.171 427.969C537.953 429.344 535.438 430.71 532.8 430.71C532.791 430.905 532.782 431.1 532.773 431.301C532.547 434.589 531.874 438.111 530.4 441.049C528.929 441.07 527.457 441.083 525.986 441.094C525.366 441.103 525.366 441.103 524.735 441.112C519.302 441.143 519.302 441.143 517.714 440.336C516.997 439.007 516.879 437.656 516.737 436.155C516.67 435.471 516.67 435.471 516.603 434.774C516.559 434.295 516.515 433.817 516.471 433.339C516.425 432.858 516.379 432.377 516.332 431.896C516 428.407 516 428.407 516 427.144C515.713 427.01 515.713 427.01 515.42 426.872C513.19 425.629 511.211 423.709 509.486 421.796C508.107 422.253 506.799 422.786 505.479 423.4C503.527 424.262 501.639 424.717 499.543 425.005C496.856 422.047 495.121 417.931 494.4 413.952C494.452 412.671 494.512 412.058 495.382 411.133C497.604 409.629 499.885 408.349 502.286 407.177C502.302 406.738 502.319 406.299 502.337 405.846C502.475 402.559 502.675 399.356 503.314 396.124C502.979 395.926 502.643 395.727 502.298 395.523C496.171 391.841 496.171 391.841 495.086 390.063C495.117 388.12 495.778 386.606 496.671 384.938C496.794 384.706 496.916 384.474 497.042 384.235C499.624 379.445 499.624 379.445 501.312 378.67C502.809 378.645 503.951 379.288 505.286 379.946C505.56 380.077 505.834 380.208 506.117 380.343C507.975 381.241 509.779 382.202 511.543 383.289C511.771 383.103 512 382.918 512.235 382.727C517.413 378.654 517.413 378.654 519.771 378.654C519.778 378.447 519.785 378.241 519.792 378.028C520.107 368.938 520.107 368.938 520.8 367.244C523.207 365.469 527.417 366.157 530.229 366.286ZM517.724 393.006C514.663 397.216 513.835 402.371 514.286 407.534C515.085 411.436 517.367 414.509 520.457 416.804C524.102 419.107 528.42 419.78 532.58 418.854C535.627 417.954 538.223 416.087 539.942 413.285C542.245 408.711 542.848 403.674 541.521 398.665C540.263 394.955 537.945 391.756 534.579 389.883C528.625 386.994 522.192 387.697 517.724 393.006Z" fill="#96AA97"/>
<path d="M406.093 172.502C406.971 172.569 406.971 172.569 407.657 173.282C408.939 178.021 409.448 183.172 410.05 188.048C410.079 188.282 410.108 188.516 410.138 188.757C410.795 194.101 411.268 199.46 411.688 204.829C411.751 205.634 411.815 206.44 411.88 207.246C413.324 225.466 414.404 243.74 415.014 262.012C415.024 262.329 415.035 262.645 415.047 262.972C415.066 263.545 415.084 264.118 415.1 264.691C415.14 265.878 415.196 266.987 415.543 268.124C418.062 264.925 420.546 261.709 422.958 258.423C424.083 256.897 425.222 255.382 426.358 253.865C427.389 252.488 428.419 251.11 429.446 249.73C433.054 244.88 436.663 240.07 440.708 235.603C441.437 234.79 442.137 233.968 442.821 233.115C443.658 232.112 444.21 231.477 445.495 231.267C446.719 231.446 447.264 231.971 448.2 232.803C448.694 233.242 448.694 233.242 449.198 233.691C450.322 234.75 451.399 235.844 452.447 236.984C453.099 237.655 453.757 238.267 454.453 238.884C456.704 240.914 458.76 243.164 460.853 245.367C462.944 247.566 465.041 249.725 467.314 251.723C467.758 252.13 468.201 252.538 468.643 252.948C469.404 253.714 469.404 253.714 470.4 253.862C470.915 253.346 470.915 253.346 471.45 252.659C472.897 250.89 474.386 249.165 475.886 247.444C476.111 247.184 476.111 247.184 476.342 246.92C478.167 244.822 480.011 242.756 481.966 240.787C482.57 240.141 483.12 239.494 483.677 238.806C485.5 236.635 487.486 234.628 489.45 232.598C490.181 231.843 490.91 231.087 491.639 230.33C493.449 228.453 495.261 226.577 497.073 224.701C498.607 223.113 500.141 221.523 501.674 219.933C502.389 219.192 503.105 218.452 503.82 217.712C506.422 215.017 508.936 212.307 511.2 209.293C510.96 209.121 510.719 208.948 510.471 208.77C505.094 204.819 505.094 204.819 504.442 202.855C504.343 202.163 504.343 202.163 504.343 201.093C506.455 199.527 508.579 198.313 510.964 197.26C511.464 197.036 511.464 197.036 511.975 196.808C525.463 190.885 525.463 190.885 529.029 191.11C530.52 193.755 529.679 197.366 529.2 200.246C529.142 200.601 529.085 200.956 529.025 201.322C528.136 206.53 526.846 211.655 525.6 216.781C525.486 217.256 525.371 217.732 525.257 218.207C523.478 218.038 522.452 217.438 521.014 216.358C520.725 216.142 520.725 216.142 520.429 215.922C519.864 215.5 519.303 215.071 518.743 214.642C518.446 214.415 518.15 214.188 517.844 213.954C517.226 213.475 516.611 212.992 516 212.502C513.825 213.496 512.309 215.535 510.793 217.383C509.676 218.736 508.476 219.985 507.257 221.238C506.082 222.447 504.918 223.645 503.85 224.959C502.535 226.574 501.077 228.04 499.624 229.519C498.603 230.565 497.626 231.627 496.693 232.759C494.944 234.866 493.009 236.784 491.103 238.736C489.828 240.049 488.569 241.356 487.402 242.774C485.944 244.541 484.357 246.175 482.772 247.817C482.251 248.357 481.732 248.899 481.213 249.441C479.565 251.155 477.905 252.837 476.123 254.403C475.489 254.98 474.906 255.593 474.321 256.224C471.556 259.12 471.556 259.12 469.741 259.322C468.539 259.195 468.038 258.91 467.079 258.163C466.785 257.935 466.492 257.708 466.189 257.473C465.882 257.223 465.574 256.972 465.257 256.714C464.935 256.453 464.614 256.191 464.282 255.922C462.649 254.562 461.107 253.166 459.654 251.601C459.067 250.99 458.454 250.433 457.821 249.873C456.582 248.765 455.433 247.583 454.286 246.374C452.961 244.98 451.616 243.652 450.179 242.381C448.741 241.05 447.406 239.602 446.057 238.174C444.687 239.546 443.478 241.002 442.286 242.542C442.092 242.79 441.898 243.039 441.699 243.295C440.139 245.31 438.63 247.364 437.128 249.426C435.206 252.05 433.187 254.587 431.157 257.121C430.44 258.021 429.73 258.927 429.021 259.834C426.071 263.588 423.027 267.258 419.929 270.881C419.685 271.167 419.44 271.453 419.189 271.747C419.004 271.964 418.819 272.18 418.629 272.402C424.894 272.189 431.146 271.806 437.4 271.38C440.377 271.177 443.354 270.978 446.33 270.781C446.805 270.75 446.805 270.75 447.289 270.718C452.472 270.375 457.656 270.054 462.841 269.745C463.203 269.723 463.565 269.702 463.938 269.68C465.415 269.591 466.893 269.504 468.37 269.416C480.85 268.673 493.328 267.904 505.8 267.032C506.115 267.01 506.431 266.988 506.755 266.965C515.95 266.321 525.136 265.6 534.314 264.727C543.284 263.878 543.284 263.878 544.8 264.202C545.428 264.843 545.428 264.843 545.829 265.628C545.716 267.884 545.716 267.884 544.8 268.837C543.83 269.034 543.83 269.034 542.542 269.188C542.301 269.217 542.06 269.246 541.811 269.276C538.171 269.7 534.521 270.026 530.871 270.352C530.452 270.39 530.033 270.427 529.601 270.466C500.751 273.034 471.824 274.718 442.907 276.235C442.541 276.254 442.176 276.274 441.799 276.293C413.285 277.789 413.285 277.789 411.429 276.324C409.683 273.602 410.277 268.87 410.151 265.636C410.1 264.326 410.047 263.016 409.994 261.706C409.966 261.008 409.938 260.31 409.91 259.612C408.906 234.601 407.327 209.665 405.495 184.706C405.474 184.424 405.453 184.141 405.432 183.85C405.34 182.6 405.247 181.351 405.151 180.102C405.12 179.695 405.089 179.289 405.057 178.87C405.03 178.529 405.003 178.187 404.976 177.835C404.874 176.205 404.812 174.557 404.914 172.926C405.257 172.569 405.257 172.569 406.093 172.502Z" fill="#96AA97"/>
<path d="M291.837 264.148C300.888 263.894 309.994 266.323 316.8 272.759C317.297 273.22 317.297 273.22 317.803 273.689C324.836 280.451 327.804 289.931 328.521 299.659C328.679 305.036 327.565 310.894 324.9 315.522C323.853 317.383 323.946 318.485 324.343 320.536C324.748 324.786 323.366 328.917 320.914 332.302C319.232 334.377 317.772 335.772 315.343 336.782C314.148 337.437 313.524 337.978 313.006 339.289C312.35 341.565 311.933 343.882 311.526 346.217C311.231 347.694 310.781 349.069 310.286 350.486C309.493 350.731 309.493 350.731 308.571 350.843C307.971 350.486 307.971 350.486 307.543 349.773C307.17 347.903 307.245 346.284 307.586 344.425C307.632 344.164 307.679 343.903 307.727 343.634C308.408 340.036 309.166 336.441 311.657 333.729C312.328 333.295 312.328 333.295 312.964 333.038C316.105 331.525 317.817 329.134 319.2 325.885C319.608 324.634 319.589 323.433 319.586 322.119C319.587 321.714 319.587 321.309 319.588 320.891C319.589 319.805 319.589 319.805 319.2 318.754C316.689 318.252 314.872 318.36 312.686 319.823C311.984 320.553 311.984 320.553 311.657 321.249C310.384 321.209 309.689 320.763 308.786 319.89C303.886 314.43 301.541 305.523 301.629 298.163C301.655 297.42 301.683 296.677 301.714 295.935C301.46 295.929 301.205 295.924 300.943 295.919C273.732 295.304 273.732 295.304 266.057 289.16C265.044 287.858 264.961 286.815 265.029 285.194C265.744 279.356 269.432 273.986 273.793 270.419C279.208 266.37 285.223 264.476 291.837 264.148Z" fill="#181818"/>
<path d="M110.549 517.664C111.001 517.664 111.001 517.664 111.462 517.663C112.484 517.663 113.506 517.665 114.528 517.667C115.27 517.667 116.011 517.667 116.752 517.667C118.813 517.667 120.874 517.67 122.935 517.673C124.719 517.676 126.504 517.677 128.288 517.678C153.608 517.696 178.927 517.778 204.247 517.854C207.632 517.864 211.018 517.874 214.403 517.884C247.45 517.982 280.498 518.082 332.473 518.357C333.775 518.364 335.076 518.371 336.378 518.379C336.695 518.381 337.013 518.382 337.34 518.384C341.871 518.41 346.402 518.433 350.933 518.453C378.723 518.579 406.511 518.828 442.655 519.257C445.175 519.287 447.695 519.318 450.215 519.347C455.519 519.41 460.823 519.473 466.126 519.54C468.354 519.568 470.581 519.595 472.809 519.622C474.871 519.646 476.933 519.672 478.996 519.699C479.747 519.708 480.498 519.717 481.249 519.726C482.271 519.738 483.292 519.751 484.313 519.765C484.608 519.768 484.903 519.771 485.207 519.774C489.37 519.838 489.37 519.838 490.607 520.626C491.146 521.583 491.082 522.327 490.971 523.412C490.128 524.289 489.657 524.211 488.506 524.22C488.13 524.218 488.13 524.218 487.746 524.215C487.346 524.217 487.346 524.217 486.938 524.219C486.034 524.221 485.129 524.219 484.224 524.217C483.571 524.218 482.917 524.219 482.264 524.221C480.452 524.224 478.641 524.223 476.83 524.221C474.865 524.22 472.9 524.223 470.935 524.225C467.487 524.229 464.038 524.23 460.59 524.229C456.888 524.228 453.186 524.229 449.484 524.232C449.134 524.232 449.134 524.232 448.777 524.232C447.826 524.233 446.875 524.234 445.924 524.234C435.995 524.242 426.066 524.244 416.137 524.244C415.067 524.244 413.998 524.244 412.928 524.244C412.663 524.244 412.398 524.244 412.124 524.244C406.249 524.245 400.373 524.246 394.498 524.248C392.08 524.249 389.663 524.249 387.245 524.25C386.978 524.25 386.711 524.25 386.436 524.25C371.124 524.255 355.812 524.258 340.501 524.257C339.927 524.257 339.354 524.257 338.781 524.257C336.192 524.257 333.604 524.257 331.016 524.257C329.861 524.257 328.707 524.257 327.553 524.257C326.975 524.257 326.397 524.257 325.82 524.257C307.547 524.257 289.275 524.262 271.003 524.272C266.399 524.274 261.795 524.277 257.191 524.279C256.908 524.279 256.624 524.279 256.332 524.28C247.599 524.284 238.867 524.287 230.134 524.288C229.86 524.288 229.586 524.288 229.304 524.288C223.288 524.288 217.272 524.288 211.257 524.288C209.105 524.288 206.952 524.288 204.8 524.288C204.264 524.288 203.729 524.288 203.193 524.288C194.652 524.288 186.11 524.292 177.568 524.298C168.968 524.304 160.367 524.306 151.767 524.301C150.58 524.301 149.393 524.3 148.206 524.299C147.856 524.299 147.856 524.299 147.5 524.299C143.583 524.297 139.666 524.301 135.749 524.306C132.347 524.311 128.946 524.31 125.544 524.305C123.603 524.302 121.661 524.301 119.719 524.307C117.956 524.312 116.193 524.311 114.429 524.304C113.792 524.303 113.156 524.304 112.519 524.308C111.659 524.313 110.799 524.309 109.939 524.303C109.69 524.306 109.442 524.31 109.185 524.314C108.029 524.296 107.417 524.206 106.486 523.468C105.499 522.07 105.484 520.825 105.6 519.133C106.786 517.371 108.682 517.657 110.549 517.664Z" fill="#181919"/>
<path d="M265.714 369.74C266.695 370.951 266.973 372.278 267.321 373.796C268.563 378.469 270.995 382.418 273.943 386.141C274.207 386.476 274.207 386.476 274.477 386.817C275.868 388.533 277.344 389.959 279.064 391.311C279.317 391.51 279.569 391.708 279.829 391.913C284.282 395.324 288.9 397.104 294.279 398.331C295.543 398.62 295.543 398.62 295.886 398.977C295.95 399.846 295.95 399.846 295.886 400.759C295.041 401.638 294.782 401.588 293.614 401.606C284.995 401.408 277.382 396.275 271.543 390.063C267.805 385.984 264.161 380.381 263.314 374.732C253.599 377.972 253.599 377.972 244.114 381.862C243.793 382.009 243.472 382.155 243.141 382.306C230.068 388.317 217.593 395.938 207.086 406.108C206.63 406.526 206.173 406.942 205.714 407.356C202.168 410.575 198.814 413.774 195.865 417.599C195.14 418.518 194.386 419.388 193.607 420.258C191.519 422.645 189.713 425.253 187.886 427.857C187.731 428.076 187.577 428.295 187.418 428.521C185.285 431.552 183.281 434.653 181.371 437.84C181.137 438.229 180.903 438.617 180.662 439.017C172.118 453.389 160.281 474.963 163.262 492.621C164.083 496.12 165.279 499.018 167.657 501.662C167.946 501.991 167.946 501.991 168.24 502.325C174.134 508.336 183.877 508.946 191.657 508.905C191.919 508.904 192.18 508.903 192.45 508.903C196.937 508.881 201.298 508.596 205.714 507.724C206.074 507.653 206.434 507.582 206.806 507.509C221.72 504.483 235.624 498.114 249.257 491.323C248.931 489.599 248.599 487.878 248.233 486.162C247.564 483.013 246.945 479.939 246.857 476.704C246.85 476.462 246.843 476.219 246.836 475.97C246.756 472.786 246.824 469.643 247.157 466.476C247.184 466.22 247.211 465.964 247.239 465.7C247.441 463.976 247.814 462.342 248.229 460.659C247.802 460.76 247.376 460.86 246.937 460.963C242.799 461.924 238.648 462.797 234.484 463.621C234.224 463.672 233.964 463.723 233.696 463.776C231.265 464.257 228.834 464.734 226.402 465.211C216.313 467.19 206.267 469.248 196.382 472.163C195.56 472.404 194.736 472.639 193.913 472.873C193.669 472.946 193.426 473.02 193.175 473.096C192.178 473.377 191.485 473.548 190.482 473.236C189.943 472.782 189.943 472.782 189.686 471.846C189.657 471.567 189.629 471.287 189.6 470.999C193.516 467.681 198.763 466.139 203.571 464.849C203.904 464.759 204.237 464.669 204.579 464.576C206.045 464.191 207.493 463.842 208.99 463.621C212.34 463.076 213.88 461.715 215.85 458.97C216.202 458.461 216.55 457.95 216.896 457.437C217.529 456.507 218.215 455.631 218.914 454.754C219.155 454.449 219.395 454.143 219.643 453.828C220.832 452.35 222.05 450.899 223.268 449.447C224.37 448.131 225.447 446.799 226.5 445.439C227.733 443.854 229.038 442.353 230.373 440.862C231.378 439.732 232.327 438.575 233.25 437.372C234.725 435.465 236.314 433.687 237.931 431.91C239.195 430.52 240.416 429.109 241.567 427.615C242.177 427.029 242.606 426.876 243.429 426.787C244.221 427.367 244.221 427.367 244.8 428.214C244.457 431.848 240.934 435.309 238.679 437.902C238.511 438.099 238.343 438.295 238.17 438.498C237.844 438.878 237.514 439.255 237.178 439.626C235.084 442.083 234.719 445.401 234.171 448.537C234.114 448.856 234.057 449.175 233.998 449.504C233.445 452.621 232.945 455.748 232.457 458.877C232.797 458.805 233.138 458.733 233.488 458.659C234.772 458.388 236.055 458.119 237.339 457.85C237.891 457.734 238.442 457.618 238.994 457.501C249.951 455.186 249.951 455.186 252.686 455.668C253.868 457.511 253.17 459.53 252.786 461.626C252.611 462.528 252.431 463.428 252.246 464.328C250.69 472.683 251.42 481.506 253.873 489.586C254.62 492.123 254.62 492.123 254.057 493.462C252.683 494.426 251.181 495.139 249.687 495.877C249.428 496.005 249.169 496.134 248.903 496.266C248.057 496.685 247.211 497.101 246.364 497.518C246.074 497.66 245.783 497.803 245.484 497.951C228.888 506.101 211.848 513.608 193.2 513.562C192.75 513.562 192.75 513.562 192.292 513.562C182.162 513.532 171.674 511.963 164.085 504.402C159.391 499.308 158.217 492.963 158.325 486.135C158.879 469.999 167.396 452.91 175.2 439.267C175.367 438.974 175.534 438.681 175.705 438.38C178.293 433.87 181.08 429.558 184.114 425.361C184.272 425.143 184.43 424.924 184.593 424.699C185.561 423.362 186.547 422.041 187.543 420.726C187.779 420.411 188.016 420.096 188.259 419.771C191.853 415.081 195.97 410.861 200.036 406.62C200.212 406.436 200.388 406.252 200.57 406.062C209.465 396.775 219.733 389.582 230.743 383.289C231.038 383.118 231.333 382.947 231.637 382.77C240.667 377.553 250.559 373.615 260.464 370.609C260.904 370.474 260.904 370.474 261.353 370.337C264.301 369.478 264.301 369.478 265.714 369.74ZM228.899 449.728C228.7 449.949 228.502 450.17 228.297 450.398C227.967 450.764 227.967 450.764 227.63 451.139C227.283 451.527 227.283 451.527 226.929 451.924C226.705 452.172 226.481 452.42 226.251 452.676C224.928 454.15 223.635 455.646 222.364 457.167C221.457 458.251 220.528 459.314 219.601 460.38C219.049 460.923 219.049 460.923 219.086 461.373C221.288 461.191 223.447 460.875 225.621 460.481C225.883 460.435 226.144 460.388 226.414 460.34C227.654 460.206 227.654 460.206 228.686 459.59C228.759 459.068 228.813 458.543 228.857 458.017C228.885 457.694 228.914 457.37 228.943 457.036C228.971 456.695 228.999 456.354 229.029 456.002C229.221 453.745 229.429 451.497 229.714 449.25C229.302 449.209 229.302 449.209 228.899 449.728Z" fill="#191919"/>
<path d="M473.486 334.442C475.791 335.198 478.124 336.025 480 337.651C480.403 338.907 480.259 339.278 479.888 340.518C479.783 340.872 479.678 341.226 479.57 341.59C479.457 341.959 479.345 342.329 479.229 342.709C479.121 343.072 479.014 343.434 478.903 343.807C478.427 345.398 477.937 346.959 477.327 348.499C476.906 349.799 476.8 350.296 477.257 351.556C477.721 352.485 477.721 352.485 478.286 353.383C478.867 354.34 479.312 355.113 479.657 356.191C479.932 356.207 480.206 356.223 480.489 356.24C481.748 356.315 483.006 356.398 484.264 356.481C484.696 356.506 485.128 356.531 485.573 356.557C491.358 356.949 491.358 356.949 492.686 358.33C493.066 360.404 493.08 362.442 493.071 364.548C493.073 364.87 493.074 365.192 493.075 365.523C493.073 367.437 492.954 369.273 492.686 371.166C488.339 371.966 484.06 371.957 479.657 371.879C479.56 372.268 479.463 372.657 479.363 373.057C478.971 374.375 478.971 374.375 478.2 375.489C478.002 375.828 477.804 376.166 477.6 376.514C477.978 377.804 478.601 378.949 479.229 380.124C479.409 380.464 479.589 380.805 479.775 381.155C479.962 381.506 480.15 381.857 480.343 382.219C480.715 382.917 481.087 383.615 481.457 384.314C481.622 384.622 481.786 384.93 481.955 385.247C483.099 387.546 483.099 387.546 483.06 388.662C481.818 391.355 477.428 393.331 474.857 394.342C473.96 394.488 473.96 394.488 473.143 394.342C470.9 392.327 469.438 389.221 467.96 386.577C467.537 385.824 467.094 385.084 466.629 384.358C466.254 384.417 465.879 384.476 465.493 384.537C463.701 384.774 461.918 384.746 460.114 384.715C459.955 385.333 459.955 385.333 459.793 385.963C459.234 387.715 458.427 389.282 457.564 390.888C457.433 391.135 457.301 391.382 457.166 391.637C456.452 392.939 455.777 394.112 454.629 395.055C451.172 395.12 447.418 393.258 444.686 391.133C444.346 390.78 444.346 390.78 444 390.42C444.095 388.296 444.618 386.647 445.479 384.737C445.586 384.49 445.694 384.244 445.805 383.989C446.018 383.502 446.232 383.015 446.448 382.528C446.834 381.657 447.207 380.78 447.579 379.902C447.755 379.49 447.932 379.078 448.114 378.654C447.024 376.996 445.997 375.962 444.091 375.471C442.574 375.261 441.05 375.184 439.521 375.11C438.993 375.076 438.464 375.041 437.935 375.004C437.188 374.952 436.441 374.902 435.693 374.862C434.213 374.782 432.777 374.613 431.314 374.375C430.476 371.933 430.402 369.461 430.286 366.888C430.263 366.506 430.241 366.124 430.217 365.73C430.198 365.211 430.198 365.211 430.179 364.681C430.166 364.375 430.153 364.068 430.14 363.752C430.286 362.965 430.286 362.965 430.834 362.369C434.198 360.435 438.523 360.147 442.286 359.757C442.324 359.437 442.362 359.118 442.401 358.789C442.679 357.356 443.261 356.421 444.013 355.209C444.441 354.171 444.283 353.707 444 352.626C443.6 351.742 443.6 351.742 443.091 350.864C442.909 350.538 442.728 350.212 442.541 349.877C442.351 349.541 442.16 349.205 441.964 348.86C441.589 348.191 441.215 347.522 440.841 346.853C440.674 346.558 440.507 346.263 440.336 345.959C439.217 343.919 439.217 343.919 439.114 342.687C439.822 340.847 441.327 340.296 442.971 339.433C443.354 339.224 443.736 339.014 444.13 338.798C447.151 337.226 447.151 337.226 448.338 337.518C450.822 339.027 452.555 341.678 454.259 344.024C454.494 344.274 454.729 344.524 454.971 344.782C457.808 344.782 460.851 344.724 463.543 343.712C464.48 342.717 464.775 341.941 465.196 340.628C465.657 339.264 466.343 338.224 467.186 337.094C467.438 336.747 467.69 336.401 467.949 336.045C469.736 333.886 470.889 333.847 473.486 334.442ZM454.286 358.687C452.641 360.955 452.61 363.431 452.914 366.174C453.501 368.921 454.776 370.697 457.029 372.236C459.543 373.654 462.117 373.558 464.834 372.861C467.084 372.071 468.717 370.679 470.057 368.67C471.073 366.506 471.148 363.919 470.443 361.638C469.338 359.131 467.823 357.401 465.407 356.236C461.563 354.937 457.147 355.626 454.286 358.687Z" fill="#181818"/>
<path d="M325.029 367.244C335.432 368.573 346.185 377.038 353.829 384.002C354.096 384.24 354.364 384.479 354.64 384.725C359.053 388.734 363.259 393.096 366.857 397.907C367.406 398.577 367.956 399.245 368.507 399.913C370.453 402.338 372.191 404.902 373.91 407.505C374.218 407.972 374.528 408.438 374.839 408.902C390.804 432.742 406.224 469.014 401.363 498.851C400.398 504.227 398.227 509.332 393.943 512.715C388.182 516.533 381.353 516.789 374.786 515.345C360.129 511.829 347.244 501.282 338.4 488.827C338.239 488.604 338.078 488.381 337.913 488.152C323.994 468.819 306.431 435.988 307.335 410.737C307.702 409.488 308.544 409.056 309.597 408.429C311.043 407.674 312.494 406.931 313.95 406.197C316.888 404.689 319.682 402.816 322.217 400.654C322.971 400.046 322.971 400.046 323.657 400.046C323.749 399.835 323.841 399.624 323.936 399.407C324.346 398.613 324.775 398.088 325.371 397.439C326.758 395.844 327.852 394.084 328.953 392.271C330.429 389.883 330.429 389.883 331.543 389.35C333.372 389.646 334.497 391.291 335.679 392.648C335.905 392.904 336.131 393.159 336.363 393.422C339.313 396.777 342.141 400.217 344.82 403.809C345.855 405.194 346.917 406.55 347.997 407.897C350.398 410.89 352.67 413.964 354.903 417.094C356.036 418.682 357.191 420.252 358.35 421.82C360.495 424.722 362.571 427.651 364.539 430.686C365.218 431.733 365.912 432.767 366.615 433.797C373.569 443.988 381.058 455.197 385.029 467.077C385.227 467.645 385.227 467.645 385.429 468.225C385.743 469.316 385.677 469.919 385.371 470.999C384.919 471.117 384.466 471.235 384 471.356C382.533 469.299 381.227 467.173 379.993 464.96C378.271 461.875 376.453 458.86 374.607 455.853C374.048 454.939 373.49 454.024 372.934 453.108C369.815 447.985 366.634 442.905 363.429 437.84C363.237 437.537 363.045 437.234 362.847 436.921C358.927 430.73 354.822 424.673 350.624 418.683C350.239 418.134 349.856 417.584 349.473 417.034C346.766 413.14 343.953 409.375 340.984 405.694C340.248 404.778 339.528 403.849 338.807 402.921C337.583 401.361 336.304 399.861 335.001 398.372C334.055 397.285 333.14 396.173 332.229 395.055C332.041 395.301 331.854 395.547 331.661 395.8C326.209 402.84 320.394 409.745 311.657 412.169C316.366 436.936 324.786 462.154 339.086 482.765C339.232 482.977 339.379 483.189 339.53 483.407C343.116 488.545 347.017 493.712 351.771 497.74C352.137 498.062 352.502 498.383 352.867 498.704C361.396 506.108 372.542 512.215 383.957 511.579C387.937 511.129 391.229 509.868 393.857 506.61C399.4 498.577 398.27 486.978 396.86 477.769C396.33 474.538 395.676 471.34 394.971 468.147C394.907 467.85 394.843 467.552 394.776 467.246C390.806 449.109 383.934 431.476 374.4 415.734C374.276 415.529 374.152 415.323 374.024 415.111C369.773 408.134 364.817 401.43 359.165 395.617C358.559 394.981 357.999 394.317 357.45 393.629C356.235 392.17 354.905 390.944 353.486 389.707C353.153 389.409 352.82 389.111 352.477 388.804C344.498 381.673 335.787 376.059 326.313 371.312C325.412 370.857 324.714 370.482 324 369.74C324.113 368.564 324.214 368.092 325.029 367.244Z" fill="#191919"/>
<path d="M359.687 278.199C362.911 281.056 364.899 284.513 365.829 288.804C365.887 289.071 365.946 289.339 366.006 289.615C368.116 302.038 362.936 313.456 357.708 324.198C354.934 329.89 354.934 329.89 352.8 335.868C352.711 336.161 352.622 336.454 352.531 336.756C351.651 340.16 352.071 343.834 352.449 347.287C352.46 348.745 352.153 349.963 351.3 351.133C350.607 351.659 350.236 351.861 349.371 351.912C346.379 350.875 344.858 348.086 343.5 345.316C339.927 337.705 339.26 329.923 339.386 321.561C339.398 320.495 339.408 319.43 339.417 318.364C339.423 317.708 339.431 317.053 339.441 316.398C339.476 313.295 339.474 310.325 337.714 307.701C336.713 306.659 336.059 306.295 334.64 306.222C334.272 306.228 333.904 306.235 333.525 306.241C333.154 306.246 332.783 306.251 332.401 306.256C332.118 306.262 331.834 306.268 331.543 306.274C331.55 305.966 331.557 305.658 331.565 305.34C331.827 295.825 331.827 295.825 329.762 286.611C329.326 285.006 329.575 283.934 330.341 282.489C333.401 278.123 337.247 275.206 342.354 274.008C348.622 273.061 354.518 274.266 359.687 278.199Z" fill="#181818"/>
<path d="M136.457 172.569C136.779 172.736 136.779 172.736 137.107 172.906C140.52 174.694 143.264 177.024 146.057 179.7C146.454 180.069 146.454 180.069 146.859 180.445C152.873 186.303 156.775 195.792 157.079 204.295C157.108 206.249 157.11 208.2 156.857 210.14C156.313 214.525 156.123 218.956 158.683 222.683C160.76 225.112 163.987 226.285 166.821 227.5C172.453 229.919 176.715 232.507 179.314 238.53C179.452 238.846 179.589 239.162 179.731 239.487C181.564 244.161 181.362 249.189 179.614 253.862C177.908 257.795 175.688 261.12 172.8 264.202C172.526 264.508 172.253 264.815 171.971 265.131C159.705 278.503 140.738 285.393 123.287 286.053C108.074 286.39 91.968 282.628 79.5428 273.115C79.1148 272.798 78.6866 272.481 78.2584 272.164C73.6638 268.716 69.4815 264.793 65.8285 260.28C65.6018 260.004 65.3751 259.728 65.1415 259.444C59.4518 252.311 55.924 243.918 53.8285 234.965C53.7709 234.724 53.7133 234.483 53.6539 234.235C50.975 222.523 52.6176 208.948 58.6111 198.636C61.399 194.24 61.399 194.24 62.775 193.658C63.4285 193.605 63.4285 193.605 64.2 194.118C64.398 194.302 64.596 194.486 64.8 194.675C64.732 196.301 64.4375 197.301 63.5785 198.664C57.2369 209.073 55.9239 222.737 58.2857 234.608C61.1382 247.184 67.9956 257.787 77.8285 265.628C78.0129 265.778 78.1974 265.927 78.3873 266.081C92.5687 277.541 110.321 282.984 128.215 280.838C134.958 279.947 141.483 278.32 147.771 275.611C148.018 275.505 148.265 275.399 148.52 275.29C159.605 270.468 169.614 263.911 174.514 252.079C174.638 251.789 174.761 251.499 174.888 251.2C176.141 247.687 176.111 243.157 174.793 239.689C172.473 234.81 168.319 233.122 163.685 231.126C159.287 229.184 155.028 226.84 153.107 222.04C152.309 219.761 152.191 217.715 152.231 215.314C152.237 214.664 152.243 214.013 152.249 213.362C152.259 212.348 152.271 211.334 152.287 210.319C152.43 200.79 150.556 192.716 144.343 185.405C144.161 185.182 143.98 184.959 143.792 184.729C136.575 176.49 123.94 173.204 113.649 172.614C107.569 172.386 101.916 172.839 96.0272 174.498C94.4286 174.934 93.1725 175.24 91.5428 174.708C91.0065 173.593 91.0778 172.727 91.2 171.499C92.4347 170.213 93.77 169.662 95.4214 169.182C95.6727 169.108 95.924 169.035 96.1829 168.959C109.508 165.232 124.068 165.972 136.457 172.569Z" fill="#191919"/>
<path d="M307.864 190.642C308.203 190.635 308.542 190.629 308.891 190.623C309.199 190.623 309.507 190.623 309.824 190.623C310.221 190.622 310.221 190.622 310.627 190.62C311.503 190.789 311.796 191.105 312.343 191.823C315.268 198.99 315.47 207.856 315.514 215.511C315.517 215.846 315.521 216.182 315.524 216.527C315.509 219.91 314.75 222.36 313.2 225.316C312.973 225.756 312.973 225.756 312.741 226.205C310.41 230.688 307.9 235.054 305.207 239.313C304.918 239.77 304.63 240.227 304.343 240.685C303.876 241.432 303.406 242.176 302.936 242.92C302.79 243.153 302.644 243.386 302.494 243.626C301.45 245.264 301.45 245.264 300.686 245.661C298.4 245.989 298.4 245.989 297.287 245.191C297.073 244.985 296.859 244.779 296.639 244.567C296.401 244.34 296.163 244.113 295.918 243.878C294.805 242.773 293.703 241.66 292.616 240.526C292.383 240.283 292.149 240.04 291.908 239.79C291.417 239.28 290.927 238.77 290.437 238.259C289.695 237.485 288.95 236.713 288.206 235.941C287.726 235.441 287.246 234.942 286.766 234.443C286.438 234.102 286.438 234.102 286.103 233.755C283.881 231.432 281.827 228.964 279.857 226.408C279.616 226.106 279.616 226.106 279.371 225.798C277.114 222.859 276.802 219.855 276.471 216.202C276.43 215.78 276.388 215.359 276.345 214.924C275.9 210.308 275.582 205.704 275.556 201.064C275.552 200.572 275.545 200.079 275.535 199.587C275.52 198.862 275.515 198.138 275.511 197.413C275.506 196.989 275.501 196.566 275.496 196.129C275.69 194.81 276.027 194.409 277.029 193.605C285.929 190.076 298.37 190.741 307.864 190.642ZM288.129 221.951C287.611 222.014 287.611 222.014 287.083 222.079C286.607 222.142 286.607 222.142 286.122 222.207C285.708 222.262 285.708 222.262 285.286 222.318C284.472 222.463 284.472 222.463 283.543 223.199C283.676 223.346 283.808 223.493 283.945 223.645C284.562 224.327 285.177 225.011 285.793 225.695C286.013 225.939 286.233 226.183 286.46 226.435C287.765 227.888 289.043 229.354 290.253 230.894C290.873 231.534 291.273 231.837 292.114 232.113C292.992 231.997 293.806 231.847 294.664 231.645C296.415 231.24 297.975 231 299.771 231.165C302.517 231.404 302.517 231.404 305.143 230.686C307.248 228.532 308.421 225.614 309.6 222.842C309.826 222.365 310.053 221.889 310.286 221.416C309.72 220.828 309.029 220.931 308.25 220.859C307.943 220.829 307.636 220.799 307.319 220.768C300.947 220.405 294.448 221.155 288.129 221.951Z" fill="#96AA97"/>
<path d="M116.657 348.521C124.851 355.886 130.257 365.513 131.314 376.871C131.902 386.756 130.181 396.033 125.486 404.682C125.292 405.041 125.292 405.041 125.095 405.407C123.232 408.81 121.107 411.71 118.453 414.485C117.954 415.01 117.464 415.543 116.976 416.08C108.663 425.045 97.1375 429.634 85.281 430.022C74.9915 430.128 64.8912 426.604 56.5714 420.37C56.2991 420.167 56.0269 419.964 55.7464 419.755C51.2219 416.187 47.2595 411.808 44.2285 406.821C43.9868 406.431 43.745 406.04 43.4959 405.638C38.0421 396.315 36.5363 385.164 38.9959 374.559C39.6178 372.136 40.4749 369.878 41.4857 367.601C41.6655 367.184 41.8454 366.767 42.0307 366.337C44.1348 361.699 46.9979 357.753 50.3999 354.052C50.601 353.82 50.8021 353.589 51.0093 353.35C66.8102 335.803 98.6995 333.079 116.657 348.521ZM57.9428 353.339C57.6188 353.592 57.2949 353.844 56.9611 354.105C49.0737 360.532 43.6626 370.108 42.2906 380.48C41.4465 390.273 43.7802 399.856 49.8468 407.505C50.1451 407.871 50.4438 408.238 50.7428 408.604C51.0279 408.963 51.3129 409.322 51.6066 409.691C57.4736 416.744 65.7794 421.31 74.3999 423.579C74.8203 423.699 75.2406 423.819 75.6736 423.942C81.8541 425.444 89.2026 425.362 95.3142 423.579C95.5563 423.51 95.7983 423.441 96.0477 423.37C101.698 421.721 106.564 418.913 111.086 415.021C111.351 414.794 111.351 414.794 111.622 414.561C120.377 406.936 125.748 395.781 126.857 384.002C127.479 373.574 124.223 363.883 117.809 355.958C110.983 347.926 100.901 344.033 90.8357 343.066C79.0305 342.492 67.4023 345.932 57.9428 353.339Z" fill="#191919"/>
<path d="M406.093 172.502C406.971 172.569 406.971 172.569 407.657 173.282C408.939 178.021 409.448 183.172 410.05 188.048C410.079 188.282 410.108 188.516 410.138 188.757C410.795 194.101 411.268 199.46 411.688 204.829C411.751 205.634 411.815 206.44 411.88 207.246C413.261 224.672 414.257 242.142 414.964 259.611C414.978 259.942 414.991 260.274 415.005 260.615C415.172 264.784 415.23 268.943 415.2 273.115C415.5 273.087 415.8 273.059 416.11 273.03C423.556 272.339 431.002 271.753 438.464 271.274C439.308 271.22 440.152 271.165 440.997 271.11C450.117 270.514 459.24 269.962 468.364 269.417C480.846 268.671 493.326 267.904 505.8 267.032C506.115 267.01 506.431 266.988 506.755 266.965C515.95 266.321 525.136 265.6 534.314 264.727C543.284 263.878 543.284 263.878 544.8 264.202C545.428 264.843 545.428 264.843 545.829 265.628C545.716 267.884 545.716 267.884 544.8 268.837C543.83 269.034 543.83 269.034 542.542 269.188C542.301 269.217 542.06 269.246 541.811 269.276C538.171 269.7 534.521 270.026 530.871 270.352C530.452 270.39 530.033 270.427 529.601 270.466C500.751 273.034 471.824 274.718 442.907 276.235C442.541 276.254 442.176 276.274 441.799 276.293C413.285 277.789 413.285 277.789 411.429 276.324C409.683 273.602 410.277 268.87 410.151 265.636C410.1 264.326 410.047 263.016 409.994 261.706C409.966 261.008 409.938 260.31 409.91 259.612C408.906 234.601 407.327 209.665 405.495 184.706C405.474 184.424 405.453 184.141 405.432 183.85C405.34 182.6 405.247 181.351 405.151 180.102C405.12 179.695 405.089 179.289 405.057 178.87C405.03 178.529 405.003 178.187 404.976 177.835C404.874 176.205 404.812 174.557 404.914 172.926C405.257 172.569 405.257 172.569 406.093 172.502Z" fill="#191919"/>
<path d="M315.857 119.377C316.408 119.865 316.95 120.363 317.486 120.87C317.82 121.184 318.155 121.499 318.5 121.824C321.053 124.308 322.966 126.983 324.686 130.14C325.014 130.734 325.014 130.734 325.349 131.34C329.328 139.047 330.426 148.444 328.114 156.881C326.482 162.216 323.732 166.684 320.571 171.143C317.427 175.586 314.4 179.876 313.236 185.366C313.029 186.118 313.029 186.118 312.343 186.831C311.154 186.992 310.501 186.957 309.45 186.341C308.581 184.822 308.876 183.513 309.257 181.839C309.734 180.362 310.326 178.966 310.971 177.561C311.104 177.262 311.237 176.963 311.373 176.655C312.634 174.04 314.324 171.765 316.002 169.431C321.768 161.397 325.552 152.836 324.173 142.588C323.664 139.689 322.834 137.069 321.6 134.418C321.448 134.089 321.297 133.759 321.141 133.42C317.975 126.973 312.958 122.674 306.857 119.443C306.426 119.206 306.426 119.206 305.985 118.964C298.22 114.957 288.662 115.067 280.521 117.728C270.666 121.48 262.702 128.135 258.11 138.059C255.199 144.66 255.154 151.746 257.206 158.591C259.227 164.235 262.521 168.87 266.4 173.282C266.567 173.474 266.734 173.665 266.906 173.862C268.497 175.682 270.111 177.479 271.744 179.258C274.052 181.784 276.188 184.285 278.057 187.187C277.735 188.054 277.555 188.514 276.749 188.952C274.109 189.016 270.846 184.897 269.005 183.076C268.593 182.664 268.182 182.252 267.771 181.839C267.537 181.605 267.302 181.37 267.06 181.129C260.609 174.66 255.296 167.562 252.343 158.664C252.22 158.298 252.096 157.932 251.969 157.555C250.377 151.787 250.896 145.063 252.686 139.41C252.79 139.072 252.79 139.072 252.897 138.728C254.777 132.864 258.078 128.025 262.286 123.722C262.564 123.433 262.842 123.145 263.128 122.847C268.423 117.624 275.131 114.161 282.171 112.312C282.394 112.254 282.616 112.196 282.845 112.136C294.197 109.307 306.594 111.975 315.857 119.377Z" fill="#181818"/>
<path d="M85.1142 360.358C85.4905 360.36 85.8668 360.362 86.2545 360.364C95.6487 360.51 103.692 364.63 110.222 371.581C112.823 374.626 116.425 379 116.677 383.227C115.829 389.438 108.793 395.919 104.313 399.463C97.9561 404.272 90.4019 406.976 82.5428 406.932C82.1667 406.93 81.7907 406.929 81.4032 406.927C78.4888 406.883 75.8435 406.581 73.0285 405.751C72.6325 405.642 72.2365 405.533 71.8285 405.421C64.5572 403.18 55.6309 398.273 51.4285 391.445C50.1741 387.694 51.4815 384.6 53.0353 381.145C57.339 371.98 64.7237 365.604 73.8669 362.165C77.6004 360.912 81.1939 360.336 85.1142 360.358ZM64.216 373.482C64.0693 373.659 63.9225 373.836 63.7714 374.018C63.4956 374.298 63.2198 374.577 62.9357 374.865C59.1845 378.861 56.6391 383.166 54.5142 388.28C61.5479 395.711 71.7327 401.732 81.9366 401.933C86.855 401.969 91.2338 401.386 95.6571 398.977C95.955 398.823 96.2528 398.67 96.5598 398.512C98.8941 397.261 100.877 395.772 102.857 393.985C103.194 393.683 103.531 393.38 103.878 393.069C105.919 391.198 107.72 389.249 109.399 387.012C109.95 386.283 110.522 385.614 111.129 384.938C111.865 384.079 111.865 384.079 111.704 383.166C110.736 379.843 108.097 376.945 105.943 374.375C105.754 374.148 105.564 373.921 105.37 373.687C100.502 368.249 93.3178 365.114 86.262 364.676C78.37 364.567 69.6645 367.188 64.216 373.482Z" fill="#96AA97"/>
<path d="M60.7258 161.86C68.365 163.551 76.0838 166.705 81.9428 172.213C82.2098 172.461 82.4767 172.71 82.7517 172.966C86.0299 176.186 88.3822 179.879 88.6118 184.63C88.6806 187.723 88.1819 190.075 86.2151 192.463C84.187 194.483 81.6843 195.457 78.9 195.544C74.4097 195.353 70.7151 193.827 67.5214 190.486C64.564 186.781 62.7734 182.001 60.9485 177.62C60.0962 175.592 59.1355 173.694 57.9428 171.856C57.7448 171.54 57.5468 171.224 57.3428 170.898C55.5123 168.941 53.4118 167.634 50.9785 166.641C49.3687 165.978 48.2856 165.527 47.3142 164.012C47.1428 162.697 47.1428 162.697 47.3142 161.516C50.4578 159.337 57.1328 161.125 60.7258 161.86Z" fill="#96AA97"/>
<path d="M45.2571 417.517C46.8989 418.542 48.3311 419.785 49.7785 421.083C50.0951 421.361 50.0951 421.361 50.4181 421.645C53.0027 423.952 53.0027 423.952 53.3357 425.606C52.812 428.813 49.9742 431.395 47.9785 433.774C47.1687 434.742 46.398 435.733 45.6428 436.749C44.2612 438.571 42.7408 440.248 41.2066 441.931C40.2446 442.987 39.3028 444.049 38.3973 445.158C36.5803 447.332 34.5989 449.347 32.6413 451.383C31.9534 452.099 31.2683 452.818 30.5832 453.537C24.1789 460.23 24.1789 460.23 22.2396 460.393C19.604 460.151 17.6122 457.723 15.9991 455.728C15.0825 454.486 14.503 453.422 14.2406 451.877C14.4832 450.05 15.4981 448.974 16.6071 447.579C16.8274 447.294 17.0476 447.009 17.2745 446.715C17.9119 445.892 18.5553 445.075 19.2 444.258C19.4915 443.883 19.7827 443.507 20.0732 443.13C20.8027 442.192 21.5416 441.262 22.2857 440.336C22.4309 440.155 22.5761 439.974 22.7256 439.787C24.6717 437.361 26.6576 434.985 28.7143 432.659C29.3584 431.924 29.9819 431.178 30.6 430.42C31.9603 428.786 33.4518 427.289 34.9277 425.77C36.189 424.467 37.3904 423.137 38.5433 421.729C42.3797 417.158 42.3797 417.158 45.2571 417.517Z" fill="#181818"/>
<path d="M93.3174 191.843C93.6588 192.032 93.6588 192.032 94.0071 192.224C94.2475 192.353 94.488 192.483 94.7357 192.616C101.008 196.106 106.602 201.076 111.75 206.137C112.51 206.882 113.289 207.597 114.08 208.306C115.457 209.556 116.761 210.865 118.051 212.211C118.278 212.446 118.504 212.681 118.737 212.924C119.212 213.417 119.685 213.91 120.159 214.404C120.877 215.152 121.596 215.899 122.316 216.645C122.78 217.128 123.244 217.611 123.708 218.094C123.92 218.314 124.131 218.533 124.349 218.759C125.633 220.1 126.852 221.484 128.04 222.918C128.811 223.842 129.613 224.733 130.414 225.628C131.889 227.288 133.289 228.996 134.652 230.757C135.206 231.47 135.765 232.176 136.334 232.877C136.487 233.066 136.639 233.254 136.797 233.448C137.224 233.975 137.653 234.501 138.082 235.028C140.145 237.707 140.145 237.707 140.4 239.132C140.229 239.957 140.229 239.957 139.671 240.647C138.857 241.026 138.857 241.026 137.889 240.834C136.536 240.187 135.868 239.286 135.021 238.062C134.692 237.607 134.362 237.153 134.032 236.699C133.865 236.468 133.699 236.238 133.528 236.001C132.763 234.96 131.958 233.957 131.143 232.959C130.988 232.77 130.834 232.581 130.675 232.386C129.292 230.707 127.86 229.078 126.412 227.459C125.732 226.697 125.079 225.914 124.429 225.124C122.879 223.275 121.21 221.551 119.54 219.821C118.994 219.256 118.45 218.688 117.906 218.12C115.513 215.63 113.07 213.246 110.4 211.076C110.255 211.279 110.109 211.482 109.959 211.69C107.71 214.77 105.544 217.17 102.171 218.92C101.945 218.92 101.719 218.92 101.486 218.92C102.537 220.808 103.926 222.207 105.42 223.727C106.373 224.715 107.248 225.751 108.122 226.813C108.687 227.479 109.276 228.103 109.886 228.725C110.699 229.556 111.46 230.409 112.2 231.31C113.205 232.526 114.274 233.661 115.371 234.787C116.661 236.11 117.884 237.467 119.06 238.901C119.744 239.702 120.466 240.452 121.2 241.204C122.367 242.404 123.472 243.633 124.535 244.933C124.978 245.463 125.435 245.981 125.901 246.49C126.153 246.768 126.405 247.046 126.664 247.333C126.897 247.584 127.13 247.835 127.37 248.094C127.991 249.028 128.019 249.54 127.886 250.653C127.543 251.01 127.543 251.01 126.441 251.113C120.989 250.68 114.105 240.822 110.743 236.748C110.244 236.174 109.744 235.602 109.243 235.032C107.914 233.501 106.655 231.923 105.408 230.32C104.476 229.14 103.518 227.986 102.557 226.831C100.683 224.573 98.9021 222.249 97.1456 219.891C96.6977 219.293 96.2459 218.698 95.7924 218.104C91.6475 212.674 87.6628 207.15 84.031 201.334C83.6816 200.775 83.3267 200.221 82.9714 199.667C82.8857 198.753 82.8857 198.753 82.9714 197.884C83.1977 197.649 83.424 197.413 83.6571 197.171C85.3368 197.297 86.1192 198.628 87.1553 199.867C88.8006 201.935 90.3198 204.108 91.8562 206.264C93.327 208.328 94.8223 210.372 96.3214 212.413C96.563 212.742 96.8045 213.072 97.0534 213.411C97.6163 214.178 98.1794 214.945 98.7428 215.711C102.018 215.089 104.352 212.735 106.286 210.007C106.722 209.176 107.02 208.41 107.314 207.511C107.048 207.394 107.048 207.394 106.776 207.275C105.605 206.604 104.619 205.737 103.586 204.859C103.122 204.468 102.657 204.078 102.193 203.688C101.842 203.392 101.842 203.392 101.484 203.091C100.669 202.409 99.8452 201.738 99.0194 201.07C98.2313 200.431 97.4477 199.787 96.6642 199.142C96.1852 198.749 95.7047 198.358 95.2232 197.969C94.4066 197.307 93.5958 196.638 92.7857 195.968C92.3966 195.656 92.3966 195.656 91.9997 195.337C91.7614 195.138 91.5231 194.939 91.2776 194.734C91.064 194.559 90.8504 194.384 90.6303 194.204C90.0096 193.394 90.0866 192.829 90.1714 191.823C91.3462 190.881 92.0497 191.196 93.3174 191.843Z" fill="#96AA97"/>
<path d="M280.457 413.595C282.795 415.166 283.767 417.304 284.893 419.879C285.08 420.296 285.268 420.713 285.461 421.143C286.09 422.544 286.703 423.952 287.314 425.361C287.478 425.739 287.478 425.739 287.645 426.124C289.044 429.354 290.423 432.594 291.796 435.836C292.531 437.57 293.276 439.3 294.031 441.026C295.787 445.046 297.517 449.074 299.1 453.172C299.233 453.509 299.366 453.845 299.503 454.192C299.62 454.503 299.737 454.813 299.858 455.133C299.961 455.401 300.063 455.67 300.169 455.946C300.382 456.914 300.26 457.573 300 458.52C299.657 458.877 299.657 458.877 298.886 459.077C297.943 458.877 297.943 458.877 297.17 457.729C295.99 455.665 294.964 453.516 293.936 451.367C293.78 451.043 293.78 451.043 293.621 450.712C292.143 447.629 290.736 444.521 289.414 441.361C289.269 441.015 289.125 440.669 288.975 440.313C288 437.938 288 437.938 288 437.127C282.909 438.978 282.909 438.978 278.057 441.406C278.68 443.635 279.735 445.599 280.795 447.63C281.832 449.701 281.832 449.701 281.814 451.009C281.486 451.746 281.486 451.746 280.457 452.459C279.469 452.397 278.938 452.308 278.234 451.566C277.71 450.679 277.19 449.793 276.686 448.893C276.464 448.508 276.242 448.122 276.013 447.725C264.054 426.542 264.054 426.542 265.926 418.779C266.848 416.293 268.445 414.699 270.7 413.481C273.876 412.118 277.378 411.857 280.457 413.595ZM273.943 432.136C273.83 432.371 273.717 432.606 273.6 432.849C273.911 433.717 274.241 434.547 274.607 435.389C274.707 435.624 274.806 435.859 274.909 436.101C275.156 436.682 275.406 437.261 275.657 437.84C277.295 437.308 278.832 436.633 280.393 435.902C282.331 435.005 284.253 434.204 286.286 433.562C285.494 431.679 284.702 429.797 283.886 427.857C280.688 427.857 276.549 430.42 273.943 432.136Z" fill="#96AA97"/>
<path d="M310.205 139.76C311.498 140.768 312.076 141.696 312.343 143.332C312.477 146.548 311.264 148.758 309.366 151.208C306.94 153.948 303.576 156.049 300.343 157.594C300.117 157.594 299.89 157.594 299.657 157.594C299.636 157.883 299.616 158.172 299.594 158.47C299.565 158.865 299.537 159.26 299.507 159.666C299.465 160.244 299.465 160.244 299.423 160.832C299.364 161.585 299.303 162.337 299.227 163.087C298.96 165.791 298.919 168.47 298.929 171.187C298.929 171.64 298.929 172.093 298.929 172.56C298.94 175.561 299.048 178.531 299.306 181.52C299.31 182.031 299.31 182.031 299.314 182.552C298.629 183.265 298.629 183.265 297.729 183.31C297.46 183.295 297.191 183.281 296.914 183.265C294.546 178.768 294.757 173.439 294.75 168.446C294.749 168.181 294.748 167.916 294.746 167.643C294.739 164.807 294.796 162.129 295.543 159.377C295.297 159.446 295.05 159.515 294.797 159.586C291.414 160.471 288.04 160.836 284.571 161.16C284.635 161.347 284.699 161.535 284.765 161.728C287.117 168.711 289.39 176.168 289.714 183.622C289.601 183.857 289.488 184.093 289.371 184.335C288.806 184.217 288.24 184.1 287.657 183.979C287.606 183.789 287.554 183.6 287.501 183.404C286.967 181.444 286.428 179.485 285.886 177.528C285.626 176.584 285.369 175.639 285.114 174.694C284.091 170.975 282.856 167.39 281.45 163.807C281.321 163.477 281.192 163.147 281.06 162.807C280.944 162.515 280.827 162.222 280.708 161.921C280.457 161.16 280.457 161.16 280.457 160.09C280.257 160.063 280.058 160.037 279.852 160.009C275.968 159.361 272.429 157.492 269.829 154.385C268.426 152.266 267.666 150.19 268.114 147.611C268.712 146.138 269.524 145.198 270.857 144.402C272.891 144.083 274.622 144.238 276.343 145.471C279.592 148.084 281.271 152.342 282.857 156.168C286.762 156.275 290.48 156.376 294.281 155.332C295.2 155.098 295.2 155.098 296.571 155.098C296.609 154.685 296.647 154.272 296.687 153.846C296.875 152.294 297.276 150.916 297.814 149.46C297.951 149.09 297.951 149.09 298.09 148.712C299.569 144.844 301.679 141.145 305.486 139.41C307.137 138.871 308.67 138.873 310.205 139.76ZM306.064 143.488C303.149 145.378 302.036 148.615 301.029 151.889C301.029 152.125 301.029 152.36 301.029 152.602C303.983 151.556 306.267 148.919 307.891 146.215C308.343 145.22 308.388 144.413 308.229 143.332C307.17 142.833 307.17 142.833 306.064 143.488ZM272.229 148.324C271.921 148.91 271.921 148.91 271.886 149.75C272.91 152.146 274.635 154.125 277.029 155.098C277.368 154.981 277.707 154.863 278.057 154.742C277.697 154.004 277.332 153.269 276.964 152.536C276.761 152.126 276.559 151.716 276.35 151.295C275.652 150.098 274.962 149.234 273.943 148.324C273.013 148.174 273.013 148.174 272.229 148.324Z" fill="#96AA97"/>
<path d="M88.9312 371.626C89.7236 372.148 90.4624 372.703 91.2 373.305C91.4157 373.48 91.6314 373.656 91.8536 373.836C94.7415 376.49 95.9003 380.399 96.3013 384.278C96.403 387.094 95.6393 389.295 93.9429 391.489C91.5449 394.157 88.7397 395.623 85.2281 395.84C80.881 395.896 77.7804 395.211 74.4 392.202C72.3078 389.99 71.6163 387.081 71.5286 384.046C71.6585 379.656 72.9258 375.73 76.0071 372.637C79.8149 369.446 84.6947 369.242 88.9312 371.626Z" fill="#96AA97"/>
<path d="M255.086 508.793C258.822 508.743 262.501 508.94 266.227 509.222C275.593 509.885 284.983 509.935 294.366 509.93C295.279 509.93 296.191 509.93 297.104 509.93C309.119 509.93 321.131 509.712 333.129 509.022C333.493 509.002 333.857 508.982 334.231 508.962C334.917 508.924 335.602 508.883 336.287 508.838C336.742 508.814 336.742 508.814 337.207 508.789C337.604 508.764 337.604 508.764 338.009 508.739C338.868 508.803 339.389 509.031 340.114 509.507C340.601 510.519 340.565 511.238 340.457 512.359C339.659 513.382 338.986 514.062 337.704 514.236C271.079 519.512 271.079 519.512 255.429 512.359C254.743 511.646 254.743 511.646 254.679 510.576C254.743 509.507 254.743 509.507 255.086 508.793Z" fill="#96AA97"/>
<path d="M266.4 292.013C266.966 292.13 267.531 292.248 268.114 292.369C268.463 294.034 268.407 295.351 268.14 297.028C268.103 297.265 268.066 297.503 268.028 297.748C267.95 298.255 267.87 298.762 267.789 299.268C267.577 300.607 267.38 301.948 267.182 303.29C267.143 303.554 267.104 303.818 267.064 304.089C265.531 314.456 265.005 325.91 267.086 336.224C267.132 336.469 267.178 336.713 267.225 336.965C268.283 342.431 270.695 348.203 275.207 351.489C278.194 353.25 281.719 354.32 285.107 353.477C285.967 353.217 286.811 352.931 287.657 352.626C288.067 352.486 288.477 352.346 288.9 352.202C289.303 352.059 289.303 352.059 289.714 351.913C290.25 352.336 290.25 352.336 290.743 352.982C290.796 354.007 290.583 354.547 289.935 355.318C287.421 357.729 284.818 358.146 281.486 358.33C281.394 358.733 281.302 359.135 281.207 359.549C277.922 373.445 277.922 373.445 274.286 377.227C273.214 377.094 273.214 377.094 272.229 376.871C271.747 375.25 272.092 374.092 272.629 372.553C272.71 372.311 272.79 372.068 272.873 371.818C273.045 371.301 273.219 370.785 273.394 370.27C273.844 368.944 274.28 367.613 274.714 366.282C274.799 366.023 274.883 365.764 274.97 365.497C275.844 362.792 276.514 360.065 277.029 357.261C276.821 357.191 276.613 357.121 276.399 357.049C271.008 355.048 267.73 350.701 265.336 345.489C258.978 330.854 261.183 311.819 264.536 296.692C264.603 296.383 264.671 296.073 264.741 295.754C265.085 294.291 265.379 293.139 266.4 292.013Z" fill="#181818"/>
<path d="M142.286 227.834C144.812 228.428 146.489 229.857 147.871 232.125C149.709 235.914 149.286 239.938 148.114 243.879C145.954 249.701 141.84 254.033 136.417 256.605C130.782 259.097 124.699 259.204 118.971 257.071C116.476 255.718 114.955 254.146 113.743 251.5C113.356 249.688 113.367 247.867 113.486 246.018C113.829 245.661 113.829 245.661 114.707 245.639C114.983 245.646 115.259 245.654 115.543 245.661C115.647 245.945 115.751 246.229 115.858 246.522C116.988 249.495 117.933 251.829 120.864 253.191C125.901 255.055 130.828 254.921 135.771 252.792C139.867 250.495 142.804 246.748 144.202 242.143C144.604 239.972 144.618 237.591 143.936 235.5C142.281 233.126 140.753 232.413 138.091 231.544C137.143 231.043 137.143 231.043 136.8 230.16C136.8 229.26 136.8 229.26 137.4 228.235C139.065 227.103 140.395 227.43 142.286 227.834Z" fill="#181818"/>
<path d="M292.543 346.208C293.486 346.564 293.486 346.564 294.496 347.493C296.145 348.997 298.002 350.128 299.871 351.311C306.627 355.652 312.453 359.691 316.329 367.066C316.536 367.456 316.743 367.846 316.957 368.248C325.503 384.41 325.503 384.41 325.714 387.924C325.05 388.793 325.05 388.793 324.343 389.35C322.162 388.657 321.358 387.102 320.32 385.099C319.973 384.408 319.628 383.715 319.286 383.021C319.103 382.655 318.92 382.288 318.732 381.911C317.69 379.806 316.695 377.687 315.75 375.534C313.635 370.758 311.281 365.876 307.543 362.252C307.352 362.065 307.161 361.878 306.964 361.685C305.206 360.015 303.325 358.729 301.286 357.461C300.647 357.055 300.008 356.649 299.369 356.243C299.064 356.049 298.759 355.856 298.445 355.657C292.239 351.724 292.239 351.724 290.743 349.06C290.609 347.938 290.609 347.938 290.743 346.921C291.771 346.208 291.771 346.208 292.543 346.208Z" fill="#181818"/>
<path d="M168.686 274.185C172.879 277.408 175.829 282.942 178.709 287.368C178.98 287.784 179.252 288.199 179.525 288.614C184.067 295.522 184.067 295.522 183.75 298.475C183.429 299.5 183.429 299.5 182.743 300.213C175.948 301.125 168.206 293.012 163.149 288.959C162.94 288.79 162.73 288.621 162.514 288.447C162.185 288.182 162.185 288.182 161.85 287.912C160.464 286.792 159.084 285.666 157.714 284.525C157.52 284.369 157.326 284.213 157.126 284.052C155.672 282.854 155.672 282.854 155.529 281.74C155.571 281.482 155.613 281.225 155.657 280.96C156.244 280.546 156.244 280.546 157.029 280.246C157.771 280.56 157.771 280.56 158.614 281.16C158.953 281.399 159.292 281.637 159.642 281.883C160.445 282.473 161.24 283.075 162.033 283.68C162.501 284.036 162.968 284.392 163.436 284.748C163.683 284.937 163.931 285.126 164.186 285.32C166.983 287.429 169.869 289.397 172.757 291.366C173.003 291.534 173.249 291.702 173.502 291.876C174.21 292.358 174.918 292.84 175.626 293.32C175.839 293.466 176.053 293.611 176.272 293.761C177.262 294.43 178.242 295.063 179.314 295.578C176.367 290.855 173.167 286.322 169.907 281.829C169.27 280.946 168.635 280.062 168 279.177C167.76 278.845 167.521 278.513 167.274 278.171C167.082 277.893 166.89 277.614 166.693 277.327C166.535 277.102 166.377 276.876 166.215 276.643C165.838 275.707 165.987 275.134 166.286 274.185C167.231 273.694 167.684 273.874 168.686 274.185Z" fill="#96AA97"/>
<path d="M293.829 458.877C294.163 459.072 294.498 459.267 294.842 459.467C297.621 461.193 299.991 463.423 302.4 465.651C302.748 465.968 303.095 466.286 303.443 466.602C305.729 468.705 305.729 468.705 306.514 469.93C306.386 470.888 306.386 470.888 306.171 471.712C305.614 471.958 305.614 471.958 304.8 472.069C303.205 471.371 301.985 470.403 300.707 469.217C295.035 464.103 288.917 459.045 281.077 459.134C277.227 459.426 273.418 460.392 269.65 461.231C269.211 461.328 268.771 461.425 268.318 461.525C267.458 461.716 266.599 461.911 265.74 462.11C259.782 463.444 259.782 463.444 257.486 462.086C257.486 461.497 257.486 460.909 257.486 460.303C260.232 458.632 263.059 457.887 266.143 457.228C266.631 457.12 267.118 457.013 267.606 456.905C276.999 454.864 285.214 453.742 293.829 458.877Z" fill="#181818"/>
<path d="M292.753 478.167C293.839 478.641 294.247 479.41 294.921 480.403C295.194 480.796 295.468 481.188 295.742 481.58C295.881 481.779 296.019 481.978 296.161 482.183C298.33 485.263 300.796 487.964 303.429 490.609C303.744 490.5 304.06 490.391 304.385 490.278C305.437 489.913 306.49 489.548 307.543 489.183C307.493 488.936 307.444 488.69 307.393 488.435C306.831 485.358 306.227 481.521 307.2 478.487C307.971 478.353 307.971 478.353 308.914 478.487C310.425 480.298 310.708 482.241 311.095 484.557C311.161 484.935 311.228 485.312 311.296 485.702C311.436 486.499 311.573 487.297 311.708 488.095C311.913 489.311 312.127 490.526 312.341 491.74C312.476 492.517 312.611 493.295 312.745 494.072C312.808 494.433 312.871 494.793 312.936 495.165C313.794 500.29 313.794 500.29 312.686 502.019C310.912 501.855 309.976 501.294 308.593 500.147C308.404 499.991 308.214 499.835 308.019 499.674C305.628 497.679 303.324 495.574 301.029 493.462C300.709 493.17 300.39 492.879 300.062 492.579C291.759 484.919 291.759 484.919 291.086 480.983C291.171 479.623 291.171 479.623 291.429 478.487C292.114 478.13 292.114 478.13 292.753 478.167Z" fill="#96AA97"/>
<path d="M288.213 73.9906C289.645 74.9176 289.832 76.3777 290.23 78.0158C291.465 83.6774 292.175 89.3285 292.179 95.1313C292.183 95.5255 292.187 95.9196 292.191 96.3256C292.192 96.8961 292.192 96.8961 292.193 97.4782C292.195 97.8196 292.196 98.161 292.198 98.5127C292.073 99.9592 291.733 100.943 290.743 101.973C289.886 101.95 289.886 101.95 289.029 101.616C288.37 100.264 288.149 98.9 287.925 97.4113C287.89 97.1777 287.854 96.944 287.818 96.7033C287.705 95.942 287.595 95.1802 287.486 94.4183C287.448 94.1578 287.41 93.8973 287.371 93.6289C286.662 88.7044 286.152 83.7741 285.943 78.797C285.922 78.437 285.902 78.077 285.881 77.7061C285.868 77.3556 285.855 77.005 285.842 76.6438C285.829 76.3296 285.815 76.0154 285.801 75.6917C285.943 74.875 285.943 74.875 286.579 74.218C287.314 73.8053 287.314 73.8053 288.213 73.9906Z" fill="#181818"/>
<path d="M285.943 462.799C287.864 463.45 289.63 464.343 291.429 465.295C291.688 465.428 291.947 465.562 292.214 465.7C297.277 468.315 302.023 471.35 306.514 474.921C306.401 475.745 306.288 476.569 306.171 477.417C305.007 477.745 304.217 477.958 303.078 477.487C302.316 477.032 301.587 476.545 300.857 476.036C300.308 475.67 299.759 475.305 299.21 474.939C298.938 474.755 298.666 474.571 298.386 474.382C295.523 472.452 292.588 470.664 289.543 469.061C289.321 468.943 289.099 468.825 288.871 468.704C286.638 467.554 284.353 467.007 281.909 466.565C281.143 466.364 281.143 466.364 280.114 465.651C279.964 464.782 279.964 464.782 280.114 463.868C281.763 462.202 283.8 462.482 285.943 462.799Z" fill="#181818"/>
<path d="M342.857 90.2066C343.113 90.9897 343.241 91.4788 343.027 92.286C341.571 95.1196 339.355 97.3032 337.229 99.5973C336.406 100.495 335.626 101.429 334.847 102.37C333.9 103.504 332.927 104.615 331.954 105.725C331.469 106.293 330.997 106.874 330.542 107.468C329.057 109.398 329.057 109.398 327.686 109.728C326.743 109.46 326.743 109.46 326.057 108.881C325.563 107.661 325.926 107.105 326.4 105.895C328.909 101.629 332.049 97.7823 335.314 94.1286C335.627 93.7742 335.627 93.7742 335.946 93.4127C337.986 91.186 339.798 89.345 342.857 90.2066Z" fill="#181818"/>
<path d="M295.114 384.136C296.954 384.695 297.96 385.925 298.971 387.567C299.758 389.284 300.236 391.097 300.734 392.921C301.848 397.119 301.848 397.119 304.746 400.101C305.701 400.623 306.685 401.043 307.682 401.468C310.424 402.667 310.424 402.667 310.971 403.969C310.886 404.742 310.82 405.196 310.286 405.751C307.209 406.221 304.434 405.2 301.921 403.37C298.719 400.585 297.725 397.111 296.786 393.005C296.224 390.8 295.101 389.341 293.645 387.68C292.457 386.3 292.457 386.3 292.457 385.339C293.165 384.051 293.753 383.994 295.114 384.136Z" fill="#181818"/>
<path d="M333.831 178.88C335.185 179.007 336.22 179.475 337.418 180.097C337.765 180.271 337.765 180.271 338.118 180.449C338.864 180.826 339.607 181.21 340.35 181.594C340.861 181.855 341.372 182.117 341.884 182.378C353.258 188.224 353.258 188.224 354.107 190.396C354.171 191.11 354.171 191.11 353.486 192.179C347.563 193.241 339.4 186.884 334.543 183.845C334.312 183.705 334.081 183.565 333.843 183.421C332.865 182.79 332.3 182.393 331.89 181.253C331.886 180.413 331.886 180.413 332.25 179.589C332.914 178.987 332.914 178.987 333.831 178.88Z" fill="#181818"/>
<path d="M233.164 146.43C233.513 146.449 233.861 146.468 234.221 146.487C236.929 146.707 236.929 146.707 238.006 147.818C238.211 148.103 238.417 148.387 238.629 148.68C238.457 149.527 238.457 149.527 237.943 150.463C235.944 151.142 234.104 151.282 232.014 151.271C231.568 151.272 231.568 151.272 231.112 151.273C230.485 151.273 229.859 151.272 229.232 151.269C228.287 151.265 227.342 151.269 226.398 151.274C217.94 151.281 217.94 151.281 215.314 149.75C215.314 149.044 215.314 148.338 215.314 147.611C220.449 144.941 227.617 146.043 233.164 146.43Z" fill="#181818"/>
<path d="M281.854 475.595C283.762 476.738 284.695 478.466 285.257 480.626C285.502 483.264 285.552 486.124 284.229 488.47C282.501 490.536 280.792 491.566 278.139 491.786C277.695 491.788 277.25 491.789 276.793 491.791C276.346 491.797 275.899 491.803 275.439 491.809C274.286 491.679 274.286 491.679 273.617 491.193C273.257 490.609 273.257 490.609 273.214 489.718C273.6 488.827 273.6 488.827 274.564 488.247C276.065 487.67 277.635 487.335 279.198 486.988C280.178 486.667 280.589 486.514 281.143 485.618C281.294 484.538 281.294 484.538 281.25 483.345C281.248 482.745 281.248 482.745 281.246 482.133C281.146 481.014 280.914 480.211 280.457 479.2C279.949 479.135 279.949 479.135 279.431 479.069C278.772 478.979 278.772 478.979 278.1 478.888C277.662 478.83 277.225 478.772 276.774 478.712C275.657 478.487 275.657 478.487 274.971 477.774C275.1 476.66 275.1 476.66 275.314 475.634C277.601 474.706 279.584 474.624 281.854 475.595Z" fill="#181818"/>
<path d="M240.725 94.852C243.783 95.9219 246.289 99.1189 248.511 101.441C249.001 101.952 249.496 102.458 249.991 102.964C253.958 107.086 253.958 107.086 254.743 109.104C254.684 110.042 254.684 110.042 254.4 110.886C253.371 111.599 253.371 111.599 252.621 111.599C249.469 110.434 247.022 107.234 244.719 104.814C244.072 104.135 243.423 103.459 242.774 102.784C242.355 102.347 241.937 101.91 241.519 101.473C241.328 101.274 241.137 101.075 240.941 100.87C239.986 99.8655 239.053 98.8426 238.148 97.7893C237.977 97.5908 237.806 97.3923 237.63 97.1878C237.257 96.6244 237.257 96.6244 237.257 95.5993C237.987 93.9852 239.3 94.5166 240.725 94.852Z" fill="#181818"/>
<path d="M295.543 377.227C296.199 377.818 296.199 377.818 296.571 378.654C296.454 379.743 296.454 379.743 295.886 380.793C294.998 381.269 294.252 381.599 293.314 381.907C291.61 382.429 291.61 382.429 290.242 383.537C289.973 384.732 289.985 385.902 290.014 387.122C290.019 387.495 290.019 387.495 290.024 387.875C290.032 388.486 290.044 389.096 290.057 389.707C290.481 389.802 290.906 389.898 291.343 389.996C292.492 390.291 293.284 390.643 294.171 391.489C294.053 392.38 293.881 392.852 293.314 393.539C292.007 394.219 290.805 394.172 289.371 393.985C287.584 393.354 286.86 392.471 285.943 390.776C285.177 388.387 285.223 384.768 285.964 382.375C287.239 380.024 288.862 378.462 291.288 377.463C292.682 377.066 294.127 376.866 295.543 377.227Z" fill="#181818"/>
<path d="M274.286 481.139C274.971 481.696 274.971 481.696 275.357 482.52C275.314 483.479 275.314 483.479 274.671 484.348C270.578 488.077 265.045 490.228 259.566 490.001C258.247 489.806 256.959 489.461 255.771 488.827C255.086 487.757 255.086 487.757 255.15 486.665C255.429 485.618 255.429 485.618 256.457 484.905C257.446 484.872 258.406 484.874 259.393 484.905C263.767 484.964 267.121 483.985 271.058 481.951C273.026 480.948 273.026 480.948 274.286 481.139Z" fill="#181818"/>
<path d="M360.343 142.619C361.13 143.313 361.13 143.313 361.714 144.045C361.714 144.981 361.714 144.981 361.371 145.828C360.295 146.567 359.452 146.615 358.181 146.573C357.642 146.561 357.642 146.561 357.092 146.55C356.708 146.539 356.324 146.529 355.929 146.519C352.518 146.46 349.279 146.676 345.924 147.324C343.777 147.708 343.777 147.708 342.49 147.172C341.829 146.541 341.829 146.541 341.636 145.471C341.829 144.402 341.829 144.402 342.321 143.8C347.163 141.222 355.257 140.141 360.343 142.619Z" fill="#181818"/>
<path d="M256.114 190.396C256.457 190.753 256.457 190.753 256.607 191.555C256.424 192.75 255.994 193.086 255.106 193.819C253.603 194.883 251.952 195.682 250.329 196.525C247.457 198.041 244.667 199.607 241.979 201.455C240.034 202.783 240.034 202.783 238.971 202.876C238.2 202.363 238.2 202.363 237.6 201.806C237.813 199.731 238.856 198.973 240.323 197.668C244.267 194.457 250.961 189.241 256.114 190.396Z" fill="#181818"/>
<path d="M467.7 166.534C468.808 167.103 468.959 168.026 469.366 169.189C469.812 170.778 470.162 172.375 470.486 173.995C470.546 174.291 470.606 174.587 470.668 174.892C471.658 180.178 471.658 180.178 470.507 182.084C469.714 182.552 469.714 182.552 468.857 182.664C467.682 182.023 467.419 181.362 466.942 180.096C465.871 176.306 464.913 171.501 465.6 167.577C466.303 166.779 466.651 166.496 467.7 166.534Z" fill="#181818"/>
<path d="M285.257 468.86C287.541 470.279 288.554 472.371 289.371 474.921C289.422 475.789 289.447 476.659 289.457 477.529C289.466 477.991 289.475 478.453 289.484 478.928C289.364 480.355 289.083 481.209 288.343 482.409C287.421 482.721 287.421 482.721 286.629 482.766C285.96 481.723 285.849 481.436 285.762 480.263C285.738 479.986 285.714 479.71 285.689 479.425C285.644 478.848 285.601 478.272 285.558 477.695C285.405 475.966 285.173 474.621 284.229 473.139C283.485 472.53 283.485 472.53 282.643 472.136C281.143 471.356 281.143 471.356 280.8 470.999C280.786 470.286 280.785 469.573 280.8 468.86C282.396 467.871 283.576 468.193 285.257 468.86Z" fill="#181818"/>
<path d="M531.257 161.115C532.321 161.613 532.467 162.14 532.886 163.233C533.382 164.737 533.728 166.273 534.064 167.823C534.177 168.343 534.177 168.343 534.293 168.873C534.787 171.258 535.282 173.695 534.857 176.135C534.171 176.848 534.171 176.848 533.164 176.981C532.114 176.848 532.114 176.848 531.58 176.331C530.856 174.999 530.628 173.639 530.357 172.146C530.27 171.675 530.27 171.675 530.181 171.195C529.811 169.098 529.538 167.008 529.393 164.881C529.373 164.629 529.353 164.377 529.333 164.117C529.281 163.076 529.254 162.407 529.831 161.531C530.4 161.16 530.4 161.16 531.257 161.115Z" fill="#181818"/>
<path d="M294.038 329.655C294.857 329.807 294.857 329.807 295.521 330.564C295.886 331.589 295.886 331.589 295.757 332.592C294.169 335.832 291.881 337.366 288.686 338.72C286.784 339.329 284.735 339.366 282.857 338.653C281.829 338.007 281.829 338.007 281.507 337.049C281.5 336.777 281.493 336.505 281.486 336.224C282.437 335.73 283.343 335.72 284.4 335.6C287.711 335.108 289.826 334.288 291.879 331.478C292.184 331.006 292.184 331.006 292.496 330.524C293.143 329.807 293.143 329.807 294.038 329.655Z" fill="#181818"/>
<path d="M319.543 354.052C320.871 354.676 320.871 354.676 321.257 355.478C321.295 356.359 321.313 357.23 321.315 358.112C321.316 358.374 321.317 358.636 321.318 358.906C321.32 359.462 321.321 360.018 321.321 360.574C321.321 361.418 321.328 362.262 321.334 363.107C321.335 363.648 321.336 364.189 321.336 364.73C321.339 364.98 321.341 365.23 321.344 365.488C321.336 367.166 321.07 368.519 320.571 370.096C319.723 370.273 319.723 370.273 318.857 370.453C316.563 366.182 316.839 361.596 317.829 356.904C318.312 355.76 318.693 354.935 319.543 354.052Z" fill="#181818"/>
<path d="M278.4 316.614C278.853 316.732 279.305 316.85 279.771 316.971C279.691 319.263 279.119 320.521 277.809 322.361C277.307 322.995 277.307 322.995 277.371 323.745C279.296 324.546 281.167 325.112 283.2 325.528C283.414 326.174 283.414 326.174 283.543 326.954C283.317 327.307 283.09 327.66 282.857 328.024C280.297 328.32 278.335 327.658 276 326.598C275.749 326.486 275.498 326.375 275.239 326.261C274.586 325.929 274.586 325.929 273.6 325.171C273.292 324.163 273.292 324.163 273.257 323.032C273.739 322.144 273.739 322.144 274.457 321.294C274.708 320.991 274.959 320.687 275.218 320.375C275.476 320.075 275.734 319.775 276 319.467C276.237 319.182 276.474 318.897 276.718 318.603C277.274 317.935 277.834 317.273 278.4 316.614Z" fill="#181818"/>
<path d="M306.536 365.238C307.2 365.818 307.2 365.818 307.564 366.687C307.543 367.601 307.543 367.601 306.986 368.447C306.171 369.027 306.171 369.027 305.353 368.921C304.544 368.694 303.801 368.407 303.021 368.091C300.38 367.225 297.57 367.702 294.857 367.957C294.631 367.486 294.405 367.016 294.171 366.531C297.434 362.482 302.344 363.281 306.536 365.238Z" fill="#181818"/>
<path d="M300.686 370.453C301.307 371.135 301.307 371.135 301.714 371.879C301.574 373.452 301.574 373.452 301.029 374.018C300.257 373.987 299.485 373.949 298.714 373.907C296.256 373.828 294.556 374.461 292.39 375.725C291.303 376.214 290.824 376.171 289.714 375.801C289.414 375.066 289.414 375.066 289.371 374.018C290.394 371.991 292 371.079 294.02 370.353C296.293 369.657 298.445 369.553 300.686 370.453Z" fill="#181818"/>
<path d="M292.8 303.422C295.061 304.86 296.372 306.923 297.257 309.483C297.471 310.709 297.471 310.709 297.257 311.623C296.4 312.291 296.4 312.291 295.543 312.692C294.629 311.795 293.869 310.979 293.207 309.862C292.493 308.822 291.994 308.397 291 307.701C289.744 306.774 289.744 306.774 289.479 305.494C289.714 304.492 289.714 304.492 290.1 303.823C291.12 303.187 291.622 303.191 292.8 303.422Z" fill="#181818"/>
<path d="M277.907 300.057C278.4 300.926 278.4 300.926 278.357 302.219C278.057 303.422 278.057 303.422 277.371 304.135C276.564 304.167 276.564 304.167 275.593 304.113C273.804 304.072 272.792 304.41 271.2 305.205C270.193 305.272 270.193 305.272 269.486 305.205C269.229 304.447 269.229 304.447 269.143 303.422C270.143 301.299 271.504 300.424 273.579 299.589C276.574 299.212 276.574 299.212 277.907 300.057Z" fill="#181818"/>
<path d="M289.371 312.336C290.4 312.692 290.4 312.692 290.743 313.405C291.022 315.745 290.638 317.176 289.371 319.11C288.386 319.155 288.386 319.155 287.314 319.11C286.629 318.397 286.629 318.397 286.479 317.283C286.668 315.541 287.285 314.397 288.343 313.049C288.682 312.813 289.022 312.578 289.371 312.336Z" fill="#191919"/>
<path d="M272.914 308.414C273.557 308.503 273.557 308.503 274.286 308.77C275.167 310.164 275.007 311.327 274.815 312.922C274.629 313.762 274.629 313.762 274.007 314.72C273.257 315.188 273.257 315.188 272.529 315.21C271.886 314.832 271.886 314.832 271.436 314.096C271.125 312.714 271.164 311.562 271.543 310.196C272.25 309.127 272.25 309.127 272.914 308.414Z" fill="#181818"/>
</svg>
