<svg width="581" height="576" viewBox="0 0 581 576" fill="none" xmlns="http://www.w3.org/2000/svg">
<ellipse cx="290.5" cy="302" rx="244.5" ry="253" fill="#96AA97" fill-opacity="0.29"/>
<path d="M530.278 131C544.926 134.933 553.969 150.645 561.018 162.776C573.132 188.314 575.545 214.724 566.702 241.596C562.382 253.233 555.736 263.426 547.936 273.052C543.221 279.667 539.909 287.123 536.426 294.419C535.411 293.919 534.397 293.42 533.352 292.906C533.859 289.91 534.366 286.914 534.889 283.827C533.754 284.43 532.618 285.032 531.449 285.653C509.328 297.026 484.462 302.432 459.766 295.459C454.387 293.487 449.23 291.101 444.204 288.366C445.218 292.86 446.233 297.354 447.278 301.984C474.451 305.142 500.42 307.247 527.312 301.317C528.798 301.038 530.284 300.759 531.815 300.471C536.137 304.726 534.443 315.992 534.793 321.939C534.857 323.005 534.922 324.071 534.988 325.169C537.153 361.29 538.292 397.466 539.5 433.627C539.548 435.061 539.596 436.494 539.646 437.971C540.57 465.619 541.173 493.253 541.229 520.916C541.233 522.069 541.237 523.222 541.242 524.41C541.25 527.633 541.248 530.856 541.241 534.08C541.239 535.909 541.238 537.738 541.236 539.622C541.037 544.086 541.037 544.086 539.5 548.626C540.514 550.124 541.529 551.622 542.574 553.165C542.574 558.658 542.574 564.151 542.574 569.81C555.255 569.81 567.935 569.81 581 569.81C581 570.808 581 571.807 581 572.836C571.397 574.018 562.012 574.595 552.34 574.658C550.908 574.673 549.477 574.688 548.002 574.703C543.228 574.751 538.455 574.788 533.681 574.825C530.235 574.856 526.789 574.887 523.343 574.919C513.938 575.004 504.533 575.078 495.129 575.149C489.156 575.195 483.184 575.242 477.211 575.291C385.431 576.027 293.652 576.045 201.869 575.971C186.449 575.959 171.028 575.951 155.608 575.945C154.498 575.945 153.389 575.945 152.245 575.944C146.67 575.942 141.095 575.94 135.519 575.938C90.3462 575.923 45.1731 575.897 0 575.862C0 574.864 0 573.865 0 572.836C87.438 571.68 174.873 570.963 262.318 570.54C278.203 570.463 294.089 570.381 309.975 570.298C342.421 570.13 374.868 569.968 407.315 569.81C407.498 568.864 407.682 567.919 407.871 566.944C409.323 562.226 412.174 561.226 416.441 558.839C417.818 558.051 419.195 557.263 420.614 556.452C424.222 554.678 424.222 554.678 427.296 554.678C428.675 553.976 428.675 553.976 430.082 553.26C434.065 551.355 438.192 550.139 442.667 550.139C442.504 547.814 442.504 547.814 442.337 545.443C440.914 523.397 440.891 501.373 440.933 479.291C440.938 476.054 440.939 472.818 440.939 469.581C440.94 442.471 441.155 415.369 441.586 388.263C441.627 385.621 441.668 382.978 441.709 380.336C441.89 368.775 442.083 357.214 442.317 345.653C442.411 340.872 442.492 336.091 442.57 331.31C442.61 329.094 442.655 326.878 442.707 324.662C442.978 313.015 442.741 302.647 439.593 291.392C439.402 290.051 439.212 288.709 439.016 287.326C437.674 282.439 434.804 278.888 431.907 274.748C431.907 273.749 431.907 272.751 431.907 271.722C429.738 271.801 429.738 271.801 427.524 271.881C425.61 271.922 423.697 271.963 421.725 272.005C418.889 272.084 418.889 272.084 415.997 272.165C409.89 271.682 406.327 270.378 401.167 267.182C397.968 262.458 397.672 261.232 397.708 255.834C397.7 254.663 397.692 253.493 397.684 252.287C398.093 249.025 398.093 249.025 401.167 244.485C401.642 242.956 402.118 241.427 402.608 239.851C404.241 235.406 404.241 235.406 408.852 232.38C413.751 232.191 413.751 232.191 418.074 232.38C418.581 233.379 419.089 234.378 419.611 235.406C415.553 236.405 411.496 237.404 407.315 238.433C407.315 241.928 407.315 245.423 407.315 249.025C406.3 249.025 405.286 249.025 404.241 249.025C404.526 250.148 404.811 251.272 405.105 252.429C405.776 256.578 405.397 258.698 404.241 262.643C414.386 265.446 422.697 266.326 433.252 264.818C435.63 264.49 435.63 264.49 438.056 264.156C438.563 264.655 439.07 265.155 439.593 265.669C442.348 260.95 443.194 257.079 443.627 251.673C443.742 250.323 443.857 248.973 443.976 247.582C444.051 246.56 444.126 245.538 444.204 244.485C453.426 247.512 453.426 247.512 456.47 248.723C468.765 253.375 481.26 254.077 493.773 249.687C509.035 242.728 516.402 232.424 522.593 217.249C523.905 213.194 524.849 209.331 525.667 205.144C526.681 205.144 527.696 205.144 528.741 205.144C529.888 218.696 525.983 231.067 517.597 242.026C505.33 253.554 491.977 259.455 474.944 260.279C466.126 260.041 458.387 256.933 450.352 253.564C449.96 254.933 449.96 254.933 449.559 256.33C447.377 263.416 445.691 268.473 439.593 273.235C442.488 281.122 448.976 282.979 456.272 286.357C474.571 293.956 494.759 293.37 513.37 286.853C535.901 277.192 550.468 261.013 559.824 238.799C568.029 215.499 564.134 190.775 554.018 168.592C548.152 157.23 541.241 147.224 532.253 138.046C530.278 135.539 530.278 135.539 530.278 131ZM488.778 376.128C485.998 397.226 483.219 418.324 480.44 439.422C479.15 449.22 477.86 459.017 476.569 468.814C475.323 478.272 474.077 487.729 472.832 497.187C472.357 500.792 471.882 504.397 471.407 508.003C470.741 513.059 470.075 518.115 469.409 523.171C469.213 524.656 469.018 526.14 468.816 527.67C468.458 530.39 468.103 533.111 467.75 535.831C467.428 538.271 467.091 540.708 466.738 543.143C465.864 549.319 465.702 552.29 468.796 557.705C469.526 561.734 469.919 565.732 470.333 569.81C474.898 569.81 479.463 569.81 484.167 569.81C485.181 567.812 486.196 565.815 487.241 563.757C497.187 555.955 509.001 552.092 521.056 548.626C520.781 547.852 520.506 547.078 520.222 546.281C515.871 533.135 513.77 519.644 511.449 506.045C510.985 503.365 510.52 500.684 510.055 498.004C509.082 492.393 508.117 486.782 507.156 481.17C505.942 474.077 504.714 466.987 503.482 459.897C498.644 432.033 493.811 404.193 490.315 376.128C489.808 376.128 489.3 376.128 488.778 376.128Z" fill="#494A4A"/>
<path d="M239.803 27.0175C242.058 47.9072 243.576 68.7368 244.433 89.7255C244.619 94.271 244.819 98.8158 245.02 103.361C245.639 117.641 246.139 131.87 245.965 146.164C238.848 146.164 231.732 146.164 224.399 146.164C224.399 153.63 224.399 161.095 224.399 168.787C205.405 172.506 186.701 172.104 167.403 171.803C167.403 170.808 167.403 169.813 167.403 168.787C174.109 168.023 180.817 167.273 187.525 166.525C189.418 166.309 191.312 166.093 193.262 165.871C195.104 165.667 196.946 165.463 198.844 165.252C201.372 164.968 201.372 164.968 203.953 164.678C209.251 164.241 214.463 164.193 219.778 164.263C219.681 163.09 219.585 161.918 219.485 160.71C218.572 149.596 217.665 138.482 216.765 127.367C216.302 121.654 215.837 115.942 215.366 110.23C214.911 104.705 214.462 99.1797 214.018 93.6542C213.848 91.5588 213.676 89.4635 213.502 87.3685C212.496 75.2668 211.821 63.2919 212.076 51.1485C210.422 51.2052 208.768 51.2618 207.065 51.3202C191.256 51.8611 175.448 52.3935 159.639 52.9183C151.517 53.1881 143.395 53.4606 135.274 53.7399C98.7312 54.9947 62.2523 56.0987 25.6832 55.673C25.79 56.8352 25.8968 57.9974 26.0068 59.1948C26.8097 68.2135 27.4329 77.1574 27.6027 86.2079C27.6515 88.4689 27.7008 90.7298 27.7505 92.9907C27.7742 94.1471 27.798 95.3035 27.8224 96.4949C28.3624 122.178 29.7307 147.704 31.8449 173.312C32.7229 173.266 33.6008 173.22 34.5053 173.173C54.1254 172.185 73.7213 171.643 93.366 171.615C95.3073 171.608 97.2485 171.601 99.2486 171.594C104.512 171.603 109.767 171.672 115.028 171.803C116.395 171.836 117.762 171.868 119.17 171.901C127.453 172.404 131.33 174.252 137.076 180.476C138.309 181.774 139.542 183.073 140.812 184.411C150.458 195.437 150.458 195.437 150.458 198.951C151.475 198.951 152.492 198.951 153.539 198.951C153.774 197.379 153.774 197.379 154.014 195.775C155.26 190.67 157.339 186.549 159.797 181.889C161.063 179.472 161.063 179.472 162.355 177.006C163.004 175.787 163.653 174.568 164.322 173.312C165.847 173.312 167.372 173.312 168.943 173.312C165.726 185.552 160.697 196.644 155.08 208C153.555 208 152.03 208 150.458 208C148.31 205.857 148.31 205.857 146.126 202.88C145.328 201.812 144.529 200.744 143.707 199.643C142.885 198.513 142.063 197.382 141.216 196.217C139.582 194.006 137.946 191.796 136.306 189.59C135.585 188.602 134.864 187.615 134.121 186.598C133.412 185.697 132.703 184.797 131.973 183.869C131.364 183.08 130.754 182.29 130.127 181.477C126.065 178.356 122.896 178.742 117.777 178.692C115.804 178.662 113.83 178.633 111.797 178.602C109.643 178.592 107.489 178.582 105.334 178.573C103.131 178.547 100.927 178.52 98.7231 178.491C92.9265 178.419 87.1299 178.374 81.3329 178.335C75.4162 178.29 69.4998 178.219 63.5833 178.151C51.977 178.022 40.3708 177.92 28.7641 177.836C26.8757 172.428 25.2821 167.512 24.7625 161.812C24.6412 160.516 24.5198 159.221 24.3947 157.886C24.2798 156.507 24.1649 155.127 24.0465 153.705C23.8562 151.503 23.8562 151.503 23.6621 149.256C20.9857 117.052 20.8666 84.9426 21.0619 52.6567C27.5122 51.2875 33.4158 50.9937 40.0285 51.0542C41.9606 51.0678 43.8927 51.0814 45.8833 51.0954C47.3508 51.1129 48.8182 51.1304 50.3301 51.1485C49.8218 50.1531 49.3134 49.1577 48.7897 48.1321C48.6438 45.842 48.5896 43.5455 48.5971 41.251C48.5912 39.4283 48.5912 39.4283 48.5851 37.5689C48.7897 34.5584 48.7897 34.5584 50.3301 33.0502C54.2523 32.7315 58.1397 32.5103 62.0699 32.3491C63.3307 32.2924 64.5914 32.2357 65.8904 32.1773C70.1705 31.9884 74.4511 31.8117 78.7319 31.6363C80.9514 31.5421 80.9514 31.5421 83.2158 31.446C112.222 30.2193 141.239 29.3035 170.259 28.4385C172.523 28.371 174.787 28.3033 177.052 28.2353C183.585 28.0393 190.119 27.8466 196.653 27.6593C199.6 27.5744 202.547 27.4874 205.494 27.4003C216.934 27.0799 228.359 26.9496 239.803 27.0175Z" fill="#494A4A"/>
<path d="M472.086 1.69193C480.195 5.25524 486.435 11.2192 492.846 17.1141C498.97 22.6456 504.08 26.7936 512.067 29.3479C519.7 32.1531 523.1 35.0164 527.574 41.629C532.688 56.5815 529.038 72.921 522.922 86.9744C522.154 88.4708 522.154 88.4708 521.371 89.9974C519.324 89.9974 517.277 89.9974 515.168 89.9974C514.71 95.1091 514.49 100.014 515.168 105.113C518.851 109.206 518.851 109.206 522.922 112.67C525.168 121.896 525.168 121.896 522.922 126.274C521.898 126.274 520.875 126.274 519.82 126.274C518.797 122.283 517.773 118.293 516.719 114.182C515.855 115.304 514.992 116.426 514.102 117.583C508.138 124.496 501.828 128.525 493.458 132.32C495.505 137.807 497.552 143.293 499.661 148.946C501.644 147.294 503.627 145.642 505.67 143.94C506.785 143.01 507.901 142.081 509.05 141.123C512.364 138.304 512.364 138.304 515.168 133.831C516.192 133.831 517.215 133.831 518.27 133.831C517.594 141.29 514.187 145.137 508.965 150.458C503.604 154.377 500.146 155.551 493.458 154.993C492.434 150.503 491.411 146.014 490.356 141.389C489.94 143.041 489.524 144.693 489.096 146.396C486.559 154.076 486.559 154.076 482.602 156.504C478.725 157.165 478.725 157.165 474.848 156.504C469.414 150.915 469.346 146.245 469.512 138.838C470.196 135.343 470.196 135.343 474.17 132.32C478.274 129.71 478.274 129.71 478.556 125.855C478.426 121.533 477.989 118.226 476.399 114.182C473.469 111.733 470.548 110.244 467.107 108.555C460.992 104.763 458.929 98.1668 456.888 91.6506C454.037 77.7341 457.155 64.1399 460.892 50.6981C459.037 49.9187 457.181 49.1393 455.27 48.3363C446.78 44.1988 441.803 38.2944 436.952 30.4816C435.338 23.1402 435.482 16.195 439.708 9.73366C448.513 -0.464379 458.737 -1.69838 472.086 1.69193ZM481.536 49.8478C476.181 51.1173 471.047 50.7875 465.544 50.6981C461.143 64.8697 456.884 81.126 463.412 95.2877C467.726 102.291 472.833 107.122 481.052 109.458C485.948 109.657 490.224 109.135 495.008 108.136C495.008 109.133 495.008 110.131 495.008 111.159C490.914 112.156 486.82 113.154 482.602 114.182C482.091 120.167 481.579 126.153 481.052 132.32C482.587 132.32 484.122 132.32 485.704 132.32C485.704 130.823 485.704 129.327 485.704 127.785C487.047 127.661 488.39 127.536 489.775 127.407C495.833 126.095 499.386 123.856 504.313 120.228C505.134 119.647 505.956 119.066 506.803 118.468C510.111 114.223 510.196 109.508 510.71 104.357C511.927 93.4287 511.927 93.4287 513.617 88.4859C512.594 87.4883 511.57 86.4907 510.516 85.4629C511.067 81.488 512.1 77.7921 513.23 73.9376C513.358 72.7529 513.486 71.5683 513.617 70.3477C512.082 68.8513 510.547 67.3549 508.965 65.8132C507.43 70.3024 505.895 74.7916 504.313 79.4168C503.289 79.4168 502.266 79.4168 501.211 79.4168C501.427 77.257 501.427 77.257 501.647 75.0535C502.78 64.4564 502.779 64.4564 498.613 55.2208C493.873 52.4001 487.122 48.4362 481.536 49.8478Z" fill="#494A4A"/>
<path d="M327.088 223.17C338.101 222.47 346.535 223.83 356.237 229.219C358.304 231.02 360.319 232.88 362.278 234.795C369.301 241.381 376.071 241.163 385.386 241.316C388.461 241.779 391.534 242.259 394.59 242.829C394.59 243.827 394.59 244.825 394.59 245.853C387.503 245.853 380.415 245.853 373.112 245.853C375.818 249.268 375.818 249.268 378.578 252.752C392.12 271.128 401.7 292.299 399.193 315.414C394.882 334.827 386.071 347.42 370.044 359.268C384.22 359.268 398.395 359.268 413 359.268C413 360.765 413 362.262 413 363.805C371.621 371.312 326.216 368.366 284.24 369.092C282.347 369.124 280.453 369.157 278.502 369.191C232.272 369.977 186.04 370.325 139.805 370.636C128.391 370.713 116.977 370.795 105.563 370.877C82.243 371.046 58.9227 371.208 35.6024 371.366C35.0961 376.855 34.5899 382.344 34.0683 388C33.0557 388 32.0432 388 31 388C31 380.515 31 373.029 31 365.317C59.8571 365.317 88.7142 365.317 118.446 365.317C117.686 360.077 117.686 360.077 116.912 354.732C122.481 354.232 128.049 353.733 133.787 353.219C133.398 351.81 133.008 350.401 132.607 348.949C131.206 343.854 129.834 338.753 128.478 333.647C127.713 330.771 126.939 327.898 126.164 325.025C121.818 307.986 121.818 307.986 124.582 300.292C129.727 294.66 134.76 291.433 142.417 290.652C150.054 290.748 155.774 293.799 161.402 298.78C166.374 305.024 166.673 310.676 166.483 318.344C166.464 320.022 166.464 320.022 166.444 321.734C166.213 332.378 164.823 342.737 162.936 353.219C166.986 353.219 171.036 353.219 175.209 353.219C176.811 357.958 176.642 359.253 175.209 363.805C208.485 364.02 241.673 363.486 274.928 362.293C274.928 361.294 274.928 360.296 274.928 359.268C276.021 359.412 277.115 359.557 278.242 359.705C287.313 360.74 293.963 360.881 302.542 357.756C303.048 357.756 303.555 357.756 304.076 357.756C303.57 352.267 303.064 346.777 302.542 341.122C304.136 340.681 305.73 340.241 307.372 339.787C326.461 334.332 342.617 328.586 352.785 310.689C354.335 307.176 355.506 304.038 356.237 300.292C357.756 300.292 359.275 300.292 360.839 300.292C358.698 314.095 355.324 324.044 343.94 333.035C333.422 340.076 319.947 344.935 307.145 344.146C307.651 345.737 308.157 347.327 308.679 348.966C309.984 353.871 310.352 357.325 310.213 362.293C344.278 362.019 344.278 362.019 373.112 345.658C373.947 344.918 374.782 344.177 375.641 343.414C385.763 333.183 390.349 319.065 391.043 305.018C390.123 282.361 375.88 256.6 359.305 241.316C350.66 234.176 342.605 229.634 331.589 227.11C330.121 226.657 330.121 226.657 328.622 226.194C328.116 225.196 327.61 224.198 327.088 223.17ZM129.185 300.292C127.296 307.343 127.96 312.778 129.514 319.845C129.935 321.794 130.355 323.743 130.788 325.752C131.244 327.788 131.7 329.824 132.157 331.859C132.609 333.931 133.06 336.002 133.508 338.074C134.609 343.125 135.73 348.173 136.855 353.219C143.943 353.219 151.031 353.219 158.333 353.219C160.494 344.699 160.87 336.26 161.402 327.512C161.558 325.767 161.714 324.023 161.875 322.225C162.569 312.821 162.569 312.821 159.112 304.321C153.941 299.138 150 295.935 142.513 295.378C136.456 295.782 133.72 296.348 129.185 300.292ZM123.048 357.756C122.542 359.253 122.036 360.75 121.514 362.293C122.02 363.291 122.527 364.289 123.048 365.317C138.742 365.317 154.437 365.317 170.606 365.317C170.606 362.822 170.606 360.327 170.606 357.756C154.912 357.756 139.218 357.756 123.048 357.756Z" fill="#494A4A"/>
<path d="M419.78 359C421.301 359.501 422.823 360.002 424.39 360.519C425.201 365.042 426 369.567 426.791 374.093C427.024 375.384 427.257 376.675 427.496 378.006C427.709 379.234 427.922 380.463 428.142 381.729C428.343 382.866 428.544 384.003 428.751 385.175C428.833 386.06 428.915 386.945 429 387.857C427.463 389.376 427.463 389.376 423.616 389.524C422.065 389.507 420.514 389.489 418.916 389.471C417.361 389.457 415.806 389.443 414.203 389.429C413.001 389.412 411.799 389.394 410.56 389.376C410.645 390.84 410.73 392.303 410.818 393.811C413.203 435.1 415.27 476.348 415.362 517.714C415.366 518.762 415.37 519.81 415.374 520.89C415.383 523.865 415.379 526.841 415.374 529.817C415.372 531.516 415.371 533.214 415.369 534.964C415.171 539.71 414.528 544.187 413.633 548.85C412.112 548.348 410.591 547.847 409.023 547.331C408.988 545.752 408.953 544.173 408.917 542.546C408.583 527.556 408.244 512.567 407.901 497.578C407.724 489.874 407.549 482.171 407.379 474.467C407.214 467.013 407.044 459.558 406.871 452.103C406.806 449.28 406.743 446.457 406.681 443.634C406.297 426.023 405.599 408.471 404.413 390.895C403.105 390.995 401.797 391.095 400.449 391.199C387.568 392.152 374.71 392.82 361.8 393.214C360.806 393.245 359.811 393.276 358.786 393.308C330.768 394.169 302.741 394.457 274.712 394.741C270.186 394.787 265.66 394.835 261.134 394.884C192.619 395.613 124.105 395.614 55.5869 395.451C55.68 397.39 55.7731 399.329 55.869 401.327C58.3804 454.599 59.0605 507.678 58.6602 561C57.1389 561 55.6176 561 54.0502 561C52.8131 545.691 52.058 530.407 51.6491 515.056C51.6166 513.885 51.584 512.714 51.5505 511.507C50.4973 472.329 50.8436 433.119 50.9768 393.932C44.3845 393.932 37.7921 393.932 31 393.932C31 392.93 31 391.928 31 390.895C37.9788 389.175 44.8572 389.125 52.0037 389.088C53.338 389.076 54.6724 389.063 56.0472 389.05C60.4898 389.009 64.9323 388.979 69.375 388.949C72.522 388.922 75.669 388.894 78.8161 388.866C85.5292 388.807 92.2423 388.752 98.9554 388.7C109.534 388.617 120.112 388.523 130.691 388.426C132.447 388.41 134.204 388.394 136.014 388.378C139.557 388.345 143.101 388.312 146.644 388.28C151.96 388.231 157.276 388.183 162.591 388.135C190.536 387.882 218.48 387.591 246.423 387.193C248.416 387.164 250.408 387.136 252.461 387.107C308.755 386.28 365.037 384.771 421.317 383.301C421.077 381.674 420.837 380.047 420.59 378.371C420.288 376.249 419.986 374.127 419.684 372.005C419.524 370.931 419.365 369.857 419.201 368.751C418.817 366.015 418.523 363.267 418.243 360.519C418.75 360.018 419.257 359.516 419.78 359Z" fill="#494A4A"/>
<path d="M419.78 359C421.301 359.501 422.823 360.002 424.39 360.519C425.201 365.042 426 369.567 426.791 374.093C427.024 375.384 427.257 376.675 427.496 378.006C427.709 379.234 427.922 380.463 428.142 381.729C428.343 382.866 428.544 384.003 428.751 385.175C428.833 386.06 428.915 386.945 429 387.857C427.463 389.376 427.463 389.376 423.616 389.524C422.065 389.507 420.514 389.489 418.916 389.471C417.361 389.457 415.806 389.443 414.203 389.429C413.001 389.412 411.799 389.394 410.56 389.376C410.645 390.84 410.73 392.303 410.818 393.811C413.203 435.1 415.27 476.348 415.362 517.714C415.366 518.762 415.37 519.81 415.374 520.89C415.383 523.865 415.379 526.841 415.374 529.817C415.372 531.516 415.371 533.214 415.369 534.964C415.171 539.71 414.528 544.187 413.633 548.85C412.112 548.348 410.591 547.847 409.023 547.331C408.988 545.752 408.953 544.173 408.917 542.546C408.583 527.556 408.244 512.567 407.901 497.578C407.724 489.874 407.549 482.171 407.379 474.467C407.214 467.013 407.044 459.558 406.871 452.103C406.806 449.28 406.743 446.457 406.681 443.634C406.297 426.023 405.599 408.471 404.413 390.895C403.105 390.995 401.797 391.095 400.449 391.199C387.568 392.152 374.71 392.82 361.8 393.214C360.806 393.245 359.811 393.276 358.786 393.308C330.768 394.169 302.741 394.457 274.712 394.741C270.186 394.787 265.66 394.835 261.134 394.884C192.619 395.613 124.105 395.614 55.5869 395.451C55.68 397.39 55.7731 399.329 55.869 401.327C58.3804 454.599 59.0605 507.678 58.6602 561C57.1389 561 55.6176 561 54.0502 561C52.8131 545.691 52.058 530.407 51.6491 515.056C51.6166 513.885 51.584 512.714 51.5505 511.507C50.4973 472.329 50.8436 433.119 50.9768 393.932C44.3845 393.932 37.7921 393.932 31 393.932C31 392.93 31 391.928 31 390.895C37.9788 389.175 44.8572 389.125 52.0037 389.088C53.338 389.076 54.6724 389.063 56.0472 389.05C60.4898 389.009 64.9323 388.979 69.375 388.949C72.522 388.922 75.669 388.894 78.8161 388.866C85.5292 388.807 92.2423 388.752 98.9554 388.7C109.534 388.617 120.112 388.523 130.691 388.426C132.447 388.41 134.204 388.394 136.014 388.378C139.557 388.345 143.101 388.312 146.644 388.28C151.96 388.231 157.276 388.183 162.591 388.135C190.536 387.882 218.48 387.591 246.423 387.193C248.416 387.164 250.408 387.136 252.461 387.107C308.755 386.28 365.037 384.771 421.317 383.301C421.077 381.674 420.837 380.047 420.59 378.371C420.288 376.249 419.986 374.127 419.684 372.005C419.524 370.931 419.365 369.857 419.201 368.751C418.817 366.015 418.523 363.267 418.243 360.519C418.75 360.018 419.257 359.516 419.78 359Z" fill="#494A4A"/>
<path d="M320.194 121.261C324.791 124.485 326.868 128.131 327.964 133.425C328.304 140.276 326.246 145.197 321.628 150.282C310.288 158.653 299.939 157.991 286.3 157.858C286.3 165.359 286.3 172.859 286.3 180.587C283.259 181.337 283.259 181.337 280.156 182.102C280.457 185.741 280.457 185.741 281.692 189.679C282.706 190.366 283.72 191.054 284.764 191.762C287.836 194.224 287.836 194.224 288.796 199.149C288.986 201.024 289.176 202.899 289.372 204.831C289.879 206.425 290.386 208.019 290.908 209.661C292.316 214.956 292.688 219.29 292.924 224.719C293.387 230.892 293.775 233.305 297.244 238.64C301.607 241.661 301.607 241.661 307.228 241.197C312.281 239.72 313.719 238.882 317.02 235.136C318.541 235.136 320.061 235.136 321.628 235.136C321.152 239.517 320.028 241.268 317.02 244.607C310.733 248.225 305.701 248.664 298.588 247.258C294.192 245.221 292.67 243.505 289.372 239.682C288.22 235.042 288.22 235.042 287.836 229.075C287.39 225.977 286.907 222.883 286.396 219.794C286.161 218.29 285.925 216.786 285.682 215.237C284.04 207.084 284.04 207.084 278.692 201.013C277.528 200.367 276.364 199.72 275.164 199.054C263.683 191.927 256.546 181.198 252.509 168.465C250.982 160.335 253.04 153.951 256.708 146.742C259.088 143.656 261.15 142.574 264.796 141.19C269.02 141.001 269.02 141.001 272.476 141.19C273.088 139.831 273.088 139.831 273.712 138.444C282.122 123.262 303.799 114.626 320.194 121.261Z" fill="#494A4A"/>
<path d="M530.345 131C544.966 134.942 553.992 150.693 561.028 162.853C573.12 188.452 575.527 214.927 566.701 241.864C562.389 253.529 555.756 263.747 547.97 273.396C543.264 280.027 539.958 287.501 536.482 294.815C535.469 294.314 534.457 293.813 533.413 293.298C533.92 290.295 534.426 287.291 534.948 284.197C533.814 284.801 532.681 285.405 531.514 286.028C509.575 297.355 484.778 302.869 460.253 295.952C458.031 295.11 455.824 294.226 453.637 293.298C452.415 292.893 451.193 292.488 449.934 292.071C441.598 289.051 437.687 285.482 433.352 277.833C432.159 275.096 432.159 275.096 432.159 272.063C429.993 272.142 429.993 272.142 427.784 272.223C425.874 272.264 423.963 272.305 421.995 272.347C419.165 272.426 419.165 272.426 416.278 272.507C410.182 272.023 406.626 270.715 401.476 267.512C398.283 262.777 397.987 261.547 398.024 256.136C398.012 254.376 398.012 254.376 398 252.581C398.408 249.311 398.408 249.311 401.476 244.76C401.95 243.227 402.425 241.694 402.914 240.115C404.544 235.659 404.544 235.659 409.147 232.626C414.037 232.436 414.037 232.436 418.352 232.626C418.858 233.627 419.364 234.628 419.886 235.659C413.81 237.161 413.81 237.161 407.612 238.693C407.612 242.197 407.612 245.701 407.612 249.311C406.6 249.311 405.587 249.311 404.544 249.311C404.829 250.437 405.114 251.563 405.407 252.723C406.076 256.882 405.698 259.007 404.544 262.962C414.67 265.772 422.966 266.654 433.501 265.142C435.875 264.814 435.875 264.814 438.296 264.479C439.055 265.229 439.055 265.229 439.83 265.995C442.58 261.264 443.424 257.385 443.857 251.965C443.972 250.612 444.086 249.259 444.205 247.865C444.28 246.84 444.355 245.816 444.432 244.76C453.637 247.794 453.637 247.794 456.676 249.008C468.948 253.672 481.419 254.375 493.909 249.974C509.142 242.999 516.496 232.669 522.674 217.458C523.984 213.393 524.926 209.521 525.743 205.323C526.755 205.323 527.768 205.323 528.811 205.323C529.956 218.909 526.058 231.31 517.688 242.295C505.444 253.851 492.116 259.766 475.115 260.592C466.314 260.354 458.589 257.238 450.569 253.861C450.308 254.776 450.047 255.691 449.778 256.634C447.6 263.736 445.917 268.806 439.83 273.579C442.72 281.485 449.195 283.347 456.478 286.733C474.743 294.35 494.893 293.764 513.469 287.231C535.958 277.547 550.498 261.328 559.836 239.06C568.026 215.704 564.138 190.92 554.041 168.683C548.186 157.294 541.288 147.263 532.317 138.063C530.345 135.55 530.345 135.55 530.345 131Z" fill="#494A4A"/>
<path d="M581 570.073C581 571.029 581 571.986 581 572.971C571.397 574.102 562.012 574.655 552.34 574.715C550.192 574.737 550.192 574.737 548.002 574.758C543.228 574.804 538.455 574.839 533.681 574.875C530.235 574.904 526.789 574.935 523.343 574.965C513.938 575.046 504.533 575.117 495.129 575.185C489.156 575.229 483.184 575.275 477.211 575.321C385.431 576.026 293.652 576.043 201.869 575.972C186.449 575.961 171.028 575.953 155.608 575.948C154.498 575.947 153.389 575.947 152.245 575.947C146.67 575.945 141.095 575.943 135.519 575.941C90.3462 575.926 45.1731 575.901 0 575.868C0 574.912 0 573.956 0 572.971C82.1316 571.83 164.268 571.208 246.406 570.707C248.354 570.695 248.354 570.695 250.342 570.683C360.562 570.011 470.778 569.899 581 570.073Z" fill="#494A4A"/>
<path d="M209.001 238.047C211.44 246.997 211.476 256.207 212.081 265.429C212.081 256.393 212.081 247.357 212.081 238.047C213.605 238.8 213.605 238.8 215.16 239.568C215.885 243.066 215.885 243.066 216.363 247.762C216.547 249.516 216.73 251.269 216.919 253.076C217.192 255.943 217.192 255.943 217.47 258.868C217.663 260.818 217.856 262.768 218.055 264.777C219.39 278.514 220.563 292.267 221.576 306.031C221.799 309.041 222.035 312.05 222.27 315.059C222.395 316.884 222.52 318.709 222.649 320.59C222.765 322.205 222.881 323.82 223 325.484C222.86 329.319 222.86 329.319 219.78 332.361C218.764 331.357 217.747 330.353 216.7 329.319C216.192 331.829 215.684 334.339 215.16 336.925C209.515 337.441 203.869 337.944 198.222 338.446C196.636 338.591 195.05 338.736 193.416 338.886C184.71 339.653 176.164 340.133 167.424 339.967C166.916 338.461 166.408 336.955 165.884 335.404C170.439 334.886 174.994 334.381 179.551 333.882C180.817 333.737 182.084 333.592 183.388 333.443C192.474 332.461 201.405 332.188 210.541 332.361C210.425 331.121 210.425 331.121 210.307 329.855C207.638 300.809 205.962 271.73 204.381 242.611C203.454 242.656 202.526 242.702 201.57 242.749C174.487 244.041 147.473 244.319 120.362 244.227C116.383 244.219 112.404 244.212 108.425 244.206C98.8338 244.19 89.2427 244.164 79.6515 244.132C80.0185 245.476 80.0185 245.476 80.3929 246.847C81.5562 251.756 81.7368 256.703 82.0155 261.721C82.115 263.41 82.115 263.41 82.2165 265.133C82.4277 268.781 82.6285 272.429 82.8275 276.077C82.8966 277.309 82.9657 278.542 83.0368 279.811C84.0693 298.372 84.5747 316.81 84.2712 335.404C95.9588 335.404 107.646 335.404 119.688 335.404C119.688 336.408 119.688 337.412 119.688 338.446C113.304 338.49 106.92 338.517 100.536 338.541C97.8013 338.56 97.8013 338.56 95.0112 338.58C93.2793 338.585 91.5474 338.59 89.763 338.595C87.3559 338.607 87.3559 338.607 84.9001 338.619C81.1914 338.446 81.1914 338.446 79.6515 336.925C79.3724 334.606 79.1921 332.275 79.0527 329.944C78.9603 328.455 78.8679 326.966 78.7728 325.431C78.6797 323.804 78.5865 322.177 78.4906 320.501C78.3903 318.828 78.2899 317.155 78.1865 315.431C77.9747 311.871 77.7666 308.311 77.5617 304.75C77.2505 299.361 76.9256 293.973 76.5989 288.585C76.3945 285.121 76.191 281.657 75.9883 278.192C75.8921 276.602 75.7959 275.012 75.6968 273.374C75.0587 262.096 74.9283 250.862 75.0319 239.568C119.698 238.361 164.319 237.831 209.001 238.047ZM213.621 291.289C213.621 298.819 213.621 306.349 213.621 314.107C214.129 314.107 214.637 314.107 215.16 314.107C215.16 306.577 215.16 299.047 215.16 291.289C214.652 291.289 214.144 291.289 213.621 291.289Z" fill="#494A4A"/>
<path d="M198.603 112.282C205.312 116.076 209.315 120.577 211.78 127.813C212.61 137.402 211.206 143.902 205.624 151.911C199.63 157.778 193.6 160.877 185.012 161C174.406 160.362 168.461 157.244 160.517 150.31C155.514 144.688 155.952 138.669 156.057 131.578C156.708 124.025 159.949 119.396 165.615 114.541C175.102 107.77 187.98 107.435 198.603 112.282ZM191.005 125.389C190.244 126.313 189.482 127.238 188.697 128.19C187.9 129.147 187.102 130.104 186.281 131.09C183.964 133.984 181.659 136.878 179.464 139.862C178.258 139.085 177.052 138.309 175.809 137.509C174.476 136.794 173.143 136.08 171.77 135.344C170.246 136.089 170.246 136.089 168.692 136.85C172.755 140.826 176.817 144.802 181.003 148.898C185.064 144.924 187.464 141.718 190.332 136.944C191.112 135.657 191.891 134.369 192.695 133.043C194.553 129.836 196.287 126.612 197.93 123.295C193.353 122.783 193.353 122.783 191.005 125.389Z" fill="#494A4A"/>
<path d="M470.544 158C475.225 158.747 475.225 158.747 480 159.508C479.791 160.331 479.582 161.153 479.366 162.001C478.948 163.707 478.948 163.707 478.522 165.448C478.248 166.55 477.974 167.653 477.691 168.789C475.584 179.522 475.003 190.286 474.773 201.184C474.741 202.504 474.708 203.824 474.674 205.184C474.572 209.348 474.479 213.513 474.385 217.677C474.317 220.522 474.248 223.367 474.179 226.212C474.012 233.14 473.852 240.068 473.696 246.997C467.816 248.272 464.624 248.61 459.019 246.337C457.371 245.686 457.371 245.686 455.689 245.023C454.87 244.678 454.051 244.334 453.208 243.98C451.902 215.608 456.645 183.426 470.544 158Z" fill="#494A4A"/>
<path d="M283 232C283 232.998 283 233.996 283 235.024C280.515 236.707 280.515 236.707 277.21 238.52C266.32 245.015 261.91 253.533 258.294 265.262C256.715 274.519 255.867 283.843 255 293.186C253.101 313.087 249.536 330.613 235.229 345.836C231.755 348.651 228.574 350.032 224.324 351.44C228.91 352.438 233.496 353.436 238.221 354.464C238.221 355.961 238.221 357.458 238.221 359C218.348 359 198.475 359 178 359C178 358.002 178 357.004 178 355.976C194.051 354.479 194.051 354.479 210.426 352.952C206.148 351.556 203.375 351.194 198.942 351.157C197.766 351.136 196.589 351.114 195.377 351.092C191.517 351.479 189.134 352.728 185.721 354.464C184.192 354.464 182.663 354.464 181.088 354.464C182.557 350.868 183.524 348.82 186.915 346.722C190.828 345.209 193.686 345.039 197.881 345.109C199.246 345.127 200.611 345.144 202.018 345.163C205.794 345.393 205.794 345.393 210.426 346.527C217.999 347.145 224.036 344.614 230.5 340.857C244.377 328.007 246.522 309.312 248.143 291.608C250.004 271.378 252.043 251.774 268.524 237.575C273.781 233.293 275.832 232 283 232Z" fill="#494A4A"/>
<path d="M464.24 51C465.778 55.5492 465.778 55.5492 464.336 61.4252C461.367 73.7987 460.147 87.3829 467.009 98.6358C471.036 103.886 474.63 106.584 481.062 108.338C485.988 108.636 490.185 108.123 495 107.106C495 109.108 495 111.11 495 113.172C490.834 115.226 487.296 114.787 482.696 114.688C482.53 117.371 482.41 120.058 482.311 122.744C482.204 124.987 482.204 124.987 482.095 127.275C482.242 131.574 482.242 131.574 485.748 133.767C486.771 134.477 487.794 135.187 488.848 135.918C490.573 142.594 489.582 148.252 486.253 154.209C482.696 157.147 482.696 157.147 478.755 158C475.006 157.147 475.006 157.147 472.513 154.535C468.913 148.674 469.109 142.544 470.392 135.918C471.692 134.917 472.993 133.916 474.333 132.885C478.403 130.267 478.403 130.267 478.683 126.399C478.553 122.063 478.12 118.746 476.544 114.688C473.638 112.232 470.74 110.738 467.328 109.043C461.264 105.24 459.22 98.6254 457.193 92.0905C454.545 78.9913 456.496 64.9504 461.164 52.5164C462.179 52.016 463.194 51.5156 464.24 51Z" fill="#494A4A"/>
<path d="M474.466 119C475.225 121.249 475.225 121.249 476 123.543C474.671 125.042 474.671 125.042 473.315 126.571C468.408 133.029 467.082 139.994 465.26 147.771C466.273 147.771 467.285 147.771 468.329 147.771C468.329 148.771 468.329 149.77 468.329 150.8C465.848 152.498 465.848 152.498 462.384 154.491C449.236 162.918 440.087 175.008 431.219 187.521C417.502 206.725 401.227 217.837 377.808 223.486C375.293 223.873 372.767 224.201 370.233 224.432C368.456 224.602 368.456 224.602 366.643 224.775C365.335 224.886 365.335 224.886 364 225C364 223.501 364 222.002 364 220.457C365.43 220.143 366.86 219.829 368.333 219.505C395.864 212.938 416.165 200.562 431.501 176.649C444.484 157.015 444.484 157.015 453.658 152.125C458.903 148.337 458.802 145.373 459.812 139.265C461.578 131.725 466.006 125.526 471.877 120.514C472.731 120.015 473.585 119.515 474.466 119Z" fill="#494A4A"/>
<path d="M318.192 158.297C328.01 157.742 328.01 157.742 331.647 160.286C335.45 165.988 335.105 171.36 334.868 177.996C334.368 179.496 333.867 180.996 333.352 182.542C333.399 185.416 333.5 188.289 333.636 191.16C333.709 199.777 332.432 205.87 327.288 212.847C322.456 217.393 322.456 217.393 318.192 217.393C318.692 220.893 319.193 224.394 319.708 228C318.207 228 316.706 228 315.16 228C315.053 227.055 314.945 226.109 314.834 225.135C313.947 221.648 313.947 221.648 310.511 220.353C309.263 220.001 308.014 219.649 306.727 219.287C305.475 218.92 304.222 218.553 302.931 218.174C301.964 217.917 300.997 217.659 300 217.393C300 216.393 300 215.393 300 214.363C300.879 214.433 301.759 214.503 302.665 214.576C308.966 214.867 312.942 214.688 318.76 211.995C324.709 206.474 327.033 201.581 327.555 193.64C327.57 189.927 327.489 186.248 327.288 182.542C326.287 182.542 325.287 182.542 324.256 182.542C323.756 185.542 323.255 188.542 322.74 191.633C319.738 191.633 316.737 191.633 313.644 191.633C313.644 190.633 313.644 189.633 313.644 188.603C315.645 188.103 317.646 187.603 319.708 187.088C319.208 185.931 318.707 184.775 318.192 183.584C316.123 175.957 314.529 165.621 318.192 158.297ZM319.708 162.843C321.224 165.874 321.224 165.874 321.224 165.874L319.708 162.843ZM327.288 164.359C325.705 169.107 325.872 170.404 327.288 174.965C325.787 175.716 325.787 175.716 324.256 176.481C326.257 176.481 328.258 176.481 330.32 176.481C329.82 172.48 329.319 168.48 328.804 164.359C328.304 164.359 327.803 164.359 327.288 164.359ZM321.224 165.874C321.224 168.374 321.224 170.874 321.224 173.45C322.225 171.45 323.225 169.45 324.256 167.389C323.255 166.889 322.255 166.389 321.224 165.874Z" fill="#494A4A"/>
<path d="M172 87.0133C172 89.0425 172 91.0717 172 93.1624C79.7662 98.3033 79.7662 98.3033 43 97.7742C43 96.7596 43 95.745 43 94.6996C47.5369 93.4268 51.7937 92.861 56.4937 92.5889C57.9523 92.5016 59.4108 92.4144 60.9136 92.3245C62.4891 92.2363 64.0645 92.1482 65.6878 92.0574C68.1622 91.9126 68.1622 91.9126 70.6866 91.7649C74.1952 91.5607 77.704 91.3592 81.2129 91.1604C86.4603 90.863 91.7071 90.5573 96.954 90.2499C113.379 89.296 129.806 88.4024 146.241 87.6378C147.604 87.5733 148.968 87.5088 150.373 87.4424C157.591 87.1183 164.775 86.9497 172 87.0133Z" fill="#494A4A"/>
<path d="M174 69.0209C173.49 70.5561 172.979 72.0913 172.453 73.673C142.953 76.5113 113.73 77.1626 84.109 76.9683C79.8964 76.9509 75.6838 76.9383 71.4711 76.9259C61.3139 76.8923 51.157 76.8409 41 76.7745C41 75.751 41 74.7275 41 73.673C53.7123 72.3495 66.384 71.7013 79.1553 71.2925C81.1358 71.2258 83.1163 71.1592 85.1569 71.0905C89.3262 70.9506 93.4956 70.8142 97.6652 70.6803C102.938 70.5108 108.211 70.3335 113.483 70.1537C118.601 69.9801 123.719 69.8127 128.837 69.6448C131.622 69.5504 131.622 69.5504 134.463 69.454C147.649 69.0361 160.809 68.9537 174 69.0209Z" fill="#494A4A"/>
<path d="M141 111.139C140.495 112.623 139.989 114.107 139.469 115.637C130.23 117.136 121.067 117.629 111.715 117.98C109.259 118.072 109.259 118.072 106.753 118.166C93.1911 118.627 79.6335 118.843 66.0645 118.917C64.1229 118.936 62.1813 118.956 60.181 118.976C58.382 118.978 56.5831 118.979 54.7296 118.981C53.1289 118.987 51.5282 118.994 49.879 119C46.0625 118.636 46.0625 118.636 43 115.637C45.9352 112.763 51.2716 113.553 55.2859 113.335C56.3967 113.27 57.5076 113.206 58.6521 113.139C62.3027 112.932 65.954 112.737 69.6055 112.544C71.4576 112.443 71.4575 112.443 73.347 112.34C95.9184 111.125 118.394 110.77 141 111.139Z" fill="#494A4A"/>
<path d="M143 132.013C143 133.652 143 135.292 143 136.981C139.678 140.556 132.204 139.309 127.585 139.523C126.158 139.595 124.731 139.666 123.26 139.739C120.212 139.889 117.163 140.035 114.114 140.177C109.563 140.391 105.012 140.621 100.461 140.853C81.2944 141.794 62.1852 142.141 43 141.949C43 140.856 43 139.763 43 138.637C61.4783 136.171 79.8826 134.572 98.4819 133.66C102.576 133.459 106.668 133.245 110.761 133.028C113.405 132.892 116.048 132.756 118.691 132.621C119.895 132.559 121.098 132.497 122.338 132.433C129.234 132.097 136.097 131.955 143 132.013Z" fill="#494A4A"/>
<path d="M485.494 132.371C489.011 136.057 488.919 137.091 489 142.139C488.879 147.372 488.444 149.397 485.955 154.131C482.542 157.13 482.542 157.13 478.759 158C475.161 157.13 475.161 157.13 472.762 154.47C470.395 150.354 470.093 147.881 470.086 143.106C470.058 141.78 470.029 140.453 470 139.087C470.732 135.466 470.732 135.466 473.437 132.649C477.947 130.077 480.654 130.937 485.494 132.371Z" fill="#494A4A"/>
<path d="M266.333 267C267.345 267.499 268.357 267.997 269.4 268.511C269.376 269.613 269.352 270.714 269.327 271.849C268.919 293.398 268.941 313.958 274 335C272.482 335 270.964 335 269.4 335C262.035 314.137 254.955 290.886 264.914 269.509C265.616 268.267 265.616 268.267 266.333 267Z" fill="#494A4A"/>
<path d="M440.924 209.856C442.565 218.371 442.533 226.604 442.366 235.255C442.245 239.65 442.245 239.65 444 244C441.116 243.814 441.116 243.814 437.848 242.515C433.281 234.362 434.5 224.794 434.771 215.794C431.403 220.671 431.153 222.966 430.734 228.691C430.619 230.166 430.504 231.642 430.386 233.162C430.31 234.289 430.235 235.416 430.157 236.577C428.635 236.087 427.112 235.598 425.543 235.093C422.705 229.614 424.443 223.149 425.543 217.279C429.513 209.115 431.969 207.809 440.924 209.856Z" fill="#494A4A"/>
<path d="M303.029 161C307.683 161.476 307.683 161.476 310.438 163.474C314.398 169.112 314.229 174.603 313.762 181.268C311.957 184.979 311.957 184.979 309.203 187.358C305.499 188.214 305.499 188.214 301.604 187.358C297.408 183.949 295.73 181.357 295.045 175.957C294.96 172.046 294.938 168.39 295.525 164.521C298.565 161.476 298.565 161.476 303.029 161ZM304.644 166.043C304.957 167.99 305.271 169.937 305.594 171.943C306.128 175.261 306.128 175.261 306.163 178.223C305.16 179.228 304.157 180.233 303.124 181.268C304.629 181.77 306.133 182.273 307.683 182.79C309.81 178.529 309.587 175.323 309.203 170.611C307.113 167.75 307.113 167.75 304.644 166.043ZM300.085 175.178C300.586 176.685 301.088 178.192 301.604 179.745C302.106 178.238 302.607 176.731 303.124 175.178C302.121 175.178 301.118 175.178 300.085 175.178Z" fill="#494A4A"/>
<path d="M296.077 342.856C299.472 344.554 299.472 344.554 301 348.915C299.708 348.584 298.416 348.252 297.085 347.91C280.349 343.781 280.349 343.781 264.238 348.37C259.566 351.964 255.464 355.803 251.371 359.978C249.056 362 249.056 362 246 362C246.179 356.38 248.281 353.49 252.207 349.551C266.313 337.004 278.47 336.841 296.077 342.856Z" fill="#494A4A"/>
<path d="M469.06 61C469.55 61 470.04 61 470.545 61C470.055 69.184 469.565 77.368 469.06 85.8C471.02 86.3115 472.98 86.823 475 87.35C475 88.373 475 89.396 475 90.45C471.566 91.5156 471.566 91.5156 467.575 92C465.086 90.1654 465.086 90.1654 463.12 87.35C462.391 77.9006 465.066 69.3361 469.06 61Z" fill="#494A4A"/>
<path d="M266.083 350C266.083 351.07 266.083 352.14 266.083 353.242C268.696 353.777 271.308 354.312 274 354.864C273.478 357.004 272.955 359.144 272.417 361.348C266.504 362.773 261.068 363.114 255 362.97C255 358.106 255 358.106 258.76 353.749C262.917 350 262.917 350 266.083 350Z" fill="#494A4A"/>
<path d="M448.857 172C449.894 172 450.931 172 452 172C451.143 182.631 447.9 191.992 444.143 202C443.106 202 442.069 202 441 202C442.727 191.625 445.032 181.859 448.857 172Z" fill="#494A4A"/>
<path d="M490.53 89C491.555 89 492.58 89 493.636 89C494.121 92.25 494.121 92.25 493.636 96.2222C490.433 99.6528 490.433 99.6528 485.871 102C479.95 101.639 479.95 101.639 475 100.556C475 99.6022 475 98.6489 475 97.6667C476.291 97.2729 476.291 97.2729 477.609 96.8711C478.734 96.508 479.859 96.1449 481.018 95.7708C482.135 95.4189 483.252 95.067 484.403 94.7044C487.952 93.3863 487.952 93.3863 490.53 89Z" fill="#494A4A"/>
<path d="M301 198C302.665 198.472 304.331 198.945 306.047 199.432C311.759 200.627 314.5 200.766 320 199.348C318.955 201.126 317.91 202.905 316.833 204.738C306.569 205.232 306.569 205.232 302.682 202.885C301 200.695 301 200.695 301 198Z" fill="#494A4A"/>
<path d="M477.556 55C481.149 55.495 484.742 55.99 488.444 56.5C488.958 58.975 489.471 61.45 490 64C488.701 63.3503 488.701 63.3503 487.375 62.6875C483.646 60.938 479.864 59.449 476 58C476.513 57.01 477.027 56.02 477.556 55Z" fill="#494A4A"/>
<path d="M480 64C481.485 64 482.97 64 484.5 64C484.995 66.64 485.49 69.28 486 72C484.02 72 482.04 72 480 72C480 69.36 480 66.72 480 64Z" fill="#494A4A"/>
</svg>
