<svg xmlns="http://www.w3.org/2000/svg" width="42" height="42" fill="none" viewBox="0 0 42 42">
  <path fill="#1D1B20" d="M21 38.5c-.408 0-.758-.117-1.05-.35a2.125 2.125 0 0 1-.656-.919 24.355 24.355 0 0 0-2.1-4.593c-.817-1.43-1.969-3.107-3.456-5.032-1.488-1.925-2.698-3.762-3.632-5.512-.904-1.75-1.356-3.865-1.356-6.344 0-3.412 1.181-6.3 3.544-8.662C14.685 4.696 17.587 3.5 21 3.5c3.413 0 6.3 1.196 8.663 3.588 2.391 2.362 3.587 5.25 3.587 8.662 0 2.654-.51 4.87-1.531 6.65a45.966 45.966 0 0 1-3.457 5.206c-1.575 2.1-2.77 3.85-3.587 5.25a24.712 24.712 0 0 0-1.969 4.375c-.146.409-.379.73-.7.963A1.712 1.712 0 0 1 21 38.5Zm0-6.256a32.69 32.69 0 0 1 1.663-2.931c.641-.963 1.575-2.246 2.8-3.85 1.254-1.634 2.274-3.136 3.062-4.507.817-1.4 1.225-3.135 1.225-5.206 0-2.42-.86-4.477-2.581-6.169C25.477 7.861 23.42 7 21 7c-2.42 0-4.492.86-6.213 2.581-1.691 1.692-2.537 3.748-2.537 6.169 0 2.07.394 3.806 1.181 5.206.817 1.371 1.852 2.873 3.107 4.506 1.224 1.605 2.143 2.888 2.756 3.85.641.963 1.21 1.94 1.706 2.932Zm0-12.119c1.225 0 2.26-.423 3.106-1.269.846-.846 1.269-1.881 1.269-3.106 0-1.225-.423-2.26-1.269-3.106-.846-.846-1.881-1.269-3.106-1.269-1.225 0-2.26.423-3.106 1.269-.846.846-1.269 1.881-1.269 3.106 0 1.225.423 2.26 1.269 3.106.846.846 1.881 1.269 3.106 1.269Z"/>
</svg>
