<svg xmlns="http://www.w3.org/2000/svg" width="47" height="47" fill="none" viewBox="0 0 47 47">
  <path fill="#1D1B20" d="M7.833 39.167c-1.077 0-1.999-.384-2.766-1.15-.767-.768-1.15-1.69-1.15-2.767v-23.5c0-1.077.383-2 1.15-2.766.767-.767 1.69-1.15 2.766-1.15h31.334c1.077 0 1.999.383 2.766 1.15.767.767 1.15 1.689 1.15 2.766v23.5c0 1.077-.383 2-1.15 2.766-.767.767-1.69 1.15-2.766 1.15H7.833ZM23.5 25.458 7.833 15.667V35.25h31.334V15.667L23.5 25.458Zm0-3.916 15.667-9.792H7.833L23.5 21.542ZM7.833 15.667V11.75v23.5-19.583Z"/>
</svg>
