<svg xmlns="http://www.w3.org/2000/svg" width="40" height="40" fill="none" viewBox="0 0 40 40">
  <path stroke="#1E1E1E" stroke-linecap="round" stroke-linejoin="round" stroke-width="4" d="M36.667 28.2v5a3.334 3.334 0 0 1-3.634 3.333 32.982 32.982 0 0 1-14.383-5.116 32.5 32.5 0 0 1-10-10 32.984 32.984 0 0 1-5.117-14.45A3.333 3.333 0 0 1 6.85 3.333h5A3.333 3.333 0 0 1 15.183 6.2a21.41 21.41 0 0 0 1.167 4.683 3.334 3.334 0 0 1-.75 3.517l-2.117 2.117a26.667 26.667 0 0 0 10 10L25.6 24.4a3.333 3.333 0 0 1 3.517-.75 21.41 21.41 0 0 0 4.683 1.167 3.333 3.333 0 0 1 2.867 3.383Z"/>
</svg>
