<svg xmlns="http://www.w3.org/2000/svg" width="804" height="796" fill="none" viewBox="0 0 804 796">
  <path fill="#494A4A" d="M525.241 206.273c15.023 9.727 29.612 22.066 40.43 36.61.507.65 1.015 1.299 1.524 1.948 8.134 10.439 14.9 21.929 20.526 33.982.446.95.902 1.895 1.359 2.839 7.182 15.009 12.119 31.402 15.356 47.765l.326 1.641c2.647 13.488 4.089 26.948 4.071 40.703l-.001 1.203c-.054 27.403-.054 27.403-6.58 35.089-3.98 2.93-9.419 2.657-14.08 2.544a303.523 303.523 0 0 0-5.227-.065l-1.027-.006c-5.026-.012-10.005.403-14.811 1.982l-.478.492c0 3.2.918 5.944 2.123 8.85 3.588 8.756 3.542 17.472.03 26.366-.762 1.79-1.646 3.432-2.632 5.101 1.79.678 3.581 1.354 5.372 2.03l2.909 1.102a431.394 431.394 0 0 0 9.996 3.661l1.859.658c1.178.415 2.359.824 3.542 1.227l1.606.569 1.417.489c1.056.589 1.056.589 1.45 1.639l.085.916-.715.57a2258.44 2258.44 0 0 0-5.682 4.541c-1.224.98-2.45 1.953-3.687 2.915-9.208 7.255-16.665 19.538-18.511 31.392-.381 4.424.042 9.011 2.842 12.545 5.546 4.686 12.309 7.342 19.554 6.961 6.091-.92 10.124-4.448 14.334-8.774l1.047-1.075c5.769-6.309 10.14-14.2 12.58-22.45l.311-1.05a240.621 240.621 0 0 0 1.49-5.284c1.039-3.746 2.124-6.909 5.151-9.474 3.803-2.038 8.433-.865 12.413.061l1.461.337c9.636 2.289 21.943 5.905 29.347 12.946 1.146 1.996 1.175 3.568.808 5.831-.526 1.607-1.251 3.058-2.034 4.548l-.645 1.271a268.427 268.427 0 0 1-2.107 4.014l-.729 1.365c-5.06 9.403-10.656 18.581-17.825 26.461-.884.979-1.734 1.974-2.582 2.986-5.46 6.428-11.437 12.299-18.107 17.372-.761.631-1.518 1.266-2.273 1.905-5.574 4.589-11.488 8.739-17.457 12.763-1.364.922-2.721 1.854-4.079 2.786a2328.79 2328.79 0 0 1-6.988 4.774c-8.187 5.579-16.328 11.163-23.992 17.49a304.87 304.87 0 0 1-1.985 1.62c-3.315 2.694-6.543 5.489-9.747 8.32l-1.158 1.018c-5.553 5.008-11.018 10.392-15.568 16.382a88.574 88.574 0 0 1-2.832 3.48c-4.324 5.12-8.036 10.704-11.824 16.244-4.538 6.632-9.083 13.072-14.561 18.926l-.855.972c-4.919 5.439-11.768 9.403-19.025 9.979-12.634.467-24.258-6.007-35.156-11.934l-1.583-.857c-7.915-4.463-15.414-9.924-22.346-15.86l-.852-.724a169.77 169.77 0 0 1-10.454-9.755l-.961-.961c-2.978-3.063-5.432-6.227-5.679-10.685.047-2.852.692-5.108 1.673-7.734l.452-1.231c1.683-4.516 3.606-8.917 5.562-13.314l1.145-2.593a1726.184 1726.184 0 0 1 10.072-22.328l.468-1.021.979-2.134 2.501-5.449.491-1.07c2.044-4.456 4.073-8.919 6.059-13.404l.59-1.331c.673-1.526 1.317-3.008 1.833-4.599l-.815.215c-10.353 2.349-19.94.549-28.856-5.132-1.526-1.058-2.921-2.199-4.308-3.442l-1.295-1.117c-4.275-3.809-7.276-7.973-9.861-13.11l-.473-.923c-2.476-5.149-2.96-10.333-2.907-16.009l-.017-1.805c.026-8.401 1.891-15.825 7.665-21.983 6.303-6.064 14.863-9.321 23.459-9.615a44.46 44.46 0 0 1 2.094.154l1.462.121c12.919 1.46 23.64 9.189 32.038 19.054 1.273 1.71 2.325 3.533 3.35 5.408 1.962-4.211 3.594-8.526 5.203-12.887 12.406-33.596 12.406-33.596 18.366-46.051l.443-.932c.428-.869.89-1.721 1.352-2.571l.493-.982c.765-1.341 1.326-2.282 2.816-2.744 3.161-.164 6.03 1.086 8.924 2.251l1.463.568c1.18.46 2.357.926 3.533 1.398l.284-1.563c.768-3.154 2.335-5.953 3.783-8.823.565-1.127 1.129-2.255 1.69-3.384l.757-1.5c1.167-2.541 2.06-4.582 1.143-7.346-4.886-2.568-12.109-1.56-17.474-1.588-1.478-.009-2.957-.02-4.436-.032-4.201-.035-8.401-.064-12.602-.09-2.583-.016-5.166-.036-7.748-.059-.972-.008-1.944-.014-2.917-.018-4.965-.022-9.888-.153-14.834-.628l-1.227-.117c-6.503-.686-12.867-2.288-17.485-7.319-9.614-12.903-3.553-45.197-2.495-60.548.418-6.225.363-12.432.293-18.669-.17-16.303-.17-16.303 3.843-20.576 1.894-1.768 3.197-2.804 5.804-3.132 3.446.337 6.171 2.337 9.104 4.123 7.488 4.517 14.396 5.5 22.901 4.327l1.252-.168c4.542-.715 9.25-2.514 12.122-6.352 4.106-6.328 5.164-13.078 4.142-20.573-1.081-4.946-3.194-9.36-6.479-13.131v-.984l-.847-.416c-1-.531-1.899-1.121-2.832-1.765-5.548-3.565-11.599-3.724-17.857-2.244-7.181 2.041-13.376 5.934-19.246 10.55-2.676 2.103-4.718 2.636-8.032 2.234-2.581-.905-3.91-2.548-5.265-4.917-5.759-16.716-4.479-36.749-4.458-54.229.003-2.519-.005-5.037-.016-7.555-.007-1.966-.008-3.932-.006-5.897 0-.93-.003-1.859-.008-2.789-.006-1.291-.002-2.583.003-3.874l-.011-1.133c.037-3.885 1.013-7.479 3.647-10.356 14.821-12.212 76.449 14.376 91.069 23.656Zm-27.048 231.802-.324.917a3273.128 3273.128 0 0 1-9.31 25.916c-.43 1.185-.859 2.371-1.287 3.558-2.282 6.318-4.631 12.597-7.183 18.806l-.638 1.554c-5.647 13.577-5.647 13.577-9.972 16.607-1.496.584-1.496.584-2.872.492-1.836-1.681-3.317-3.608-4.786-5.623-5.869-8-13.101-13.057-22.492-16.01l-1.489-.479c-7.047-1.975-15.266-1.885-21.842 1.585-4.667 2.931-7.807 6.572-9.28 12.09-1.66 7.355-.125 14.982 3.571 21.424 4.59 7.259 11.115 12.378 19.399 14.301 3.869.632 7.467.368 11.263-.511 3.139-.57 6.285-.794 9.205.603 1.998 1.998 2.753 3.575 2.821 6.482l-.009 1.108-.01 1.176c-.517 17.715-12.006 36.258-19.432 51.817a708.378 708.378 0 0 0-7.37 15.883c-2.511 5.148-2.511 5.148-2.62 10.712 1.702 2.886 4.006 5.251 6.522 7.393a92.374 92.374 0 0 1 2.614 2.316c3.909 3.564 7.975 6.615 12.399 9.466l.987.643c9.971 6.478 20.418 12.497 31.467 16.812l.927.362c6.246 2.343 13.67 2.161 19.741-.608 1.854-1.025 3.565-2.168 5.264-3.442l.886-.636c6.849-5.418 11.861-14.812 16.821-21.981 7.904-11.404 16.4-21.858 26.039-31.759.795-.818 1.586-1.639 2.377-2.461 3.135-3.238 6.364-6.229 9.87-9.046l.938-.769c.781-.639 1.565-1.273 2.352-1.905l.853-.685 1.73-1.385c.774-.622 1.546-1.249 2.317-1.877 2.878-2.317 5.816-4.5 8.839-6.612l1.191-.835c5.118-3.582 10.257-7.132 15.394-10.684 11.816-8.047 11.816-8.047 23.276-16.61l1.269-1.001a196.313 196.313 0 0 0 9.798-8.279l1.428-1.285c3.83-3.504 7.077-7.311 10.177-11.498l.811-1.092c2.452-3.332 4.761-6.754 7.035-10.216.891-1.35 1.793-2.692 2.695-4.034a724.02 724.02 0 0 0 1.975-2.958 249.463 249.463 0 0 1 2.442-3.595l1.075-1.582.949-1.376c.672-1.133.672-1.133.655-2.241-.829-1.465-2.137-1.987-3.578-2.683l-.998-.496c-5.397-2.624-10.975-4.851-16.53-7.094l-1.198-.488c-3.856-1.676-3.856-1.676-7.895-1.479l-.335 1.214c-4.472 16.094-11.389 36.426-26.465 45.495-7.68 4.192-16.275 4.656-24.574 2.091-6.747-2.38-12.11-6.429-15.626-12.908-3.593-8.216-4.034-16.597-.957-25.075 3.135-7.735 7.771-14.154 13.4-20.158l.843-.961c2.665-2.952 5.996-5.124 9.207-7.398-1.161-.795-1.959-1.23-3.238-1.689l-1.084-.393-1.165-.412-1.203-.43c-.839-.298-1.679-.595-2.519-.891a609.44 609.44 0 0 1-3.85-1.379l-2.448-.865-1.162-.422-1.089-.378-.953-.339c-1.095-.213-1.779-.063-2.825.315-.763.68-.763.68-1.466 1.536-4.77 5.1-11.374 8.102-18.155 8.789l-1.174.125c-6.974.368-14.161-2.857-19.318-7.505-1.181-1.112-2.31-2.267-3.437-3.437l-1.002-.996c-3.73-3.975-5.874-9.647-6.436-15.083l-.126-1.201-.093-.911c-1.385-.484-2.771-.965-4.158-1.445l-1.184-.413-1.154-.399a840.66 840.66 0 0 1-1.056-.367c-1.142-.351-2.283-.595-3.455-.818Z"/>
  <path fill="#494A4A" d="m355.399 197.527 1.239-.014c2.462.014 4.378.207 6.448 1.704 2.237 3.173 1.732 7.484 1.738 11.193a1524.476 1524.476 0 0 1 .041 7.745c.008 1.989.02 3.978.033 5.966.022 3.779.04 7.557.055 11.335.019 4.248.042 8.495.067 12.743.077 13.797.146 27.595.13 41.393 2.695-2.228 5.31-4.453 7.807-6.914 6.342-5.952 14.644-9.495 23.284-9.362 9.636.499 17.881 4.987 24.418 12.125 7.574 8.661 10.174 20.089 9.67 31.451-.585 7.615-3.8 14.245-8.708 19.9l-.91 1.058c-5.212 5.705-12.501 9.272-20.083 9.866-11.012.353-21.616-6.709-30.692-12.399l-.479-.492c-.098 30.424-.164 60.846.389 91.266l.03 1.684c.36 19.629.891 39.254 1.512 58.876.261 8.297.522 16.592.563 24.894l.017 1.783c-.005 6.676-.005 6.676-2.122 8.976-2.823 1.74-6.237 2.605-9.482 1.813-1.573-.999-2.97-2.123-4.408-3.317-6.071-5.041-14.32-5.57-21.794-4.857-.679.095-1.357.197-2.033.307l-1.107.165c-6.424 1.121-12.039 3.611-16.032 9.023-3.994 6.235-4.701 13.668-3.35 20.865 1.234 5.38 3.683 10.604 8.195 13.828.74.464 1.488.915 2.244 1.352l.981.584c7.055 3.713 15.201 2.392 22.443.024 3.357-1.18 6.456-2.837 9.592-4.525 1.627-.858 3.282-1.652 4.94-2.444l.912-.438c2.768-1.321 4.984-1.95 8.032-1.559 1.632.928 2.227 1.546 2.925 3.319.439 1.653.548 3.023.555 4.734l.014 1.884.001 2.049.012 2.176c.009 1.562.014 3.124.018 4.686.005 2.495.018 4.99.031 7.485.019 3.975.035 7.95.049 11.925.027 7.879.062 15.758.099 23.636l.012 2.543c.049 10.388.116 20.774.335 31.16l.027 1.387c.025 1.238.054 2.475.085 3.712l.022 1.068c.033 1.787.033 1.787.6 3.453 5.979.082 11.93-.153 17.902-.421 31.844-1.413 31.844-1.413 35.547 1.394 1.476 1.978 1.875 3.807 2.365 6.217l.295 1.37a205.765 205.765 0 0 1 1.739 9.355l.191 1.152c.314 2.089.546 3.965-.132 6.008-1.968 1.074-4.066 1.288-6.249 1.548l-1.16.145c-1.268.157-2.538.308-3.807.458l-1.335.16a751.65 751.65 0 0 1-21.068 2.206l-1.253.117c-15.328 1.416-30.651 1.934-46.035 1.884-1.279-.004-2.558-.006-3.838-.007-9.922-.015-19.839-.069-29.753-.55l-1.248-.058c-8.089-.396-8.089-.396-10.509-2.085-.833-1.278-.867-2.414-1.003-3.937l-.176-1.835-.165-1.918-.347-3.745-.147-1.681a38.923 38.923 0 0 0-.642-3.977l-1.72-.219c-10.698-1.476-19.502-5.325-26.516-14.04-3.075-4.264-4.893-9.158-6.221-14.258l-.262-.99c-2.593-10.201-2.981-20.932-3.511-31.42-1.373-27.16-11.419-50.05-25.449-72.775-1.517-2.462-3.017-4.935-4.518-7.407a3854.295 3854.295 0 0 0-5.434-8.919c-11.658-19.082-22.858-38.28-30.241-59.588a185.565 185.565 0 0 0-1.227-3.395c-3.798-10.557-5.906-22.243-7.139-33.393-.16-1.844-.16-1.844-.705-3.363a43.59 43.59 0 0 1-.077-2.371l-.014-1.467-.006-1.595-.011-1.659c-.109-23.051-.109-23.051 1.544-34.208l.272-1.914c5.214-36.043 17.966-74.835 39.928-103.794l1.235-1.667c2.831-3.795 5.845-7.34 9.042-10.811.988-1.08 1.96-2.175 2.933-3.269 3.554-3.989 7.172-7.895 11.178-11.412 1.084-.963 2.135-1.959 3.189-2.956 2.686-2.486 5.505-4.772 8.372-7.033.599-.473 1.197-.947 1.794-1.423 5.248-4.183 10.715-7.947 16.335-11.579l.947-.616c5.166-3.344 10.576-6.206 16.009-9.06 1.006-.531 2.006-1.07 3.004-1.617 14.963-8.037 32.752-14.237 49.732-14.397Zm-24.228 13.89-1.361.464c-12.299 4.25-24.117 10.509-35.01 17.727l-1.077.713a355.523 355.523 0 0 0-7.537 5.187l-1.167.818c-9.507 6.685-19.057 13.734-27.069 22.291l-1.133 1.158c-4.443 4.585-8.468 9.421-12.267 14.575l-.641.855c-15.547 20.79-25.869 45.852-32.859 70.928l-.498 1.751c-2.951 10.431-4.966 20.973-6.681 31.683l-.267 1.668c-3.888 25.057-3.888 25.057 1.569 49.096.639 1 .639 1 2.048 1.844 3.878.47 7.992-.197 11.867-.503l2.066-.158c1.81-.139 3.62-.28 5.431-.421 2.851-.223 5.703-.442 8.555-.661 1.055-.081 2.109-.163 3.164-.246 3.477-.269 6.954-.52 10.434-.735l2.005-.126c1.25-.079 2.499-.152 3.749-.221l1.681-.105 1.467-.084c1.259-.181 2.093-.507 3.181-1.165l-.437-.807c-5.981-11.125-10.367-22.199-7.22-35.085 2.82-8.376 7.817-16.24 15.556-20.565 9.19-4.433 19.304-4.854 28.91-1.4 9.732 3.713 18.388 10.45 22.923 20.244 3.993 9.67 3.574 18.811-.133 28.454-.734 1.784-.734 1.784-1.544 3.368-.762 1.411-.762 1.411-.626 3.333 8.185.451 16.367.63 24.562.753 1.663.025 3.325.052 4.988.079 3.231.052 6.462.102 9.693.151.572-1.919 1.078-3.659 1.067-5.671l-.001-1.289-.019-1.429-.011-1.601c-.055-6.168-.212-12.335-.353-18.501-.14-6.163-.245-12.327-.326-18.492l-.015-1.137c-.045-3.396-.089-6.793-.129-10.19a4541.08 4541.08 0 0 0-.092-7.415 587.512 587.512 0 0 0-.452-16.364c-.467-11.687-.467-11.687 1.767-16.736l.422-1.031c1.107-1.936 3.314-2.707 5.32-3.394 5.074-.543 9.239 2.278 13.407 4.88 2.816 1.736 5.703 3.257 8.668 4.707l1.27.628c5.632 2.718 11.62 3.799 17.652 1.606 6.147-2.82 10.486-6.665 12.962-13.112 2.517-6.89 2.313-14.504-.359-21.326a70.056 70.056 0 0 0-3.35-6.391l-.579-1.026c-3.125-5.032-9.133-8.597-14.675-10.006-4.527-.734-9.263-.184-13.46 1.69l-1.09.453c-5.007 2.302-9.187 6.197-13.117 10.056-3.995 3.763-7.438 5.046-12.853 4.819l-1.176-.086c-.746-2.391-1.084-4.429-1.117-6.962l-.017-1.012c-.017-1.099-.027-2.197-.038-3.296l-.031-2.337c-.022-1.637-.04-3.273-.057-4.91-.02-2.056-.047-4.111-.077-6.167-.11-7.802-.157-15.583.179-23.381.299-6.96.393-13.925.494-20.891.03-1.994.065-3.988.102-5.982.028-1.562.051-3.123.073-4.686.011-.735.023-1.471.038-2.206.077-3.968.021-7.727-.984-11.587-8.806-.436-17.104 2.052-25.365 4.917Zm-66.042 172.575c-4.312 6.126-5.53 12.942-4.566 20.387 1.333 7.161 4.514 13.011 8.157 19.167l.798 1.348.719 1.202c1.528 2.801 1.683 4.911 1.592 8.046-3.166 1.875-6.062 2.505-9.662 3.011l-1.662.247c-12.693 1.834-25.315 2.227-38.119 2.15-2.241-.013-4.483-.023-6.724-.031l-1.526-.012c-2.673-.009-5.228.123-7.872.535.629 4.536 1.903 8.795 3.32 13.121l.352 1.078c5.668 17.29 14.589 33.214 24.564 48.242l.714 1.077c2.088 3.147 4.184 6.287 6.284 9.426 21.016 31.421 35.876 60.034 38.318 98.675.93 17.091.93 17.091 6.848 32.914l.464.889c4.819 8.12 15.941 11.744 24.398 13.865 11.072 2.446 22.857 1.476 34.062.795l3.707-.207c7.22-.408 7.22-.408 14.419-1.084.392-1.745.489-3.221.253-4.98-.324-2.756-.278-5.472-.234-8.243.018-1.885-.02-3.706-.258-5.577-.433-3.59-.259-7.216-.221-10.825.023-3.516-.121-6.97-.39-10.474-.175-2.778-.135-5.548-.107-8.33.061-12.709-.205-25.436-.718-38.135l-.051-1.308c-.086-1.89-.234-3.702-.667-5.544-1.615.612-2.94 1.306-4.337 2.335-8.787 6.073-19.422 8.692-29.897 6.883-7.876-1.751-14.393-5.694-19.261-12.351-5.247-8.374-6.823-19.353-4.853-29.056 1.957-8.179 6.293-15.431 13.363-19.928 10.194-5.268 22.603-6.914 33.657-3.584 2.549.92 5.056 1.918 7.541 3.008 1.292.637 1.292.637 2.352.576.076-9.416-.044-18.826-.21-28.24l-.028-1.699c-.098-5.734-.229-11.46-.497-17.188-.244-5.262-.264-10.509-.222-15.776.012-1.694.022-3.389.029-5.083l.013-1.135c.01-2.407-.081-4.718-.521-7.087-1.589-1.089-2.039-1.1-3.883-1.072l-1.52.015-1.652.029-3.504.033-1.853.022c-30.404.328-30.404.328-35.924-3.452-1.317-1.354-1.537-2.189-1.615-4.057.033-3.905 1.622-7.446 3.107-10.983 3.279-7.847 3.943-16.115.886-24.109-2.79-6.198-6.822-9.649-12.428-12.968l-.996-.643c-9.926-5.916-26.121-4.955-33.939 4.085ZM427.364 752.25c-.209 3.431-.798 6.492-1.884 9.741l-.446 1.341c-3.551 10.352-8.66 20.48-16.334 28.251l-1.094 1.139c-10.375 10.244-24.578 12.908-38.431 12.764-14.063-.368-27.283-7.194-36.947-17.565-5.981-7.102-10.401-15.056-13.499-23.871l-.6-1.704c-1.315-3.881-1.315-3.881-1.315-6.163l.875.09a9103.413 9103.413 0 0 0 12.527 1.281c3.667.377 7.335.743 11.005 1.088l1.059.1c7.185.656 14.436.512 21.644.514l1.052.001c10.33.003 20.556-.083 30.803-1.599l1.781-.255c7.641-1.127 15.163-2.702 22.657-4.589l1.78-.437 1.569-.398c1.432-.225 2.411-.12 3.798.271Zm3.829-54.083c.957.983.957.983 1.067 2.007a388.005 388.005 0 0 1-.319 10.346l-.057 1.396-.061 1.312-.053 1.181c-.099.966-.099.966-.577 1.949-4.994 1.278-10.41 1.464-15.524 1.967l-1.301.129c-7.783.771-15.566 1.415-23.375 1.838l-1.045.063c-8.967.535-17.938.521-26.916.519-1.744 0-3.488.004-5.231.011-44.04.167-44.04.167-48.315-3.513-2.052-3.826-2.295-9.033-1.765-13.305.862-1.539 1.205-1.888 2.872-2.459 4.337-.31 8.699.27 13.011.707 2.681.268 5.363.526 8.046.768l1.675.154c7.042.547 14.119.459 21.177.461l1.077.001c12.335.004 24.566-.379 36.85-1.599l1.395-.137c10.351-1.021 20.697-2.122 30.976-3.757l1.521-.235 1.29-.21c1.308-.095 2.324.034 3.582.406Zm-.479 26.55.479.491c-.037 2.097-.217 4.184-.389 6.272a208.71 208.71 0 0 0-.17 2.239 190.12 190.12 0 0 1-.279 3.381l-.071 1.07c-.172 1.731-.408 2.639-1.566 3.932-11.674 6.957-31.587 4.818-44.7 4.822l-3.358.005c-2.34.003-4.681.004-7.021.004-2.344 0-4.689.003-7.033.01-12.451.035-24.885-.042-37.328-.537l-1.532-.058a761.293 761.293 0 0 1-4.28-.182l-1.247-.049c-2.828-.139-5.516-.602-8.276-1.242-1.066-3.286-1.829-6.6-2.513-9.987l-.271-1.299-.245-1.246-.223-1.114c-.114-1.278.116-2.314.38-3.562 3.738-.038 7.442.057 11.172.305l3.072.194 1.595.103c32.073 2.052 64.325 2.597 96.117-2.953 2.603-.448 5.046-.738 7.687-.599ZM228.279 72.275c2.368.236 3.668.899 5.533 2.397l1.509 1.21a257.315 257.315 0 0 1 11.506 10.146c.935.869 1.882 1.72 2.838 2.564 5.451 4.893 10.626 10.098 15.734 15.363.937.966 1.877 1.929 2.818 2.892 2.902 2.98 5.742 5.97 8.397 9.186.756.842 1.513 1.683 2.274 2.52 2.517 2.841 4.837 5.812 7.104 8.867.45.605.902 1.21 1.356 1.812 2.504 3.333 4.821 6.687 6.764 10.401l.468.892c1.548 3.084 2.483 5.967 1.966 9.422-.31.995-.31.995-1.447 2.255-2.768 1.127-5.311 1.326-8.151.284-6.031-3.346-10.98-9.351-15.119-14.819a675.184 675.184 0 0 0-2.393-2.92c-1.945-2.392-3.78-4.847-5.586-7.352a239.924 239.924 0 0 0-3.597-4.786l-1.344-1.751-.705-.918c-7.017-9.156-13.912-18.403-20.354-27.998l-.641-.95a169.224 169.224 0 0 1-6.567-10.543l-.555-.938c-1.316-2.371-1.684-4.522-1.808-7.236Zm361.321-11.8c.274 3.174-.614 5.293-1.974 8.113l-.645 1.359c-2.623 5.405-5.709 10.514-8.867 15.603l-.839 1.355c-7.991 12.847-16.311 25.568-25.183 37.794l-.691.953c-5.098 6.96-5.098 6.96-8.701 8.081-2.313.31-4.195.293-6.221-.983-1.495-2.118-1.663-3.872-1.322-6.38 3.966-16.175 17.444-30.86 28.264-42.812a123.048 123.048 0 0 0 2.864-3.317c4.717-5.556 9.903-10.92 15.658-15.341l1.454-1.118c4.371-3.307 4.371-3.307 6.203-3.307ZM410.525 20.527c2.067.833 2.483 1.764 3.363 3.812 5.997 18.567 9.298 57.792 1.093 75.982-1.211 2.164-2.235 3.213-4.576 3.912-2.365 0-3.614-.573-5.36-2.208-4.852-5.626-3.194-16.271-3.165-23.235l.004-1.855c.04-15.77.402-31.738 3.436-47.25l.211-1.103c.612-2.875 1.694-7.754 4.994-8.055ZM670 166.183c-1.253 14.034-23.174 32.78-33.021 41.3l-1.363 1.235c-2.75 2.476-5.567 4.774-8.598 6.878l-.866.609c-3.228 2.185-6.332 3.523-10.231 3.078-1.597-.628-2.983-1.352-3.903-2.894-.735-1.892-.82-3.469-.404-5.464 2.914-5.941 8.902-11.084 13.791-15.318.872-.757 1.729-1.527 2.583-2.305 4.115-3.736 8.368-7.223 12.762-10.603.997-.769 1.989-1.545 2.979-2.323 20.29-15.882 20.29-15.882 26.271-14.193Zm-536-7.375c2.788.251 4.869 1.092 7.356 2.376l1.146.578c1.226.619 2.449 1.245 3.672 1.871l2.554 1.292a992.23 992.23 0 0 1 11.92 6.133c11.105 5.79 22.495 10.663 34.243 14.894 11.551 4.197 11.551 4.197 14.245 9.731.221 2.269.357 3.757-1.047 5.593-2.476 2.374-5.196 2.858-8.525 2.766-5.807-.92-11.029-3.259-16.271-5.9l-1.191-.598c-14.504-7.357-40.418-21.151-48.102-36.769v-1.967Z"/>
</svg>
