<svg width="290" height="271" viewBox="0 0 290 271" fill="none" xmlns="http://www.w3.org/2000/svg">
<circle cx="135.5" cy="135.5" r="135.5" fill="#FBF8F6"/>
<ellipse cx="258" cy="220" rx="32" ry="34" fill="white" fill-opacity="0.4"/>
<path d="M142.191 53.0219C142.934 53.0216 143.677 53.0211 144.419 53.0205C145.408 53.0198 146.396 53.0197 147.384 53.0202C147.744 53.0204 148.104 53.0203 148.464 53.0199C151.574 53.0174 151.574 53.0174 152.89 53.0841C153.013 53.0902 153.014 53.0902 153.139 53.0963C155.159 53.2202 157.092 54.1236 158.486 55.6286C158.565 55.7094 158.644 55.7903 158.726 55.8735C160.539 57.8227 161.351 60.6347 161.343 63.2893C161.241 64.1011 161.241 64.1011 161 64.35C160.713 64.3618 160.429 64.3659 160.142 64.365C160.051 64.3652 159.96 64.3654 159.866 64.3656C159.556 64.366 159.246 64.3657 158.937 64.3653C158.714 64.3655 158.492 64.3657 158.269 64.3659C157.657 64.3664 157.044 64.3662 156.431 64.3659C155.909 64.3656 155.388 64.3658 154.866 64.366C153.304 64.3667 151.741 64.3661 150.178 64.3652C149.275 64.3648 148.372 64.3645 147.47 64.3642C137.131 64.361 126.794 64.3278 113.215 64.241C112.086 64.2337 110.957 64.2264 109.828 64.2192C104.539 64.1855 99.2494 64.1512 93.9601 64.1162C93.6735 64.1143 93.3869 64.1125 93.1004 64.1106C85.1613 64.0581 77.2223 64.0041 69.2834 63.9399C68.755 63.9357 68.2266 63.9314 67.6982 63.9272C63.0652 63.8903 58.4325 63.8383 53.8 63.7608C53.1917 62.5642 53.5092 60.741 53.8772 59.4884C54.6532 57.2223 56.0697 55.4842 58.1647 54.4174C58.7842 54.1189 59.4201 53.9026 60.0857 53.7429C60.1638 53.7237 60.242 53.7045 60.3225 53.6848C61.3776 53.4553 62.4341 53.4543 63.5077 53.4353C63.7175 53.4309 63.9273 53.4265 64.137 53.422C66.0427 53.3827 67.9484 53.3676 69.8543 53.3613C70.3507 53.3596 70.847 53.3572 71.3433 53.3548C72.2289 53.3508 73.1144 53.347 74 53.3435C76.433 53.3338 78.866 53.3224 81.299 53.3112C81.7357 53.3092 82.1723 53.3072 82.609 53.3052C87.8172 53.2815 93.0253 53.2523 98.2334 53.2217C99.6197 53.2136 101.006 53.2055 102.392 53.1975C102.743 53.1955 103.094 53.1934 103.445 53.1914C103.561 53.1907 103.677 53.19 103.797 53.1894C103.913 53.1887 104.029 53.188 104.149 53.1873C104.856 53.1832 105.563 53.1791 106.27 53.175C108.711 53.1609 111.152 53.1467 113.593 53.1318C123.126 53.0738 132.658 53.025 142.191 53.0219ZM144.571 58.0668C144.269 58.4745 144.123 58.8883 144.086 59.4C144.183 59.9939 144.352 60.3934 144.771 60.8143C145.328 61.1972 145.807 61.3765 146.486 61.2858C147.087 61.0626 147.376 60.7439 147.743 60.225C147.918 59.6827 147.961 59.1233 147.779 58.5746C147.462 57.9467 147.011 57.6164 146.371 57.3965C145.583 57.3351 145.137 57.4968 144.571 58.0668ZM151.791 57.8053C151.301 58.3984 151.246 58.7874 151.254 59.546C151.312 60.1339 151.609 60.4363 151.993 60.8438C152.43 61.1241 152.825 61.2724 153.343 61.2858C154.079 61.0813 154.488 60.6255 154.864 59.9599C155.019 59.3218 154.923 58.7658 154.636 58.1846C154.24 57.7107 153.886 57.4539 153.3 57.286C152.717 57.2756 152.228 57.3869 151.791 57.8053ZM137.279 58.1469C136.865 58.6297 136.836 59.0729 136.85 59.6979C136.903 60.1317 137.062 60.3751 137.343 60.6965C137.63 60.9117 137.63 60.9117 137.914 61.05C137.99 61.0889 138.065 61.1278 138.143 61.1679C138.792 61.2375 139.305 61.2025 139.857 60.8143C140.306 60.344 140.56 59.9756 140.579 59.3117C140.572 58.7362 140.462 58.4267 140.086 57.9858C139.183 57.0789 138.144 57.355 137.279 58.1469Z" fill="#494A4A"/>
<path d="M157.571 124.811C162.474 124.656 167.966 127.045 171.857 129.996C171.951 130.068 171.951 130.068 172.048 130.14C172.487 130.475 172.917 130.822 173.343 131.175C173.402 131.224 173.461 131.272 173.522 131.322C175.056 132.593 176.502 134.03 177.686 135.654C177.742 135.73 177.798 135.806 177.856 135.884C178.739 137.091 179.53 138.315 180.2 139.661C180.242 139.745 180.285 139.828 180.328 139.915C182.295 143.848 183.025 148.114 182.943 152.507C182.527 152.323 182.237 152.057 181.9 151.748C178.371 148.635 173.586 147.239 169 147.557C168.283 147.63 167.574 147.743 166.864 147.868C166.435 147.938 166.004 147.983 165.571 148.029C165.534 147.902 165.534 147.902 165.495 147.772C164.585 144.745 163.23 141.067 160.543 139.189C160.297 139.106 160.297 139.106 160.086 139.071C160.053 139.427 160.054 139.61 160.246 139.914C160.32 140 160.395 140.087 160.471 140.176C162.022 142.083 164.657 145.801 164.657 148.382C161.642 149.024 158.56 148.708 155.526 148.379C149.336 147.598 149.336 147.598 143.731 149.97C142.616 150.961 141.902 152.111 141.229 153.45C141.191 153.45 141.153 153.45 141.114 153.45C140.738 151.284 140.395 149.12 140.171 146.931C140.162 146.84 140.153 146.748 140.143 146.654C140.054 145.774 139.972 144.894 139.909 144.011C139.9 143.888 139.891 143.764 139.881 143.637C139.866 143.419 139.852 143.2 139.841 142.981C139.761 141.798 139.315 140.688 138.457 139.882C135.711 137.608 130.045 138.329 126.714 138.364C126.883 137.847 127.153 137.447 127.479 137.024C127.533 136.952 127.588 136.881 127.645 136.808C128.772 135.374 130.075 134.151 131.514 133.061C131.581 133.01 131.647 132.959 131.716 132.907C135.493 130.023 139.941 127.87 144.493 126.66C144.568 126.639 144.643 126.619 144.72 126.598C145.165 126.485 145.571 126.441 146.029 126.461C146.073 126.559 146.073 126.559 146.117 126.66C146.646 127.746 147.385 128.432 148.491 128.854C150.713 129.499 153.007 128.839 154.964 127.72C156.058 127.037 157.153 126.105 157.571 124.811Z" fill="#494A4A"/>
<path d="M123.49 139.999C124.113 140 124.737 139.999 125.361 139.999C126.053 139.998 126.745 139.998 127.437 139.998C127.725 139.999 128.012 139.998 128.299 139.998C135.888 139.992 135.888 139.992 137.361 141.151C138.451 142.282 138.473 144.084 138.611 145.578C139.374 154.791 139.374 154.791 142.6 163.232C144.508 164.216 148.328 163.484 150.465 163.429C150.746 163.422 151.028 163.415 151.309 163.408C151.87 163.394 152.431 163.378 152.992 163.361C153.253 163.354 153.515 163.348 153.776 163.341C153.897 163.337 154.018 163.332 154.142 163.328C155.182 163.306 155.182 163.306 155.629 163.704C156.059 164.316 156.062 164.98 155.971 165.707C155.798 166.285 155.468 166.615 154.955 166.902C154.497 167.095 154.025 167.112 153.536 167.143C153.361 167.157 153.361 167.157 153.183 167.17C152.818 167.196 152.452 167.218 152.086 167.239C151.979 167.245 151.873 167.252 151.763 167.258C150.422 167.331 149.079 167.359 147.737 167.386C147.613 167.389 147.49 167.391 147.364 167.394C146.741 167.406 146.118 167.418 145.495 167.429C145.261 167.433 145.026 167.437 144.791 167.442C144.686 167.443 144.581 167.445 144.473 167.447C143.902 167.458 143.337 167.488 142.767 167.535C141.982 167.594 141.205 167.605 140.419 167.595C140.208 167.594 140.208 167.594 139.994 167.592C139.692 167.589 139.39 167.587 139.088 167.583C138.605 167.578 138.122 167.574 137.639 167.57C136.87 167.564 136.101 167.556 135.332 167.549C133.971 167.536 132.61 167.523 131.25 167.511C130.838 167.508 130.427 167.504 130.016 167.5C128.473 167.486 126.931 167.472 125.388 167.475C125.282 167.475 125.176 167.475 125.066 167.475C124.595 167.477 124.124 167.478 123.653 167.482C122.953 167.486 122.265 167.482 121.57 167.387C121.162 167.334 120.751 167.321 120.34 167.302C120.149 167.293 119.959 167.284 119.769 167.274C119.475 167.261 119.182 167.247 118.889 167.233C117.848 167.185 116.808 167.128 115.771 167.025C115.649 167.015 115.649 167.015 115.524 167.005C114.798 166.926 114.158 166.684 113.654 166.127C113.591 166.027 113.529 165.928 113.464 165.825C113.4 165.725 113.335 165.626 113.268 165.523C113.128 165.262 113.069 165.05 113 164.764C112.925 164.725 112.849 164.686 112.771 164.646C112.646 164.373 112.646 164.373 112.51 164.007C112.434 163.803 112.434 163.803 112.357 163.595C112.302 163.445 112.247 163.294 112.193 163.144C112.165 163.067 112.137 162.99 112.108 162.911C110.408 158.227 109.133 153.247 108.484 148.284C108.449 147.923 108.449 147.923 108.314 147.675C108.293 147.422 108.277 147.169 108.264 146.916C108.237 146.392 108.199 145.874 108.13 145.354C107.936 143.877 107.913 142.534 108.657 141.193C109.422 140.299 110.302 140.205 111.4 140.132C112.209 140.096 113.02 140.083 113.829 140.067C113.95 140.064 114.07 140.062 114.194 140.059C117.292 139.997 120.391 139.996 123.49 139.999Z" fill="#494A4A"/>
<path d="M211.971 187.393C212.25 187.621 212.313 187.742 212.429 188.1C212.446 188.378 212.457 188.656 212.465 188.934C212.467 189.014 212.469 189.095 212.472 189.178C212.479 189.435 212.486 189.692 212.493 189.949C212.498 190.123 212.503 190.298 212.508 190.472C212.52 190.899 212.532 191.326 212.543 191.754C212.655 191.76 212.767 191.767 212.883 191.774C215.232 191.926 216.936 192.279 218.725 193.935C219.016 194.192 219.294 194.392 219.629 194.582C219.14 193.485 218.373 192.577 217.343 191.989C217.471 191.075 218.503 190.267 219.159 189.695C219.749 189.252 220.483 188.807 221.229 188.807C221.459 188.987 221.559 189.093 221.612 189.389C221.611 189.518 221.611 189.518 221.609 189.65C221.608 189.747 221.608 189.845 221.607 189.946C221.605 190.051 221.602 190.157 221.6 190.266C221.599 190.375 221.598 190.485 221.597 190.598C221.587 191.266 221.557 191.931 221.518 192.598C221.409 194.481 221.7 196.159 222.129 197.984C222.681 200.336 222.553 202.383 221.356 204.507C220.314 206.229 218.464 207.166 216.6 207.623C215.733 207.805 214.896 207.836 214.014 207.826C213.937 207.826 213.861 207.825 213.782 207.825C212.468 207.816 211.199 207.711 209.914 207.429C209.832 207.411 209.749 207.393 209.664 207.375C208.552 207.131 207.504 206.775 206.486 206.25C206.486 206.172 206.486 206.094 206.486 206.014C206.641 205.885 206.801 205.764 206.964 205.646C207.66 205.103 208.131 204.43 208.314 203.539C208.417 202.556 208.333 201.751 207.743 200.946C207.055 200.235 206.184 200.012 205.229 200.004C204.16 200.104 203.153 200.395 202.133 200.72C200.438 201.259 198.735 201.738 197 202.125C196.914 202.145 196.828 202.164 196.739 202.184C194.311 202.723 191.771 202.816 189.3 202.626C189.105 202.611 189.105 202.611 188.906 202.597C187.691 202.498 186.487 202.332 185.283 202.142C185.144 202.121 185.006 202.1 184.864 202.079C184.741 202.059 184.618 202.04 184.492 202.02C184.395 202.016 184.299 202.011 184.2 202.007C184.125 202.085 184.049 202.163 183.971 202.243C184.353 202.412 184.709 202.525 185.118 202.596C185.283 202.625 185.283 202.625 185.452 202.655C186.063 202.757 186.674 202.856 187.286 202.95C187.426 202.972 187.426 202.972 187.569 202.994C192.441 203.724 197.567 203.059 202.243 201.609C203.586 201.196 204.956 200.782 206.279 201.503C206.677 201.794 206.953 202.145 207.171 202.596C207.267 203.344 207.189 203.94 206.798 204.581C204.906 207.016 201.026 207.518 198.221 207.863C193.658 208.377 188.999 208.47 184.429 208.018C184.29 208.005 184.151 207.991 184.009 207.978C183.589 207.937 183.169 207.893 182.75 207.848C182.625 207.835 182.5 207.822 182.371 207.809C181.225 207.677 180.123 207.484 179.286 206.604C178.299 205.244 178.194 203.496 178.405 201.866C179.041 198 181.53 194.56 184.583 192.312C185.375 191.751 186.205 191.266 187.057 190.811C187.125 190.774 187.194 190.737 187.264 190.698C191.816 188.259 197.402 187.798 202.276 189.358C203.522 189.777 204.658 190.39 205.8 191.046C205.692 191.547 205.475 191.981 205.257 192.439C204.457 194.167 203.743 196.176 203.743 198.118C203.818 198.118 203.894 198.118 203.971 198.118C203.991 198.044 204.01 197.971 204.03 197.896C204.765 195.15 205.568 192.414 207.4 190.221C207.459 190.143 207.518 190.065 207.579 189.985C208.502 188.803 210.372 186.988 211.971 187.393ZM194.204 190.274C192.74 191.797 192.179 193.672 192.157 195.79C192.156 195.888 192.154 195.985 192.152 196.086C192.157 196.779 192.296 197.356 192.543 198C192.656 198 192.769 198 192.886 198C193.068 197.812 193.042 197.596 193.07 197.336C193.337 194.95 193.788 192.965 195.247 191.034C195.557 190.612 195.727 190.285 195.743 189.75C195.667 189.672 195.592 189.594 195.514 189.514C194.868 189.514 194.659 189.83 194.204 190.274ZM198.6 190.877C197.167 192.424 196.488 194.387 196.52 196.505C196.547 196.875 196.625 197.19 196.771 197.529C196.885 197.529 196.998 197.529 197.114 197.529C197.139 197.413 197.164 197.297 197.19 197.178C197.671 195.034 198.396 193.423 199.854 191.783C200.359 191.21 200.359 191.21 200.586 190.487C200.565 190.198 200.565 190.198 200.314 189.986C199.576 189.986 199.118 190.372 198.6 190.877ZM189.457 191.4C188.469 192.79 188.113 194.297 188.2 195.996C188.253 196.291 188.327 196.54 188.429 196.821C188.579 196.86 188.73 196.899 188.886 196.939C188.896 196.811 188.905 196.683 188.916 196.551C189.084 194.632 189.797 193.157 190.801 191.549C190.974 191.284 190.974 191.284 190.907 190.951C190.868 190.823 190.868 190.823 190.829 190.693C190.195 190.574 189.856 190.944 189.457 191.4ZM210.607 198.832C210.567 198.908 210.527 198.983 210.486 199.061C210.523 199.177 210.561 199.294 210.6 199.414C210.941 199.364 211.151 199.311 211.436 199.105C211.862 198.88 212.207 198.969 212.657 199.061C212.789 199.083 212.921 199.104 213.057 199.127C213.199 199.152 213.199 199.152 213.343 199.179C213.32 198.75 213.253 198.613 212.943 198.317C212.02 197.858 211.304 198.067 210.607 198.832ZM217.457 198.943C217.419 199.06 217.382 199.176 217.343 199.296C217.381 199.374 217.418 199.452 217.457 199.532C217.547 199.525 217.637 199.518 217.729 199.511C218.571 199.474 219 199.532 219.629 200.121C219.704 200.083 219.779 200.044 219.857 200.004C219.825 199.536 219.769 199.329 219.471 198.965C218.849 198.43 218.094 198.422 217.457 198.943ZM214.143 200.593C214.175 201.133 214.408 201.449 214.752 201.834C215.048 202.102 215.237 202.15 215.629 202.125C216.071 201.956 216.364 201.734 216.664 201.359C216.795 201.075 216.795 201.075 216.729 200.806C216.394 200.422 215.959 200.375 215.482 200.335C214.984 200.321 214.595 200.352 214.143 200.593Z" fill="#494A4A"/>
<path d="M154.714 168.536C154.618 168.638 154.521 168.74 154.421 168.845C153.044 170.527 152.62 172.886 152.429 175.018C152.419 175.112 152.41 175.207 152.4 175.304C152.275 176.73 152.274 178.162 152.25 179.592C152.245 179.869 152.24 180.146 152.235 180.423C152.223 181.096 152.211 181.77 152.2 182.443C152.011 182.446 152.011 182.446 151.818 182.45C151.342 182.459 150.866 182.469 150.39 182.48C150.185 182.485 149.981 182.489 149.776 182.493C147.284 182.438 147.284 182.438 145 183.268C144.707 183.603 144.583 183.91 144.471 184.343C144.444 184.446 144.417 184.548 144.388 184.654C144.18 185.73 144.178 186.814 144.179 187.908C144.178 188.14 144.178 188.14 144.178 188.377C144.185 189.634 144.277 190.861 144.429 192.107C142.493 192.257 140.556 192.243 138.617 192.24C138.143 192.24 137.67 192.24 137.197 192.241C136.826 192.241 136.456 192.241 136.085 192.241C135.911 192.241 135.737 192.241 135.562 192.241C134.474 192.242 133.399 192.204 132.314 192.107C132.254 191.919 132.254 191.919 132.192 191.727C132.042 191.26 131.891 190.793 131.741 190.327C131.676 190.125 131.611 189.923 131.546 189.721C131.453 189.431 131.359 189.14 131.265 188.85C131.236 188.76 131.208 188.67 131.178 188.578C131.035 188.137 130.883 187.705 130.714 187.275C130.061 184.892 129.529 182.426 129.229 179.968C129.218 179.883 129.207 179.798 129.196 179.711C129.099 178.856 129.089 178.002 129.087 177.142C129.086 176.892 129.082 176.641 129.079 176.391C129.06 173.937 129.591 171.461 131.307 169.655C131.449 169.514 131.594 169.377 131.743 169.243C131.843 169.151 131.843 169.151 131.946 169.056C132.264 168.847 132.454 168.846 132.829 168.848C132.957 168.848 133.086 168.848 133.218 168.848C133.428 168.85 133.428 168.85 133.643 168.853C133.791 168.853 133.939 168.854 134.092 168.854C134.415 168.855 134.738 168.856 135.061 168.859C135.578 168.863 136.094 168.865 136.611 168.866C137.621 168.869 138.632 168.875 139.642 168.88C141.174 168.889 142.705 168.896 144.236 168.9C144.323 168.9 144.41 168.9 144.5 168.901C147.891 168.91 151.348 168.424 154.714 168.536Z" fill="#494A4A"/>
<path d="M118.619 168.641C118.71 168.642 118.801 168.642 118.895 168.643C119.216 168.645 119.536 168.649 119.857 168.654C119.983 168.655 120.109 168.657 120.239 168.658C121.117 168.669 121.995 168.683 122.873 168.697C123.179 168.703 123.486 168.707 123.793 168.712C125.911 168.745 128.026 168.802 130.143 168.889C129.972 169.253 129.778 169.56 129.543 169.884C128.456 171.485 127.925 173.422 127.857 175.371C127.853 175.492 127.848 175.612 127.843 175.736C127.796 178.352 128.093 181.068 128.742 183.597C128.986 184.579 129.046 185.486 129.033 186.496C129.033 186.651 129.033 186.806 129.032 186.966C129.031 187.371 129.027 187.777 129.024 188.183C129.02 188.6 129.018 189.016 129.017 189.433C129.013 190.245 129.007 191.058 129 191.871C128.317 191.939 127.637 192.002 126.951 192.022C126.813 192.027 126.675 192.031 126.532 192.036C126.392 192.04 126.252 192.044 126.107 192.048C125.263 192.073 124.423 192.105 123.581 192.177C123.094 192.215 122.654 192.224 122.169 192.141C121.44 192.044 120.695 192.061 119.961 192.042C119.734 192.036 119.508 192.029 119.282 192.022C119.148 192.019 119.014 192.015 118.877 192.012C118.748 192.004 118.619 191.997 118.486 191.989C118.344 191.982 118.203 191.975 118.057 191.967C117.686 191.871 117.686 191.871 117.487 191.606C117.441 191.488 117.395 191.371 117.348 191.25C117.294 191.118 117.241 190.986 117.186 190.85C117.132 190.706 117.077 190.561 117.021 190.413C116.962 190.262 116.903 190.111 116.843 189.961C116.691 189.574 116.544 189.185 116.398 188.795C116.32 188.585 116.24 188.377 116.161 188.168C114.786 184.534 113.562 180.776 112.935 176.92C112.896 176.663 112.896 176.663 112.771 176.432C112.726 175.949 112.708 175.466 112.689 174.981C112.682 174.821 112.674 174.661 112.665 174.501C112.576 172.917 112.866 171.587 113.8 170.304C115.034 168.901 116.858 168.619 118.619 168.641Z" fill="#494A4A"/>
<path d="M178.416 209.064C180.008 209.064 181.6 209.064 183.193 209.063C194.453 209.06 205.713 209.072 216.973 209.127C217.597 209.13 218.221 209.133 218.846 209.136C227.822 209.178 227.822 209.178 231.468 209.238C231.726 209.243 231.985 209.246 232.243 209.25C232.584 209.255 232.926 209.261 233.267 209.268C233.413 209.27 233.413 209.27 233.562 209.271C234.003 209.282 234.225 209.292 234.6 209.55C234.636 209.904 234.636 209.904 234.6 210.257C234.255 210.613 233.862 210.534 233.398 210.539C233.244 210.543 233.244 210.543 233.088 210.546C232.74 210.553 232.392 210.558 232.044 210.563C231.792 210.567 231.54 210.571 231.288 210.576C228.04 210.63 224.791 210.65 221.543 210.67C221.065 210.673 220.587 210.676 220.11 210.679C209.175 210.748 198.24 210.764 187.305 210.782C185.11 210.786 182.915 210.79 180.721 210.794C180.317 210.795 179.914 210.796 179.511 210.796C179.431 210.796 179.35 210.797 179.268 210.797C179.024 210.797 178.779 210.798 178.535 210.798C178.414 210.798 178.414 210.798 178.29 210.799C169.424 210.815 160.559 210.83 150.486 210.846C150.334 210.847 150.334 210.847 150.18 210.847C139.33 210.865 128.48 210.882 110.394 210.91C109.09 210.912 107.786 210.914 106.482 210.916C101.671 210.923 96.8598 210.93 92.049 210.937C91.7519 210.938 91.4549 210.938 91.1579 210.939C90.9614 210.939 90.765 210.939 90.5685 210.94C89.2373 210.942 87.9061 210.944 86.5749 210.946C82.7639 210.951 78.9529 210.957 75.1419 210.961C73.5147 210.963 71.8875 210.965 70.2604 210.968C69.1759 210.97 68.0914 210.971 67.0069 210.972C66.3972 210.972 65.7874 210.973 65.1776 210.974C61.255 210.983 57.3351 210.918 53.4143 210.795C53.3014 210.792 53.1886 210.789 53.0724 210.785C52.341 210.756 52.341 210.756 52.0857 210.493C52.1492 209.956 52.1492 209.956 52.3143 209.786C53.1678 209.639 54.0417 209.645 54.9045 209.635C55.0501 209.633 55.1957 209.63 55.3457 209.628C55.7563 209.622 56.1669 209.617 56.5775 209.612C56.8479 209.609 57.1184 209.605 57.3888 209.602C63.6858 209.52 69.9832 209.478 76.2805 209.434C76.4552 209.433 76.6299 209.432 76.8046 209.43C87.7157 209.354 98.6269 209.295 116.478 209.219C117.076 209.217 117.675 209.214 118.274 209.212C118.423 209.211 118.573 209.21 118.726 209.21C120.929 209.201 123.131 209.191 125.333 209.181C133.854 209.142 142.374 209.107 178.416 209.064Z" fill="#494A4A"/>
<path d="M154.463 103.874C154.743 104.129 155.015 104.391 155.286 104.657C155.399 104.763 155.399 104.763 155.515 104.871C158.281 107.544 159.306 111.381 160.45 114.972C161.711 118.919 163.06 122.702 166.029 125.636C165.611 125.779 165.475 125.712 165.062 125.575C164.936 125.535 164.81 125.494 164.68 125.452C164.545 125.408 164.41 125.364 164.271 125.319C161.901 124.571 159.471 124.063 156.982 124.102C155.857 124.108 155.857 124.108 155.391 123.859C155.082 123.541 154.981 123.176 154.857 122.756C154.832 122.677 154.807 122.598 154.781 122.517C154.658 122.119 154.6 121.814 154.6 121.393C154.525 121.354 154.449 121.315 154.371 121.275C154.299 121.048 154.299 121.048 154.243 120.767C154.224 120.675 154.205 120.583 154.185 120.488C154.143 120.214 154.143 120.214 154.143 119.743C154.067 119.704 153.992 119.665 153.914 119.625C153.829 119.3 153.758 118.982 153.693 118.653C153.653 118.458 153.613 118.264 153.574 118.07C153.554 117.974 153.535 117.878 153.515 117.779C153.436 117.403 153.346 117.03 153.257 116.656C153.139 116.136 153.078 115.679 153.114 115.146C153.181 115.13 153.247 115.114 153.315 115.098C154.016 114.899 154.449 114.618 154.829 113.968C155.101 113.136 155.012 112.155 154.712 111.346C154.605 111.113 154.605 111.113 154.336 110.948C153.962 110.894 153.705 110.91 153.343 111.021C153.085 111.244 152.922 111.419 152.771 111.729C152.42 111.689 152.24 111.649 151.977 111.397C151.879 111.269 151.879 111.269 151.779 111.139C151.518 110.79 151.518 110.79 151.171 110.55C150.556 109.546 150.082 108.432 149.571 107.368C149.495 107.211 149.419 107.053 149.343 106.896C149.282 106.919 149.22 106.941 149.157 106.965C148.058 107.364 146.963 107.747 145.821 107.994C145.743 108.011 145.664 108.028 145.583 108.046C144.145 108.34 142.694 108.468 141.231 108.51C140.982 108.517 140.732 108.527 140.483 108.537C140.322 108.542 140.16 108.547 139.999 108.552C139.785 108.559 139.785 108.559 139.566 108.566C139.162 108.546 138.862 108.46 138.486 108.311C138.35 108.269 138.215 108.227 138.076 108.184C136.772 107.768 135.768 107.211 135.045 105.973C134.695 105.2 134.885 104.468 135.143 103.691C135.729 102.313 136.969 101.658 138.257 101.121C138.821 100.916 139.386 100.768 139.971 100.65C140.055 100.632 140.139 100.615 140.225 100.597C145.182 99.6048 150.536 100.474 154.463 103.874Z" fill="#494A4A"/>
<path d="M97.0632 71.6349C97.3093 71.635 97.5554 71.635 97.8016 71.6349C102.15 71.6342 106.496 71.6559 110.843 71.7676C110.943 71.7702 111.043 71.7727 111.147 71.7754C112.297 71.8052 113.447 71.8392 114.598 71.8778C115.05 71.8929 115.503 71.9057 115.956 71.9187C116.228 71.9273 116.499 71.936 116.771 71.9448C116.952 71.9496 116.952 71.9496 117.137 71.9544C117.302 71.9603 117.302 71.9603 117.471 71.9663C117.566 71.9692 117.66 71.9721 117.758 71.9751C118.074 72.0166 118.317 72.0958 118.6 72.2464C118.7 72.5554 118.734 72.7594 118.748 73.0779C118.753 73.1739 118.757 73.27 118.762 73.3689C118.766 73.4734 118.771 73.5778 118.775 73.6854C118.78 73.7958 118.785 73.9062 118.789 74.02C118.842 75.3001 118.865 76.5806 118.885 77.8616C118.888 78.001 118.89 78.1404 118.892 78.284C118.972 83.2627 119.008 88.2421 119.053 93.2213C119.064 94.4959 119.076 95.7705 119.088 97.0451C119.099 98.2759 119.111 99.5066 119.122 100.737C119.125 101.127 119.129 101.517 119.133 101.907C119.138 102.519 119.144 103.13 119.149 103.742C119.151 103.964 119.153 104.187 119.155 104.409C119.16 104.903 119.164 105.397 119.167 105.891C119.17 106.244 119.174 106.597 119.181 106.95C119.183 107.111 119.185 107.272 119.187 107.433C119.189 107.572 119.192 107.711 119.194 107.854C119.171 108.193 119.171 108.193 118.943 108.546C118.679 108.507 118.415 108.469 118.143 108.429C117.928 107.64 117.828 106.863 117.75 106.049C117.736 105.901 117.721 105.752 117.707 105.599C117.561 104.016 117.473 102.429 117.386 100.841C117.379 100.714 117.371 100.587 117.364 100.456C117.313 99.5389 117.268 98.6214 117.229 97.7035C117.223 97.5706 117.217 97.4378 117.211 97.3008C117.089 94.3437 117.093 91.3852 117.093 88.4259C117.093 87.8623 117.092 87.2988 117.091 86.7352C117.079 82.335 117.12 77.9318 117.457 73.5428C117.359 73.5433 117.359 73.5433 117.259 73.5437C116.018 73.5488 114.778 73.5465 113.537 73.517C104.88 73.313 96.2214 73.4249 87.5643 73.5354C87.4631 73.5367 87.362 73.538 87.2577 73.5394C83.1248 73.5921 78.9919 73.6491 74.8592 73.7182C72.3867 73.7596 69.9146 73.8005 67.4417 73.8004C67.0656 73.8006 66.6894 73.8021 66.3132 73.804C65.9413 73.8056 65.5693 73.8055 65.1973 73.8057C65.0639 73.8065 64.9306 73.8074 64.7932 73.8083C64.6124 73.8077 64.6124 73.8077 64.428 73.8072C64.3226 73.8073 64.2173 73.8075 64.1087 73.8077C63.8571 73.7785 63.8571 73.7785 63.6286 73.5428C63.5786 73.2555 63.5786 73.2555 63.6286 72.9535C64.1351 72.5163 64.6692 72.533 65.2992 72.5095C65.4099 72.504 65.5207 72.4986 65.6347 72.493C66.0033 72.4754 66.3719 72.4601 66.7406 72.4448C67.0011 72.4329 67.2617 72.4208 67.5222 72.4086C68.2202 72.3763 68.9183 72.3462 69.6164 72.3165C70.1946 72.2917 70.7727 72.2658 71.3509 72.2399C75.5044 72.0541 79.6587 71.8836 83.8152 71.7867C84.1761 71.7783 84.5369 71.7694 84.8977 71.7602C88.9528 71.6578 93.0071 71.6336 97.0632 71.6349Z" fill="#494A4A"/>
<path d="M172.564 166.797C174.21 168.412 174.805 170.357 174.878 172.664C174.882 172.992 174.881 173.32 174.879 173.648C174.878 173.736 174.878 173.824 174.877 173.915C174.865 175.916 174.659 177.873 174.371 179.85C174.358 179.941 174.345 180.032 174.332 180.125C173.461 186.163 172.131 192.108 170.746 198.038C170.495 199.115 170.247 200.192 170.002 201.27C169.865 201.871 169.728 202.472 169.589 203.072C169.497 203.476 169.404 203.88 169.313 204.284C169.213 204.727 169.111 205.169 169.008 205.611C168.979 205.741 168.951 205.872 168.921 206.006C168.893 206.126 168.864 206.245 168.836 206.368C168.812 206.471 168.788 206.574 168.764 206.68C168.633 207.02 168.474 207.198 168.2 207.429C167.731 207.488 167.57 207.467 167.171 207.193C167.028 206.745 167.07 206.421 167.183 205.97C167.214 205.844 167.245 205.718 167.276 205.588C167.328 205.383 167.328 205.383 167.382 205.174C167.437 204.951 167.492 204.728 167.546 204.505C167.606 204.266 167.665 204.027 167.725 203.787C167.917 203.021 168.105 202.253 168.293 201.485C168.359 201.217 168.424 200.949 168.49 200.68C172.986 185.635 172.986 185.635 172.429 169.125C171.669 167.82 170.488 167.085 169.096 166.657C165.895 165.887 162.028 166.083 159.143 167.817C157.791 168.692 156.873 170.084 156.314 171.6C156.266 171.728 156.218 171.857 156.169 171.989C155.422 174.198 155.265 176.551 155.15 178.87C155.146 178.955 155.142 179.039 155.137 179.126C154.955 182.909 154.926 186.7 154.912 190.487C154.91 191.036 154.907 191.584 154.904 192.133C154.896 193.75 154.89 195.367 154.883 196.984C154.877 198.253 154.872 199.522 154.865 200.791C154.862 201.439 154.859 202.087 154.857 202.736C154.856 203.137 154.854 203.539 154.852 203.941C154.851 204.126 154.85 204.311 154.849 204.496C154.842 207.179 154.842 207.179 154.6 207.429C154.321 207.451 154.321 207.451 154.029 207.429C153.57 206.956 153.667 206.132 153.643 205.494C153.64 205.411 153.637 205.327 153.633 205.241C153.623 204.967 153.613 204.692 153.604 204.417C153.596 204.222 153.589 204.027 153.582 203.831C153.567 203.42 153.552 203.009 153.537 202.598C153.518 202.084 153.5 201.571 153.48 201.057C153.436 199.856 153.393 198.655 153.352 197.453C153.343 197.189 153.334 196.924 153.325 196.659C153.23 193.96 153.207 191.262 153.207 188.56C153.207 188.101 153.207 187.643 153.205 187.184C153.193 183.54 153.242 179.9 153.664 176.277C153.674 176.194 153.683 176.11 153.693 176.024C154.1 172.493 154.922 169.255 157.743 166.93C161.56 164.114 168.824 163.466 172.564 166.797Z" fill="#494A4A"/>
<path d="M62.6 73.6607C62.762 73.9948 62.7331 74.2784 62.7378 74.6524C62.7389 74.732 62.74 74.8116 62.7412 74.8937C62.7449 75.1666 62.7477 75.4396 62.7504 75.7126C62.7528 75.9141 62.7552 76.1155 62.7577 76.317C62.7642 76.8844 62.7699 77.4517 62.7752 78.0191C62.7786 78.3823 62.7822 78.7456 62.7858 79.1088C62.8388 84.5517 62.8411 89.9948 62.8425 95.4379C62.8427 96.1537 62.8431 96.8695 62.8435 97.5853C62.8443 98.8457 62.8445 100.106 62.8439 101.366C62.8438 101.793 62.8438 102.22 62.8441 102.646C62.8445 103.144 62.8442 103.641 62.8436 104.139C62.8434 104.319 62.8435 104.499 62.8437 104.68C62.845 105.699 62.8166 106.707 62.7143 107.721C62.8114 107.72 62.9086 107.719 63.0087 107.718C63.8327 107.712 64.6524 107.726 65.4754 107.769C74.3758 108.226 83.3 108.093 92.2065 107.935C96.9955 107.85 101.784 107.814 106.573 107.811C107.599 107.811 108.625 107.808 109.65 107.805C110.46 107.803 111.269 107.801 112.078 107.801C112.556 107.801 113.033 107.8 113.511 107.798C113.953 107.796 114.395 107.796 114.837 107.797C114.999 107.797 115.16 107.797 115.322 107.796C115.542 107.794 115.762 107.795 115.982 107.796C116.105 107.796 116.228 107.796 116.354 107.795C116.657 107.839 116.657 107.839 116.872 107.996C117 108.193 117 108.193 116.979 108.561C116.948 108.673 116.917 108.785 116.886 108.9C116.565 109.066 116.279 109.053 115.92 109.075C115.806 109.082 115.806 109.082 115.69 109.089C115.436 109.104 115.181 109.118 114.927 109.132C114.794 109.14 114.794 109.14 114.659 109.147C112.476 109.272 110.292 109.355 108.107 109.43C108.002 109.434 107.896 109.438 107.787 109.441C106.096 109.5 104.405 109.555 102.714 109.607C102.608 109.61 102.501 109.614 102.391 109.617C92.5862 109.92 82.7485 110.022 64.9 109.43C64.7714 109.423 64.6428 109.416 64.5103 109.409C64.1571 109.389 63.804 109.368 63.4509 109.346C63.3486 109.34 63.2464 109.334 63.141 109.328C62.5619 109.289 62.0645 109.242 61.6 108.848C60.8807 107.921 61.2035 105.771 61.1924 104.609C61.19 104.396 61.1876 104.182 61.1852 103.969C61.1788 103.394 61.1731 102.82 61.1677 102.246C61.1643 101.886 61.1607 101.526 61.1571 101.166C61.1228 97.7226 61.1022 94.2796 61.1002 90.8364C61.1 90.5275 61.0996 90.2186 61.0991 89.9098C61.0942 86.2103 61.1453 82.5136 61.3711 78.8205C61.3934 78.4544 61.4143 78.0883 61.435 77.7222C61.4978 76.6445 61.5691 75.5683 61.6826 74.4949C61.6909 74.4111 61.6992 74.3272 61.7077 74.2408C61.73 74.0462 61.7638 73.8531 61.8 73.6607C62.1083 73.5017 62.2745 73.566 62.6 73.6607Z" fill="#494A4A"/>
<path d="M171.587 113.948C171.733 113.948 171.879 113.947 172.03 113.947C172.338 113.946 172.646 113.946 172.954 113.946C173.263 113.946 173.572 113.945 173.881 113.944C175.886 113.934 177.862 113.999 179.857 114.204C180.006 114.218 180.155 114.232 180.308 114.247C183.549 114.569 186.919 115.211 189.129 117.92C191.962 121.78 191.905 127.262 191.893 131.875C191.893 132.036 191.892 132.196 191.892 132.357C191.887 135.117 191.793 137.857 191.514 140.604C191.504 140.702 191.494 140.8 191.484 140.902C189.84 156.905 189.84 156.905 185.457 162.054C185.387 162.149 185.317 162.245 185.244 162.344C183.29 164.738 180.002 165.383 177.141 165.656C176.412 165.716 175.687 165.725 174.957 165.722C174.828 165.721 174.698 165.721 174.565 165.721C171.969 165.704 171.969 165.704 171.629 165.354C171.666 164.965 171.7 164.809 171.971 164.529C172.533 164.418 173.095 164.385 173.665 164.36C173.838 164.352 174.01 164.343 174.183 164.335C174.317 164.328 174.317 164.328 174.453 164.321C177.805 164.153 181.455 163.945 183.971 161.346C184.358 160.9 184.685 160.434 185 159.932C185.081 159.804 185.161 159.677 185.244 159.545C189.431 152.4 190.195 141.462 190.371 133.296C190.375 133.151 190.375 133.151 190.379 133.002C190.485 128.439 190.555 122.256 187.541 118.594C184.158 115.08 177.648 115.437 173.229 115.382C169.88 115.389 166.459 115.708 163.176 116.396C163.066 116.418 162.956 116.441 162.842 116.464C162.743 116.486 162.645 116.507 162.543 116.529C162.225 116.564 161.992 116.535 161.686 116.443C161.457 116.207 161.457 116.207 161.45 115.92C161.571 115.618 161.571 115.618 161.88 115.448C162.55 115.174 163.257 115.02 163.957 114.852C164.032 114.834 164.107 114.816 164.185 114.797C165.664 114.442 167.144 114.227 168.657 114.086C168.809 114.07 168.809 114.07 168.965 114.055C169.84 113.971 170.708 113.949 171.587 113.948Z" fill="#494A4A"/>
<path d="M86.9429 136.007C87.3571 136.051 87.3571 136.051 87.7429 136.125C87.6732 136.91 87.5379 137.653 87.3576 138.419C87.3013 138.663 87.2451 138.908 87.1889 139.152C87.1445 139.344 87.1445 139.344 87.0992 139.541C84.7857 149.592 83.493 159.759 82.9143 170.068C82.9072 170.193 82.9072 170.193 82.9 170.322C82.8503 171.22 82.8147 172.114 82.8286 173.014C82.8629 172.944 82.8973 172.873 82.9327 172.801C83.7351 171.165 84.5855 169.59 85.5714 168.064C85.6261 167.98 85.6808 167.895 85.7372 167.808C86.4126 166.769 87.1163 165.755 87.8571 164.764C87.9054 164.7 87.9537 164.635 88.0035 164.568C90.0387 161.849 92.2716 159.06 94.9429 156.986C95.0404 156.909 95.0404 156.909 95.14 156.83C97.7812 154.753 97.7812 154.753 98.6 154.864C98.8286 155.1 98.8286 155.1 98.8737 155.378C98.8121 155.803 98.6519 155.916 98.3357 156.19C98.1788 156.328 98.1788 156.328 98.0187 156.469C97.596 156.826 97.1729 157.182 96.7482 157.537C96.3062 157.915 95.884 158.315 95.4612 158.716C95.2248 158.939 94.9858 159.157 94.7429 159.372C94.2835 159.784 93.8382 160.211 93.3929 160.639C93.3214 160.708 93.2499 160.776 93.1762 160.847C92.2352 161.754 92.2352 161.754 91.3643 162.731C91.0505 163.107 90.7273 163.472 90.4 163.836C87.5415 167.077 85.3163 170.922 83.3906 174.808C83.2974 174.994 83.2007 175.179 83.1036 175.364C82.7434 176.09 82.6242 176.77 82.5578 177.575C82.5068 178.178 82.5068 178.178 82.2571 178.436C81.9714 178.465 81.9714 178.465 81.6857 178.436C81.4571 178.2 81.4571 178.2 81.4361 177.975C81.4394 177.882 81.4427 177.79 81.4461 177.695C81.4503 177.538 81.4503 177.538 81.4546 177.377C81.4584 177.262 81.4622 177.148 81.4661 177.03C81.5196 174.187 81.5468 171.922 79.9781 169.492C79.7323 169.109 79.5064 168.717 79.2821 168.321C78.1382 166.315 76.8594 164.418 75.4 162.643C75.3056 162.525 75.2111 162.407 75.1138 162.286C73.9653 160.859 72.7596 159.499 71.4 158.282C71.2734 158.16 71.2734 158.16 71.1442 158.036C68.8292 155.813 66.0865 154.031 63.2772 152.553C63.1869 152.505 63.0966 152.457 63.0036 152.408C62.8342 152.319 62.664 152.232 62.493 152.147C61.9378 151.857 61.9378 151.857 61.8209 151.572C61.8 151.329 61.8 151.329 62.0286 150.975C62.8568 151.019 63.5292 151.398 64.2643 151.77C64.3656 151.821 64.3656 151.821 64.4689 151.873C66.4248 152.857 68.2934 153.979 70.0286 155.336C70.0914 155.384 70.1542 155.433 70.2189 155.483C72.7286 157.433 75.1847 159.598 77.1143 162.171C77.2143 162.3 77.3147 162.428 77.4152 162.555C79.0271 164.616 80.318 166.873 81.4571 169.243C81.4616 169.179 81.4661 169.114 81.4706 169.048C83.5276 139.529 83.5276 139.529 86.9429 136.007Z" fill="#494A4A"/>
<path d="M54.1929 65.035C54.4857 65.0571 54.4857 65.0571 54.7143 65.2928C54.7441 65.5299 54.7441 65.5299 54.7457 65.8311C54.7473 66.0053 54.7473 66.0053 54.7489 66.1831C54.7488 66.3139 54.7488 66.4448 54.7487 66.5796C54.7493 66.7216 54.7499 66.8635 54.7505 67.0098C54.7517 67.4176 54.7515 67.8254 54.7505 68.2332C54.75 68.4987 54.7499 68.7642 54.7498 69.0298C54.7467 74.1452 54.6158 79.2602 54.5035 84.3741C54.356 91.0924 54.2359 97.809 54.2422 104.529C54.2429 105.227 54.2425 105.924 54.2418 106.621C54.2397 109.312 54.2487 112.002 54.3089 114.692C54.3112 114.795 54.3135 114.897 54.3158 115.003C54.098 121.659 54.098 121.659 56.4107 127.529C57.6963 128.789 59.6074 129.15 61.322 129.21C61.4335 129.214 61.4335 129.214 61.5471 129.218C61.7088 129.224 61.8705 129.23 62.0322 129.235C62.2963 129.244 62.5604 129.253 62.8246 129.263C63.2096 129.277 63.5946 129.291 63.9797 129.304C65.0173 129.341 66.0549 129.381 67.0924 129.42C67.2548 129.426 67.2548 129.426 67.4206 129.432C69.8695 129.526 72.3181 129.628 74.7664 129.738C75.2225 129.758 75.6786 129.778 76.1348 129.797C76.673 129.82 77.2111 129.844 77.7492 129.869C77.9479 129.878 78.1467 129.887 78.3454 129.895C78.6165 129.906 78.8876 129.919 79.1587 129.932C79.2783 129.937 79.2783 129.937 79.4004 129.941C79.9453 129.97 79.9453 129.97 80.2 130.232C80.1714 130.593 80.1714 130.593 80.0857 130.939C77.4196 132.314 71.5868 131.114 68.6661 131.018C68.0325 130.997 67.3988 130.977 66.7652 130.957C65.6893 130.923 64.6134 130.888 63.5376 130.852C62.9609 130.833 62.3843 130.815 61.8076 130.798C61.4412 130.787 61.0748 130.775 60.7085 130.763C60.5862 130.76 60.4639 130.756 60.3379 130.753C58.506 130.691 56.7436 130.146 55.3812 128.818C53.7066 126.937 53.2198 124.657 53.0357 122.188C53.0218 122.015 53.0078 121.842 52.9938 121.669C52.9016 120.513 52.8199 119.357 52.7825 118.198C52.7745 117.952 52.7657 117.707 52.7563 117.462C52.664 115.016 52.6451 112.57 52.6446 110.123C52.6446 110.041 52.6446 109.959 52.6445 109.874C52.6432 104.93 52.7183 99.9858 52.7905 95.0419C52.8035 94.1453 52.8158 93.2488 52.8276 92.3522C52.9016 86.7862 52.9978 81.2216 53.1583 75.6575C53.169 75.2845 53.1795 74.9116 53.1901 74.5386C53.2541 72.2911 53.3237 70.0438 53.4397 67.7985C53.4489 67.6199 53.4578 67.4413 53.4664 67.2627C53.4783 67.02 53.4915 66.7774 53.5052 66.5348C53.5125 66.3993 53.5198 66.2639 53.5273 66.1243C53.6557 65.0776 53.6557 65.0776 54.1929 65.035Z" fill="#494A4A"/>
<path d="M190.848 117.248C191.272 117.267 191.601 117.337 192.004 117.467C192.139 117.51 192.274 117.553 192.413 117.597C192.626 117.667 192.626 117.667 192.843 117.739C192.916 117.763 192.99 117.787 193.065 117.812C196.566 118.956 199.868 120.334 202.6 122.925C202.717 123.033 202.717 123.033 202.837 123.144C205.759 125.982 207.142 130.443 207.4 134.475C207.407 134.581 207.415 134.687 207.423 134.797C207.755 139.788 206.913 144.699 205.977 149.576C205.954 149.7 205.93 149.824 205.905 149.952C205.748 150.769 205.59 151.586 205.43 152.403C204.729 155.978 204.064 159.559 203.41 163.144C203.085 164.925 202.759 166.706 202.432 168.487C202.416 168.572 202.4 168.658 202.384 168.746C201.752 172.193 201.113 175.638 200.466 179.083C200.393 179.471 200.321 179.86 200.248 180.249C200.135 180.855 200.021 181.461 199.907 182.066C199.866 182.284 199.825 182.502 199.785 182.721C199.116 186.307 199.116 186.307 198.6 186.921C198.411 186.883 198.223 186.844 198.029 186.804C197.564 185.366 197.977 183.54 198.251 182.091C198.287 181.889 198.323 181.688 198.359 181.487C198.457 180.944 198.557 180.401 198.658 179.859C198.765 179.277 198.871 178.695 198.976 178.114C199.178 177.002 199.381 175.891 199.586 174.781C199.811 173.559 200.034 172.336 200.256 171.114C200.651 168.941 201.049 166.769 201.448 164.597C201.763 162.878 202.078 161.158 202.392 159.439C202.525 158.712 202.658 157.985 202.79 157.258C202.895 156.687 202.999 156.115 203.104 155.543C203.518 153.268 203.937 150.995 204.39 148.727C205.855 141.383 207.231 132.878 203.064 126.181C202.617 125.515 202.114 124.923 201.571 124.339C201.493 124.251 201.415 124.163 201.334 124.072C198.834 121.346 195.137 119.924 191.793 118.674C191.715 118.645 191.638 118.616 191.558 118.586C191.346 118.506 191.134 118.427 190.922 118.349C190.6 118.211 190.6 118.211 190.371 117.975C190.35 117.673 190.35 117.673 190.371 117.386C190.486 117.268 190.486 117.268 190.848 117.248Z" fill="#494A4A"/>
<path d="M83.9121 179.01C84.4419 179.01 84.9718 179.01 85.5016 179.01C88.0669 179.007 90.6327 179.007 93.1976 179.057C93.3991 179.061 93.6006 179.064 93.8021 179.067C94.0769 179.07 94.3516 179.076 94.6264 179.083C94.7053 179.084 94.7842 179.084 94.8655 179.085C95.4306 179.103 95.821 179.228 96.3143 179.496C96.5883 179.92 96.5823 180.229 96.5786 180.719C96.5781 180.807 96.5776 180.895 96.5771 180.985C96.5485 182.508 96.2781 184.019 95.9786 185.507C95.962 185.594 95.9454 185.68 95.9282 185.77C95.8146 186.299 95.6729 186.667 95.2857 187.039C94.9065 187.147 94.5344 187.141 94.1429 187.157C94.1388 187.249 94.1346 187.341 94.1304 187.436C94.0475 188.967 93.8576 190.483 93.6714 192.004C93.6449 192.222 93.6449 192.222 93.6179 192.443C93.0615 196.992 92.3587 201.513 91.5143 206.014C91.4984 206.099 91.4825 206.184 91.4662 206.272C91.422 206.506 91.3762 206.739 91.3304 206.972C91.3051 207.101 91.2798 207.23 91.2537 207.363C91.1714 207.664 91.1714 207.664 90.9429 207.9C90.6571 207.893 90.6571 207.893 90.3714 207.782C89.8852 207.018 90.1626 205.855 90.3027 205.01C90.3284 204.848 90.3284 204.848 90.3547 204.683C90.4119 204.326 90.4702 203.97 90.5286 203.613C90.5695 203.358 90.6104 203.103 90.6513 202.848C90.8785 201.435 91.1123 200.023 91.3482 198.612C91.4466 198.022 91.5448 197.433 91.6429 196.844C91.6793 196.625 91.6793 196.625 91.7164 196.402C92.2194 193.369 92.6309 190.328 93 187.275C92.8525 187.293 92.7049 187.311 92.5529 187.33C92.001 187.393 91.4507 187.429 90.8961 187.455C90.7916 187.46 90.6871 187.465 90.5795 187.47C86.5349 187.656 82.4928 187.669 78.445 187.666C77.6902 187.665 76.9353 187.667 76.1805 187.669C75.441 187.671 74.7016 187.672 73.9622 187.671C73.5255 187.671 73.0888 187.672 72.652 187.673C72.2459 187.675 71.8397 187.674 71.4336 187.673C71.2154 187.672 70.9973 187.674 70.7791 187.675C70.0308 187.67 69.4445 187.626 68.7714 187.275C68.3715 186.717 68.1911 186.129 68.0214 185.463C67.9975 185.371 67.9736 185.279 67.949 185.184C67.5515 183.609 67.2928 182.072 67.4 180.439C67.5143 180.321 67.5143 180.321 67.7857 180.277C67.8847 180.292 67.9837 180.306 68.0857 180.321C68.362 180.714 68.4848 181.064 68.567 181.538C68.5887 181.659 68.6105 181.779 68.633 181.903C68.6551 182.03 68.6772 182.157 68.7 182.288C68.8887 183.322 69.1061 184.334 69.3973 185.343C69.496 185.686 69.5714 185.971 69.5714 186.332C71.5996 186.322 73.6278 186.311 75.656 186.298C76.5985 186.292 77.541 186.287 78.4835 186.282C82.727 186.262 86.9622 186.213 91.2019 186.009C92.3724 185.954 93.5434 185.908 94.7143 185.861C94.778 185.406 94.8411 184.952 94.9033 184.498C94.9347 184.269 94.9668 184.041 94.9989 183.813C95.1416 182.767 95.2311 181.729 95.2857 180.675C92.8522 180.494 90.4257 180.416 87.9857 180.417C87.8041 180.417 87.8041 180.417 87.6188 180.417C86.0968 180.417 84.5765 180.446 83.0552 180.49C80.7315 180.558 78.4095 180.576 76.0849 180.573C75.5544 180.572 75.024 180.572 74.4935 180.573C74.0752 180.573 73.6569 180.573 73.2386 180.573C73.0429 180.573 72.8472 180.573 72.6515 180.573C69.3145 180.577 69.3145 180.577 68.7714 180.204C68.8091 179.97 68.8469 179.737 68.8857 179.496C69.3327 179.353 69.7876 179.342 70.2518 179.32C70.3906 179.312 70.3906 179.312 70.5321 179.305C70.7308 179.295 70.9295 179.285 71.1282 179.275C71.4133 179.261 71.6984 179.246 71.9835 179.231C75.9573 179.027 79.9343 179.006 83.9121 179.01Z" fill="#494A4A"/>
<path d="M137.221 201.19C138.499 201.998 139.536 203.005 140.429 204.246C140.536 204.394 140.536 204.394 140.645 204.544C141.914 206.349 141.914 206.349 141.914 206.957C142.022 206.941 142.13 206.926 142.241 206.91C142.388 206.889 142.535 206.868 142.686 206.847C142.829 206.826 142.972 206.806 143.12 206.785C144.281 206.634 145.435 206.582 146.605 206.582C146.847 206.581 147.088 206.579 147.33 206.577C147.485 206.577 147.639 206.577 147.794 206.576C148.001 206.576 148.001 206.576 148.213 206.575C148.543 206.604 148.543 206.604 148.771 206.839C148.8 207.134 148.8 207.134 148.771 207.429C148.473 207.736 148.276 207.734 147.862 207.804C147.72 207.828 147.578 207.852 147.432 207.877C147.276 207.902 147.12 207.927 146.964 207.952C146.885 207.964 146.806 207.977 146.724 207.99C143.637 208.487 140.577 208.69 137.457 208.725C137.349 208.726 137.241 208.728 137.129 208.729C127.976 208.835 127.976 208.835 126.936 207.959C126.521 207.408 126.52 206.932 126.6 206.25C126.893 205.335 127.485 204.613 128.086 203.893C128.162 203.797 128.238 203.701 128.317 203.602C130.619 200.809 133.908 199.339 137.221 201.19Z" fill="#494A4A"/>
<path d="M99.4 80.4964C99.5655 80.6416 99.5655 80.6416 99.7344 80.7897C102.071 82.8811 103.491 85.7287 103.971 88.8643C103.986 88.9566 104.001 89.049 104.017 89.1442C104.455 92.3665 103.578 95.6876 101.739 98.3108C99.062 101.947 95.1003 104.003 90.7862 104.721C90.0833 104.812 89.379 104.804 88.6714 104.804C88.5921 104.805 88.5128 104.805 88.4311 104.805C84.6235 104.799 81.4068 103.419 78.7143 100.65C76.321 97.9821 75.3085 94.278 75.3795 90.698C75.544 87.3376 76.5046 84.0644 78.6 81.4393C78.649 81.3775 78.698 81.3158 78.7485 81.2522C80.7823 78.7359 83.7916 77.1241 86.9429 76.725C87.0388 76.7121 87.1347 76.6992 87.2335 76.6859C91.5403 76.1938 96.1188 77.543 99.4 80.4964ZM79.8741 81.6174C78.7013 83.0183 77.8837 84.6518 77.3071 86.3966C77.2808 86.4757 77.2545 86.5547 77.2274 86.6361C76.7725 88.0925 76.5983 89.5122 76.6143 91.0373C76.6148 91.1169 76.6153 91.1965 76.6158 91.2786C76.6245 92.4745 76.6825 93.6024 77 94.7571C77.0376 94.9004 77.0751 95.0437 77.1138 95.1913C77.5962 96.8453 78.3755 98.432 79.5143 99.7071C79.6068 99.8133 79.6993 99.9195 79.7946 100.029C82.1083 102.558 85.3953 103.617 88.6987 103.717C92.6444 103.755 96.5001 102.035 99.3062 99.2136C99.4126 99.1042 99.519 98.9948 99.6286 98.8821C99.7114 98.7995 99.7942 98.7168 99.8795 98.6317C101.851 96.5244 102.893 93.5456 102.877 90.6527C102.798 87.6736 101.696 84.7054 99.7429 82.5C99.6645 82.4096 99.5861 82.3192 99.5054 82.2261C97.0954 79.5889 93.2531 78.2503 89.7856 78.1265C89.3808 78.1192 88.9763 78.1174 88.5714 78.1172C88.3681 78.115 88.3681 78.115 88.1607 78.1128C84.9912 78.1075 82.0799 79.24 79.8741 81.6174Z" fill="#494A4A"/>
<path d="M113.305 116.435C113.959 116.428 114.614 116.423 115.268 116.42C115.52 116.418 115.772 116.416 116.024 116.413C116.372 116.409 116.72 116.407 117.068 116.406C117.172 116.405 117.277 116.403 117.384 116.401C117.527 116.402 117.527 116.402 117.673 116.402C117.797 116.401 117.797 116.401 117.924 116.4C118.212 116.456 118.312 116.556 118.486 116.796C118.561 117.516 118.561 117.516 118.329 117.842C117.969 118.099 117.728 118.111 117.294 118.12C117.162 118.123 117.03 118.126 116.894 118.129C116.748 118.131 116.602 118.134 116.452 118.137C116.297 118.14 116.142 118.143 115.987 118.147C115.564 118.156 115.14 118.164 114.716 118.172C114.266 118.181 113.815 118.191 113.365 118.2C112.601 118.216 111.837 118.231 111.072 118.246C110.303 118.261 109.535 118.277 108.766 118.293C108.627 118.296 108.627 118.296 108.485 118.299C108.298 118.303 108.111 118.306 107.924 118.31C106.143 118.347 104.362 118.382 102.581 118.416C101.753 118.432 100.924 118.448 100.096 118.465C94.227 118.59 88.3577 118.582 82.4874 118.579C81.3785 118.579 80.2696 118.579 79.1607 118.58C78.0676 118.58 76.9745 118.58 75.8814 118.58C75.2384 118.58 74.5954 118.58 73.9523 118.58C71.2656 118.582 68.58 118.565 65.8937 118.512C65.7739 118.509 65.654 118.507 65.5305 118.505C64.8772 118.492 64.224 118.476 63.5708 118.455C63.3855 118.45 63.2003 118.444 63.015 118.44C62.7745 118.433 62.5344 118.423 62.2941 118.413C62.1639 118.408 62.0336 118.403 61.8994 118.398C61.4995 118.313 61.3541 118.194 61.1143 117.857C61.1214 117.43 61.1214 117.43 61.2286 117.032C61.6261 116.759 61.7923 116.762 62.263 116.749C62.4132 116.744 62.5633 116.74 62.718 116.735C62.8895 116.732 63.0611 116.728 63.2327 116.725C63.3679 116.722 63.3679 116.722 63.5058 116.718C66.53 116.646 69.556 116.654 72.5809 116.647C73.5005 116.645 74.42 116.642 75.3395 116.64C76.9942 116.635 78.6489 116.63 80.3036 116.626C80.4019 116.625 80.5003 116.625 80.6016 116.625C80.9993 116.624 81.3969 116.623 81.7945 116.622C85.075 116.613 88.3555 116.605 91.6361 116.595C91.9198 116.594 92.2035 116.593 92.4872 116.592C97.8894 116.576 103.291 116.546 108.693 116.482C109.862 116.468 111.031 116.456 112.2 116.446C112.569 116.443 112.937 116.439 113.305 116.435Z" fill="#494A4A"/>
<path d="M69.1143 145.907C69.2242 145.965 69.3341 146.022 69.4473 146.082C70.9705 146.89 72.2329 147.988 73.4571 149.207C73.5318 149.277 73.6065 149.346 73.6835 149.418C76.3209 151.938 77.6863 155.924 78.3 159.475C78.3192 159.586 78.3384 159.696 78.3581 159.809C78.4714 160.516 78.5422 161.219 78.4857 161.936C78.3714 162.054 78.3714 162.054 78.0214 162.061C77.9106 162.058 77.7999 162.056 77.6857 162.054C77.3977 161.316 77.2105 160.58 77.0357 159.807C76.1736 156.144 74.7949 152.834 72.3143 150.032C72.2269 149.931 72.1396 149.83 72.0495 149.725C70.1389 147.625 67.5047 146.317 64.8857 145.436C64.8077 145.409 64.7298 145.381 64.6494 145.353C61.8987 144.411 58.8494 144.145 55.9714 144.021C55.8308 144.015 55.8308 144.015 55.6873 144.009C54.3696 143.961 53.0512 144.052 51.7357 144.125C51.6049 144.131 51.6049 144.131 51.4714 144.138C50.5191 144.19 49.5862 144.253 48.6571 144.493C49.2875 146.095 49.9237 147.681 50.7143 149.207C50.7723 149.321 50.7723 149.321 50.8314 149.437C52.5046 152.701 54.8896 155.647 57.8 157.811C57.8753 157.867 57.9507 157.923 58.0283 157.981C60.1398 159.535 62.4299 160.726 64.8857 161.582C64.9782 161.615 65.0708 161.647 65.1661 161.68C68.1208 162.698 71.1301 163.121 74.2325 163.182C74.3656 163.185 74.4986 163.188 74.6357 163.192C74.7555 163.194 74.8753 163.196 74.9987 163.198C75.2857 163.232 75.2857 163.232 75.5143 163.468C75.5428 163.762 75.5428 163.762 75.5143 164.057C74.9025 164.688 73.6484 164.439 72.8286 164.44C72.7384 164.44 72.6481 164.44 72.5552 164.44C71.1155 164.438 69.7274 164.361 68.3143 164.057C68.1693 164.027 68.1693 164.027 68.0213 163.996C61.7681 162.657 55.9237 159.118 52.0857 153.804C52.032 153.73 51.9782 153.657 51.9229 153.582C50.1129 151.107 48.7226 148.316 47.6786 145.414C47.6354 145.297 47.6354 145.297 47.5913 145.178C47.3899 144.589 47.3695 144.053 47.4 143.432C48.1127 143.154 48.7773 143.007 49.5357 142.946C49.6394 142.937 49.7431 142.928 49.8499 142.918C56.2605 142.376 63.3568 142.614 69.1143 145.907Z" fill="#494A4A"/>
<path d="M92.9643 123.035C93.0949 123.037 93.0949 123.037 93.228 123.039C93.3415 123.041 93.3415 123.041 93.4571 123.043C96.2415 128.482 95.6558 136.042 94.0181 141.745C92.6083 146.386 90.16 151.325 86.4857 154.511C86.423 154.571 86.3602 154.631 86.2955 154.693C86.0266 154.946 85.8499 155.092 85.4857 155.152C85.2286 155.1 85.2286 155.1 85 154.864C85.0258 154.295 85.1742 154.026 85.5572 153.627C85.9811 153.165 86.3728 152.693 86.75 152.19C87.0777 151.754 87.4057 151.319 87.7446 150.892C92.6628 144.69 94.475 137.159 93.7342 129.245C93.6098 128.15 93.3965 127.069 93.183 125.99C93.0765 125.441 92.9807 124.89 92.8857 124.339C87.9291 126.051 83.9447 129.301 81.5594 134.142C79.3492 138.775 79.1394 144.105 80.6897 148.997C81.0456 150.056 81.4982 151.08 81.9969 152.075C82.1522 152.409 82.1834 152.613 82.1429 152.979C82.0286 153.096 82.0286 153.096 81.6786 153.104C81.5678 153.101 81.457 153.099 81.3429 153.096C78.5388 148.222 77.619 142.755 78.9875 137.218C79.3585 135.79 79.8602 134.463 80.5422 133.163C80.6513 132.954 80.757 132.744 80.8625 132.533C82.8952 128.636 88.2462 122.965 92.9643 123.035Z" fill="#494A4A"/>
<path d="M120.837 201.827C122.516 202.949 123.458 204.74 124.2 206.604C124.321 206.609 124.442 206.615 124.567 206.621C124.726 206.63 124.884 206.639 125.043 206.648C125.123 206.651 125.203 206.655 125.285 206.659C125.888 206.695 125.888 206.695 126.143 206.957C126.157 207.266 126.157 207.266 126.143 207.546C123.768 208.706 120.535 208.529 117.975 208.52C117.557 208.519 117.139 208.52 116.72 208.521C112.033 208.525 112.033 208.525 110.979 207.616C110.764 207.348 110.761 207.094 110.774 206.756C110.972 205.774 111.763 204.973 112.436 204.298C112.521 204.211 112.607 204.125 112.695 204.035C114.852 201.89 117.948 200.123 120.837 201.827Z" fill="#494A4A"/>
<path d="M161 95.5821C161.577 95.9638 162.147 96.3569 162.714 96.7533C162.817 96.8253 162.817 96.8253 162.923 96.8987C164.927 98.3026 164.927 98.3026 165.114 98.8821C165.054 99.1254 165.054 99.1254 164.886 99.3536C164.556 99.4849 164.556 99.4849 164.135 99.587C164.021 99.6156 164.021 99.6156 163.905 99.6449C163.743 99.6856 163.581 99.7255 163.419 99.7647C163.019 99.8621 162.623 99.9687 162.225 100.074C162.063 100.117 161.9 100.159 161.737 100.202C160.23 100.597 158.729 101.001 157.241 101.471C157.139 101.503 157.037 101.535 156.933 101.568C156.846 101.595 156.758 101.623 156.669 101.652C156.429 101.711 156.429 101.711 155.971 101.711C155.934 101.788 155.896 101.866 155.857 101.946C155.564 102.039 155.277 102.118 154.979 102.19C154.898 102.21 154.817 102.23 154.733 102.251C154.273 102.366 153.813 102.479 153.343 102.536C153.121 102.396 153.121 102.396 153 102.182C153.021 101.948 153.021 101.948 153.114 101.711C153.315 101.574 153.315 101.574 153.573 101.469C153.666 101.43 153.76 101.391 153.856 101.35C153.998 101.295 153.998 101.295 154.143 101.239C154.223 101.208 154.303 101.176 154.386 101.144C157.224 100.073 160.216 99.2841 163.171 98.6464C161.627 97.3565 159.908 96.3495 158.168 95.372C157.938 95.2422 157.711 95.1095 157.483 94.9758C153.781 92.8334 147.516 89.6472 143.236 90.8605C143.096 90.8996 143.096 90.8996 142.954 90.9394C137.219 92.6047 131.509 95.8453 126.714 99.4714C127.421 99.7256 128.131 99.9353 128.855 100.132C134.115 101.564 134.115 101.564 134.943 102.418C134.957 102.771 134.957 102.771 134.943 103.125C134.905 103.164 134.867 103.203 134.829 103.243C134.154 103.191 133.574 103.03 132.941 102.794C132.751 102.725 132.56 102.656 132.37 102.588C132.271 102.551 132.173 102.515 132.071 102.478C130.212 101.8 128.345 101.188 126.443 100.653C126.364 100.63 126.284 100.607 126.202 100.584C125.988 100.524 125.774 100.464 125.56 100.405C125.229 100.296 125.229 100.296 124.886 100.061C124.831 99.784 124.831 99.784 124.886 99.4714C128.411 95.2638 135.487 92.4883 140.494 90.6577C140.754 90.5626 141.013 90.4661 141.272 90.3681C147.666 87.9584 155.565 92.0873 161 95.5821Z" fill="#494A4A"/>
<path d="M111.971 166.532C111.929 166.878 111.929 166.878 111.857 167.239C111.532 167.407 111.262 167.366 110.9 167.36C110.676 167.358 110.676 167.358 110.447 167.355C110.368 167.354 110.289 167.353 110.208 167.352C106.758 167.266 106.758 167.266 103.731 168.778C102.566 170.009 102.337 171.498 102.344 173.162C102.504 183.358 106.155 194.297 108.916 204.037C108.958 204.185 108.958 204.185 109 204.337C109.126 204.781 109.253 205.226 109.383 205.669C109.446 205.892 109.446 205.892 109.511 206.12C109.548 206.246 109.585 206.372 109.623 206.502C109.69 206.863 109.689 207.082 109.571 207.429C109.229 207.664 109.229 207.664 108.943 207.669C108.657 207.546 108.657 207.546 108.472 207.21C108.417 207.063 108.365 206.915 108.315 206.766C108.286 206.686 108.257 206.606 108.228 206.525C108.14 206.277 108.055 206.028 107.971 205.779C107.923 205.636 107.874 205.494 107.823 205.347C107.675 204.903 107.532 204.458 107.393 204.011C107.367 203.927 107.34 203.843 107.313 203.756C104.796 195.664 102.862 187.247 101.5 178.87C101.481 178.756 101.463 178.642 101.444 178.525C100.317 171.561 100.317 171.561 101.8 168.889C102.95 167.293 104.515 166.35 106.412 166.034C107.995 165.808 110.604 165.592 111.971 166.532Z" fill="#494A4A"/>
<path d="M105.114 149.796C105.444 150.108 105.556 150.298 105.636 150.752C105.632 154.489 104.31 158.584 102.143 161.582C102.056 161.705 101.97 161.827 101.88 161.954C98.9943 165.974 94.5514 169.135 89.7164 170.006C89.416 170.052 89.1161 170.092 88.8143 170.127C88.7229 170.137 88.6315 170.148 88.5373 170.159C87.902 170.217 87.902 170.217 87.5143 169.95C87.4929 169.641 87.4929 169.641 87.5143 169.361C88.2322 168.997 88.9833 168.825 89.7582 168.631C93.0665 167.8 95.8776 166.503 98.3714 164.057C98.4294 164.001 98.4873 163.944 98.5469 163.886C102.149 160.349 103.864 155.855 104.543 150.857C101.777 150.77 101.777 150.77 99.0572 151.211C98.9238 151.246 98.9238 151.246 98.7877 151.282C96.3235 151.943 94.1652 153.073 92.2 154.746C92.095 154.833 92.095 154.833 91.988 154.921C91.5551 155.288 91.1817 155.685 90.821 156.126C90.6641 156.318 90.5032 156.506 90.3397 156.692C88.5582 158.773 87.4204 161.384 86.7714 164.058C86.6894 164.395 86.6022 164.731 86.5143 165.066C86.489 165.166 86.4636 165.266 86.4375 165.369C86.3714 165.589 86.3714 165.589 86.2572 165.707C85.9786 165.729 85.9786 165.729 85.6857 165.707C85.6103 165.629 85.5349 165.552 85.4572 165.471C85.46 165.156 85.4787 164.863 85.5143 164.551C85.5249 164.457 85.5355 164.364 85.5464 164.267C86.0691 160.197 88.23 156.122 91.3607 153.569C91.5064 153.455 91.6529 153.341 91.8 153.229C91.8789 153.169 91.9579 153.108 92.0392 153.046C93.2657 152.12 94.5608 151.329 95.9714 150.739C96.0424 150.709 96.1133 150.679 96.1865 150.649C98.5681 149.67 102.677 148.699 105.114 149.796Z" fill="#494A4A"/>
<path d="M147.064 108.9C147.758 109.288 148.252 109.816 148.593 110.55C148.614 110.628 148.635 110.706 148.657 110.786C148.719 110.767 148.78 110.748 148.844 110.728C149.601 110.559 150.46 110.577 151.171 110.904C151.243 111.184 151.243 111.184 151.286 111.493C151.057 111.729 151.057 111.729 150.61 111.752C150.43 111.75 150.251 111.747 150.071 111.743C149.934 111.742 149.934 111.742 149.794 111.74C149.567 111.737 149.341 111.733 149.114 111.729C149.132 111.811 149.151 111.893 149.169 111.978C149.38 113.186 149.252 114.311 148.642 115.372C148.305 115.84 147.934 116.045 147.4 116.207C146.74 116.297 146.149 116.261 145.565 115.914C144.716 115.234 144.242 114.318 143.971 113.261C143.971 113.183 143.971 113.105 143.971 113.025C143.476 113.126 143.476 113.126 143.057 113.379C143.039 113.651 143.025 113.924 143.014 114.196C142.954 115.299 142.827 116.247 142.029 117.032C141.457 117.444 140.876 117.499 140.2 117.386C139.331 117.03 138.721 116.301 138.336 115.441C137.867 114.116 137.903 112.614 138.464 111.331C138.744 110.803 139.08 110.531 139.607 110.278C140.396 110.102 140.996 110.302 141.673 110.715C142.072 111.026 142.333 111.415 142.6 111.846C142.675 111.963 142.751 112.08 142.829 112.2C142.913 112.161 142.998 112.122 143.086 112.082C143.4 111.964 143.4 111.964 143.857 111.964C143.851 111.855 143.851 111.855 143.845 111.744C143.817 110.848 143.926 110.061 144.457 109.327C145.238 108.559 146.11 108.459 147.064 108.9Z" fill="#494A4A"/>
<path d="M153.328 79.8777C153.412 79.8752 153.496 79.8727 153.582 79.8701C154.122 79.8665 154.482 79.9727 154.943 80.2607C155.057 80.3785 155.057 80.3785 155.093 80.6511C155.057 80.9678 155.057 80.9678 154.879 81.2256C152.281 83.2174 145.012 82.0471 141.861 82.0439C141.2 82.0432 140.54 82.0436 139.88 82.0443C137.342 82.0465 134.805 82.0378 132.268 81.9751C132.123 81.9716 132.123 81.9716 131.974 81.968C127.284 81.8511 127.284 81.8511 126.029 81.2035C126.043 80.931 126.043 80.931 126.143 80.6143C126.787 80.2011 127.32 80.128 128.067 80.1302C128.185 80.1303 128.185 80.1303 128.305 80.1304C128.569 80.1308 128.832 80.132 129.096 80.1332C129.285 80.1336 129.474 80.134 129.663 80.1343C130.071 80.1351 130.479 80.1362 130.888 80.1376C131.539 80.1397 132.19 80.1409 132.841 80.1418C134.692 80.1446 136.544 80.1488 138.395 80.1541C139.417 80.1571 140.439 80.1591 141.461 80.1602C142 80.1608 142.538 80.1619 143.076 80.1641C145.562 80.1743 148.036 80.1308 150.518 79.99C151.454 79.9373 152.391 79.8922 153.328 79.8777Z" fill="#494A4A"/>
<path d="M180.943 151.771C181.229 151.8 181.229 151.8 181.457 152.036C181.823 153.457 181.725 155.384 181.229 156.75C181.195 156.843 181.162 156.936 181.128 157.032C180.26 159.231 178.518 160.7 176.449 161.625C175.555 162.001 174.618 162.269 173.686 162.525C173.545 162.564 173.405 162.603 173.261 162.644C172.754 162.773 172.25 162.84 171.731 162.892C171.632 162.902 171.534 162.912 171.432 162.922C170.375 163.02 169.32 163.028 168.259 163.021C167.934 163.018 167.609 163.018 167.284 163.018C164.133 163.012 164.133 163.012 162.943 162.643C162.752 162.601 162.561 162.561 162.369 162.525C162.269 162.506 162.169 162.486 162.066 162.466C161.857 162.426 161.649 162.387 161.441 162.348C161.341 162.329 161.242 162.309 161.14 162.289C161.05 162.272 160.96 162.255 160.867 162.238C160.798 162.216 160.729 162.194 160.657 162.171C160.619 162.094 160.582 162.016 160.543 161.936C160.357 161.908 160.17 161.881 159.983 161.858C159.53 161.782 159.103 161.615 158.671 161.457C158.571 161.42 158.471 161.384 158.368 161.346C156.043 160.476 153.95 159.213 151.971 157.693C152.136 157.03 152.136 157.03 152.396 156.852C152.805 156.877 153.081 157.12 153.407 157.354C159.094 161.191 166.542 162.516 173.181 161.099C175.389 160.586 177.591 159.663 178.943 157.693C179.871 156.139 180.204 154.579 180.345 152.775C180.425 151.824 180.425 151.824 180.943 151.771Z" fill="#494A4A"/>
<path d="M126.466 72.7026C126.682 72.702 126.682 72.702 126.901 72.7015C127.061 72.7017 127.22 72.7019 127.379 72.7022C127.544 72.7021 127.708 72.7019 127.872 72.7017C128.314 72.7014 128.755 72.7019 129.196 72.7027C129.472 72.7031 129.748 72.7033 130.023 72.7035C133.93 72.7068 133.93 72.7068 135.857 72.7694C137.928 72.8356 139.998 72.8741 142.069 72.905C142.261 72.9079 142.452 72.9108 142.643 72.9138C144.812 72.9473 146.979 72.9635 149.148 72.9181C149.235 72.9163 149.322 72.9146 149.412 72.9127C150.242 72.8958 151.073 72.8766 151.903 72.8495C152.272 72.8379 152.642 72.8291 153.011 72.8196C153.209 72.8115 153.209 72.8115 153.412 72.8033C153.532 72.8005 153.653 72.7977 153.777 72.7949C153.882 72.7914 153.986 72.7879 154.094 72.7843C154.467 72.8534 154.602 72.9986 154.829 73.3071C154.804 74.0395 154.804 74.0395 154.486 74.3678C154.156 74.48 153.84 74.5067 153.495 74.5224C153.389 74.5273 153.283 74.5322 153.174 74.5372C153.059 74.5417 152.944 74.5463 152.826 74.551C152.705 74.556 152.583 74.5609 152.458 74.5661C151.015 74.6202 149.572 74.6206 148.129 74.6192C147.831 74.6193 147.533 74.6194 147.235 74.6195C146.615 74.6198 145.994 74.6195 145.373 74.6189C144.747 74.6184 144.12 74.6183 143.494 74.6189C133.945 74.6274 133.945 74.6274 130.58 74.3452C130.311 74.3228 130.042 74.3029 129.773 74.2831C128.886 74.2147 128.009 74.1165 127.132 73.9655C127.012 73.9457 127.012 73.9457 126.89 73.9256C126.426 73.8398 126.062 73.722 125.686 73.425C125.643 73.1156 125.643 73.1156 125.686 72.8357C125.89 72.6254 126.191 72.7028 126.466 72.7026Z" fill="#494A4A"/>
<path d="M133.079 129.266C133.248 129.259 133.248 129.259 133.421 129.253C133.511 129.248 133.601 129.244 133.694 129.239C133.914 129.289 133.914 129.289 134.117 129.504C134.257 129.761 134.257 129.761 134.243 130.129C134.143 130.468 134.143 130.468 133.8 130.704C133.482 130.728 133.174 130.739 132.856 130.739C132.711 130.741 132.711 130.741 132.563 130.742C132.239 130.745 131.915 130.747 131.591 130.748C131.36 130.75 131.128 130.752 130.897 130.754C130.282 130.76 129.666 130.764 129.051 130.768C128.096 130.774 127.14 130.782 126.185 130.789C125.939 130.791 125.692 130.793 125.445 130.795C123.997 130.806 122.549 130.822 121.1 130.85C120.895 130.854 120.895 130.854 120.685 130.858C120.476 130.862 120.476 130.862 120.263 130.866C116.017 130.946 111.772 130.965 107.526 130.967C106.469 130.968 105.413 130.97 104.357 130.973C103.525 130.976 102.693 130.977 101.861 130.977C101.37 130.977 100.878 130.978 100.387 130.98C99.931 130.982 99.4751 130.982 99.0192 130.981C98.8527 130.981 98.6861 130.982 98.5196 130.983C98.2925 130.985 98.0653 130.984 97.8382 130.983C97.7114 130.983 97.5846 130.983 97.454 130.983C97.0729 130.934 96.8546 130.811 96.5429 130.586C96.6429 130.011 96.6429 130.011 96.7714 129.879C97.0719 129.85 97.3694 129.829 97.6706 129.814C97.763 129.809 97.8554 129.804 97.9506 129.799C98.9715 129.748 99.9917 129.741 101.014 129.738C101.224 129.737 101.434 129.736 101.644 129.735C102.093 129.733 102.543 129.732 102.992 129.73C103.709 129.728 104.426 129.724 105.143 129.721C106.543 129.715 107.942 129.709 109.342 129.703C119.749 129.706 119.749 129.706 130.15 129.4C130.901 129.365 131.652 129.33 132.403 129.3C132.628 129.291 132.854 129.278 133.079 129.266Z" fill="#494A4A"/>
<path d="M85.8 85.5643C86.1 85.6085 86.1 85.6085 86.3714 85.6822C86.548 86.2651 86.6527 86.8263 86.7103 87.4349C86.7192 87.523 86.7281 87.6111 86.7372 87.7018C86.766 87.9886 86.7937 88.2754 86.8214 88.5623C86.8412 88.7617 86.8611 88.961 86.8809 89.1603C87.0272 90.6364 87.1637 92.1135 87.2913 93.5915C87.304 93.7369 87.3168 93.8823 87.3299 94.0321C87.3408 94.1585 87.3516 94.2849 87.3628 94.4152C87.3972 94.7312 87.4486 95.036 87.5143 95.3465C88.8121 94.5262 90.1015 93.6951 91.3752 92.8356C92.2517 92.2449 93.1382 91.6717 94.0286 91.1036C93.2337 90.5012 92.4095 89.9811 91.5491 89.4845C91.1958 89.2802 90.844 89.0733 90.492 88.8666C90.4226 88.8259 90.3532 88.7852 90.2817 88.7433C89.685 88.3931 89.0898 88.0408 88.5 87.6784C88.4201 87.6308 88.3402 87.5832 88.2578 87.5342C87.728 87.2046 87.2775 86.816 86.9429 86.2715C86.9495 85.9572 86.9535 85.7891 87.1714 85.5643C87.8892 85.6024 88.3719 85.7883 88.9857 86.161C89.0725 86.2121 89.1592 86.2633 89.2486 86.316C90.2965 86.9406 91.324 87.6014 92.3518 88.2603C92.8575 88.5842 93.3657 88.9032 93.8768 89.2179C94.0576 89.3296 94.0576 89.3296 94.2421 89.4436C94.4707 89.5845 94.6997 89.7248 94.9291 89.8642C95.0313 89.9274 95.1335 89.9906 95.2388 90.0558C95.3283 90.1104 95.4177 90.1651 95.5098 90.2214C95.7653 90.4133 95.9228 90.5889 96.0857 90.8679C96.0433 91.2472 95.9541 91.4775 95.6864 91.7467C95.4567 91.9338 95.2207 92.1052 94.9786 92.2748C94.8879 92.3401 94.7973 92.4055 94.7039 92.4728C94.4043 92.687 94.1026 92.8975 93.8 93.1072C93.6964 93.1792 93.5928 93.2513 93.4861 93.3255C91.9116 94.4147 90.301 95.4335 88.6571 96.4072C88.5772 96.4553 88.4972 96.5034 88.4148 96.553C88.2108 96.6755 88.0055 96.7956 87.8 96.9154C87.6928 96.9782 87.5855 97.0409 87.475 97.1056C87.1177 97.2546 86.8675 97.2825 86.4857 97.2322C86.1344 96.6887 86.1241 96.1553 86.0774 95.5133C86.0718 95.4377 86.0663 95.3621 86.0605 95.2842C86.0422 95.0347 86.0244 94.7852 86.0067 94.5357C85.9941 94.3599 85.9814 94.1841 85.9688 94.0082C85.9423 93.6388 85.9161 93.2694 85.8901 92.8999C85.8637 92.5256 85.8368 92.1513 85.8093 91.7771C85.5473 88.207 85.5473 88.207 85.5397 86.7323C85.5384 86.5907 85.5384 86.5907 85.5371 86.4462C85.5424 85.8299 85.5424 85.8299 85.8 85.5643Z" fill="#494A4A"/>
<path d="M168.086 148.146C168.199 148.263 168.199 148.263 168.314 148.382C168.301 148.67 168.301 148.67 168.2 148.971C166.057 150.97 162.232 151.142 159.507 151.13C159.419 151.13 159.33 151.13 159.239 151.13C157.553 151.127 155.878 151.016 154.199 150.865C150.997 150.579 147.471 150.605 144.816 152.738C144.043 153.419 143.587 154.154 143.163 155.098C142.896 155.662 142.896 155.662 142.529 155.808C142.257 155.807 142.257 155.807 142.029 155.689C141.902 154.542 142.517 153.445 143.166 152.551C144.902 150.48 147.715 149.625 150.284 149.423C150.868 149.394 151.451 149.399 152.036 149.406C152.219 149.407 152.402 149.408 152.586 149.409C153.968 149.421 155.343 149.497 156.722 149.594C160.144 149.831 163.55 149.68 166.777 148.368C167.23 148.187 167.6 148.091 168.086 148.146Z" fill="#494A4A"/>
<path d="M160.729 66.2578C161 66.3536 161 66.3536 161.114 66.5893C161.744 71.7449 161.311 77.1251 161.178 82.3008C161.147 83.5048 161.116 84.7088 161.086 85.9128C161.075 86.354 161.064 86.7952 161.052 87.2363C161.045 87.5142 161.038 87.792 161.031 88.0699C161.028 88.2031 161.025 88.3363 161.021 88.4735C161.006 89.1796 160.999 89.8846 161.003 90.5909C161.004 90.7375 161.005 90.8841 161.006 91.0352C161.008 91.3161 161.012 91.597 161.016 91.8779C161.017 92.0032 161.019 92.1285 161.02 92.2575C161.021 92.3679 161.023 92.4782 161.025 92.5919C161 92.8715 161 92.8715 160.771 93.225C160.486 93.2619 160.486 93.2619 160.2 93.225C159.562 92.5673 159.842 90.5317 159.841 89.6147C159.841 89.4175 159.842 89.2203 159.842 89.0231C159.842 88.8124 159.842 88.6016 159.842 88.3908C159.841 87.9495 159.842 87.5082 159.842 87.067C159.843 86.517 159.843 85.9671 159.842 85.4171C159.84 83.1299 159.858 80.8451 159.92 78.5587C159.963 76.9977 159.985 75.4374 159.996 73.8757C159.997 73.6583 159.999 73.4409 160 73.2234C160.007 72.3445 160.014 71.4657 160.017 70.5868C160.02 70.0365 160.024 69.4862 160.029 68.9359C160.03 68.7293 160.031 68.5227 160.032 68.316C160.032 68.0318 160.035 67.7477 160.038 67.4634C160.038 67.3795 160.037 67.2956 160.037 67.2092C160.043 66.869 160.051 66.6409 160.241 66.3565C160.429 66.2357 160.429 66.2357 160.729 66.2578Z" fill="#494A4A"/>
<path d="M70.7143 188.689C71.0117 188.757 71.0117 188.757 71.2857 188.925C71.3917 189.177 71.3917 189.177 71.441 189.495C71.4609 189.615 71.4808 189.735 71.5014 189.859C71.5205 189.99 71.5396 190.121 71.5594 190.256C71.5814 190.392 71.6035 190.528 71.6262 190.669C71.6735 190.963 71.7197 191.257 71.7648 191.551C71.8362 192.014 71.9105 192.478 71.9862 192.941C71.9988 193.017 72.0113 193.094 72.0243 193.174C72.0496 193.329 72.075 193.484 72.1004 193.639C72.1384 193.872 72.1762 194.105 72.2138 194.338C72.4135 195.568 72.6326 196.793 72.8786 198.015C72.8962 198.103 72.9138 198.191 72.932 198.281C73.3813 200.507 73.8935 202.72 74.4058 204.931C74.4497 205.121 74.4933 205.311 74.5366 205.502C74.5803 205.692 74.6253 205.883 74.6713 206.073C74.6933 206.168 74.7153 206.262 74.738 206.359C74.7581 206.443 74.7783 206.527 74.7991 206.613C74.8286 206.839 74.8286 206.839 74.7143 207.193C74.4503 207.232 74.1863 207.271 73.9143 207.311C73.1142 206.039 72.8379 204.382 72.5071 202.92C72.4855 202.825 72.4638 202.73 72.4414 202.632C71.6975 199.354 71.1287 196.042 70.6571 192.711C70.6423 192.608 70.6274 192.505 70.6121 192.398C70.2382 189.779 70.2382 189.779 70.3714 188.925C70.4846 188.847 70.5977 188.769 70.7143 188.689Z" fill="#494A4A"/>
<path d="M124.25 114.727C125.033 115.219 125.238 116.528 125.457 117.386C125.693 118.427 125.776 119.501 125.686 120.568C125.457 120.804 125.457 120.804 125.179 120.818C124.886 120.686 124.886 120.686 124.776 120.488C124.614 120.05 124.516 119.613 124.429 119.154C124.427 119.245 124.425 119.337 124.424 119.431C124.415 119.845 124.404 120.258 124.393 120.671C124.39 120.815 124.388 120.959 124.385 121.108C124.381 121.245 124.377 121.383 124.373 121.525C124.37 121.652 124.367 121.779 124.364 121.91C124.347 122.012 124.331 122.113 124.314 122.218C123.971 122.454 123.971 122.454 123.664 122.409C123.533 122.373 123.533 122.373 123.4 122.336C123.266 121.92 123.216 121.509 123.164 121.076C123.154 120.996 123.144 120.915 123.133 120.832C123.064 120.269 123.048 119.722 123.057 119.154C122.999 119.366 122.999 119.366 122.94 119.584C122.889 119.769 122.837 119.955 122.786 120.141C122.76 120.234 122.735 120.328 122.709 120.424C122.684 120.514 122.659 120.604 122.633 120.696C122.61 120.779 122.588 120.861 122.564 120.947C122.486 121.157 122.486 121.157 122.257 121.393C121.957 121.349 121.957 121.349 121.686 121.275C121.577 120.832 121.577 120.506 121.661 120.058C121.684 119.938 121.706 119.818 121.73 119.694C121.755 119.567 121.781 119.439 121.807 119.308C121.833 119.177 121.859 119.047 121.886 118.912C122.554 115.689 122.554 115.689 123.444 114.91C123.73 114.728 123.917 114.665 124.25 114.727Z" fill="#494A4A"/>
<path d="M140.543 117.739C140.769 117.739 140.995 117.739 141.229 117.739C141.457 118.263 141.645 118.783 141.81 119.331C142.242 120.753 142.749 122.049 144.073 122.814C145.204 123.344 146.235 123.226 147.386 122.829C148.649 122.335 149.727 121.431 150.714 120.494C151.057 120.214 151.057 120.214 151.379 120.155C151.629 120.214 151.629 120.214 151.857 120.45C151.805 121.264 151.152 121.689 150.596 122.193C148.755 123.75 148.755 123.75 147.971 123.75C147.99 123.881 148.009 124.012 148.029 124.148C148.13 124.996 148.141 125.858 147.971 126.696C147.743 126.932 147.743 126.932 147.443 126.947C147.353 126.942 147.264 126.937 147.171 126.932C147.034 126.649 147.034 126.448 147.021 126.132C147.016 126.021 147.011 125.91 147.006 125.796C147.002 125.68 146.998 125.564 146.993 125.444C146.988 125.327 146.983 125.21 146.978 125.09C146.966 124.8 146.954 124.511 146.943 124.221C146.865 124.244 146.787 124.267 146.707 124.291C145.562 124.611 144.418 124.26 143.35 123.787C141.798 122.862 141.122 121.128 140.65 119.433C140.625 119.346 140.601 119.258 140.575 119.167C140.443 118.651 140.414 118.269 140.543 117.739Z" fill="#494A4A"/>
<path d="M143.586 193.035C143.675 193.04 143.765 193.045 143.857 193.05C144.066 193.707 144.132 194.322 144.179 195.009C144.328 196.863 144.738 198.648 145.457 200.357C145.517 200.502 145.577 200.647 145.638 200.792C145.754 201.072 145.872 201.352 145.991 201.631C146.433 202.723 146.652 203.726 146.244 204.862C146.143 205.071 146.143 205.071 145.914 205.307C145.557 205.263 145.557 205.263 145.229 205.189C145.143 204.836 145.116 204.547 145.129 204.18C145.14 203.007 144.658 201.903 144.207 200.851C143.769 199.792 143.39 198.779 143.171 197.646C143.145 197.513 143.145 197.513 143.117 197.376C142.848 195.985 142.746 194.68 143.057 193.286C143.286 193.05 143.286 193.05 143.586 193.035Z" fill="#494A4A"/>
<path d="M150.143 96.1714C150.32 96.5367 150.276 96.9233 150.276 97.3242C150.277 97.4602 150.277 97.4602 150.277 97.5989C150.278 97.7907 150.278 97.9825 150.278 98.1743C150.279 98.4684 150.281 98.7625 150.283 99.0566C150.283 99.2427 150.283 99.4289 150.283 99.615C150.284 99.7033 150.285 99.7916 150.286 99.8825C150.283 100.505 150.283 100.505 150.029 100.768C149.671 100.724 149.671 100.724 149.343 100.65C149.255 100.17 149.215 99.7177 149.217 99.2292C149.218 99.0333 149.218 99.0333 149.219 98.8333C149.22 98.6314 149.22 98.6314 149.221 98.4254C149.222 98.2881 149.222 98.1507 149.223 98.0092C149.224 97.6716 149.226 97.334 149.229 96.9964C148.979 96.9028 148.729 96.8095 148.479 96.7165C148.27 96.6386 148.27 96.6386 148.057 96.559C147.382 96.3196 146.737 96.1432 146.029 96.0535C145.891 96.0333 145.753 96.0131 145.611 95.9923C145.099 95.9266 144.594 95.918 144.079 95.921C143.938 95.921 143.938 95.921 143.795 95.9211C143.042 95.9255 142.299 95.976 141.55 96.0508C141.444 96.0517 141.338 96.0526 141.229 96.0535C141.153 95.9758 141.078 95.898 141 95.8178C141.043 95.5085 141.043 95.5085 141.114 95.2285C141.326 95.1715 141.538 95.1152 141.75 95.0591C141.927 95.012 141.927 95.012 142.108 94.9638C144.599 94.3784 147.981 94.6263 150.143 96.1714Z" fill="#494A4A"/>
<path d="M133.029 88.0098C133.177 88.0074 133.325 88.0049 133.478 88.0024C134.399 87.9986 135.145 88.0845 135.971 88.5107C136 88.7832 136 88.7832 135.971 89.1C135.474 89.5951 134.915 89.6003 134.258 89.6345C134.167 89.6396 134.075 89.6447 133.98 89.6499C133.68 89.6662 133.379 89.6816 133.079 89.6966C132.977 89.7018 132.875 89.707 132.769 89.7123C131.389 89.7811 130.01 89.8339 128.629 89.844C128.487 89.846 128.345 89.8481 128.199 89.8502C128.069 89.8501 127.939 89.85 127.805 89.8499C127.637 89.8505 127.637 89.8505 127.466 89.851C127.125 89.8003 126.968 89.687 126.714 89.4536C126.736 89.181 126.736 89.181 126.829 88.8643C127.337 88.4381 127.915 88.4007 128.543 88.3192C128.642 88.3049 128.742 88.2906 128.844 88.2759C130.237 88.083 131.624 88.0156 133.029 88.0098Z" fill="#494A4A"/>
<path d="M124.771 100.886C125.064 100.856 125.064 100.856 125.343 100.886C125.457 101.004 125.457 101.004 125.478 101.425C125.469 102.176 125.367 102.917 125.275 103.661C124.872 106.932 124.729 110.203 124.657 113.496C124.374 113.613 124.374 113.613 124.086 113.732C123.655 113.359 123.572 113.124 123.514 112.554C123.51 112.209 123.525 111.866 123.541 111.522C123.545 111.422 123.55 111.323 123.554 111.22C123.568 110.896 123.584 110.572 123.6 110.248C123.605 110.137 123.611 110.026 123.616 109.912C123.736 107.431 123.953 104.977 124.321 102.521C124.34 102.397 124.359 102.272 124.378 102.144C124.396 102.03 124.414 101.916 124.433 101.798C124.456 101.648 124.456 101.648 124.48 101.496C124.543 101.239 124.543 101.239 124.771 100.886Z" fill="#494A4A"/>
<path d="M147.629 153.45C147.743 153.568 147.743 153.568 147.787 153.827C147.725 154.294 147.462 154.524 147.15 154.842C147.034 154.968 146.918 155.094 146.802 155.22C146.747 155.281 146.692 155.341 146.635 155.404C145.87 156.264 145.494 157.452 145.537 158.62C145.599 159.073 145.718 159.512 145.839 159.952C145.911 160.273 145.928 160.547 145.914 160.875C145.631 160.992 145.631 160.992 145.343 161.111C144.723 160.585 144.433 159.791 144.314 158.989C144.193 157.246 144.51 155.893 145.571 154.511C145.642 154.401 145.713 154.292 145.786 154.179C146.302 153.631 146.884 153.215 147.629 153.45Z" fill="#494A4A"/>
<path d="M160.314 101.946C160.664 101.976 160.664 101.976 161 102.064C161.594 103.29 161.241 105.455 161.243 106.815C161.243 106.912 161.243 107.008 161.244 107.107C161.25 109.778 161.25 109.778 161.114 110.668C160.886 110.904 160.886 110.904 160.529 110.918C160.42 110.913 160.312 110.909 160.2 110.904C160.088 110.003 160.049 109.107 160.021 108.2C160.017 108.046 160.012 107.892 160.007 107.733C159.976 106.696 159.96 105.658 159.957 104.62C159.957 104.497 159.956 104.373 159.956 104.246C159.959 102.312 159.959 102.312 160.314 101.946Z" fill="#494A4A"/>
<path d="M119.858 193.294C120.386 193.547 120.572 194.285 120.771 194.818C121.229 196.183 121.591 197.493 121.6 198.943C121.602 199.035 121.605 199.127 121.607 199.222C121.611 199.808 121.539 200.2 121.229 200.711C120.963 200.984 120.839 201.058 120.464 201.094C120.2 201.064 120.2 201.064 120.086 200.946C120.061 200.576 120.059 200.304 120.199 199.959C120.661 198.722 120.117 197.21 119.793 195.991C119.743 195.761 119.743 195.761 119.743 195.407C119.667 195.368 119.592 195.329 119.514 195.289C119.33 194.733 119.217 194.106 119.286 193.521C119.629 193.286 119.629 193.286 119.858 193.294Z" fill="#494A4A"/>
<path d="M128.436 193.161C128.602 193.164 128.602 193.164 128.771 193.168C129.078 194.024 129.258 194.89 129.421 195.785C129.464 196.024 129.508 196.262 129.553 196.501C130.065 199.256 130.065 199.256 130.043 200.276C130.041 200.405 130.039 200.533 130.037 200.665C130.034 200.758 130.031 200.851 130.029 200.946C129.689 201.063 129.689 201.063 129.343 201.182C129.114 200.946 129.114 200.946 129.1 200.637C129.107 200.499 129.107 200.499 129.114 200.357C129.039 200.318 128.963 200.279 128.886 200.239C128.845 200.034 128.845 200.034 128.826 199.77C128.776 199.201 128.686 198.647 128.585 198.085C128.549 197.879 128.513 197.673 128.477 197.467C128.421 197.148 128.364 196.828 128.307 196.509C128.251 196.197 128.197 195.885 128.142 195.573C128.125 195.48 128.108 195.386 128.09 195.289C127.976 194.623 127.921 193.962 127.971 193.286C128.086 193.168 128.086 193.168 128.436 193.161Z" fill="#494A4A"/>
<path d="M150.257 155.689C150.333 155.767 150.408 155.845 150.486 155.925C150.474 156.331 150.401 156.484 150.122 156.775C150.021 156.859 149.919 156.943 149.814 157.03C149.222 157.563 148.931 157.93 148.851 158.759C148.812 159.774 148.971 160.417 149.6 161.192C149.8 161.464 149.8 161.464 149.836 161.788C149.8 162.054 149.8 162.054 149.686 162.171C149.393 162.238 149.393 162.238 149 162.171C148.178 161.56 147.719 160.707 147.514 159.696C147.393 158.549 147.694 157.568 148.35 156.64C148.867 156.004 149.409 155.567 150.257 155.689Z" fill="#494A4A"/>
<path d="M133.721 193.094C134.029 193.168 134.029 193.168 134.167 193.347C135.29 195.277 136.011 197.399 136.2 199.65C136.162 199.767 136.125 199.883 136.086 200.004C135.746 200.062 135.746 200.062 135.4 200.121C135.097 199.426 134.829 198.775 134.829 198C134.753 197.961 134.678 197.922 134.6 197.882C134.535 197.648 134.535 197.648 134.471 197.322C134.28 196.468 133.973 195.668 133.661 194.853C133.621 194.751 133.582 194.648 133.542 194.542C133.506 194.451 133.471 194.359 133.434 194.265C133.337 193.975 133.262 193.708 133.229 193.404C133.457 193.168 133.457 193.168 133.721 193.094Z" fill="#494A4A"/>
<path d="M148.543 116.796C148.886 116.833 148.886 116.833 149.229 116.914C149.457 117.384 149.401 117.935 149.343 118.446C149.051 119.252 148.471 119.74 147.732 120.093C147.085 120.347 146.487 120.372 145.8 120.332C145.725 120.177 145.649 120.021 145.571 119.861C145.918 119.449 146.194 119.305 146.7 119.161C147.39 118.939 147.873 118.726 148.236 118.049C148.331 117.674 148.378 117.298 148.429 116.914C148.466 116.875 148.504 116.836 148.543 116.796Z" fill="#494A4A"/>
<path d="M143.879 114.955C143.981 114.991 143.981 114.991 144.086 115.029C144.215 115.512 144.175 115.825 144.036 116.303C144.003 116.418 143.97 116.533 143.936 116.651C143.91 116.738 143.884 116.825 143.857 116.914C143.936 116.903 144.014 116.892 144.095 116.88C144.198 116.867 144.301 116.854 144.407 116.841C144.56 116.82 144.56 116.82 144.717 116.799C145 116.796 145 116.796 145.343 117.032C145.364 117.342 145.364 117.342 145.343 117.621C144.655 118.015 144.053 118.049 143.286 117.857C143.023 117.699 143.023 117.699 142.829 117.504C142.712 116.681 142.952 115.895 143.286 115.146C143.629 114.911 143.629 114.911 143.879 114.955Z" fill="#494A4A"/>
<path d="M139.857 96.1714C140.197 96.2297 140.197 96.2297 140.543 96.2892C140.673 96.9367 140.678 97.5684 140.679 98.2265C140.68 98.3345 140.681 98.4424 140.683 98.5536C140.684 99.1822 140.629 99.702 140.429 100.296C139.886 100.429 139.886 100.429 139.629 100.296C139.623 99.7658 139.619 99.2351 139.616 98.7045C139.615 98.524 139.613 98.3435 139.611 98.163C139.609 97.9035 139.607 97.644 139.606 97.3845C139.605 97.3038 139.604 97.2231 139.603 97.14C139.603 96.7099 139.619 96.5401 139.857 96.1714Z" fill="#494A4A"/>
</svg>
