<svg width="271" height="281" viewBox="0 0 271 281" fill="none" xmlns="http://www.w3.org/2000/svg">
<circle cx="135.5" cy="145.5" r="135.5" fill="#FBF8F6"/>
<ellipse cx="239" cy="34" rx="32" ry="34" fill="white" fill-opacity="0.4"/>
<path d="M186.641 122.224C186.709 122.25 186.778 122.275 186.848 122.301C188.51 122.962 190.002 123.947 191.488 124.895C192.596 125.602 193.698 126.299 194.871 126.908C195.143 127.051 195.143 127.051 195.252 127.154C195.283 127.375 195.307 127.597 195.327 127.819C195.337 127.923 195.337 127.923 195.347 128.029C195.369 128.261 195.389 128.493 195.41 128.725C195.417 128.805 195.424 128.885 195.432 128.968C195.718 132.211 195.836 135.433 195.8 138.688C195.697 138.734 195.594 138.78 195.488 138.828C195.351 138.891 195.213 138.954 195.075 139.017C194.974 139.062 194.974 139.062 194.871 139.109C194.278 139.382 193.81 139.726 193.314 140.138C193.089 140.314 192.891 140.432 192.624 140.541C191.951 139.44 191.408 138.445 191.419 137.143C191.338 137.157 191.258 137.171 191.174 137.186C190.147 137.351 189.139 137.393 188.099 137.413C187.931 137.417 187.764 137.421 187.596 137.425C187.191 137.435 186.786 137.444 186.381 137.452C186.341 137.562 186.341 137.562 186.3 137.674C185.567 139.663 184.756 141.608 183.835 143.528C183.798 143.604 183.762 143.68 183.724 143.759C183.631 143.954 183.535 144.149 183.44 144.344C183.317 144.654 183.304 144.85 183.314 145.175C183.403 145.184 183.491 145.193 183.582 145.202C183.981 145.242 184.38 145.282 184.779 145.323C184.918 145.337 185.058 145.351 185.201 145.365C185.334 145.379 185.466 145.392 185.603 145.406C185.787 145.425 185.787 145.425 185.975 145.444C186.271 145.484 186.271 145.484 186.49 145.587C186.513 146.499 186.455 147.387 186.35 148.294C186.225 149.392 186.126 150.487 186.114 151.592C186.112 151.687 186.109 151.783 186.107 151.881C186.109 152.696 186.292 153.57 186.915 154.173C189.229 155.779 192.808 155.363 195.471 155.061C195.6 155.042 195.729 155.023 195.862 155.003C196.317 154.948 196.759 154.947 197.217 154.951C197.345 154.952 197.345 154.952 197.476 154.953C197.684 154.954 197.892 154.956 198.1 154.958C198.136 155.094 198.172 155.23 198.21 155.37C197.579 155.607 196.965 155.771 196.3 155.897C196.213 155.915 196.126 155.932 196.036 155.95C195.248 156.103 194.464 156.211 193.657 156.2C193.565 156.199 193.472 156.198 193.376 156.197C193.309 156.196 193.241 156.195 193.171 156.193C193.187 156.258 193.203 156.323 193.219 156.39C193.393 157.141 193.466 157.778 193.279 158.536C193.259 158.618 193.239 158.7 193.218 158.785C193.203 158.848 193.187 158.91 193.171 158.974C193.237 158.962 193.302 158.95 193.369 158.938C193.668 158.883 193.967 158.829 194.267 158.774C194.369 158.756 194.471 158.737 194.577 158.717C197.008 158.278 199.503 158.344 201.933 158.768C201.911 158.698 201.888 158.628 201.865 158.556C201.664 157.902 201.528 157.286 201.495 156.605C201.489 156.486 201.484 156.366 201.478 156.242C201.437 154.909 201.633 153.599 201.824 152.28C201.727 152.264 201.631 152.248 201.532 152.231C200.248 151.989 200.248 151.989 199.852 151.457C199.816 151.355 199.78 151.253 199.743 151.148C199.858 151.097 199.973 151.045 200.092 150.993C202.244 150.021 203.613 148.722 204.439 146.591C205.035 144.756 205.087 142.833 204.21 141.074C203.89 140.539 203.497 139.966 202.964 139.597C202.728 139.31 202.761 139.01 202.761 138.661C202.76 138.587 202.758 138.512 202.757 138.435C202.754 138.275 202.752 138.114 202.751 137.954C202.746 137.53 202.736 137.106 202.726 136.682C202.723 136.555 202.723 136.555 202.72 136.425C202.658 133.825 202.248 131.265 201.824 128.699C202.5 128.809 202.924 129.143 203.467 129.523C203.564 129.586 203.661 129.65 203.761 129.716C205.301 131.046 206.008 132.939 206.444 134.807C206.47 134.914 206.47 134.914 206.496 135.024C206.853 136.666 206.903 138.318 206.896 139.988C206.896 140.092 206.896 140.197 206.895 140.304C206.89 141.848 206.839 143.345 206.533 144.866C206.514 144.972 206.494 145.077 206.474 145.186C206.182 146.751 205.733 148.246 205.199 149.751C205.17 149.833 205.141 149.914 205.111 149.998C205.028 150.231 204.943 150.464 204.858 150.697C204.821 150.801 204.821 150.801 204.783 150.907C204.583 151.444 204.416 151.857 203.905 152.177C203.609 152.198 203.609 152.198 203.282 152.19C203.173 152.188 203.064 152.187 202.952 152.185C202.827 152.181 202.827 152.181 202.7 152.177C202.409 155.342 202.409 155.342 202.919 158.459C202.933 158.813 202.933 158.813 202.919 159.077C203.026 159.088 203.132 159.099 203.242 159.11C207.315 159.665 211.27 162.483 214.09 165.152C214.176 165.233 214.262 165.314 214.351 165.397C214.445 165.486 214.54 165.575 214.638 165.667C214.692 165.714 214.745 165.761 214.801 165.809C220.287 170.71 222.562 178.512 223.29 185.336C223.302 185.442 223.313 185.548 223.325 185.657C223.629 188.971 223.553 192.443 223.071 195.736C223.05 195.889 223.029 196.041 223.007 196.194C221.903 203.983 219.224 211.435 216.3 218.765C216.267 218.849 216.233 218.933 216.198 219.02C215.966 219.602 215.966 219.602 215.843 219.833C215.726 219.832 215.726 219.832 215.606 219.832C210.952 219.819 206.297 219.806 201.643 219.793C201.08 219.792 200.517 219.79 199.954 219.789C199.842 219.788 199.73 219.788 199.615 219.788C197.817 219.783 196.019 219.778 194.222 219.773C192.368 219.768 190.514 219.763 188.66 219.757C187.623 219.755 186.585 219.752 185.548 219.749C183.228 219.742 180.907 219.736 178.587 219.731C178.012 219.73 177.437 219.729 176.862 219.727C176.112 219.725 175.361 219.724 174.61 219.723C174.342 219.722 174.073 219.722 173.804 219.721C171.182 219.711 171.182 219.711 168.604 220.122C167.641 220.342 166.68 220.535 165.702 220.682C165.601 220.698 165.501 220.713 165.398 220.729C163.457 221.011 161.495 221.115 159.534 221.184C159.357 221.191 159.357 221.191 159.176 221.197C157.04 221.273 154.906 221.297 152.769 221.3C152.535 221.3 152.301 221.301 152.068 221.302C149.412 221.31 146.776 221.199 144.146 220.843C144.065 220.832 143.983 220.822 143.9 220.81C134.634 219.57 124.322 216.386 112.562 209.638C112.416 209.535 112.271 209.431 112.124 209.329C112.228 208.909 112.396 208.518 112.569 208.119C112.6 208.047 112.63 207.976 112.662 207.902C112.738 207.725 112.814 207.549 112.89 207.373C112.813 207.343 112.735 207.314 112.655 207.283C110.56 206.483 108.817 205.67 107.083 204.312C105.027 202.706 102.956 201.578 100.191 201.726C99.9884 201.745 99.786 201.765 99.5838 201.785C98.6922 201.847 97.7936 201.82 96.9 201.812C96.9 201.676 96.9 201.54 96.9 201.4C97.9255 201.068 98.8725 200.802 99.9667 200.782C100.125 200.776 100.125 200.776 100.286 200.77C103.215 200.705 105.188 201.864 107.395 203.505C109.15 204.809 111.038 205.773 113.11 206.549C113.396 205.896 113.656 205.238 113.903 204.571C115.105 201.332 116.569 198.215 118.161 195.129C118.213 195.028 118.265 194.926 118.319 194.821C118.365 194.732 118.412 194.642 118.459 194.55C118.585 194.297 118.697 194.04 118.805 193.78C118.667 193.756 118.53 193.733 118.388 193.708C117.752 193.575 117.188 193.332 116.601 193.072C116.487 193.022 116.373 192.972 116.255 192.921C115.457 192.569 114.675 192.193 113.897 191.804C111.923 190.821 109.903 189.94 107.633 189.867C107.525 189.861 107.416 189.856 107.304 189.851C105.536 189.803 103.781 190.125 102.073 190.523C101.578 190.637 101.138 190.72 100.624 190.69C100.588 190.521 100.552 190.351 100.514 190.176C103.363 188.725 106.939 188.19 110.098 189.073C111.468 189.477 112.723 190.007 113.995 190.631C114.516 190.886 115.04 191.136 115.564 191.386C115.666 191.434 115.767 191.482 115.871 191.531C116.966 192.047 118.084 192.479 119.243 192.853C119.677 192.392 119.954 191.878 120.249 191.334C120.346 191.156 120.444 190.979 120.541 190.802C120.584 190.723 120.626 190.645 120.67 190.565C120.776 190.382 120.776 190.382 120.886 190.279C122.71 190.235 124.62 190.807 126.339 191.321C126.467 191.359 126.467 191.359 126.596 191.397C126.67 191.42 126.744 191.442 126.821 191.466C127.038 191.527 127.038 191.527 127.348 191.514C127.38 191.451 127.412 191.387 127.445 191.322C128.797 188.656 130.21 186.019 131.619 183.379C131.254 183.201 130.898 183.09 130.503 182.98C128.992 182.528 127.576 181.798 126.169 181.119C124.295 180.217 122.408 179.456 120.338 179.054C120.238 179.034 120.139 179.015 120.036 178.994C118.01 178.749 116.115 179.032 114.205 179.672C113.946 179.757 113.707 179.824 113.438 179.878C113.33 179.81 113.221 179.742 113.11 179.672C113.122 179.441 113.122 179.441 113.219 179.157C113.449 178.989 113.649 178.866 113.904 178.739C113.972 178.703 114.04 178.668 114.111 178.632C116.621 177.378 119.572 177.7 122.211 178.409C124.305 179.03 126.241 180.004 128.185 180.949C129.465 181.567 130.751 182.08 132.167 182.349C132.198 182.291 132.228 182.232 132.26 182.171C132.401 181.906 132.544 181.642 132.687 181.378C132.735 181.285 132.784 181.193 132.834 181.097C132.882 181.009 132.93 180.922 132.98 180.831C133.023 180.749 133.067 180.668 133.112 180.584C133.262 180.393 133.262 180.393 133.451 180.323C133.768 180.281 134.012 180.328 134.325 180.39C134.452 180.414 134.579 180.439 134.709 180.464C134.847 180.491 134.984 180.519 135.126 180.547C135.271 180.576 135.416 180.604 135.561 180.632C135.869 180.692 136.177 180.752 136.485 180.813C137.288 180.972 138.091 181.126 138.895 181.281C138.974 181.296 139.054 181.312 139.135 181.328C144.238 182.312 149.5 183.298 154.722 183.302C154.811 183.302 154.9 183.302 154.992 183.302C160.757 183.295 165.496 181.218 169.547 177.404C169.609 177.345 169.672 177.286 169.736 177.225C169.926 177.046 170.117 176.867 170.308 176.689C170.961 176.076 171.577 175.455 172.149 174.773C172.376 174.507 172.616 174.254 172.862 174.002C173.256 173.594 173.625 173.174 173.987 172.741C174.309 172.364 174.642 171.997 174.975 171.629C175.3 171.269 175.619 170.906 175.935 170.539C176.324 170.09 176.728 169.656 177.144 169.228C177.354 169.01 177.56 168.79 177.765 168.569C179.262 166.958 180.859 165.437 182.657 164.123C182.719 164.077 182.781 164.031 182.845 163.984C189.242 159.283 189.242 159.283 192.076 159.283C192.279 158.625 192.34 158.009 192.364 157.326C192.368 157.227 192.372 157.127 192.377 157.025C192.387 156.782 192.396 156.539 192.405 156.296C192.336 156.297 192.268 156.298 192.197 156.299C190.715 156.31 189.324 156.123 187.914 155.679C187.814 155.649 187.714 155.62 187.611 155.589C186.599 155.259 185.937 154.694 185.45 153.799C184.398 151.678 185.24 148.661 185.505 146.411C185.255 146.293 185.082 146.283 184.804 146.264C184.709 146.256 184.613 146.248 184.515 146.241C184.314 146.225 184.112 146.211 183.911 146.197C183.26 146.144 182.839 146.048 182.349 145.619C182.16 145.272 182.178 144.936 182.219 144.557C182.349 144.202 182.349 144.202 182.532 143.846C182.582 143.747 182.582 143.747 182.632 143.647C182.703 143.506 182.774 143.365 182.846 143.225C183.038 142.85 183.224 142.473 183.41 142.095C183.448 142.018 183.486 141.941 183.525 141.861C183.919 141.054 184.265 140.232 184.601 139.402C184.628 139.335 184.655 139.268 184.683 139.199C184.849 138.789 185.013 138.378 185.176 137.967C185.243 137.799 185.31 137.632 185.376 137.465C185.419 137.359 185.461 137.252 185.505 137.143C185.314 137.124 185.314 137.124 185.118 137.105C182.891 136.84 180.764 135.713 179.388 134.056C177.595 131.686 176.495 128.791 176.903 125.865C177.205 124.59 177.968 123.418 179.096 122.642C179.365 122.485 179.636 122.345 179.919 122.211C180.043 122.151 180.043 122.151 180.169 122.09C182.174 121.18 184.639 121.475 186.641 122.224ZM179.7 125.404C179.131 125.885 179.048 126.527 179.007 127.221C178.972 128.265 179.06 129.162 179.481 130.14C179.521 130.245 179.56 130.349 179.601 130.457C179.95 131.326 180.446 132.272 181.302 132.792C181.707 132.933 181.918 132.931 182.329 132.818C182.378 132.251 182.372 131.954 181.967 131.498C181.917 131.445 181.867 131.392 181.815 131.338C181.714 131.222 181.613 131.105 181.512 130.988C181.464 130.932 181.415 130.875 181.365 130.817C180.364 129.592 180.301 128.035 180.238 126.556C180.231 126.436 180.224 126.317 180.217 126.194C180.212 126.087 180.208 125.979 180.203 125.869C180.167 125.593 180.167 125.593 179.914 125.47C179.843 125.448 179.773 125.426 179.7 125.404ZM200.188 165.093C200.114 165.18 200.039 165.268 199.962 165.358C200.12 165.738 200.292 165.86 200.676 166.041C200.776 166.09 200.876 166.138 200.979 166.188C201.086 166.239 201.193 166.29 201.304 166.343C202.34 166.856 203.247 167.411 204.124 168.139C204.247 168.239 204.247 168.239 204.373 168.342C207.736 171.285 208.67 176.365 208.845 180.461C208.851 180.739 208.854 181.017 208.856 181.296C208.856 181.398 208.857 181.501 208.857 181.606C208.859 181.822 208.859 182.038 208.86 182.254C208.861 182.576 208.864 182.898 208.868 183.22C208.902 189.356 206.278 194.617 201.869 199.07C201.731 199.212 201.592 199.354 201.46 199.501C200.823 200.207 200.121 200.854 199.425 201.507C199.203 201.715 198.981 201.924 198.76 202.132C197.503 203.315 197.503 203.315 196.855 203.832C196.563 204.065 196.285 204.314 196.005 204.56C195.324 205.155 194.622 205.725 193.912 206.291C193.719 206.446 193.527 206.602 193.335 206.758C192.53 207.415 191.708 208.046 190.865 208.659C190.633 208.828 190.402 208.999 190.172 209.169C189.239 209.857 188.298 210.526 187.327 211.166C187.092 211.323 186.861 211.484 186.629 211.645C184.813 212.892 182.862 213.961 180.875 214.947C180.576 215.096 180.279 215.248 179.981 215.4C177.499 216.659 174.887 217.658 172.252 218.597C172.252 218.699 172.252 218.801 172.252 218.906C172.969 218.853 173.651 218.759 174.347 218.591C174.487 218.557 174.487 218.557 174.63 218.522C179.447 217.327 183.798 215.034 187.79 212.27C188.098 212.059 188.41 211.854 188.723 211.65C189.798 210.946 190.83 210.196 191.857 209.432C192.014 209.316 192.014 209.316 192.175 209.198C192.741 208.777 193.292 208.341 193.842 207.901C194.211 207.605 194.586 207.316 194.965 207.032C195.542 206.59 196.084 206.117 196.624 205.636C197.036 205.269 197.456 204.914 197.885 204.564C198.985 203.657 200.028 202.687 201.064 201.715C201.16 201.625 201.257 201.535 201.356 201.442C201.84 200.986 202.309 200.523 202.755 200.034C202.971 199.798 203.199 199.573 203.426 199.347C204.153 198.596 204.795 197.787 205.438 196.972C205.488 196.909 205.539 196.846 205.591 196.781C207.667 194.169 209.073 191.279 209.799 188.09C209.82 187.997 209.841 187.903 209.863 187.807C210.231 186.083 210.298 184.372 210.291 182.62C210.291 182.511 210.291 182.402 210.291 182.291C210.285 180.576 210.216 178.897 209.929 177.201C209.911 177.091 209.893 176.981 209.875 176.868C209.485 174.504 208.772 172.187 207.519 170.095C207.455 169.984 207.391 169.873 207.325 169.758C206.909 169.056 206.428 168.441 205.876 167.83C205.818 167.76 205.76 167.691 205.7 167.619C204.464 166.184 202.713 165.384 200.868 164.858C200.486 164.805 200.486 164.805 200.188 165.093ZM183.095 171.125C182.881 171.377 182.701 171.619 182.52 171.891C182.464 171.973 182.407 172.056 182.348 172.141C182.158 172.419 181.969 172.699 181.781 172.979C181.505 173.386 181.229 173.794 180.953 174.201C180.88 174.309 180.807 174.416 180.732 174.527C179.076 176.962 177.364 179.36 175.319 181.526C175.229 181.622 175.139 181.718 175.046 181.818C173.715 183.211 172.319 184.625 170.719 185.748C170.569 185.857 170.419 185.966 170.269 186.075C164.388 190.304 157.184 192.021 149.91 192.544C149.791 192.553 149.672 192.563 149.549 192.572C148.036 192.674 146.521 192.663 145.005 192.66C144.613 192.66 144.221 192.66 143.829 192.661C140.921 192.665 138.017 192.612 135.117 192.402C135.023 192.396 134.928 192.389 134.831 192.382C133.387 192.28 131.952 192.153 130.524 191.926C130.388 191.905 130.253 191.883 130.113 191.861C129.848 191.817 129.583 191.771 129.319 191.72C129.319 191.856 129.319 191.992 129.319 192.132C132.468 193.313 135.608 193.428 138.957 193.574C139.059 193.578 139.161 193.583 139.267 193.588C141.08 193.668 142.891 193.698 144.707 193.696C144.908 193.696 144.908 193.696 145.112 193.696C147.231 193.693 149.333 193.66 151.443 193.471C151.552 193.461 151.552 193.461 151.664 193.451C153.885 193.25 156.059 192.923 158.233 192.441C158.411 192.402 158.411 192.402 158.593 192.363C165.455 190.839 172.13 187.06 176.507 181.806C176.734 181.536 176.97 181.277 177.211 181.018C179.14 178.94 180.79 176.62 182.219 174.214C182.275 174.12 182.331 174.027 182.389 173.93C182.57 173.624 182.751 173.318 182.931 173.011C182.988 172.915 183.044 172.819 183.103 172.719C183.366 172.265 183.604 171.833 183.752 171.331C183.68 171.263 183.608 171.195 183.533 171.125C183.389 171.125 183.244 171.125 183.095 171.125Z" fill="#494A4A"/>
<path d="M91.7601 140.395C92.1795 140.684 92.3752 141.135 92.4993 141.595C92.6699 142.955 92.6585 144.313 92.6552 145.68C92.6553 145.958 92.6555 146.236 92.6558 146.514C92.6563 147.187 92.6557 147.86 92.6547 148.532C92.6536 149.319 92.6536 150.106 92.6536 150.893C92.6537 152.299 92.6527 153.706 92.6511 155.112C92.6495 156.47 92.6488 157.828 92.6488 159.187C92.6488 159.27 92.6489 159.354 92.6489 159.44C92.6489 159.523 92.6489 159.607 92.6489 159.692C92.6489 161.247 92.6483 162.801 92.6473 164.355C92.647 164.901 92.6469 165.446 92.6468 165.992C92.6467 166.659 92.6462 167.327 92.6453 167.995C92.6448 168.334 92.6445 168.673 92.6446 169.013C92.6448 170.783 92.602 172.548 92.519 174.317C92.6798 174.316 92.6798 174.316 92.8438 174.315C93.8133 174.309 94.7785 174.335 95.7467 174.381C96.0089 174.393 96.2712 174.405 96.5335 174.417C96.9172 174.435 97.3009 174.452 97.6846 174.47C98.739 174.518 99.7935 174.565 100.848 174.611C100.959 174.616 101.069 174.621 101.183 174.626C103.823 174.742 106.464 174.843 109.105 174.942C109.337 174.95 109.569 174.959 109.801 174.968C112.183 175.057 114.564 175.143 116.946 175.225C123.365 175.446 123.365 175.446 126.485 175.604C126.6 175.61 126.714 175.616 126.833 175.621C128.334 175.695 129.806 175.846 131.29 176.068C131.332 176.238 131.369 176.41 131.4 176.583C131.098 176.867 130.311 176.797 129.897 176.8C129.129 176.797 128.367 176.732 127.603 176.668C125.619 176.505 123.635 176.386 121.647 176.292C121.385 176.28 121.123 176.267 120.862 176.255C116.742 176.057 112.62 175.926 108.498 175.791C108.112 175.778 107.727 175.765 107.342 175.752C107.216 175.748 107.091 175.744 106.961 175.74C96.7971 175.404 96.7971 175.404 92.8476 175.038C92.7048 175.026 92.7048 175.026 92.559 175.014C91.9977 174.96 91.9977 174.96 91.7524 174.729C91.7283 174.463 91.7182 174.208 91.7174 173.942C91.7158 173.817 91.7158 173.817 91.7141 173.69C91.7106 173.405 91.7088 173.12 91.707 172.835C91.7049 172.626 91.7028 172.417 91.7006 172.207C91.6948 171.62 91.6905 171.032 91.6866 170.445C91.6839 170.07 91.6808 169.695 91.6775 169.32C91.6446 165.532 91.6405 161.744 91.6438 157.956C91.6441 157.609 91.6444 157.262 91.6446 156.916C91.6462 154.708 91.6482 152.5 91.6539 150.293C91.6562 149.402 91.6578 148.511 91.6589 147.62C91.6597 146.997 91.6614 146.375 91.6639 145.752C91.6651 145.369 91.6655 144.986 91.6656 144.602C91.6658 144.427 91.6664 144.251 91.6675 144.075C91.6731 143.08 91.6262 142.14 91.4238 141.159C90.8951 141.143 90.4514 141.187 89.9418 141.318C89.8032 141.354 89.6647 141.389 89.5219 141.426C89.3709 141.465 89.22 141.505 89.069 141.545C88.991 141.565 88.9129 141.586 88.8325 141.607C80.2018 143.859 71.9866 146.956 61.0697 152.422C60.6215 152.662 60.1703 152.897 59.7192 153.133C57.2342 154.432 54.7911 155.786 52.5428 157.429C52.4734 157.476 52.4039 157.523 52.3323 157.572C51.7593 157.974 51.408 158.624 51.3055 159.288C51.2121 160.23 51.1902 161.175 51.1682 162.121C51.1659 162.216 51.1637 162.31 51.1613 162.408C51.1 165.007 51.0974 167.606 51.0983 170.206C51.0985 170.546 51.0985 170.887 51.0985 171.227C51.0985 174.884 51.1219 178.54 51.2079 182.196C51.2148 182.487 51.2213 182.777 51.2279 183.067C51.3132 187.119 51.3132 187.119 51.8035 191.141C51.8151 191.209 51.8266 191.276 51.8384 191.346C52.0519 192.591 52.335 193.818 52.7619 195.015C52.7943 195.109 52.8268 195.202 52.8602 195.298C52.8954 195.391 52.9306 195.484 52.9668 195.579C52.9982 195.664 53.0296 195.748 53.062 195.835C53.2487 196.12 53.4122 196.147 53.7476 196.251C53.9749 196.291 54.2037 196.324 54.4331 196.351C54.5714 196.368 54.7098 196.385 54.8523 196.403C55.0049 196.421 55.1574 196.439 55.31 196.457C55.4713 196.476 55.6326 196.496 55.7939 196.516C56.1419 196.558 56.49 196.6 56.8381 196.642C57.689 196.744 58.5396 196.848 59.3902 196.952C59.5881 196.976 59.786 197 59.9839 197.025C61.4108 197.198 62.8369 197.377 64.2623 197.561C64.3515 197.572 64.4408 197.584 64.5327 197.596C64.8937 197.642 65.2548 197.689 65.6158 197.736C75.1984 198.973 84.7931 200.145 95.8047 200.885C95.8796 201.19 95.9545 201.495 96.0293 201.8C96.1378 202.135 96.2254 202.365 96.4619 202.636C96.9927 202.814 97.4512 202.865 98.0123 202.855C98.0851 202.854 98.1579 202.853 98.233 202.852C98.54 202.849 98.8471 202.843 99.1541 202.837C100.551 202.814 101.904 202.896 103.259 203.247C103.389 203.28 103.519 203.313 103.653 203.346C104.694 203.668 104.694 203.668 105.005 204.077C105.23 204.608 105.328 205.178 105.114 205.725C104.7 206.103 104.312 206.232 103.755 206.315C103.634 206.333 103.634 206.333 103.511 206.353C102.534 206.49 101.555 206.492 100.57 206.486C100.254 206.484 99.9388 206.486 99.6233 206.488C96.6556 206.492 93.6994 206.132 90.7549 205.816C86.5533 205.365 82.346 204.976 78.1363 204.6C77.7614 204.566 77.3864 204.532 77.0114 204.499C76.9374 204.492 76.8634 204.486 76.7872 204.479C76.6382 204.465 76.4892 204.452 76.3402 204.439C76.1186 204.419 75.897 204.399 75.6754 204.379C75.384 204.353 75.0927 204.327 74.8013 204.301C74.5145 204.275 74.2277 204.25 73.9409 204.224C55.2154 202.548 55.2154 202.548 52.9257 200.256C52.3839 199.612 51.9933 198.861 51.9199 198.04C51.9057 197.895 51.9057 197.895 51.8913 197.747C51.8857 197.487 51.8857 197.487 51.9952 197.178C51.9026 197.159 51.81 197.14 51.7146 197.12C50.8697 196.788 50.4375 196.133 50.0614 195.372C46.355 186.387 48.2734 172.963 48.7027 162.037C48.7068 161.946 48.7109 161.854 48.7151 161.759C48.7569 160.846 48.8154 159.938 48.9268 159.03C48.9356 158.958 48.9444 158.886 48.9535 158.812C49.0751 157.889 49.3485 157.485 50.1265 156.914C51.5908 155.896 53.203 155.122 54.8063 154.318C55.1428 154.148 55.4782 153.977 55.8131 153.805C59.6384 151.837 63.5348 149.97 67.4984 148.262C68.0509 148.023 68.5992 147.778 69.146 147.528C70.7449 146.798 72.3727 146.134 74.0095 145.484C74.0827 145.455 74.1559 145.426 74.2312 145.396C78.8045 143.58 83.4338 141.911 88.2476 140.747C88.3493 140.722 88.4511 140.698 88.5559 140.672C90.7924 140.138 90.7924 140.138 91.7601 140.395Z" fill="#494A4A"/>
<path d="M109.167 100.277C110.012 100.957 110.583 101.752 111.138 102.646C111.199 102.742 111.26 102.838 111.323 102.937C111.698 103.58 111.933 104.249 112.151 104.95C112.192 105.079 112.192 105.079 112.233 105.211C112.595 106.439 112.712 107.669 112.706 108.94C112.705 109.135 112.705 109.135 112.704 109.334C112.654 113.081 111.071 116.194 109.221 119.431C107.072 123.189 107.072 123.189 106.434 127.38C106.436 127.491 106.436 127.491 106.438 127.603C106.442 127.813 106.449 128.023 106.457 128.232C106.42 128.7 106.263 128.957 105.915 129.284C105.238 129.646 104.457 129.665 103.697 129.69C103.594 129.694 103.492 129.697 103.386 129.701C103.049 129.712 102.713 129.721 102.376 129.729C102.256 129.732 102.137 129.734 102.013 129.738C101.648 129.745 101.283 129.75 100.918 129.754C100.805 129.757 100.692 129.759 100.576 129.761C99.8537 129.764 99.0415 129.747 98.4747 129.27C98.117 128.877 97.9799 128.62 97.9815 128.113C97.9811 127.985 97.9811 127.985 97.9807 127.854C97.9952 127.566 97.9952 127.566 98.0491 127.226C98.6008 123.447 96.4715 119.875 94.582 116.69C92.6937 113.506 90.8901 109.989 91.9753 106.274C92.9106 103.395 95.3284 101.323 98.0596 99.8877C99.3971 99.2192 100.888 98.6938 102.376 98.4238C102.5 98.4004 102.625 98.3771 102.753 98.353C105.218 98.1496 107.275 98.7939 109.167 100.277Z" fill="#494A4A"/>
<path d="M186.641 122.224C186.709 122.25 186.778 122.275 186.848 122.301C188.51 122.962 190.002 123.947 191.488 124.895C192.596 125.602 193.698 126.299 194.871 126.908C195.143 127.051 195.143 127.051 195.252 127.154C195.283 127.375 195.307 127.597 195.327 127.819C195.334 127.888 195.34 127.958 195.347 128.029C195.369 128.261 195.389 128.493 195.41 128.725C195.421 128.845 195.421 128.845 195.432 128.968C195.718 132.211 195.836 135.433 195.8 138.688C195.697 138.734 195.594 138.78 195.488 138.828C195.351 138.891 195.213 138.954 195.075 139.017C195.008 139.047 194.94 139.077 194.871 139.109C194.278 139.382 193.81 139.726 193.314 140.138C193.089 140.314 192.891 140.432 192.624 140.541C191.951 139.44 191.408 138.445 191.419 137.143C191.338 137.157 191.257 137.171 191.174 137.186C190.147 137.351 189.139 137.393 188.099 137.413C187.931 137.417 187.764 137.421 187.596 137.425C187.191 137.435 186.786 137.444 186.381 137.452C186.354 137.525 186.327 137.598 186.3 137.674C185.567 139.663 184.756 141.608 183.835 143.528C183.798 143.604 183.762 143.68 183.724 143.759C183.631 143.954 183.535 144.149 183.44 144.344C183.317 144.654 183.304 144.85 183.314 145.175C183.403 145.184 183.491 145.193 183.582 145.202C183.981 145.242 184.38 145.282 184.779 145.323C184.988 145.344 184.988 145.344 185.201 145.365C185.334 145.379 185.466 145.392 185.603 145.406C185.726 145.419 185.849 145.431 185.975 145.444C186.271 145.484 186.271 145.484 186.49 145.587C186.513 146.499 186.455 147.387 186.35 148.294C186.225 149.392 186.126 150.487 186.114 151.592C186.11 151.735 186.11 151.735 186.107 151.881C186.109 152.696 186.292 153.57 186.915 154.173C189.229 155.779 192.808 155.363 195.471 155.061C195.6 155.042 195.729 155.023 195.862 155.003C196.317 154.948 196.759 154.947 197.217 154.951C197.302 154.952 197.388 154.952 197.476 154.953C197.684 154.954 197.892 154.956 198.1 154.958C198.136 155.094 198.172 155.23 198.21 155.37C197.579 155.607 196.965 155.771 196.3 155.897C196.213 155.915 196.126 155.932 196.036 155.95C195.248 156.103 194.464 156.211 193.657 156.2C193.565 156.199 193.472 156.198 193.376 156.197C193.309 156.196 193.241 156.195 193.171 156.193C193.187 156.258 193.203 156.323 193.219 156.39C193.443 157.358 193.407 158.112 193.171 159.077C192.775 159.212 192.504 159.283 192.076 159.283C192.128 159.114 192.128 159.114 192.181 158.942C192.324 158.406 192.344 157.876 192.364 157.326C192.37 157.177 192.37 157.177 192.377 157.025C192.387 156.782 192.396 156.539 192.405 156.296C192.336 156.297 192.268 156.298 192.197 156.299C190.715 156.31 189.324 156.123 187.914 155.679C187.814 155.649 187.714 155.62 187.611 155.589C186.599 155.259 185.937 154.694 185.45 153.799C184.398 151.678 185.24 148.661 185.505 146.411C185.255 146.294 185.082 146.283 184.804 146.264C184.709 146.256 184.613 146.248 184.515 146.241C184.314 146.225 184.112 146.211 183.911 146.197C183.26 146.144 182.839 146.048 182.349 145.619C182.16 145.272 182.178 144.936 182.219 144.557C182.349 144.202 182.349 144.202 182.532 143.846C182.565 143.78 182.598 143.714 182.632 143.647C182.703 143.506 182.774 143.365 182.846 143.225C183.038 142.85 183.224 142.473 183.41 142.095C183.448 142.018 183.486 141.941 183.525 141.861C183.919 141.054 184.265 140.232 184.601 139.402C184.642 139.302 184.642 139.302 184.683 139.199C184.849 138.789 185.013 138.378 185.176 137.967C185.243 137.799 185.31 137.632 185.376 137.465C185.419 137.359 185.461 137.252 185.505 137.143C185.377 137.13 185.25 137.118 185.118 137.105C182.891 136.84 180.764 135.713 179.388 134.056C177.595 131.686 176.495 128.791 176.903 125.865C177.205 124.59 177.968 123.418 179.096 122.642C179.365 122.485 179.636 122.345 179.919 122.211C180.043 122.151 180.043 122.151 180.169 122.09C182.174 121.18 184.639 121.475 186.641 122.224ZM179.7 125.404C179.131 125.885 179.048 126.527 179.007 127.221C178.972 128.265 179.06 129.162 179.481 130.14C179.521 130.245 179.56 130.349 179.601 130.457C179.95 131.326 180.446 132.272 181.302 132.792C181.707 132.933 181.918 132.931 182.329 132.818C182.378 132.251 182.372 131.954 181.967 131.498C181.917 131.445 181.867 131.392 181.815 131.338C181.714 131.222 181.613 131.105 181.512 130.988C181.464 130.932 181.415 130.875 181.365 130.817C180.364 129.592 180.301 128.035 180.238 126.556C180.231 126.436 180.224 126.317 180.217 126.194C180.212 126.087 180.208 125.979 180.203 125.869C180.167 125.593 180.167 125.593 179.914 125.47C179.843 125.448 179.773 125.426 179.7 125.404Z" fill="#494A4A"/>
<path d="M93.8333 177.098C93.8257 177.375 93.7777 177.557 93.5769 177.764C93.371 177.933 93.1596 178.092 92.9434 178.25C92.8658 178.308 92.7883 178.366 92.7083 178.425C91.9453 178.987 91.1455 179.492 90.3285 179.981C92.3671 180.261 92.3671 180.261 94.4083 180.522C94.5331 180.537 94.6579 180.552 94.7865 180.568C94.9057 180.578 95.0248 180.588 95.1476 180.599C95.2193 180.606 95.2911 180.613 95.365 180.621C95.7863 180.646 96 180.614 96.3554 180.395C96.4633 180.301 96.5695 180.206 96.6741 180.11C97.233 179.63 97.8124 179.204 98.4333 178.797C98.5119 178.745 98.5906 178.693 98.6716 178.64C99.7701 177.921 99.7701 177.921 100.186 177.921C100.268 178.095 100.268 178.095 100.295 178.333C100.018 178.753 99.6202 179.055 99.2239 179.374C98.8888 179.643 98.5617 179.921 98.2335 180.198C97.9774 180.408 97.7133 180.606 97.4476 180.805C98.5026 180.935 99.5579 181.063 100.614 181.189C100.833 181.216 101.052 181.242 101.271 181.268C101.657 181.314 102.044 181.359 102.431 181.403C102.547 181.417 102.663 181.431 102.783 181.446C103.846 181.583 103.846 181.583 104.79 181.179C104.901 181.074 105.012 180.969 105.121 180.863C105.626 180.399 106.143 179.977 106.716 179.588C106.781 179.543 106.846 179.498 106.912 179.452C107.097 179.329 107.097 179.329 107.414 179.157C107.523 179.191 107.631 179.225 107.743 179.26C107.837 179.45 107.837 179.45 107.852 179.672C107.385 180.433 106.464 181.047 105.771 181.629C105.978 181.823 106.331 181.78 106.607 181.802C106.758 181.815 106.909 181.828 107.06 181.84C107.298 181.86 107.536 181.88 107.774 181.899C108.003 181.917 108.233 181.937 108.462 181.956C108.669 181.973 108.669 181.973 108.879 181.99C109.289 182.042 109.649 182.131 110.043 182.246C110.111 182.491 110.111 182.491 110.152 182.761C109.933 182.967 109.933 182.967 109.558 182.972C109.395 182.963 109.233 182.953 109.071 182.942C108.984 182.936 108.897 182.931 108.807 182.926C108.239 182.889 107.673 182.839 107.107 182.783C106.742 182.747 106.376 182.714 106.011 182.682C105.803 182.662 105.597 182.634 105.391 182.605C104.771 182.547 104.43 182.632 103.938 183.006C103.692 183.209 103.455 183.419 103.218 183.631C102.916 183.892 102.592 184.123 102.267 184.358C101.742 184.741 101.227 185.132 100.72 185.535C100.661 185.581 100.603 185.628 100.543 185.675C100.227 185.928 99.9296 186.191 99.6381 186.469C99.7566 186.473 99.8752 186.478 99.9974 186.484C101.224 186.539 102.437 186.647 103.656 186.784C103.916 186.813 104.176 186.842 104.437 186.87C104.596 186.887 104.756 186.905 104.915 186.923C105.743 187.047 105.743 187.047 106.533 186.881C106.588 186.834 106.642 186.787 106.698 186.739C106.789 186.663 106.789 186.663 106.882 186.586C106.973 186.505 106.973 186.505 107.065 186.423C107.879 185.733 107.879 185.733 108.619 185.748C108.691 185.884 108.764 186.02 108.838 186.16C108.485 186.503 108.117 186.828 107.743 187.151C107.652 187.229 107.562 187.306 107.469 187.386C106.62 188.052 105.85 187.972 104.796 187.883C103.899 187.8 103.004 187.701 102.109 187.601C101.706 187.557 101.302 187.513 100.898 187.469C100.648 187.442 100.399 187.414 100.149 187.387C99.1663 187.228 99.1663 187.228 98.2181 187.389C98.1623 187.435 98.1066 187.48 98.0491 187.526C97.9526 187.602 97.9526 187.602 97.8542 187.679C97.7546 187.762 97.7546 187.762 97.653 187.846C97.5083 187.96 97.3636 188.074 97.2187 188.188C97.1469 188.246 97.075 188.303 97.001 188.362C96.6937 188.604 96.377 188.834 96.058 189.062C95.9442 189.144 95.8304 189.226 95.7132 189.31C95.1615 189.704 94.6076 190.095 94.0524 190.485C94.6215 190.601 95.1875 190.7 95.7662 190.764C95.8694 190.775 95.9726 190.787 96.079 190.798C96.2911 190.821 96.5033 190.843 96.7156 190.864C97.481 190.951 97.481 190.951 97.8557 191.19C97.9952 191.411 97.9952 191.411 97.9492 191.631C97.9282 191.695 97.9073 191.758 97.8857 191.823C96.9713 191.854 96.085 191.735 95.1818 191.617C94.9531 191.588 94.7243 191.558 94.4954 191.529C94.2887 191.503 94.082 191.476 93.8754 191.449C93.0916 191.357 93.0916 191.357 92.4091 191.669C92.329 191.725 92.249 191.782 92.1666 191.84C92.0818 191.903 91.9971 191.965 91.9098 192.029C91.8205 192.093 91.7311 192.157 91.6391 192.222C91.3472 192.431 91.0569 192.642 90.7666 192.853C90.4551 193.077 90.1432 193.3 89.8312 193.524C89.6327 193.666 89.4346 193.809 89.2367 193.952C88.7705 194.288 88.304 194.614 87.8095 194.913C89.4285 195.145 91.0474 195.354 92.6765 195.511C92.8165 195.525 92.9565 195.539 93.1007 195.553C93.2316 195.566 93.3626 195.578 93.4975 195.59C93.6127 195.601 93.728 195.612 93.8468 195.623C94.629 195.648 94.958 195.36 95.5202 194.883C95.8611 194.672 96.0614 194.672 96.4619 194.707C96.4619 194.843 96.4619 194.978 96.4619 195.119C96.2702 195.294 96.2702 195.294 96.0238 195.453C95.9018 195.534 95.9018 195.534 95.7774 195.616C95.7141 195.656 95.6509 195.695 95.5857 195.736C95.7664 195.838 95.9471 195.94 96.1333 196.045C96.0375 196.444 96.0375 196.444 95.9143 196.56C95.7815 196.558 95.7815 196.558 95.646 196.557C94.5364 196.548 93.9575 196.939 93.1299 197.564C92.8898 197.743 92.6416 197.909 92.389 198.073C92.3151 198.122 92.2413 198.171 92.1652 198.222C91.9714 198.311 91.9714 198.311 91.6428 198.208C91.651 197.928 91.6955 197.748 91.9051 197.544C92.1076 197.388 92.3144 197.24 92.5259 197.094C92.5985 197.043 92.6711 196.991 92.746 196.938C92.9249 196.811 93.1052 196.685 93.2857 196.56C92.4096 196.456 91.5334 196.354 90.6571 196.251C90.5426 196.238 90.5426 196.238 90.4259 196.224C89.938 196.167 89.4502 196.11 88.9623 196.054C88.8012 196.035 88.6402 196.017 88.4792 195.998C88.251 195.971 88.0228 195.945 87.7945 195.919C87.6627 195.903 87.5309 195.888 87.3951 195.872C86.6553 195.803 86.3399 195.895 85.7491 196.322C85.613 196.416 85.4768 196.511 85.3405 196.605C85.2754 196.65 85.2102 196.696 85.1431 196.743C84.7982 196.983 84.4675 197.198 84.0857 197.384C83.8435 197.292 83.8435 197.292 83.6476 197.178C83.8171 196.763 84.1024 196.561 84.469 196.29C84.8937 195.976 84.8937 195.976 85.2905 195.633C84.4663 195.518 83.642 195.402 82.8177 195.287C82.5376 195.248 82.2575 195.209 81.9774 195.169C81.5737 195.113 81.1699 195.056 80.7662 195C80.5798 194.974 80.5798 194.974 80.3896 194.947C80.1571 194.914 79.9246 194.883 79.6919 194.852C79.4904 194.825 79.2892 194.796 79.0883 194.766C78.7258 194.716 78.4556 194.683 78.1097 194.81C78.0372 194.863 77.9646 194.916 77.8899 194.971C77.8076 195.03 77.7253 195.088 77.6405 195.148C77.517 195.242 77.517 195.242 77.391 195.337C77.3079 195.397 77.2247 195.457 77.1391 195.519C76.9757 195.637 76.8131 195.756 76.6512 195.876C76.3254 196.114 75.9899 196.337 75.6524 196.56C75.4355 196.458 75.4355 196.458 75.2143 196.354C75.3582 196.045 75.4969 195.865 75.7824 195.662C75.8499 195.613 75.9174 195.564 75.9869 195.514C76.0924 195.439 76.0924 195.439 76.2 195.363C76.3393 195.263 76.4784 195.163 76.6175 195.063C76.6792 195.019 76.7409 194.975 76.8045 194.93C76.9827 194.802 76.9827 194.802 77.1857 194.604C76.4743 194.446 75.7685 194.331 75.044 194.242C74.9364 194.229 74.8288 194.216 74.718 194.202C74.4918 194.174 74.2656 194.146 74.0393 194.118C73.6962 194.076 73.3534 194.033 73.0105 193.989C72.7893 193.962 72.5682 193.935 72.347 193.908C72.2461 193.895 72.1452 193.882 72.0412 193.869C70.8038 193.684 70.8038 193.684 69.6307 193.942C69.511 194.05 69.511 194.05 69.389 194.16C69.3002 194.234 69.2114 194.309 69.1199 194.386C68.9922 194.494 68.9922 194.494 68.8619 194.604C68.7052 194.711 68.5457 194.814 68.3827 194.913C68.3164 194.953 68.25 194.993 68.1816 195.035C67.9857 195.119 67.9857 195.119 67.5476 195.119C67.598 194.649 67.7542 194.475 68.1363 194.179C68.4261 193.951 68.7092 193.727 68.9714 193.471C68.8905 193.472 68.8096 193.473 68.7263 193.475C67.9611 193.481 67.2129 193.447 66.4524 193.368C66.3908 193.168 66.3908 193.168 66.3428 192.956C66.379 192.922 66.4151 192.888 66.4524 192.853C66.7 192.854 66.9476 192.862 67.1951 192.872C67.3499 192.876 67.5048 192.88 67.6597 192.884C67.9038 192.891 68.1475 192.898 68.3914 192.91C69.5421 192.974 69.5421 192.974 70.5253 192.465C70.6667 192.322 70.8062 192.177 70.9428 192.029C71.141 191.882 71.3414 191.738 71.5452 191.598C71.6553 191.522 71.7655 191.445 71.8789 191.366C71.9684 191.304 71.9684 191.304 72.0597 191.241C72.5257 190.914 72.9855 190.58 73.4467 190.247C73.5212 190.193 73.5956 190.14 73.6724 190.084C73.7454 190.032 73.8185 189.979 73.8938 189.925C74.0504 189.813 74.208 189.702 74.3665 189.593C74.4458 189.538 74.5251 189.483 74.6067 189.427C74.6786 189.378 74.7505 189.329 74.8246 189.278C75.0102 189.152 75.0102 189.152 75.1047 188.94C74.9501 188.944 74.9501 188.944 74.7924 188.947C74.656 188.949 74.5197 188.951 74.3791 188.953C74.2445 188.955 74.1098 188.958 73.971 188.96C73.5776 188.94 73.2793 188.868 72.9143 188.734C72.9143 188.632 72.9143 188.53 72.9143 188.425C73.2148 188.284 73.4219 188.334 73.7562 188.363C75.6577 188.486 75.6577 188.486 77.2815 187.666C77.5127 187.47 77.7383 187.271 77.9605 187.067C78.2759 186.788 78.6223 186.562 78.9791 186.333C79.1017 186.253 79.224 186.172 79.3462 186.091C79.4051 186.052 79.464 186.013 79.5247 185.972C79.9453 185.688 80.3541 185.388 80.764 185.09C81.019 184.924 81.019 184.924 81.2381 184.924C81.2381 184.856 81.2381 184.788 81.2381 184.718C81.1616 184.712 81.085 184.705 81.0062 184.699C80.8567 184.686 80.8567 184.686 80.7041 184.673C80.5555 184.66 80.5555 184.66 80.4038 184.648C80.1428 184.615 80.1428 184.615 79.9238 184.512C79.9238 184.376 79.9238 184.24 79.9238 184.1C80.104 184.097 80.2843 184.095 80.4646 184.094C80.5649 184.092 80.6653 184.091 80.7687 184.09C81.1285 184.1 81.1285 184.1 81.3592 184.142C81.8389 184.225 82.1333 184.239 82.5524 183.986C82.7004 183.883 82.8464 183.777 82.9905 183.669C83.1531 183.554 83.3158 183.439 83.4786 183.324C83.5609 183.265 83.6431 183.205 83.7279 183.144C84.1201 182.865 84.524 182.601 84.9277 182.337C85.7449 181.795 86.5585 181.249 87.3714 180.702C86.6124 180.668 85.8534 180.634 85.0714 180.599C85.0353 180.463 84.9991 180.327 84.9619 180.187C85.2662 179.901 86.0642 179.982 86.4716 179.978C86.6235 179.98 86.6235 179.98 86.7784 179.981C88.0538 179.988 88.8541 179.945 89.8183 179.096C90.1964 178.794 90.6264 178.559 91.0473 178.314C91.1373 178.261 91.2273 178.209 91.32 178.154C93.1974 177.06 93.1974 177.06 93.8333 177.098ZM88.364 181.12C88.2967 181.166 88.2294 181.212 88.1601 181.259C88.0123 181.36 87.8654 181.462 87.7193 181.566C87.3744 181.806 87.0207 182.033 86.6675 182.263C85.6473 182.926 84.6436 183.611 83.6476 184.306C83.6837 184.374 83.7199 184.442 83.7571 184.512C83.983 184.571 83.983 184.571 84.2601 184.602C84.3672 184.616 84.4744 184.63 84.5848 184.645C84.7016 184.66 84.8184 184.675 84.9388 184.69C85.1181 184.713 85.1181 184.713 85.3011 184.737C85.555 184.771 85.8089 184.803 86.0629 184.835C86.4504 184.885 86.8375 184.936 87.2247 184.987C87.4712 185.019 87.7178 185.051 87.9644 185.082C88.0799 185.097 88.1953 185.113 88.3143 185.128C89.369 185.305 89.369 185.305 90.3487 185.032C90.469 184.94 90.5877 184.846 90.705 184.75C90.7701 184.7 90.8352 184.649 90.9022 184.597C91.0416 184.489 91.1803 184.38 91.3184 184.27C91.6075 184.041 91.9008 183.817 92.1943 183.594C92.3421 183.481 92.4896 183.368 92.6369 183.255C93.2264 182.802 93.8287 182.368 94.4383 181.94C94.7281 181.738 94.7281 181.738 94.9285 181.423C94.2956 181.336 93.6625 181.25 93.0294 181.164C92.8145 181.135 92.5996 181.106 92.3848 181.077C91.7834 180.994 91.1818 180.914 90.5795 180.838C90.3654 180.81 90.1516 180.779 89.938 180.747C89.2838 180.664 88.8931 180.727 88.364 181.12ZM95.5515 182.111C95.4853 182.162 95.4192 182.212 95.351 182.265C95.2094 182.373 95.0682 182.482 94.9274 182.592C94.6377 182.817 94.3456 183.04 94.0536 183.263C93.9068 183.375 93.7603 183.487 93.6139 183.599C93.0462 184.035 92.4712 184.461 91.8895 184.88C91.5509 185.117 91.5509 185.117 91.3143 185.439C92.1294 185.586 92.9439 185.704 93.7674 185.8C93.8811 185.813 93.9948 185.827 94.1119 185.841C94.3499 185.869 94.5879 185.897 94.8259 185.924C95.1901 185.967 95.5541 186.01 95.9181 186.053C96.1504 186.08 96.3827 186.107 96.615 186.135C96.7234 186.148 96.8318 186.16 96.9435 186.174C97.0955 186.191 97.0955 186.191 97.2505 186.209C97.3833 186.225 97.3833 186.225 97.5188 186.24C98.1036 186.291 98.3698 186.275 98.8447 185.917C98.9078 185.868 98.9708 185.818 99.0357 185.767C99.1024 185.716 99.1692 185.665 99.238 185.613C99.4457 185.453 99.6517 185.292 99.8571 185.13C99.92 185.08 99.9829 185.031 100.048 184.98C100.347 184.744 100.644 184.507 100.941 184.269C101.265 184.009 101.594 183.755 101.924 183.502C102.373 183.158 102.82 182.814 103.252 182.452C103.252 182.418 103.252 182.384 103.252 182.349C102.419 182.255 101.586 182.161 100.753 182.068C100.366 182.024 99.9794 181.98 99.5926 181.937C99.1476 181.886 98.7025 181.836 98.2575 181.786C98.119 181.771 97.9804 181.755 97.8377 181.739C97.6437 181.717 97.6437 181.717 97.4458 181.695C97.3322 181.682 97.2186 181.669 97.1016 181.656C96.3933 181.594 96.0974 181.68 95.5515 182.111ZM82.0788 185.273C82.0008 185.329 81.9229 185.384 81.8426 185.441C81.7629 185.502 81.6831 185.563 81.6009 185.625C81.4279 185.75 81.2549 185.875 81.0819 185.999C80.9973 186.061 80.9126 186.124 80.8254 186.188C80.4821 186.437 80.1284 186.672 79.7732 186.906C79.5308 187.069 79.2891 187.232 79.0476 187.395C78.9839 187.438 78.9202 187.481 78.8546 187.526C78.6673 187.653 78.4809 187.781 78.2946 187.91C78.1865 187.985 78.0783 188.059 77.9669 188.135C77.8513 188.228 77.8513 188.228 77.7333 188.322C77.7333 188.39 77.7333 188.458 77.7333 188.528C77.8723 188.543 78.0113 188.557 78.1545 188.572C78.2468 188.582 78.3391 188.591 78.4342 188.601C78.5358 188.612 78.6374 188.622 78.7421 188.633C78.8468 188.644 78.9516 188.655 79.0595 188.667C79.1682 188.678 79.277 188.689 79.389 188.701C80.7367 188.842 80.7367 188.842 81.0647 188.876C81.2825 188.899 81.5002 188.921 81.7181 188.943C82.2248 188.994 82.7283 189.05 83.2315 189.127C84.2299 189.304 84.2299 189.304 85.1591 189.012C85.3604 188.845 85.3604 188.845 85.5437 188.657C85.6871 188.531 85.8308 188.406 85.9745 188.281C86.0777 188.186 86.0777 188.186 86.1828 188.09C86.483 187.824 86.8078 187.594 87.1387 187.363C87.7345 186.936 88.3219 186.499 88.9047 186.057C88.5951 185.897 88.3288 185.813 87.9801 185.763C87.8847 185.749 87.7892 185.735 87.6909 185.72C87.5884 185.706 87.4859 185.691 87.3804 185.676C87.274 185.661 87.1675 185.646 87.0579 185.63C86.8326 185.597 86.6074 185.565 86.382 185.533C86.0397 185.484 85.6975 185.435 85.3553 185.385C85.1359 185.353 84.9165 185.322 84.6971 185.29C84.5957 185.276 84.4944 185.261 84.39 185.246C84.1062 185.206 83.8222 185.168 83.5381 185.13C83.4022 185.109 83.4022 185.109 83.2635 185.088C82.6317 185 82.6317 185 82.0788 185.273ZM89.5687 186.604C89.5072 186.65 89.4458 186.696 89.3824 186.744C89.252 186.842 89.1221 186.94 88.9925 187.039C88.6741 187.282 88.3511 187.518 88.0285 187.756C87.9016 187.85 87.7747 187.944 87.6478 188.038C87.0484 188.48 86.4432 188.916 85.8381 189.352C86.1734 189.562 86.3343 189.602 86.7229 189.657C86.8363 189.673 86.9496 189.69 87.0664 189.707C87.1889 189.724 87.3115 189.741 87.4377 189.758C87.564 189.776 87.6903 189.794 87.8204 189.813C88.088 189.851 88.3557 189.888 88.6234 189.925C89.0314 189.982 89.4392 190.04 89.847 190.099C90.1072 190.136 90.3674 190.172 90.6276 190.209C90.8097 190.235 90.8097 190.235 90.9955 190.261C92.1429 190.462 92.1429 190.462 93.2147 190.174C93.3359 190.08 93.4554 189.984 93.5732 189.886C93.7065 189.782 93.8398 189.677 93.9732 189.573C94.0405 189.519 94.1079 189.465 94.1772 189.41C94.5005 189.154 94.8347 188.913 95.1681 188.67C95.6498 188.314 96.1293 187.956 96.6056 187.595C96.7507 187.485 96.7507 187.485 96.8987 187.372C97.1277 187.205 97.1277 187.205 97.2285 186.983C96.3955 186.876 95.5625 186.768 94.7293 186.661C94.3425 186.611 93.9556 186.562 93.5688 186.512C93.1238 186.454 92.6787 186.397 92.2337 186.34C92.0951 186.322 91.9566 186.304 91.8139 186.285C91.6846 186.269 91.5552 186.252 91.422 186.235C91.3084 186.221 91.1948 186.206 91.0778 186.191C90.3783 186.121 90.1282 186.177 89.5687 186.604ZM76.0708 189.418C75.988 189.477 75.9052 189.535 75.8199 189.596C75.733 189.66 75.6461 189.724 75.5565 189.789C75.4653 189.855 75.3741 189.92 75.2801 189.987C75.0924 190.121 74.9052 190.256 74.7185 190.392C74.3954 190.625 74.0691 190.855 73.7423 191.084C73.5272 191.235 73.3126 191.387 73.0982 191.538C72.8348 191.725 72.5707 191.911 72.3059 192.095C72.2454 192.137 72.1849 192.18 72.1225 192.223C71.9615 192.336 71.8002 192.448 71.6389 192.561C71.4251 192.718 71.2412 192.877 71.0524 193.059C71.1719 193.07 71.2914 193.081 71.4145 193.092C71.9715 193.143 72.5285 193.194 73.0854 193.246C73.1852 193.255 73.2851 193.264 73.388 193.274C74.672 193.393 75.9529 193.521 77.2306 193.691C77.471 193.723 77.7114 193.752 77.9524 193.78C78.0519 193.791 78.1514 193.803 78.254 193.815C78.6235 193.762 78.7992 193.582 79.075 193.349C79.1912 193.253 79.3077 193.158 79.4245 193.063C79.4871 193.012 79.5496 192.961 79.6141 192.908C79.969 192.628 80.3407 192.368 80.711 192.106C81.3928 191.621 82.0625 191.124 82.7235 190.613C82.805 190.551 82.8866 190.488 82.9706 190.423C83.0451 190.365 83.1195 190.308 83.1962 190.248C83.2955 190.171 83.2955 190.171 83.3967 190.092C83.4434 190.052 83.49 190.011 83.5381 189.97C83.5381 189.936 83.5381 189.902 83.5381 189.867C82.7212 189.772 81.9043 189.678 81.0874 189.585C80.708 189.541 80.3286 189.498 79.9493 189.454C79.5127 189.403 79.0761 189.353 78.6394 189.304C78.5039 189.288 78.3683 189.272 78.2287 189.256C78.1015 189.241 77.9744 189.227 77.8434 189.212C77.732 189.199 77.6206 189.186 77.5059 189.173C76.7358 189.101 76.7358 189.101 76.0708 189.418ZM84.0515 190.639C83.8829 190.762 83.7144 190.884 83.5458 191.007C83.456 191.072 83.3663 191.138 83.2738 191.205C82.7817 191.563 82.2872 191.919 81.7925 192.274C81.6994 192.341 81.6062 192.408 81.5103 192.478C80.8834 192.928 80.2448 193.359 79.5952 193.78C79.6314 193.848 79.6675 193.916 79.7047 193.986C79.9521 194.049 79.9521 194.049 80.2562 194.085C80.374 194.101 80.4918 194.118 80.6131 194.135C80.7415 194.152 80.87 194.169 81.0023 194.186C81.1338 194.204 81.2653 194.222 81.4007 194.241C81.6799 194.279 81.9592 194.316 82.2385 194.353C82.6644 194.41 83.09 194.468 83.5156 194.527C83.7868 194.564 84.0579 194.6 84.3291 194.637C84.456 194.654 84.5829 194.671 84.7137 194.689C85.803 194.876 85.803 194.876 86.8626 194.703C86.9315 194.654 87.0005 194.604 87.0715 194.553C87.1503 194.498 87.2291 194.443 87.3103 194.386C87.3914 194.326 87.4726 194.266 87.5562 194.205C87.6856 194.113 87.6856 194.113 87.8176 194.019C88.072 193.838 88.3243 193.655 88.5762 193.471C88.7037 193.379 88.8313 193.288 88.9591 193.196C89.1853 193.033 89.4109 192.87 89.6359 192.705C90.3339 192.196 91.0446 191.703 91.7524 191.205C91.4031 191.019 91.0906 190.949 90.6949 190.891C90.5707 190.872 90.4464 190.854 90.3184 190.835C90.118 190.806 90.118 190.806 89.9136 190.777C89.7761 190.756 89.6387 190.736 89.4971 190.715C89.2068 190.672 88.9164 190.63 88.626 190.588C88.2534 190.534 87.881 190.479 87.5086 190.425C87.1534 190.372 86.7982 190.32 86.443 190.268C86.2419 190.239 86.2419 190.239 86.0368 190.209C85.8515 190.182 85.8515 190.182 85.6624 190.154C85.5533 190.139 85.4442 190.123 85.3318 190.106C84.753 190.031 84.4905 190.316 84.0515 190.639Z" fill="#494A4A"/>
<path d="M185.245 77.6999C185.366 77.6999 185.366 77.6999 185.491 77.6998C187.991 77.7003 190.47 77.7231 192.952 78.0345C193.049 78.0465 193.145 78.0585 193.245 78.0709C196.428 78.4693 199.542 78.9505 202.59 79.9279C202.667 79.9526 202.744 79.9772 202.824 80.0026C203.052 80.1047 203.189 80.2264 203.357 80.403C203.285 80.5729 203.213 80.7428 203.138 80.9179C202.342 80.9549 201.671 80.8558 200.907 80.654C198.576 80.0757 196.194 79.6567 193.808 79.3411C193.638 79.3183 193.638 79.3183 193.465 79.2952C193.075 79.2468 192.686 79.2051 192.295 79.1673C192.158 79.1539 192.158 79.1539 192.019 79.1403C190.102 78.9598 188.192 78.9277 186.267 78.9348C186.028 78.9356 185.788 78.9361 185.549 78.9366C183.172 78.9416 180.805 78.9811 178.434 79.1487C178.147 79.1687 177.859 79.1874 177.571 79.2059C168.704 79.7793 159.867 80.9068 151.224 82.8744C151.133 82.895 151.042 82.9155 150.949 82.9367C147.625 83.6899 144.366 84.6397 141.104 85.5957C141.033 85.6164 140.962 85.6371 140.889 85.6584C140.209 85.8576 139.53 86.0579 138.853 86.2664C138.757 86.2958 138.661 86.3252 138.561 86.3555C138.39 86.4081 138.219 86.4614 138.048 86.5157C137.415 86.7097 136.907 86.7854 136.298 86.5064C136.208 86.4668 136.118 86.4272 136.025 86.3865C135.926 86.3425 135.828 86.2986 135.726 86.2533C132.623 84.9383 129.355 84.0557 126.033 83.3893C125.956 83.3736 125.878 83.358 125.798 83.3418C116.917 81.5642 107.729 80.6215 98.6857 79.9332C98.3079 79.9043 97.9303 79.8736 97.5528 79.841C92.2357 79.3819 86.7691 79.3585 81.4571 79.8881C81.3268 79.9009 81.3268 79.9009 81.1938 79.9139C77.6077 80.2668 74.0126 80.8165 70.52 81.6668C70.4226 81.6905 70.3253 81.7141 70.2249 81.7385C70.1431 81.7591 70.0612 81.7798 69.9769 81.801C69.71 81.8498 69.4616 81.8521 69.1905 81.8447C69.1543 81.7087 69.1182 81.5728 69.0809 81.4328C71.8868 79.6124 76.7183 79.3459 80.0333 78.9613C80.1683 78.9456 80.3034 78.9298 80.4425 78.9136C84.3277 78.475 88.244 78.3955 92.153 78.4434C92.3905 78.4462 92.628 78.4486 92.8655 78.4508C103.624 78.5739 114.454 80.0171 136.975 85.6302C137.539 85.8425 138.04 85.5309 138.579 85.3237C148.226 81.6617 158.664 79.9447 179.262 77.8286C179.34 77.8243 179.419 77.8199 179.5 77.8155C181.414 77.7123 183.328 77.7 185.245 77.6999Z" fill="#494A4A"/>
<path d="M68.0952 81.1238C68.2398 81.1578 68.3844 81.1917 68.5333 81.2268C68.5333 85.1687 68.5333 89.1106 68.5333 93.172C69.5815 92.8662 70.6296 92.5603 71.7095 92.2452C72.3241 92.0902 72.9316 91.9405 73.5509 91.8076C73.6266 91.7911 73.7023 91.7746 73.7803 91.7577C76.595 91.1484 79.4542 90.7971 82.3333 90.5976C82.4402 90.5901 82.4402 90.5901 82.5492 90.5825C84.3411 90.4623 86.1374 90.4739 87.9327 90.4753C88.014 90.4753 88.0952 90.4754 88.1789 90.4754C90.8726 90.4765 93.5551 90.5206 96.2428 90.7006C96.3489 90.7076 96.455 90.7145 96.5643 90.7217C99.6623 90.9265 102.755 91.1736 105.842 91.4973C106.1 91.5244 106.358 91.551 106.616 91.5777C127.085 93.7009 127.085 93.7009 136.548 97.9089C136.602 98.2307 136.602 98.2307 136.548 98.5268C136.475 98.5947 136.403 98.6627 136.329 98.7327C135.83 98.6959 135.413 98.546 134.956 98.363C134.816 98.3076 134.675 98.2523 134.535 98.197C134.461 98.1679 134.388 98.1387 134.312 98.1087C126.389 94.9795 117.797 94.1016 101.171 92.2452C101.09 92.2374 101.008 92.2297 100.923 92.2217C99.8525 92.1205 98.7809 92.0322 97.7077 91.9551C97.4311 91.9351 97.1545 91.9143 96.8779 91.8936C90.2812 91.406 83.7432 91.5171 77.1857 92.3482C77.0488 92.3654 76.9118 92.3827 76.7707 92.4005C75.2902 92.591 73.8249 92.8461 72.3598 93.1205C72.2807 93.1353 72.2016 93.1501 72.1201 93.1654C71.152 93.3475 70.1892 93.5453 69.2297 93.7647C68.6651 93.8928 68.6651 93.8928 68.4238 93.8928C68.4241 93.9969 68.4241 93.9969 68.4245 94.103C68.43 96.0601 68.4119 98.0164 68.3832 99.9732C68.3772 100.383 68.3715 100.794 68.3658 101.204C68.3524 102.164 68.3386 103.124 68.3249 104.084C68.2858 106.811 68.2477 109.537 68.2123 112.264C68.2072 112.651 68.2021 113.039 68.197 113.427C68.1047 120.367 68.0806 127.305 68.0873 134.245C68.0886 135.578 68.0892 136.91 68.0897 138.243C68.0908 140.965 68.0927 143.688 68.0952 146.411C67.5531 146.666 67.5531 146.666 67 146.926C66.7153 146.658 66.7541 146.473 66.7513 146.108C66.7517 146.022 66.7521 145.935 66.7526 145.845C66.7522 145.753 66.7518 145.66 66.7515 145.565C66.7505 145.251 66.7512 144.936 66.7519 144.621C66.7516 144.393 66.7513 144.164 66.7509 143.936C66.7503 143.298 66.7513 142.661 66.7527 142.024C66.7536 141.613 66.7541 141.202 66.7545 140.791C66.7648 131.519 66.8877 122.246 67.4997 90.5654C67.5029 90.4529 67.5061 90.3404 67.5094 90.2245C67.5727 88.0175 67.6464 85.8108 67.7493 83.6051C67.7582 83.4129 67.7668 83.2208 67.7751 83.0286C67.7865 82.7657 67.7992 82.5028 67.8124 82.2399C67.8171 82.1234 67.8171 82.1234 67.822 82.0044C67.8425 81.6266 67.8667 81.446 68.0952 81.1238Z" fill="#494A4A"/>
<path d="M89.2333 143.939C89.377 144.21 89.3605 144.414 89.3653 144.717C89.3675 144.839 89.3697 144.962 89.372 145.088C89.3738 145.226 89.3757 145.364 89.3775 145.502C89.3798 145.648 89.3821 145.794 89.3844 145.94C89.3907 146.346 89.3961 146.751 89.4012 147.157C89.4045 147.416 89.4079 147.675 89.4114 147.934C89.4975 154.487 89.5041 161.045 89.4045 167.598C89.4034 167.671 89.4023 167.745 89.4012 167.82C89.3783 169.37 89.3458 170.917 89.2333 172.464C89.145 172.476 89.0567 172.488 88.9656 172.5C88.8733 172.522 88.7809 172.544 88.6857 172.567C88.6534 172.644 88.621 172.722 88.5877 172.802C88.4167 173.197 88.1107 173.338 87.7342 173.545C87.6575 173.589 87.5808 173.632 87.5017 173.677C86.6314 174.167 85.7442 174.631 84.8592 175.098C84.1954 175.448 83.5378 175.809 82.8809 176.171C82.0386 176.635 81.1927 177.092 80.3414 177.542C78.2443 178.651 76.1689 179.795 74.1285 180.994C73.6399 181.281 73.1477 181.562 72.6547 181.842C71.2977 182.613 69.9594 183.41 68.6274 184.219C68.3534 184.385 68.0792 184.551 67.8047 184.717C61.8089 188.312 61.8089 188.312 56.2247 192.437C56.1294 192.515 56.1294 192.515 56.0321 192.594C55.9087 192.696 55.7861 192.797 55.6644 192.9C55.3261 193.177 55.0747 193.33 54.6238 193.368C54.3337 192.715 54.1912 192.091 54.083 191.392C54.0648 191.276 54.0465 191.16 54.0276 191.041C53.3846 186.835 53.0609 182.579 52.7961 178.34C52.7895 178.234 52.7828 178.127 52.776 178.018C52.6151 175.423 52.52 172.829 52.4744 170.23C52.4732 170.162 52.472 170.094 52.4707 170.024C52.4146 166.841 52.4305 163.665 52.7362 160.491C52.7528 160.309 52.7656 160.127 52.7739 159.944C52.7994 159.539 52.8305 159.335 53.0913 159.002C53.507 158.705 53.9359 158.46 54.3911 158.221C54.4894 158.169 54.5877 158.116 54.689 158.063C55.9509 157.4 57.2405 156.786 58.5274 156.168C59.075 155.904 59.6188 155.635 60.1616 155.363C62.0891 154.403 64.0489 153.495 66.0196 152.617C66.6255 152.346 67.2297 152.073 67.8321 151.796C69.8815 150.854 71.9443 149.946 74.0267 149.07C74.2178 148.99 74.4087 148.909 74.5997 148.828C78.8506 147.028 83.2233 145.518 87.6529 144.158C87.8987 144.082 88.1436 144.004 88.3874 143.922C88.7223 143.826 88.9039 143.833 89.2333 143.939ZM87.793 145.001C87.6981 145.03 87.6032 145.06 87.5053 145.091C87.4013 145.124 87.2972 145.157 87.19 145.191C87.0812 145.225 86.9725 145.26 86.8604 145.295C86.5012 145.409 86.1422 145.524 85.7833 145.638C85.5993 145.697 85.5993 145.697 85.4116 145.757C82.0666 146.829 78.7564 147.968 75.5452 149.358C75.1025 149.548 74.656 149.729 74.2095 149.91C72.7076 150.521 71.2368 151.187 69.7674 151.863C69.2485 152.102 68.7274 152.336 68.2058 152.569C66.845 153.178 65.4939 153.804 64.1465 154.439C63.7952 154.604 63.4437 154.769 63.0922 154.934C61.8859 155.501 60.6861 156.077 59.4945 156.671C59.0052 156.915 58.5134 157.154 58.0208 157.391C57.9013 157.449 57.9013 157.449 57.7794 157.508C57.4593 157.662 57.1391 157.816 56.8188 157.97C56.5782 158.086 56.3377 158.202 56.0972 158.318C56.0284 158.351 55.9596 158.384 55.8886 158.418C55.0968 158.8 54.3132 159.197 53.5286 159.592C53.4995 160.676 53.4709 161.76 53.4429 162.845C53.4299 163.349 53.4167 163.852 53.4031 164.356C53.3379 166.785 53.287 169.211 53.3095 171.64C53.3104 171.734 53.3113 171.829 53.3122 171.927C53.3179 172.46 53.3285 172.993 53.3437 173.526C53.346 173.606 53.3482 173.686 53.3506 173.769C53.531 179.954 54.1422 186.124 55.1714 192.235C55.5114 192.083 55.7237 191.937 55.9792 191.675C56.5423 191.132 57.1754 190.685 57.813 190.224C58.0167 190.074 58.2176 189.922 58.4178 189.769C59.2574 189.126 60.1159 188.52 61.0062 187.94C61.3448 187.719 61.6825 187.496 62.0193 187.273C63.3083 186.418 64.6132 185.589 65.9321 184.776C66.0295 184.716 66.1269 184.655 66.2272 184.593C67.6573 183.71 69.0939 182.839 70.5522 181.997C70.8336 181.834 71.1142 181.67 71.3946 181.506C73.5303 180.256 75.6809 179.028 77.8429 177.818C77.927 177.771 78.0111 177.724 78.0978 177.676C80.4465 176.362 82.8121 175.077 85.2002 173.828C85.6099 173.614 86.018 173.397 86.4246 173.178C86.5596 173.106 86.5596 173.106 86.6974 173.032C86.8621 172.944 87.0264 172.855 87.1902 172.765C87.2992 172.707 87.2992 172.707 87.4104 172.648C87.4721 172.615 87.5338 172.581 87.5974 172.547C87.8095 172.464 87.8095 172.464 88.4667 172.361C88.4667 163.287 88.4667 154.214 88.4667 144.866C88.2119 144.866 88.0349 144.924 87.793 145.001Z" fill="#494A4A"/>
<path d="M94.541 157.724C94.6425 157.724 94.744 157.724 94.8486 157.724C94.9543 157.724 95.06 157.724 95.1689 157.724C95.52 157.724 95.8712 157.724 96.2223 157.725C96.4045 157.726 96.4045 157.726 96.5903 157.726C106.045 157.743 115.544 158.213 137.424 161.548C137.46 161.65 137.496 161.752 137.533 161.857C137.635 161.831 137.736 161.804 137.841 161.777C147.64 159.269 158.407 158.838 169.59 158.234C169.666 158.23 169.742 158.226 169.821 158.222C170.285 158.199 170.749 158.179 171.214 158.161C171.403 158.153 171.593 158.145 171.783 158.137C174.317 158.025 176.85 158.027 179.386 158.028C179.744 158.028 180.102 158.028 180.459 158.027C184.044 158.027 187.62 158.071 191.2 158.253C191.2 158.627 191.2 159.001 191.2 159.386C191.057 159.379 190.914 159.373 190.767 159.367C183.443 159.056 176.069 159.003 168.748 159.386C168.616 159.392 168.484 159.399 168.349 159.406C159.353 159.869 150.408 160.783 141.501 162.054C141.398 162.069 141.294 162.083 141.187 162.099C140.723 162.165 140.259 162.233 139.796 162.302C137.797 162.599 137.797 162.599 137.314 162.372C137.24 162.39 137.165 162.409 137.088 162.428C136.628 162.496 136.233 162.399 135.781 162.308C135.578 162.269 135.375 162.23 135.173 162.191C135.066 162.17 134.959 162.149 134.848 162.128C124.944 160.205 114.804 159.381 93.8333 158.871C93.8121 158.701 93.7917 158.532 93.7717 158.362C93.7603 158.268 93.7489 158.174 93.7371 158.076C93.7327 157.999 93.7283 157.921 93.7238 157.841C93.9364 157.641 94.258 157.725 94.541 157.724Z" fill="#494A4A"/>
<path d="M154.538 124.652C154.692 124.651 154.846 124.649 155.001 124.646C158.189 124.582 161.409 125.291 164.534 125.815C164.953 125.885 165.371 125.954 165.79 126.023C166.199 126.09 166.609 126.158 167.019 126.227C167.211 126.259 167.403 126.291 167.596 126.322C168.528 126.476 169.456 126.639 170.377 126.842C170.515 126.872 170.652 126.903 170.794 126.934C171.175 127.057 171.409 127.209 171.705 127.463C171.669 128.011 171.343 128.337 170.938 128.699C170.637 128.93 170.333 129.156 170.025 129.378C169.544 129.725 169.081 130.087 168.624 130.462C166.747 131.994 166.747 131.994 166.338 131.994C166.993 133.28 168.077 134.348 169.038 135.439C171.705 138.48 171.705 138.48 171.705 138.996C171.813 139.03 171.922 139.064 172.033 139.099C172.081 139.312 172.081 139.312 172.033 139.614C171.592 140.172 170.942 140.591 170.371 141.023C170.077 141.25 169.795 141.484 169.514 141.725C169.05 142.123 168.57 142.498 168.081 142.87C167.734 143.137 167.392 143.409 167.05 143.682C166.51 144.113 165.966 144.541 165.415 144.96C165.227 145.103 165.042 145.249 164.859 145.396C164.773 145.463 164.688 145.531 164.599 145.6C164.525 145.659 164.451 145.719 164.374 145.781C164.148 145.896 164.148 145.896 163.872 145.886C163.556 145.778 163.406 145.655 163.176 145.426C163.1 145.351 163.024 145.276 162.946 145.199C162.684 144.928 162.427 144.655 162.173 144.377C161.961 144.149 161.743 143.927 161.524 143.705C160.91 143.082 160.331 142.44 159.767 141.777C159.659 141.652 159.552 141.527 159.444 141.402C158.797 140.65 158.17 139.89 157.576 139.099C157.22 139.245 156.994 139.421 156.727 139.685C156.382 140.018 156.028 140.326 155.652 140.627C155.438 140.806 155.232 140.988 155.027 141.176C153.952 142.153 152.743 143.204 151.333 143.733C151.04 143.689 151.04 143.689 150.786 143.63C150.67 139.339 151.051 135.033 151.326 130.751C151.34 130.536 151.354 130.32 151.367 130.105C151.529 127.559 151.529 127.559 151.655 126.377C151.661 126.304 151.668 126.232 151.675 126.157C151.737 125.635 151.895 125.274 152.305 124.914C152.958 124.553 153.803 124.656 154.538 124.652ZM152.867 125.609C152.827 125.925 152.794 126.238 152.765 126.555C152.756 126.655 152.746 126.756 152.737 126.859C152.618 128.161 152.522 129.464 152.426 130.767C152.405 131.058 152.383 131.349 152.362 131.639C152.311 132.325 152.26 133.011 152.21 133.697C152.158 134.401 152.106 135.104 152.054 135.808C152.008 136.417 151.963 137.027 151.918 137.636C151.892 137.998 151.865 138.36 151.838 138.721C151.808 139.124 151.778 139.526 151.749 139.929C151.74 140.046 151.731 140.163 151.722 140.284C151.669 141.023 151.652 141.757 151.662 142.498C152.37 142.028 152.992 141.495 153.623 140.94C153.875 140.719 154.13 140.505 154.393 140.296C154.676 140.068 154.941 139.828 155.201 139.577C155.301 139.482 155.301 139.482 155.402 139.385C155.534 139.258 155.664 139.131 155.794 139.003C156.224 138.587 156.671 138.192 157.248 137.967C157.806 138.02 158.121 138.482 158.459 138.868C158.552 138.971 158.552 138.971 158.646 139.076C158.775 139.219 158.903 139.362 159.03 139.505C159.319 139.829 159.611 140.15 159.904 140.47C159.958 140.53 160.012 140.589 160.068 140.651C160.471 141.093 160.882 141.528 161.299 141.959C161.502 142.171 161.703 142.385 161.902 142.601C162.273 143 162.65 143.394 163.028 143.787C163.368 144.144 163.704 144.504 164.038 144.866C164.602 144.494 165.093 144.093 165.574 143.629C165.921 143.301 166.293 143.003 166.667 142.704C166.918 142.502 167.169 142.3 167.42 142.099C167.486 142.045 167.553 141.992 167.622 141.936C168.009 141.624 168.391 141.308 168.768 140.985C169.462 140.393 170.184 139.829 170.938 139.305C170.774 138.95 170.554 138.706 170.274 138.424C169.741 137.876 169.243 137.308 168.748 136.731C168.636 136.602 168.523 136.473 168.411 136.344C168.047 135.925 167.685 135.504 167.324 135.083C167.267 135.018 167.211 134.953 167.153 134.885C166.403 134.014 165.672 133.154 165.243 132.097C166.168 131.015 167.305 130.101 168.453 129.235C168.97 128.836 169.473 128.417 169.952 127.978C169.952 127.944 169.952 127.91 169.952 127.875C168.787 127.668 167.621 127.462 166.455 127.257C165.914 127.162 165.372 127.066 164.83 126.97C162.73 126.598 160.63 126.227 158.517 125.925C158.376 125.905 158.236 125.885 158.092 125.864C155.383 125.336 155.383 125.336 152.867 125.609Z" fill="#494A4A"/>
<path d="M201.824 128.699C202.5 128.809 202.924 129.143 203.467 129.523C203.564 129.586 203.661 129.65 203.761 129.716C205.301 131.046 206.008 132.939 206.444 134.807C206.461 134.878 206.478 134.95 206.496 135.024C206.853 136.666 206.903 138.318 206.896 139.988C206.896 140.144 206.896 140.144 206.895 140.304C206.89 141.848 206.839 143.345 206.533 144.866C206.514 144.972 206.494 145.077 206.474 145.186C206.182 146.751 205.733 148.246 205.199 149.751C205.17 149.833 205.141 149.914 205.111 149.998C205.028 150.231 204.943 150.464 204.858 150.697C204.833 150.766 204.808 150.835 204.783 150.907C204.583 151.444 204.416 151.857 203.905 152.177C203.609 152.198 203.609 152.198 203.282 152.19C203.173 152.188 203.064 152.187 202.952 152.185C202.869 152.182 202.786 152.18 202.7 152.177C202.407 155.343 202.407 155.343 202.919 158.459C202.933 158.761 202.933 158.761 202.919 158.974C202.314 159.012 202.314 159.012 202.087 158.848C201.587 158.253 201.53 157.338 201.495 156.605C201.489 156.485 201.484 156.365 201.478 156.242C201.437 154.909 201.633 153.599 201.824 152.28C201.727 152.264 201.631 152.248 201.532 152.231C200.248 151.989 200.248 151.989 199.852 151.457C199.816 151.355 199.78 151.253 199.743 151.148C199.858 151.097 199.973 151.045 200.092 150.993C202.244 150.021 203.613 148.722 204.439 146.591C205.035 144.756 205.087 142.833 204.21 141.074C203.89 140.539 203.497 139.966 202.964 139.597C202.728 139.31 202.761 139.01 202.761 138.661C202.76 138.587 202.758 138.512 202.757 138.435C202.754 138.275 202.752 138.114 202.751 137.954C202.746 137.53 202.736 137.106 202.726 136.682C202.724 136.597 202.722 136.513 202.72 136.425C202.658 133.825 202.248 131.265 201.824 128.699Z" fill="#494A4A"/>
<path d="M213.374 91.415C214.29 91.4933 215.196 91.6053 216.103 91.7409C216.338 91.7758 216.574 91.8096 216.809 91.8432C216.96 91.8655 217.112 91.8878 217.263 91.9102C217.398 91.93 217.533 91.9499 217.672 91.9703C218.446 92.1181 218.446 92.1181 218.69 92.3482C218.793 93.4332 218.587 94.5325 218.43 95.6049C218.408 95.7561 218.408 95.7561 218.386 95.9104C217.533 101.758 216.25 107.536 215.033 113.324C212.898 123.455 212.898 123.455 211.435 133.687C211.426 133.762 211.418 133.837 211.409 133.915C211.042 137.222 210.985 140.542 210.958 143.864C210.954 144.386 210.948 144.908 210.943 145.43C210.932 146.443 210.923 147.457 210.914 148.47C210.77 148.538 210.625 148.606 210.476 148.676C210.209 148.425 210.213 148.315 210.168 147.967C210.147 147.812 210.147 147.812 210.126 147.654C210.113 147.545 210.1 147.437 210.086 147.325C210.065 147.17 210.065 147.17 210.044 147.012C208.951 138.473 210.614 129.63 212.18 121.239C212.203 121.114 212.226 120.99 212.25 120.862C212.755 118.158 213.304 115.463 213.86 112.768C214.139 111.421 214.414 110.073 214.689 108.725C214.716 108.593 214.743 108.461 214.77 108.325C215.712 103.705 216.58 99.0741 217.34 94.4238C217.363 94.2882 217.363 94.2882 217.386 94.1497C217.406 94.0255 217.406 94.0255 217.426 93.8987C217.438 93.8274 217.449 93.7562 217.461 93.6828C217.494 93.4466 217.494 93.4466 217.486 93.0691C217.369 93.0452 217.253 93.0213 217.132 92.9967C216.699 92.9077 216.265 92.8182 215.831 92.7284C215.644 92.6897 215.456 92.6512 215.269 92.6128C214.999 92.5575 214.729 92.5016 214.459 92.4456C214.334 92.4201 214.334 92.4201 214.206 92.3942C213.786 92.3065 213.382 92.2186 212.995 92.0393C212.893 91.8334 212.893 91.8334 212.886 91.6274C213.105 91.4214 213.105 91.4214 213.374 91.415Z" fill="#494A4A"/>
<path d="M212.119 88.1262C212.395 88.3859 212.365 88.5459 212.366 88.9003C212.365 88.9809 212.364 89.0616 212.363 89.1447C212.362 89.2738 212.362 89.2738 212.361 89.4056C212.342 90.6544 212.25 91.9005 212.16 93.1463C212.155 93.214 212.15 93.2818 212.145 93.3516C211.632 100.57 210.681 107.745 209.738 114.923C208.88 121.458 208.07 127.994 207.629 134.568C207.556 134.534 207.484 134.5 207.409 134.465C207.329 134.223 207.26 133.985 207.197 133.738C207.084 133.31 206.973 132.893 206.78 132.49C206.43 131.666 206.65 130.6 206.732 129.736C206.742 129.63 206.751 129.524 206.761 129.415C206.794 129.063 206.828 128.71 206.862 128.358C206.874 128.232 206.886 128.106 206.898 127.977C207.356 123.24 207.97 118.518 208.581 113.797C210.094 102.143 210.094 102.143 211.058 90.4385C211.063 90.3553 211.068 90.2722 211.073 90.1865C211.085 89.9758 211.096 89.765 211.107 89.5543C211.133 89.2589 211.133 89.2589 211.243 89.053C208.912 88.8048 206.576 88.6389 204.233 88.5381C204.197 88.3682 204.161 88.1983 204.124 88.0232C205.992 86.852 210.086 87.5635 212.119 88.1262Z" fill="#494A4A"/>
<path d="M198.812 126.71C198.932 126.706 198.932 126.706 199.055 126.701C199.628 126.695 199.953 126.79 200.4 127.154C200.895 127.683 200.963 128.243 201.064 128.918C201.082 129.031 201.1 129.143 201.118 129.26C201.523 131.885 201.818 134.552 201.835 137.207C201.836 137.376 201.838 137.546 201.84 137.716C201.844 138.045 201.842 138.373 201.838 138.703C201.813 139.458 201.813 139.458 202.092 140.142C202.286 140.299 202.286 140.299 202.5 140.42C202.836 140.623 203.012 140.923 203.22 141.236C203.261 141.294 203.302 141.351 203.344 141.41C203.925 142.267 204.076 143.162 204.069 144.165C204.068 144.268 204.068 144.372 204.067 144.478C204.027 146.071 203.347 147.63 202.152 148.779C200.847 149.916 199.335 150.488 197.56 150.452C195.81 150.32 194.454 149.54 193.281 148.351C192.177 147.116 191.98 145.75 192.052 144.199C192.18 142.829 193.065 141.752 194.048 140.798C194.303 140.618 194.501 140.578 194.814 140.541C194.89 140.727 194.89 140.727 194.924 140.953C194.79 141.115 194.79 141.115 194.588 141.275C193.656 142.099 193.149 143.213 193.024 144.405C192.985 145.841 193.349 147.012 194.384 148.088C195.317 148.927 196.513 149.377 197.799 149.429C198.938 149.397 199.914 149.089 200.838 148.47C201.014 148.352 201.014 148.352 201.194 148.232C201.59 147.869 201.87 147.474 202.152 147.029C202.194 146.963 202.236 146.897 202.279 146.829C203.023 145.554 203.122 144.074 202.704 142.688C202.312 141.672 201.637 140.922 200.626 140.406C199.372 139.877 198.108 139.957 196.827 140.38C196.503 140.497 196.191 140.613 195.885 140.766C195.611 140.884 195.426 140.821 195.143 140.747C195.109 140.517 195.109 140.517 195.143 140.232C195.375 140.005 195.375 140.005 195.677 139.795C195.776 139.724 195.875 139.653 195.977 139.581C196.238 139.408 196.238 139.408 196.457 139.305C196.501 136.238 196.387 133.183 196.015 130.133C195.787 128.216 195.787 128.216 196.012 127.399C196.651 126.707 197.901 126.721 198.812 126.71ZM196.895 127.772C196.771 128.384 196.804 128.939 196.867 129.557C196.877 129.659 196.886 129.761 196.896 129.866C196.927 130.191 196.959 130.517 196.991 130.842C197.199 132.987 197.352 135.104 197.34 137.259C197.34 137.439 197.339 137.619 197.339 137.799C197.338 138.232 197.336 138.666 197.333 139.099C197.396 139.098 197.459 139.096 197.524 139.095C197.816 139.088 198.109 139.084 198.401 139.08C198.5 139.078 198.599 139.075 198.7 139.072C199.49 139.064 200.191 139.201 200.948 139.408C201.026 136.279 200.755 133.18 200.345 130.076C200.334 129.99 200.323 129.903 200.312 129.814C200.28 129.57 200.246 129.325 200.212 129.081C200.203 129.009 200.193 128.938 200.184 128.864C200.118 128.414 199.991 128.059 199.743 127.669C198.951 127.297 197.722 127.618 196.895 127.772Z" fill="#494A4A"/>
<path d="M203.357 81.0209C203.538 81.0549 203.719 81.0888 203.905 81.1239C204.031 84.1057 204.037 87.0879 204.047 90.0716C204.049 90.8107 204.052 91.5497 204.055 92.2887C204.061 93.7893 204.066 95.2899 204.071 96.7905C204.075 97.9315 204.079 99.0725 204.083 100.214C204.114 108.766 204.14 117.318 204.124 127.669C203.727 127.497 203.37 127.31 203.029 127.051C202.944 126.742 202.944 126.742 202.941 126.364C202.939 126.256 202.939 126.256 202.937 126.146C202.933 125.895 202.933 125.645 202.934 125.394C202.932 125.205 202.93 125.017 202.927 124.828C202.921 124.26 202.92 123.692 202.92 123.125C202.919 122.701 202.917 122.278 202.915 121.855C202.903 119.515 202.901 117.174 202.901 114.834C202.901 114.223 202.9 113.611 202.9 113C202.899 110.969 202.899 108.938 202.899 106.907C202.899 106.798 202.899 106.69 202.899 106.578C202.899 106.469 202.899 106.36 202.899 106.248C202.899 104.484 202.898 102.719 202.896 100.954C202.895 99.1297 202.894 97.3052 202.894 95.4807C202.894 94.4613 202.894 93.442 202.893 92.4226C202.892 91.556 202.891 90.6893 202.892 89.8226C202.892 89.3825 202.892 88.9424 202.891 88.5023C202.888 86.766 202.912 85.0357 203.017 83.3017C203.021 83.2273 203.025 83.1529 203.029 83.0763C203.042 82.8659 203.055 82.6557 203.07 82.4455C203.078 82.3265 203.085 82.2076 203.094 82.0851C203.142 81.7094 203.237 81.3815 203.357 81.0209Z" fill="#494A4A"/>
<path d="M100.076 107.589C100.462 107.783 100.769 108.004 101.062 108.309C101.141 108.242 101.22 108.174 101.301 108.104C101.848 107.76 102.516 107.822 103.143 107.898C103.499 108.027 103.723 108.229 103.978 108.496C104.028 108.536 104.077 108.577 104.129 108.618C104.462 108.589 104.609 108.489 104.895 108.309C105.43 108.229 105.855 108.221 106.305 108.515C107.064 109.523 107.287 110.477 107.195 111.708C107 112.764 106.478 113.62 105.854 114.501C104.648 116.228 104.648 116.228 104.019 118.195C104 118.3 103.98 118.405 103.96 118.513C103.776 119.629 103.77 120.733 103.777 121.861C103.779 122.184 103.78 122.506 103.78 122.829C103.782 124.102 103.823 125.369 103.91 126.639C103.765 126.639 103.62 126.639 103.471 126.639C102.913 125.151 102.882 123.623 102.89 122.063C102.89 121.973 102.89 121.883 102.89 121.79C102.905 117.736 102.905 117.736 103.8 116.239C103.847 116.157 103.894 116.075 103.943 115.991C104.183 115.597 104.448 115.22 104.719 114.845C105.797 113.353 106.744 111.949 106.37 110.075C106.178 109.4 106.178 109.4 105.662 108.927C105.238 108.944 104.937 109.055 104.567 109.236C104.606 109.317 104.646 109.398 104.686 109.482C105.048 110.28 105.297 111.042 105.114 111.914C104.924 112.196 104.793 112.383 104.461 112.512C104.081 112.546 103.847 112.549 103.485 112.416C103.144 112.133 103.053 111.843 102.993 111.423C102.976 110.723 103.08 110.264 103.472 109.664C103.6 109.45 103.6 109.45 103.567 109.222C103.411 108.909 103.168 108.829 102.844 108.69C102.43 108.571 102.138 108.626 101.719 108.721C101.481 108.905 101.481 108.905 101.466 109.14C101.497 109.416 101.555 109.576 101.664 109.828C101.952 110.602 102.025 111.639 101.709 112.412C101.554 112.646 101.38 112.851 101.171 113.046C100.925 113.085 100.925 113.085 100.624 113.046C100.198 112.728 100.039 112.516 99.9667 112.017C99.909 111.054 99.9875 110.163 100.336 109.256C100.444 108.922 100.444 108.922 100.24 108.631C99.9071 108.365 99.748 108.293 99.3095 108.309C98.7445 108.622 98.5794 108.922 98.3886 109.498C98.2863 109.898 98.2795 110.281 98.2896 110.691C98.2909 110.776 98.2922 110.861 98.2936 110.949C98.3388 112.826 98.8748 114.532 99.5145 116.293C99.6658 116.731 99.7854 117.172 99.8991 117.62C100.008 118.05 100.135 118.472 100.291 118.89C101.243 121.699 101.475 125.598 100.405 128.39C100.296 128.424 100.188 128.458 100.076 128.493C100.078 128.423 100.079 128.354 100.081 128.282C100.215 123.509 100.215 123.509 99.4191 118.813C99.3699 118.635 99.3699 118.635 99.3197 118.453C99.1185 117.743 98.8922 117.042 98.6524 116.342C98.6085 116.208 98.565 116.074 98.5219 115.94C98.3843 115.513 98.2429 115.087 98.0984 114.662C97.4524 112.74 96.9767 110.428 97.8857 108.515C98.3658 107.732 99.1493 107.445 100.076 107.589Z" fill="#494A4A"/>
<path d="M100.299 129.737C100.496 129.741 100.496 129.741 100.698 129.744C100.973 129.749 101.248 129.754 101.524 129.759C101.947 129.767 102.37 129.774 102.794 129.781C103.062 129.786 103.33 129.79 103.598 129.795C103.725 129.797 103.852 129.799 103.983 129.801C104.158 129.805 104.158 129.805 104.337 129.809C104.439 129.811 104.542 129.813 104.648 129.814C104.895 129.831 104.895 129.831 105.114 129.934C105.114 130.07 105.114 130.206 105.114 130.346C104.133 130.635 103.189 130.67 102.167 130.677C101.914 130.68 101.661 130.683 101.407 130.686C101.011 130.69 100.615 130.694 100.219 130.697C99.8348 130.699 99.4505 130.704 99.0661 130.709C98.8893 130.71 98.8893 130.71 98.7089 130.71C98.06 130.72 97.5798 130.767 97.0095 131.067C96.7589 131.347 96.6785 131.487 96.6878 131.852C96.8192 132.165 96.9092 132.252 97.2286 132.406C98.451 132.644 99.7611 132.514 100.996 132.43C102.59 132.334 102.59 132.334 103.033 132.612C102.965 132.805 102.965 132.805 102.814 133.024C102.238 133.261 101.647 133.293 101.028 133.339C100.919 133.348 100.81 133.356 100.699 133.365C99.7283 133.437 98.7572 133.476 97.7844 133.503C97.6751 133.507 97.5658 133.51 97.4532 133.513C97.3568 133.516 97.2604 133.518 97.1611 133.521C96.9153 133.538 96.6983 133.578 96.4619 133.642C96.4619 133.879 96.4619 134.117 96.4619 134.362C97.4584 134.714 98.4707 134.693 99.5217 134.697C99.6558 134.699 99.7898 134.701 99.928 134.704C100.621 134.706 101.208 134.678 101.853 134.431C102.105 134.342 102.329 134.338 102.595 134.362C102.649 134.617 102.649 134.617 102.705 134.877C102.001 135.491 101.353 135.632 100.391 135.611C100.308 135.61 100.226 135.609 100.141 135.609C99.8797 135.606 99.6186 135.602 99.3574 135.598C99.0128 135.593 98.6681 135.589 98.3234 135.585C98.2063 135.583 98.2063 135.583 98.0869 135.58C97.6112 135.576 97.2324 135.639 96.7905 135.804C96.7672 136.097 96.7672 136.097 96.9 136.422C98.1591 137.552 101.006 137.385 102.606 137.365C105.129 137.362 105.129 137.362 107.524 136.731C107.532 136.387 107.531 136.133 107.414 135.804C107.172 135.692 107.172 135.692 106.867 135.598C106.131 135.345 106.131 135.345 105.984 135.083C105.99 134.877 105.99 134.877 106.21 134.568C106.276 134.581 106.342 134.593 106.41 134.605C106.97 134.699 106.97 134.699 107.483 134.51C107.66 134.262 107.66 134.262 107.64 133.944C107.551 133.633 107.551 133.633 107.298 133.461C106.902 133.303 106.52 133.214 106.1 133.127C106.032 132.94 106.032 132.94 105.99 132.715C106.21 132.406 106.21 132.406 106.499 132.323C106.671 132.291 106.671 132.291 106.846 132.258C107.545 132.115 107.545 132.115 108.071 131.685C108.154 131.32 108.154 131.32 108.071 130.964C107.724 130.632 107.374 130.592 106.894 130.533C106.766 130.517 106.638 130.5 106.506 130.484C106.408 130.472 106.31 130.461 106.21 130.449C106.168 130.279 106.131 130.107 106.1 129.934C106.314 129.733 106.706 129.808 106.997 129.806C107.141 129.803 107.284 129.8 107.433 129.798C108.084 129.85 108.528 130.085 108.948 130.552C109.084 130.936 109.116 131.287 109.057 131.685C108.826 132.088 108.549 132.415 108.181 132.715C108.109 132.715 108.036 132.715 107.962 132.715C108.067 132.858 108.067 132.858 108.174 133.004C108.499 133.477 108.608 133.908 108.51 134.465C108.356 134.762 108.171 135.025 107.962 135.289C108.07 135.385 108.07 135.385 108.181 135.482C108.488 135.934 108.474 136.311 108.4 136.834C108.2 137.314 107.884 137.509 107.414 137.761C107.082 137.848 106.749 137.893 106.408 137.934C106.322 137.946 106.236 137.958 106.147 137.971C105.876 138.007 105.605 138.039 105.333 138.07C105.243 138.08 105.152 138.09 105.059 138.1C104.166 138.188 103.273 138.193 102.376 138.192C102.297 138.192 102.217 138.192 102.135 138.192C97.4773 138.182 97.4773 138.182 96.1333 136.937C95.78 136.561 95.756 136.312 95.7714 135.824C95.8157 135.524 95.9375 135.321 96.1333 135.083C96.0012 134.975 96.0012 134.975 95.8664 134.864C95.5475 134.528 95.4762 134.397 95.4762 133.951C95.5756 133.544 95.6699 133.214 96.0444 132.972C96.1426 132.947 96.1426 132.947 96.2429 132.921C96.1728 132.836 96.1028 132.751 96.0307 132.663C95.7656 132.283 95.6579 131.935 95.6952 131.479C95.8855 130.878 96.2371 130.491 96.7905 130.14C97.854 129.615 99.134 129.714 100.299 129.737Z" fill="#494A4A"/>
<path d="M80.9095 80.506C82.5178 81.3396 83.6751 83.3371 84.642 84.7523C84.7192 84.8641 84.7192 84.8641 84.798 84.9782C84.843 85.0443 84.888 85.1104 84.9343 85.1785C85.0804 85.3754 85.0804 85.3754 85.4 85.5518C85.3589 85.8028 85.3589 85.8028 85.2904 86.0667C84.9945 86.2058 84.7299 86.2045 84.4006 86.2276C84.2806 86.2362 84.1606 86.2449 84.0369 86.2537C83.9446 86.26 83.8522 86.2662 83.7571 86.2726C83.6476 86.6182 83.6294 86.9399 83.6206 87.2996C83.617 87.4177 83.6134 87.5357 83.6097 87.6574C83.603 87.906 83.5967 88.1546 83.5909 88.4032C83.5872 88.5211 83.5834 88.6391 83.5796 88.7606C83.5754 88.9225 83.5754 88.9225 83.5712 89.0876C83.5381 89.3619 83.5381 89.3619 83.319 89.6709C83.058 89.701 83.058 89.701 82.7577 89.6902C82.658 89.6874 82.5584 89.6846 82.4557 89.6817C82.3791 89.6781 82.3026 89.6746 82.2238 89.6709C82.0794 88.8858 82.0742 88.0956 82.0479 87.3008C82.0418 87.1339 82.0418 87.1339 82.0355 86.9637C82.0322 86.8631 82.0289 86.7626 82.0255 86.659C82.0082 86.3347 82.0082 86.3347 81.8952 85.8607C81.2808 85.9627 80.6663 86.0646 80.0333 86.1697C79.9633 87.3381 79.9052 88.5002 79.9238 89.6709C79.7482 89.6792 79.5724 89.6852 79.3967 89.6902C79.2499 89.6955 79.2499 89.6955 79.1002 89.701C78.8285 89.6709 78.8285 89.6709 78.6493 89.5614C78.4253 89.2621 78.4594 88.9632 78.4679 88.6109C78.4683 88.5382 78.4688 88.4655 78.4693 88.3906C78.4711 88.1587 78.4752 87.9269 78.4794 87.695C78.4811 87.5377 78.4826 87.3803 78.4839 87.223C78.4875 86.8375 78.4932 86.4521 78.5 86.0667C78.3882 86.068 78.3882 86.068 78.2741 86.0694C78.176 86.0701 78.0778 86.0708 77.9767 86.0715C77.8796 86.0724 77.7825 86.0733 77.6824 86.0742C77.3308 86.0647 77.0612 86.012 76.7476 85.8607C76.647 85.6846 76.647 85.6846 76.6381 85.4488C76.7843 85.2275 76.9277 85.0426 77.1035 84.8439C77.1534 84.7854 77.2033 84.7269 77.2546 84.6666C77.3603 84.5426 77.4665 84.4191 77.5732 84.2959C77.7754 84.0613 77.9723 83.8231 78.1693 83.5847C78.6698 82.9804 79.1793 82.3827 79.691 81.7867C79.7497 81.7181 79.8083 81.6494 79.8687 81.5787C80.1965 81.1986 80.5342 80.8451 80.9095 80.506Z" fill="#494A4A"/>
<path d="M89.3428 175.038C89.379 175.208 89.4151 175.378 89.4524 175.553C89.3592 175.6 89.3592 175.6 89.2642 175.648C87.4861 176.552 85.7165 177.465 84.0083 178.482C83.9196 178.535 83.8309 178.587 83.7396 178.642C82.7456 179.235 81.7618 179.843 80.7794 180.453C80.4718 180.644 80.164 180.834 79.8562 181.025C78.726 181.725 77.6034 182.435 76.4878 183.155C75.6335 183.707 74.7731 184.25 73.9137 184.795C73.6248 184.978 73.336 185.161 73.0472 185.345C72.8512 185.469 72.6551 185.593 72.4591 185.718C71.5858 186.271 70.7129 186.826 69.8401 187.381C62.4139 192.1 62.4139 192.1 60.4886 193.297C60.2973 193.416 60.1063 193.536 59.9154 193.656C57.5236 195.157 57.5236 195.157 56.4857 195.53C56.4134 195.496 56.3411 195.462 56.2667 195.427C56.2891 195.049 56.3654 194.923 56.6538 194.65C56.7812 194.553 56.9101 194.459 57.0402 194.365C57.1121 194.313 57.1839 194.26 57.258 194.206C58.2364 193.502 59.2752 192.878 60.3042 192.243C60.849 191.904 61.3884 191.558 61.9277 191.212C63.0598 190.486 64.1943 189.764 65.3298 189.043C65.4156 188.988 65.5015 188.934 65.59 188.878C65.942 188.654 66.294 188.431 66.646 188.207C67.2457 187.826 67.8453 187.446 68.4448 187.065C70.7268 185.615 73.0093 184.165 75.2924 182.717C75.6921 182.463 76.0918 182.21 76.4916 181.956C77.018 181.622 77.5446 181.288 78.0711 180.954C78.2708 180.827 78.4705 180.7 78.6702 180.574C79.7405 179.894 80.8119 179.217 81.8872 178.544C82.2642 178.309 82.6403 178.072 83.0149 177.833C88.098 174.593 88.098 174.593 89.3428 175.038Z" fill="#494A4A"/>
<path d="M182.81 100.785C183.131 100.78 183.452 100.776 183.773 100.773C183.859 100.772 183.946 100.77 184.035 100.769C184.611 100.768 185.175 100.824 185.724 100.998C185.796 101.066 185.868 101.134 185.943 101.204C185.936 101.41 185.936 101.41 185.833 101.616C185.029 102.051 183.879 101.95 182.981 101.973C182.695 101.981 182.41 101.989 182.124 101.997C181.974 102.001 181.824 102.005 181.673 102.009C180.898 102.03 180.122 102.053 179.346 102.077C179.269 102.079 179.193 102.081 179.114 102.084C177.357 102.137 175.603 102.211 173.849 102.319C173.65 102.332 173.451 102.344 173.252 102.356C167.995 102.674 162.751 103.126 157.531 103.796C157.381 103.815 157.381 103.815 157.227 103.835C157.044 103.858 156.86 103.882 156.677 103.906C156.062 103.984 155.459 103.997 154.838 103.984C154.874 103.815 154.91 103.645 154.948 103.47C156.538 103.157 158.134 102.894 159.739 102.659C159.859 102.641 159.979 102.623 160.103 102.605C167.629 101.504 175.196 100.925 182.81 100.785Z" fill="#494A4A"/>
<path d="M183.424 106.121C183.506 106.12 183.588 106.119 183.672 106.118C184.112 106.121 184.452 106.17 184.848 106.353C184.811 106.523 184.775 106.693 184.738 106.868C183.508 107.199 182.339 107.36 181.063 107.422C180.879 107.432 180.695 107.442 180.512 107.452C180.02 107.479 179.528 107.504 179.035 107.528C178.725 107.544 178.414 107.56 178.103 107.576C176.828 107.642 175.552 107.705 174.276 107.766C173.805 107.788 173.333 107.811 172.861 107.835C168.77 108.037 164.686 108.132 160.589 108.135C160.261 108.136 159.933 108.136 159.605 108.137C159.092 108.138 158.578 108.137 158.065 108.135C157.875 108.135 157.685 108.135 157.495 108.135C157.235 108.135 156.975 108.133 156.714 108.132C156.599 108.132 156.599 108.132 156.482 108.133C155.958 108.127 155.958 108.127 155.714 107.898C155.773 107.533 155.773 107.533 155.933 107.383C156.184 107.361 156.436 107.346 156.687 107.334C156.807 107.329 156.807 107.329 156.929 107.323C157.198 107.31 157.467 107.297 157.736 107.285C157.928 107.276 158.121 107.267 158.313 107.258C160.395 107.163 162.478 107.093 164.561 107.021C168.3 106.892 172.037 106.756 175.771 106.546C175.845 106.542 175.92 106.538 175.997 106.533C177.301 106.46 178.605 106.382 179.908 106.296C180.051 106.287 180.194 106.277 180.341 106.267C180.611 106.249 180.881 106.231 181.151 106.213C181.909 106.162 182.664 106.129 183.424 106.121Z" fill="#494A4A"/>
<path d="M183.378 112.092C183.501 112.09 183.624 112.088 183.751 112.086C183.862 112.086 183.974 112.085 184.089 112.085C184.186 112.084 184.283 112.083 184.383 112.083C184.68 112.127 184.78 112.202 184.957 112.429C184.928 112.735 184.864 112.825 184.629 113.046C184.414 113.087 184.414 113.087 184.149 113.108C184.049 113.116 183.95 113.124 183.848 113.133C183.74 113.14 183.632 113.148 183.52 113.156C183.351 113.169 183.351 113.169 183.178 113.182C181.945 113.271 180.711 113.316 179.475 113.355C179.227 113.364 178.98 113.372 178.732 113.381C178.079 113.403 177.425 113.424 176.771 113.445C176.226 113.463 175.681 113.481 175.137 113.499C173.926 113.539 172.716 113.578 171.505 113.617C170.479 113.65 169.453 113.685 168.427 113.72C164.297 113.864 160.175 113.896 156.043 113.87C156.007 113.734 155.971 113.598 155.933 113.458C156.268 113.278 156.53 113.22 156.913 113.198C157.078 113.187 157.078 113.187 157.247 113.177C157.367 113.17 157.488 113.163 157.613 113.157C157.741 113.149 157.87 113.141 158.003 113.133C158.362 113.112 158.721 113.092 159.08 113.072C159.31 113.059 159.54 113.046 159.77 113.033C165.649 112.698 171.535 112.472 177.42 112.259C177.696 112.249 177.972 112.238 178.249 112.228C179.958 112.165 181.667 112.108 183.378 112.092Z" fill="#494A4A"/>
<path d="M113.995 190.631C115.494 191.365 116.982 192.089 118.582 192.611C118.805 192.685 119.025 192.768 119.243 192.853C119.352 193.162 119.352 193.162 119.267 193.35C119.15 193.527 119.032 193.705 118.914 193.883C116.757 193.293 114.733 192.259 112.75 191.284C109.264 189.585 105.821 189.649 102.073 190.523C101.578 190.637 101.138 190.72 100.624 190.69C100.588 190.521 100.552 190.351 100.514 190.176C104.96 187.913 109.647 188.499 113.995 190.631Z" fill="#494A4A"/>
<path d="M128.185 180.949C129.47 181.57 130.792 182.037 132.167 182.452C132.098 182.754 131.993 183.004 131.838 183.276C130.177 182.953 128.749 182.345 127.242 181.627C125.002 180.559 122.817 179.535 120.338 179.054C120.189 179.025 120.189 179.025 120.036 178.994C118.01 178.749 116.115 179.032 114.205 179.672C113.946 179.757 113.707 179.824 113.438 179.878C113.33 179.81 113.221 179.742 113.109 179.672C113.121 179.441 113.121 179.441 113.219 179.157C113.449 178.989 113.649 178.866 113.904 178.739C113.972 178.703 114.04 178.668 114.111 178.632C118.705 176.337 124.072 178.95 128.185 180.949Z" fill="#494A4A"/>
<path d="M114.424 195.427C114.388 195.597 114.352 195.767 114.314 195.942C113.806 195.771 113.357 195.524 112.89 195.273C109.435 193.45 105.58 191.931 101.568 192.913C100.887 193.098 100.227 193.347 99.5756 193.611C98.9202 193.866 98.3741 193.931 97.6667 193.883C97.6305 193.747 97.5944 193.611 97.5571 193.471C98.1003 192.977 98.6376 192.683 99.3369 192.422C99.4752 192.369 99.4752 192.369 99.6163 192.315C100.27 192.069 100.918 191.852 101.61 191.72C101.714 191.699 101.818 191.679 101.925 191.657C106.548 190.857 110.841 192.853 114.424 195.427Z" fill="#494A4A"/>
<path d="M193.719 81.9476C194.245 81.9777 194.468 82.196 194.821 82.5462C194.959 82.681 194.959 82.681 195.099 82.8185C195.229 82.9481 195.229 82.9481 195.362 83.0804C195.507 83.2181 195.653 83.3556 195.8 83.4923C195.857 83.4474 195.914 83.4025 195.973 83.3563C197.636 82.0911 197.636 82.0911 198.538 82.1536C198.61 82.2895 198.683 82.4254 198.757 82.5655C198.323 82.9911 197.858 83.3627 197.368 83.7304C197.294 83.787 197.219 83.8436 197.143 83.902C197.072 83.9554 197.001 84.0088 196.928 84.0639C196.864 84.1124 196.8 84.1609 196.734 84.2108C196.567 84.3161 196.567 84.3161 196.348 84.3161C196.401 84.3992 196.401 84.3992 196.456 84.4839C196.806 85.0259 197.153 85.5694 197.497 86.1146C197.597 86.2728 197.698 86.4307 197.799 86.5879C198.272 87.319 198.56 87.8778 198.429 88.7441C198.244 88.8213 198.244 88.8213 197.99 88.847C197.53 88.5606 197.302 88.2556 197.045 87.8012C197.011 87.741 196.976 87.6809 196.94 87.6189C196.831 87.4281 196.723 87.2366 196.615 87.045C196.506 86.8534 196.397 86.662 196.288 86.471C196.188 86.2978 196.09 86.1241 195.992 85.9502C195.809 85.6681 195.621 85.4639 195.362 85.2429C195.188 85.4034 195.015 85.5644 194.842 85.7256C194.745 85.8152 194.649 85.9048 194.549 85.9971C194.29 86.25 194.061 86.5134 193.829 86.7875C193.509 87.0183 193.377 87.1065 192.973 87.0643C192.894 87.0409 192.815 87.0175 192.733 86.9935C192.785 85.8242 193.866 85.0794 194.705 84.3161C194.476 83.8404 194.146 83.4184 193.83 82.9911C193.496 82.5193 193.496 82.5193 193.518 82.2179C193.61 82.0506 193.61 82.0506 193.719 81.9476Z" fill="#37A0FF"/>
<path d="M100.286 200.77C103.215 200.705 105.188 201.864 107.395 203.505C109.065 204.746 110.867 205.745 112.873 206.425C113.11 206.549 113.11 206.549 113.213 206.75C113.219 206.961 113.219 206.961 113 207.27C110.765 207.071 108.65 205.5 106.959 204.229C104.686 202.524 102.579 201.48 99.5838 201.785C98.6922 201.847 97.7936 201.82 96.9 201.812C96.9 201.676 96.9 201.54 96.9 201.4C98.0484 201.029 99.0678 200.816 100.286 200.77Z" fill="#494A4A"/>
<path d="M123.624 182.452C123.699 182.485 123.774 182.517 123.852 182.55C124.625 182.884 125.31 183.228 125.924 183.791C125.888 183.927 125.852 184.063 125.814 184.203C124.905 184.015 124.078 183.75 123.227 183.398C121.373 182.657 119.593 182.131 117.6 181.835C117.479 181.816 117.358 181.798 117.233 181.779C116.541 181.697 115.846 181.712 115.149 181.712C115.071 181.712 114.993 181.712 114.913 181.712C113.751 181.712 112.614 181.756 111.467 181.938C111.431 181.768 111.394 181.598 111.357 181.423C115.5 180.088 119.709 180.769 123.624 182.452Z" fill="#494A4A"/>
<path d="M182.732 82.8744C183.234 83.1675 183.557 83.4774 183.752 84.0071C183.874 84.6513 183.841 85.1905 183.479 85.7577C183.132 86.1805 182.765 86.4318 182.219 86.5815C181.497 86.665 180.993 86.45 180.385 86.0988C180.049 85.7751 179.888 85.4835 179.81 85.0369C179.836 84.323 180.061 83.8969 180.576 83.3893C180.633 83.2958 180.689 83.2024 180.747 83.1061C181.201 82.4388 182.065 82.5638 182.732 82.8744Z" fill="#494A4A"/>
<path d="M165.161 84.874C165.674 85.2619 166.014 85.6517 166.119 86.2727C166.144 86.8969 166.006 87.3319 165.571 87.8173C164.973 88.3479 164.604 88.4674 163.792 88.4565C163.221 88.4161 162.867 88.1848 162.464 87.8237C162.098 87.398 162.096 86.9894 162.127 86.4573C162.194 86.0643 162.338 85.8523 162.614 85.5518C162.665 85.4817 162.715 85.4117 162.767 85.3394C163.011 85.0014 163.2 84.7668 163.579 84.5607C164.173 84.4951 164.651 84.5719 165.161 84.874Z" fill="#494A4A"/>
<path d="M173.81 83.2807C174.322 83.552 174.711 83.8744 174.881 84.4191C174.988 85.1182 174.968 85.7247 174.51 86.3044C174.066 86.7425 173.618 87.0186 172.964 87.0514C172.309 87.0131 171.813 86.7703 171.335 86.3563C171.055 85.9007 170.879 85.441 170.983 84.9114C171.14 84.4792 171.343 84.2126 171.705 83.9042C171.783 83.7736 171.783 83.7736 171.862 83.6403C172.34 82.9397 173.062 82.9811 173.81 83.2807Z" fill="#494A4A"/>
<path d="M105.662 195.736C105.745 195.756 105.829 195.776 105.915 195.797C107.259 196.135 108.498 196.673 109.742 197.249C109.816 197.283 109.89 197.317 109.967 197.352C110.178 197.449 110.389 197.549 110.599 197.649C110.783 197.736 110.783 197.736 110.97 197.825C111.248 198.002 111.248 198.002 111.343 198.23C111.35 198.321 111.35 198.321 111.357 198.414C110.856 198.351 110.43 198.226 109.962 198.048C109.82 197.995 109.677 197.942 109.535 197.888C109.461 197.861 109.388 197.833 109.312 197.804C107.065 196.959 104.913 196.313 102.465 196.316C102.335 196.315 102.204 196.315 102.069 196.315C100.99 196.326 99.9501 196.45 98.8906 196.638C98.7792 196.657 98.6679 196.676 98.5531 196.696C98.4556 196.714 98.3581 196.733 98.2577 196.752C97.956 196.768 97.8109 196.708 97.5571 196.56C97.564 196.38 97.564 196.38 97.6667 196.148C99.6059 194.829 103.469 195.21 105.662 195.736Z" fill="#494A4A"/>
<path d="M122.259 186.558C123.173 187.301 123.173 187.301 123.405 187.601C123.405 187.737 123.405 187.873 123.405 188.013C122.971 187.954 122.687 187.834 122.323 187.608C122.218 187.543 122.113 187.478 122.004 187.412C121.757 187.255 121.511 187.098 121.266 186.938C119.999 186.116 118.744 185.527 117.271 185.098C117.187 185.073 117.103 185.048 117.016 185.022C115.6 184.632 114.142 184.581 112.678 184.551C112.517 184.547 112.356 184.543 112.194 184.538C111.806 184.529 111.417 184.52 111.029 184.512C111.029 184.376 111.029 184.24 111.029 184.1C114.878 183.131 119.185 184.244 122.259 186.558Z" fill="#494A4A"/>
<path d="M197.114 142.395C196.805 142.884 196.805 142.884 196.65 143.087C196.239 143.643 196.042 144.186 196.019 144.866C196.119 145.387 196.376 145.841 196.786 146.205C197.399 146.542 197.966 146.564 198.648 146.411C199.283 146.193 199.683 145.821 199.973 145.244C200.079 144.947 200.116 144.683 200.14 144.371C200.148 144.27 200.156 144.17 200.165 144.066C200.17 143.99 200.175 143.914 200.181 143.836C200.705 143.721 200.705 143.721 200.92 143.83C201.199 144.262 201.214 144.663 201.102 145.143C200.759 146.139 200.19 146.76 199.208 147.244C198.515 147.524 197.71 147.549 196.991 147.331C196.182 147.003 195.623 146.428 195.252 145.69C195.025 145.017 195 144.138 195.307 143.489C195.678 142.898 196.355 142.18 197.114 142.395Z" fill="#494A4A"/>
<path d="M131.811 176.576C132.268 176.717 132.375 176.893 132.601 177.28C133.088 178.267 133.081 179.47 132.714 180.496C132.582 180.78 132.435 181.047 132.276 181.32C131.427 181.242 131.427 181.242 131.181 181.011C131.238 180.906 131.238 180.906 131.297 180.799C131.815 179.802 131.971 178.991 131.619 177.921C131.551 177.748 131.481 177.575 131.4 177.407C130.962 177.756 130.531 178.111 130.106 178.475C129.917 178.634 129.728 178.793 129.538 178.951C129.441 179.032 129.344 179.114 129.244 179.197C129.149 179.273 129.054 179.349 128.956 179.427C128.871 179.497 128.785 179.566 128.697 179.637C128.443 179.775 128.443 179.775 128.16 179.758C127.81 179.644 127.537 179.463 127.238 179.26C127.602 178.895 128.001 178.607 128.429 178.314C128.501 178.265 128.572 178.216 128.646 178.165C129.142 177.829 129.643 177.503 130.154 177.188C130.216 177.149 130.278 177.11 130.342 177.07C130.694 176.857 130.988 176.743 131.4 176.686C131.51 176.583 131.51 176.583 131.811 176.576Z" fill="#494A4A"/>
<path d="M107.086 199.72C107.284 199.889 107.284 199.889 107.414 200.061C107.414 200.197 107.414 200.333 107.414 200.473C106.692 200.415 106.163 200.172 105.526 199.861C104.074 199.182 102.621 199.184 101.035 199.167C100.814 199.163 100.593 199.16 100.372 199.156C99.8352 199.147 99.2986 199.14 98.7619 199.135C98.7258 198.999 98.6896 198.863 98.6524 198.723C101.104 197.729 104.998 198.116 107.086 199.72Z" fill="#494A4A"/>
<path d="M113.771 186.82C113.912 186.887 114.054 186.955 114.194 187.024C114.694 187.266 115.198 187.497 115.707 187.722C115.837 187.779 115.968 187.837 116.102 187.896C116.361 188.01 116.62 188.124 116.879 188.236C117.634 188.572 118.282 188.941 118.914 189.455C118.878 189.557 118.842 189.659 118.805 189.764C117.868 189.74 117.173 189.401 116.354 188.998C116.218 188.932 116.081 188.867 115.945 188.801C115.336 188.509 114.731 188.209 114.128 187.905C113.989 187.836 113.989 187.836 113.848 187.765C113.682 187.681 113.517 187.596 113.352 187.51C112.78 187.217 112.203 187.043 111.576 186.88C111.357 186.813 111.138 186.745 110.919 186.674C110.955 186.573 110.991 186.471 111.029 186.366C111.993 186.063 112.904 186.415 113.771 186.82Z" fill="#494A4A"/>
<path d="M188.024 140.644C188.299 140.799 188.351 140.95 188.489 141.223C188.65 141.904 188.533 142.523 188.133 143.115C187.748 143.357 187.601 143.381 187.148 143.321C186.866 143.098 186.656 142.912 186.49 142.601C186.474 142.401 186.466 142.202 186.463 142.002C186.46 141.895 186.457 141.788 186.455 141.678C186.495 141.321 186.592 141.136 186.819 140.85C187.236 140.589 187.535 140.583 188.024 140.644Z" fill="#494A4A"/>
<path d="M189.995 148.779C190.324 148.882 190.324 148.882 190.433 149.088C190.537 149.964 190.409 150.62 189.886 151.354C189.612 151.656 189.612 151.656 189.338 151.868C189.261 151.93 189.184 151.992 189.105 152.055C188.604 152.25 188.12 152.243 187.586 152.177C187.189 152.01 187.189 152.01 186.929 151.765C186.833 151.431 186.833 151.431 186.819 151.148C187.253 151.034 187.414 151.061 187.805 151.251C188.194 151.297 188.4 151.281 188.749 151.109C189.121 150.723 189.268 150.296 189.448 149.809C189.752 149.007 189.752 149.007 189.995 148.779Z" fill="#494A4A"/>
<path d="M81.5667 86.2726C81.6341 87.4069 81.6906 88.5344 81.6762 89.6708C81.1702 89.6708 80.6642 89.6708 80.1429 89.6708C80.1666 89.251 80.1913 88.8315 80.2184 88.4119C80.2274 88.2692 80.2357 88.1264 80.2436 87.9837C80.2549 87.7784 80.2684 87.5731 80.2819 87.3679C80.2931 87.1827 80.2931 87.1827 80.3045 86.9937C80.3619 86.6845 80.3619 86.6845 80.5103 86.4917C80.8266 86.2879 81.1908 86.2726 81.5667 86.2726Z" fill="#494A4A"/>
<path d="M173.067 84.0072C173.502 84.1667 173.785 84.4313 174.005 84.8181C174.005 85.2448 173.778 85.6011 173.546 85.9573C173.204 86.146 172.85 86.127 172.471 86.0667C172.143 85.9123 172.143 85.9123 171.924 85.6548C171.85 85.17 171.841 84.9565 172.115 84.5414C172.7 84.0072 172.7 84.0072 173.067 84.0072Z" fill="#36A0FD"/>
<path d="M181.993 83.6081C182.393 83.7155 182.539 83.781 182.767 84.1101C182.86 84.5899 182.838 84.9292 182.561 85.3458C182.288 85.5874 182.18 85.6472 181.808 85.6869C181.345 85.645 181.133 85.5451 180.795 85.2428C180.718 84.8361 180.687 84.5942 180.908 84.2356C181.217 83.8745 181.482 83.5876 181.993 83.6081Z" fill="#494A4A"/>
<path d="M163.929 85.4489C164.409 85.5721 164.721 85.6868 165.024 86.0667C165.141 86.3757 165.182 86.5721 165.049 86.8809C164.762 87.374 164.762 87.374 164.476 87.5084C163.981 87.5465 163.714 87.5641 163.271 87.3475C163.052 87.0965 163.052 87.0965 162.998 86.7425C163.055 86.3568 163.118 86.1594 163.381 85.8608C163.675 85.7256 163.675 85.7256 163.929 85.6548C163.929 85.5868 163.929 85.5189 163.929 85.4489Z" fill="#494A4A"/>
<path d="M188.462 138.173C188.945 138.395 189.247 138.627 189.448 139.099C189.506 139.589 189.525 139.918 189.229 140.335C189.084 140.335 188.939 140.335 188.791 140.335C188.773 140.258 188.756 140.181 188.738 140.102C188.583 139.469 188.583 139.469 188.216 138.932C187.857 138.764 187.545 138.717 187.148 138.687C187.148 138.552 187.148 138.416 187.148 138.276C187.554 138.084 188.018 138.126 188.462 138.173Z" fill="#494A4A"/>
<path d="M104.019 109.854C104.3 110.083 104.391 110.233 104.457 110.575C104.467 110.77 104.471 110.965 104.471 111.161C104.471 111.261 104.471 111.361 104.472 111.464C104.457 111.708 104.457 111.708 104.348 111.811C104.165 111.815 103.983 111.815 103.8 111.811C103.595 111.233 103.608 110.66 103.855 110.099C103.909 110.018 103.963 109.937 104.019 109.854Z" fill="#494A4A"/>
<path d="M100.843 110.06C101.105 110.442 101.095 110.818 101.089 111.257C101.09 111.327 101.091 111.397 101.092 111.47C101.09 111.991 101.09 111.991 100.843 112.223C100.638 112.03 100.719 111.759 100.718 111.503C100.719 111.381 100.719 111.381 100.72 111.257C100.719 111.177 100.719 111.096 100.718 111.013C100.719 110.67 100.727 110.388 100.843 110.06Z" fill="#494A4A"/>
</svg>
