<svg xmlns="http://www.w3.org/2000/svg" width="271" height="281" fill="none" viewBox="0 0 271 281">
  <circle cx="135.5" cy="145.5" r="135.5" fill="#FBF8F6"/>
  <path fill="#494A4A" d="M124.937 169.785c.48.614.958 1.23 1.434 1.849 2.443 2.465 5.861 3.652 9.058 3.48 3.562-.657 7.063-1.584 9.308-5.124.459-.547.459-.547 1.367-.577 8.58.694 16.022 5.503 22.049 12.631l.931 1.049a63.991 63.991 0 0 1 2.283 2.787l1.148 1.438c1.603 4.304.358 9.71-.958 13.98-1.983 4.787-5.185 8.007-9.373 9.786l-2.295.548-1.378-7.671 1.378 14.793c-2.478 1.69-4.011 2.591-6.658 3.391l-1.736.537c-12.244 3.269-28.655 2.814-40.275-3.38-.459-.548-.459-.548-.512-2.119l.008-2.078.002-1.103c.002-1.167.008-2.334.014-3.5l.006-2.369c.005-1.938.013-3.877.023-5.816l-.46 4.931c-2.894 1.802-5.618 2.378-8.818 1.304-3.002-1.541-4.714-4.169-5.922-7.731-1.055-4.161-1.185-8.074.048-12.202 1.16-2.143 2.545-3.78 4.132-5.479l1.137-1.26c5.143-5.368 11.363-8.952 17.688-11.89l1.307-.68c2.147-.997 3.233-1.381 5.064.475Zm32.656 28.697.459 1.643-.459-1.643Zm-17.907-78.899c1.341 1.143 1.759 2.559 2.296 4.383l1.234-.171c1.521.171 1.521.171 2.87 1.335.947 1.576.947 1.576.746 3.219l-.259 1.644c.82 1.519.82 1.519 1.837 2.74.789 1.884.638 3.962.459 6.027-.689 1.678-.689 1.678-1.377 2.739l1.119.514c1.176.582 1.176.582 1.636 1.13.285 3.233-.05 5.151-1.607 7.833-1.01 1.368-2.002 2.016-3.444 2.577l-1.377-.548v-1.096l1.521-.89c1.725-1.177 2.375-2.331 3.07-4.589.321-1.499.321-1.499.459-2.739h-2.296l.115 1.472c-.139 2.207-.657 3.011-1.951 4.555h-.918l-.287 2.157c-.683 3.631-2.144 6.593-4.649 8.835-2.751.947-5.381 1.065-8.035-.342-3.186-2.196-4.753-5.518-6.233-9.426-.477-1.249-.477-1.249-1.296-2.059-.621-.809-.621-.809-.691-1.952l.099-1.254c.082-2.523-.473-3.36-1.865-5.274-.431-1.952-.431-1.952-.46-3.835l.689-1.062c.889-1.191.889-1.191.488-3.287l-.163-1.152c-.175-1.972.485-3.257 1.426-4.807 1.049-.881 1.817-.772 3.07-.65l.086-1.267c.373-1.473.373-1.473 1.378-2.466 1.48-.746 2.454-.857 4.046-.651l1.377 1.096 1.292-1.335c1.867-1.932 3.194-2.121 5.595-1.404Zm68.871-27.943c1.216 1.193 1.216 1.193 2.502 2.752l.694.834c.728.877 1.449 1.761 2.171 2.646l1.471 1.772c3.556 4.3 3.556 4.3 4.641 6.241-.165 1.623-.389 2.108-1.378 3.288.153 2.249.388 4.404.919 6.575h1.377v1.643c-1.711.983-3.424 1.965-5.136 2.945l-1.468.844-1.422.813-1.304.748c-2.358 1.299-4.095 2.189-6.74 1.773-1.138-.841-2.025-1.906-2.955-3.048-.523-.609-1.046-1.219-1.57-1.827l-.754-.894c-.848-.99-1.735-1.912-2.641-2.826a113.309 113.309 0 0 1-3.96-4.349l-1.029-1.186c-1.679-2.352-1.896-4.377-1.841-7.409l.026-1.775.032-1.342a62.075 62.075 0 0 1 11.507-6.883l1.258-.595 1.197-.537 1.064-.48c1.331-.346 2.049-.266 3.339.277Zm-3.592 9.192-.856.636-1.52 1.13.918.548c.927-.42.927-.42 1.894-1.062l1.008-.631.771-.499c-1.299-.718-1.299-.718-2.215-.122Zm3.133 1.766-3.214 2.191.919.548a43.928 43.928 0 0 0 2.754-1.643l-.459-1.096Zm-13.315 2.191c.417.621.839 1.236 1.263 1.85l.71 1.04c.82.991 1.553 1.494 2.619 2.042-.417-.621-.839-1.236-1.263-1.85l-.71-1.04c-.82-.991-1.553-1.494-2.619-2.042Zm4.592 4.932c.425.644.857 1.282 1.291 1.917l.726 1.079c.734 1.028.734 1.028 2.115.839a288.282 288.282 0 0 0-1.55-1.918l-.871-1.078c-.731-.961-.731-.961-1.711-.839Zm14.204 2.054c-1.926 1.24-3.85 2.468-5.825 3.596-1.285.796-1.982 1.266-2.87 2.568-.191 1.941-.191 1.941 0 3.836l.919 1.095c1.987-.186 3.554-.882 5.333-1.919l1.417-.819 1.457-.857 1.488-.864a775.293 775.293 0 0 0 3.62-2.115l-.46-1.096h-.918l-.459-5.479c-1.204 0-2.631 1.362-3.702 2.054Z"/>
  <path fill="#494A4A" d="M161.673 67.676c.963.018 1.927.032 2.89.045 1.298.018 2.596.046 3.893.078l1.134.01c1.342.043 2.427.09 3.613.884 2.929 6.558-.189 20.174-.764 27.554-.128 1.664-.253 3.329-.378 4.994-.122 1.628-.247 3.256-.371 4.884l-.175 2.297c-1.129 14.896-1.129 14.896-2.444 17.188-1.256.992-2.241 1.231-3.731 1.22h-1.113l-1.189-.018-1.227-.004c-1.292-.006-2.583-.02-3.874-.034a1256.52 1256.52 0 0 1-9.068-.069v-1.643l1.481-.033c1.819-.042 3.637-.091 5.455-.141.786-.021 1.572-.04 2.358-.057 1.132-.026 2.264-.057 3.395-.09l1.06-.019c1.862-.062 3.466-.128 5.076-1.304.331-.901.64-1.814.918-2.74l-.929.008c-3.187.024-6.375.041-9.563.053-1.19.005-2.38.013-3.57.022-1.709.013-3.419.02-5.128.024l-1.615.018h-1.504l-1.322.007c-1.211-.137-1.96-.492-2.999-1.227v-.548c6.763-.332 13.519-.603 20.288-.617l1.61-.007 1.481.003 1.302.002c1.031.071 1.031.071 1.949.619.421-5.63.841-11.26 1.257-16.89.194-2.615.388-5.23.584-7.844.189-2.525.377-5.051.563-7.577l.215-2.883c.102-1.352.201-2.703.3-4.055l.091-1.189c.201-2.783.228-5.532.204-8.326-9.707-.013-19.413-.023-29.12-.029-4.508-.002-9.015-.006-13.523-.013-3.931-.005-7.862-.008-11.793-.01-2.079 0-4.159-.002-6.238-.006a2510.51 2510.51 0 0 0-5.886-.004c-.715 0-1.431-.001-2.146-.004-4.343-.012-8.703-.011-13.02.614-.765.912-.527 1.992-.528 3.243.024 3.047.302 5.967.707 8.971l.201 1.564c.214 1.652.433 3.303.652 4.953l.444 3.409c.832 6.391 1.68 12.781 2.625 19.151.066.455.133.91.2 1.379l.172 1.14c.134 1.277.118 2.571.118 3.858h33.517v1.644H95.15c.546 3.184.546 3.184 1.746 3.84l1 .186 1.124.214c1.97.238 3.923.339 5.903.37l1.31.032c1.366.032 2.731.058 4.097.083l2.797.064c2.272.053 4.544.099 6.816.142v1.643c-3.014.028-6.028.047-9.043.061-1.025.005-2.049.013-3.074.022-1.476.013-2.952.02-4.428.024l-1.38.018c-5.772.001-5.772.001-7.72-2.169-.661-1.564-.896-2.958-1.134-4.689l-.149-1.055c-.164-1.17-.32-2.341-.477-3.512l-.344-2.499c-.255-1.848-.505-3.697-.754-5.547-.38-2.81-.77-5.619-1.161-8.426-.343-2.46-.681-4.922-1.019-7.383a1911.37 1911.37 0 0 0-.503-3.634 1350.9 1350.9 0 0 1-.706-5.163l-.217-1.537c-1.193-8.974-1.193-8.974.121-11.633.925-1.153 1.69-1.459 3.016-1.59l1.007-.026 1.167-.033 1.286-.028 1.373-.035c1.532-.037 3.065-.069 4.597-.1l1.621-.035a1515.13 1515.13 0 0 1 59.651-.06Zm29.437 42.592c.825.806.825.806 1.657 1.837l.937 1.14.964 1.201c4.794 6.173 4.794 6.173 10.675 10.616 3.616-.142 6.41-1.931 9.61-3.801l1.187-.672 1.066-.625c1.165-.447 1.706-.384 2.83.167 2.05 3.092 3.165 6.376 2.934 10.322-.335 2.21-.977 3.42-2.488 4.732-1.828 1.119-3.667 1.624-5.662 2.175l-1.257.357c-.876.248-1.753.494-2.631.738-1.332.37-2.662.749-3.992 1.129l-2.565.721-1.192.339c-2.491.687-4.935 1.118-7.482 1.403-2.028-4.669-3.95-9.374-5.681-14.211l-.464-1.275c-.995-2.825-1.645-5.611-2.119-8.622h.918l.603 1.599a5170.99 5170.99 0 0 0 2.239 5.915l.964 2.553c.464 1.229.929 2.457 1.395 3.684l.428 1.139c.925 2.428 1.96 4.727 3.095 7.026 9.612-2.499 9.612-2.499 19.169-5.273l.991-.281c1.436-.463 2.253-.91 3.263-2.232.58-1.959.279-3.341-.007-5.363-2.363.591-4.726 1.185-7.088 1.78l-1.051.265c-4.491 1.131-8.968 2.298-13.419 3.637l-1.399.345-1.198.327c-1.333-.398-1.478-.735-2.224-2.07-1.488-3.154-2.643-6.496-3.809-9.832l-.687-1.916c-.999-2.83-1.837-5.366-2.183-8.426 1.429-1.035 2.101-1.239 3.673-.548ZM79.607 92.87c3.663 4.14 5.017 9.285 5.183 15.172-.115 5.532-1.572 10.252-4.792 14.28-1.16 1.238-2.366 2.284-3.673 3.288l-.793.65c-3.503 2.505-8.713 3.118-12.694 2.329-4.654-1.484-7.982-4.093-10.501-9.032-2.449-5.522-3.048-12.01-1.851-18.1 1.325-4.167 3.193-7.724 6.555-9.818l1.378.548-.976 1.062c-3.539 4.259-5.47 9.048-5.653 15.033.116 5.649 1.849 10.661 5.223 14.657 2.648 2.594 6.158 3.525 9.498 4.006 4.05-.626 8.663-1.929 11.523-5.652.985-1.952.9-3.888.587-6.094-.959-1.537-1.874-2.221-3.214-3.287.103-2.087.582-2.991 1.836-4.349 1.1-1.22 1.365-1.627 1.808-3.424.102-1.586.102-1.586-.43-3.185-.992-.525-.992-.525-2.181-.856-1.62-.526-3.163-1.086-4.706-1.884a18119.289 18119.289 0 0 0-.045-4.066c.04-1.293.197-2.369.504-3.604-3.742-.582-7.27-.463-11.02 0V88.9c6.964-1.622 12.727-1.443 18.434 3.97Z"/>
  <path fill="#494A4A" d="M58.878 101.502c2.263.231 3.03 1.424 4.591 3.287 1.748 1.12 2.888 1.644 4.878 1.644 1.76 0 2.527.261 3.846 1.643.315 1.302.315 1.302 0 2.74-1.195 1.426-2.38 2.46-3.81 3.527-2.258 1.691-3.37 2.791-4.455 5.788-1.44 1.304-2.823 1.359-4.591 1.095-1.09-.822-1.09-.822-1.837-2.191-.15-1.512-.085-2.852 0-4.384l-1.55-.205c-1.664-.342-1.664-.342-2.582-1.438.062-2.679 1.272-4.134 2.755-6.027l1.004-.788c1.256-1.292 1.394-2.812 1.75-4.691ZM78.62 125.61c-.384 4.052-1.535 6.638-4.132 9.314-3.28 2.206-6.463 2.6-10.052 1.494-2.457-1.012-4.134-2.78-5.558-5.329-.574-1.815-.574-1.815-.919-3.288 1.328.297 2.581.653 3.874 1.13 4.778 1.407 9.587.778 14.033-1.678 1.86-1.643 1.86-1.643 2.755-1.643Zm104.226 23.012 1.377.548c.439 1.573.518 2.572.52 4.205l.002 1.513-.005 1.576.005 1.557-.002 1.518-.001 1.377c-.06 1.404-.06 1.404-.286 2.98-.255 1.873-.315 3.667-.346 5.564l-.044 2.254-.021 1.18c-.583 30.841-.583 30.841-5.267 37.147-2.926 3.196-5.324 4.024-9.265 3.966-1.93-.261-3.017-1.024-4.574-2.375v-1.096c2.181.479 2.181.479 3.214 1.096 2.89.354 5.314.179 7.918-1.392 4.787-4.757 5.1-14.912 5.637-21.807.32-4.705.368-9.425.438-14.143.073-4.667.268-9.167.959-13.778.536-3.969.129-7.924-.259-11.89Z"/>
  <path fill="#494A4A" d="M173.204 115.747c3.529.176 5.511 2.237 7.977 5.103 1.225 2.418 1.845 4.805 1.525 7.645-.589 2.481-1.506 4.166-2.902 6.121-1.782 2.533-2.049 4.73-2.009 7.979l1.263.171c1.501.379 2.198.827 3.328 2.021l-.258.924c-.268 1.257-.268 1.257 0 2.466.362 2.159.294 4.277.258 6.472l-1.377.548c-.166-1.541-.328-3.082-.488-4.623l-.144-1.333a117.565 117.565 0 0 1-.286-3.359l.459-.548c-1.441-.859-2.543-.74-4.132-.547-1.451 1.392-2.165 2.271-2.755 4.383a123.443 123.443 0 0 0-.259 3.39l-.116 1.804-.084 1.381h-.919c-.907-3.249-.744-6.785.459-9.863 1.014-1.36 1.846-2.471 3.214-3.287.146-1.182.146-1.182.173-2.568.179-2.642.698-4.109 2.123-6.199 1.996-2.734 1.996-2.734 2.809-6.108-.263-2.883-.69-4.806-2.35-7.042-1.729-1.525-3.583-2.706-5.509-3.835v-1.096Zm-76.218 52.6.919.548c-.677 2.762-1.701 5.076-2.87 7.568-3.71 8.154-6.93 17.532-5.395 26.95.826 2.854 1.903 4.071 4.132 5.479 2.335.805 4.521.408 6.887 0v1.096c-3.096 1.66-5.505 1.978-8.723.548-2.313-1.502-3.3-3.647-4.132-6.575-2.647-11.199 3.487-24.113 7.782-33.577.482-.941.482-.941 1.4-2.037Zm21.58-29.039v1.643l-.923.01c-3.173.035-6.346.081-9.519.134-1.183.018-2.367.034-3.551.046-1.703.019-3.405.047-5.108.078l-1.6.01c-3.646.023-3.646.023-6.847 1.914-.62 1.33-.62 1.33-.872 2.902l-.35 1.729-.328 1.807-.36 1.781c-.582 2.978-.999 5.708-.845 8.766 1.24.74 2.35.734 3.73.856l1.525.139 1.173.101v1.096c-2.605.499-4.747.588-7.347 0-.918-1.096-.918-1.096-1.042-3.247.06-3.061.595-5.941 1.186-8.91l.297-1.591c1.33-6.853 1.33-6.853 3.107-8.238 1.301-.596 2.39-.656 3.784-.705l1.668-.065 1.79-.051 1.835-.063c6.198-.202 12.397-.199 18.597-.142Z"/>
  <path fill="#494A4A" d="M101.119 143.691h.918v1.643c.832-.062 1.665-.132 2.497-.205l1.404-.116 1.149-.227.46-1.095h.918v1.643h4.132v-1.096h1.378v1.096h3.214v1.096h-3.214v5.479h4.591v1.644h-5.051v1.644h-.918v-1.644l-4.591-.548v-1.096h4.591v-4.931l-2.037.205-1.146.116-.949.227-.459 1.096h-.919v-1.644h-5.509l-.459 1.644-.459-1.644h-4.592l-.459 2.74h-.918v-2.74h-1.837v-1.644l3.673-1.096v1.096c.68-.062 1.359-.132 2.038-.205l1.146-.116.949-.227.459-1.095Zm-27.102 38.864c1.715.005 3.43.008 5.145.011 3.34.005 6.68.015 10.019.026v1.644c-7.861.437-15.707.636-23.577.619-1.713-.003-3.426 0-5.139.004l-3.28-.002-1.546.003-1.415-.005-1.245-.002c-.988-.069-.988-.069-1.907-.617v-1.096c7.644-.661 15.286-.614 22.945-.585Zm66.63-101.935h1.476l1.599.008 1.633.002c1.726.003 3.452.01 5.179.017l3.504.007c2.869.007 5.737.016 8.605.027v2.192c-2.329.457-4.588.629-6.949.62l-1.059.002c-.736 0-1.472 0-2.207-.003-1.109-.003-2.217 0-3.325.004-3.927.002-7.803-.118-11.712-.623v-1.644c1.16-.692 1.957-.614 3.256-.61ZM159.2 140.3c1.785 3.107 1.451 7.435 1.607 11.061l.049 1.125c.043 1.109.071 2.217.094 3.327l.052 2.025c-.195 1.742-.195 1.742-.895 2.933-1.569 1.381-2.96 1.277-4.831 1.215l-1.073-.01a238.139 238.139 0 0 1-3.382-.067 880.36 880.36 0 0 0-2.298-.03 502.607 502.607 0 0 1-5.623-.107v-1.096l1.426-.092c1.74-.113 3.479-.229 5.219-.346.754-.051 1.508-.1 2.262-.148 1.081-.07 2.163-.143 3.244-.217l1.028-.064c1.581.047 1.581.047 2.891-.777.559-9.036.559-9.036-1.42-17.428-1.373-1.024-2.831-.968-4.405-1.03l-.977-.056c-.793-.045-1.587-.081-2.381-.115v-1.096c6.905-1.177 6.905-1.177 9.413.993Zm-41.61-60.201 2.434.007c1.963.006 3.925.016 5.888.027l.459 1.644c-.918 1.096-.918 1.096-1.9 1.227l-1.23-.007h-1.392l-1.507-.017-1.541-.005c-1.628-.006-3.256-.02-4.884-.034l-3.305-.015c-2.706-.012-5.411-.03-8.116-.053l-.459-2.192c5.193-.568 10.343-.613 15.553-.582Zm68.01 102.493h34.895v1.644c-4.346.013-8.693.022-13.039.028-2.018.003-4.036.007-6.054.013-1.947.006-3.894.01-5.841.011-.743.001-1.487.003-2.23.006-1.04.004-2.08.004-3.12.004l-1.795.004c-1.438-.066-1.438-.066-2.816-.614v-1.096ZM58.419 86.708a48.616 48.616 0 0 1 2.18 3.493l.573.959c1.05 1.824 1.379 2.585 1.379 4.863-1.967-.836-2.693-2.405-3.788-4.452l-.983-1.82-.739-1.399c-3.302 1.48-5.059 3.383-6.537 7.142-.713 2.195-.861 4.06-.838 6.419l.013 1.635.016 1.241h-.918c-1.222-2.916-.81-7.312-.076-10.356 1.488-3.867 3.77-6.494 6.848-8.58 1.366-.318 1.709-.06 2.87.855Zm111.571 65.749h.918l.02 1.184c.125 3.698.125 3.698 1.616 6.829 1.75 2.512 1.212 5.471.993 8.55a459.655 459.655 0 0 1-.534 5.867l-.188 2.043c-.47 4.971-.47 4.971-.989 6.21h-.918c-.123-4.242.11-8.329.592-12.525.675-4.86.675-4.86-.563-9.289l-.947-1.198c-.456-1.632-.521-2.748-.517-4.452l-.003-1.477c.06-1.194.06-1.194.52-1.742Zm-62.913-66.35.953.002c1.006.003 2.012.01 3.018.017l2.044.008c1.672.006 3.343.015 5.015.026v2.192c-10.466 1.048-10.466 1.048-15.152 0v-1.644c1.365-.814 2.6-.609 4.122-.601Zm30.773.053h14.692l.459 2.192H137.85V86.16Z"/>
  <path fill="#494A4A" d="M153.001 144.239c1.579.445 1.579.445 3.214 1.095l.46 1.644h-2.296v5.479h2.755l-.459 1.644h-1.837v1.644l-1.377-.548v-1.096h-5.51v-1.096c1.861-.538 3.599-.592 5.51-.548l-.46-5.479h-1.836l.459-1.644h1.377v-1.095Zm-43.159 14.245h.919c.165 2.778.258 4.863-.804 7.397-1.033 1.37-1.033 1.37-2 1.86l-.87.605c-.271 1.071-.271 1.071-.258 2.295-.135 2.494-.661 4.235-1.578 6.472h-.918c.214-1.328.434-2.654.661-3.979.156-.912.305-1.827.442-2.744.331-1.972.615-3.006 1.852-4.406 1.727-2.161 2.037-4.635 2.554-7.5Zm11.565-16.231.832.342v1.644l-1.836-.548c.176 3.108.377 4.834 2.295 7.123l.918.548v1.643c-1.578-.157-2.177-.402-3.3-1.78-1.246-2.258-1.781-3.52-1.664-6.267.416-2.026.861-3.093 2.755-2.705Zm-8.81 18.971h13.774l-.459 1.644c-8.88.105-8.88.105-13.315-.548v-1.096Zm-16.988-7.671h.918l.068 1.543c.178 3.497.419 6.633 1.31 9.963.057 1.61.057 1.61 0 2.74-1.901-1.815-2.457-3.777-2.755-6.575-.246-5.99-.246-5.99.459-7.671Zm48.669-44.381h10.56l-.459 1.644h-9.642l-.459-1.644Zm11.019-13.697v1.095c-1.067.637-1.697.619-2.884.621l-1.171.002-1.225-.006-1.225.006a21238.573 21238.573 0 0 0-2.246-.004c-.891-.07-.891-.07-1.809-.619v-1.095c1.588-.108 3.175-.209 4.764-.309l1.37-.093 1.309-.08 1.21-.078c.989.012.989.012 1.907.56Zm-44.536 0h10.101l-.459 1.643h-9.642v-1.643Zm0 13.149h11.019v1.096c-2.29.447-4.473.622-6.801.617l-1.817.004c-1.483-.073-1.483-.073-2.401-.621v-1.096Zm64.738 37.806h.919c.037 1.382.064 2.762.086 4.144l.035 1.17c.033 2.839-.433 4.747-1.499 7.288h-.918l1.377-12.602Zm-70.248 4.384h1.377l-.317 1.423c-1.021 4.751-1.021 4.751-.601 9.535-.89-.343-.89-.343-1.837-1.096-.798-2.789-.287-5.482.46-8.219l.918-1.643Zm-2.296-2.74 1.378.548-.37.924c-1.076 2.774-1.839 5.404-2.385 8.39h-.918c-.257-3.668.174-6.192 1.836-9.314l.459-.548Zm45.46-46.078 1.054.005 1.093.014 1.11.008c.902.006 1.804.016 2.707.026v1.096c-1.243.495-1.946.613-3.219.602l-1.054-.006-1.093-.014-1.11-.007c-.902-.006-1.804-.016-2.707-.027v-1.096c1.243-.494 1.946-.612 3.219-.601Zm-20.207 58.132h.918c.151 3.302-.051 6.339-1.377 9.314l-1.378.548c.477-3.348.991-6.617 1.837-9.862Zm-12.54-58.113.976.008c.794.006 1.587.016 2.381.026l.459 1.644h-8.723v-1.096c1.661-.661 3.179-.607 4.907-.582Zm24.937 58.113h.918c.309 1.232.614 2.465.918 3.698l.517 2.081c.402 1.892.402 1.892.402 4.083h-.919c-1.317-3.425-2.071-6.08-1.836-9.862Zm37.19-14.794 1.377.548c.584 1.735.507 3.494.488 5.342l-.012 1.636-.016 1.241-1.378.548-.459-9.315Zm-79.431 3.836h.918l-.1 1.462-.13 1.928-.129 1.907a67.22 67.22 0 0 0-.1 4.565h-1.377a383.24 383.24 0 0 1-.058-3.39l-.032-1.907c.087-1.78.368-2.969 1.008-4.565Zm42.7-48.764h1.377c-.274 1.833-.725 3.057-1.836 4.383-1.177.206-1.177.206-2.296 0l-.918-1.096v-1.643l2.295.548.603-1.096.775-1.096Zm-33.977-6.576h1.378c-.603 2.158-1.34 3.413-2.755 4.932a51.075 51.075 0 0 1-2.296-2.192v-1.095l1.32.102 1.435-.102.918-1.644Zm90.451 38.903 1.837.547c.114 4.178.114 4.178-.919 6.027h-1.377l.459-1.643c.031-.856.039-1.713.029-2.569l-.013-1.342-.016-1.02Zm20.202-23.561h.918l.201 2.055c.161 1.542.352 3.025.718 4.52-.89-.171-.89-.171-1.837-.548-.535-1.914-.521-3.471-.459-5.479l.459-.548Zm-112.489-7.122h1.377l.459 2.191-2.295.548c0-2.191 0-2.191.459-2.739Zm33.976-7.671 1.378 1.096-.459 2.191-1.837-.547v-2.192l.918-.548Zm-33.517 14.245 1.837.548-.46 2.192-1.836-.548.459-2.192Zm32.599.548h1.837v2.192l-2.296-.548.459-1.644Z"/>
  <ellipse cx="234" cy="34" fill="#fff" fill-opacity=".4" rx="32" ry="34"/>
</svg>
